<svg xmlns="http://www.w3.org/2000/svg" xmlns:xlink="http://www.w3.org/1999/xlink" contentStyleType="text/css" data-diagram-type="ACTIVITY" height="422px" preserveAspectRatio="none" style="width:515px;height:422px;background:#FFFFFF;" version="1.1" viewBox="0 0 515 422" width="515px" zoomAndPan="magnify"><title>Ho&#7841;t &#273;&#7897;ng &#272;&#259;ng nh&#7853;p - Admin</title><defs/><g><g class="title" data-source-line="1"><text fill="#000000" font-family="sans-serif" font-size="14" font-weight="bold" lengthAdjust="spacing" textLength="238.0615" x="137.146" y="32.9951">Ho&#7841;t &#273;&#7897;ng &#272;&#259;ng nh&#7853;p - Admin</text></g><ellipse cx="301.2925" cy="57.2969" fill="#222222" rx="10" ry="10" style="stroke:#222222;stroke-width:1;"/><rect fill="#F1F1F1" height="33.9688" rx="12.5" ry="12.5" style="stroke:#181818;stroke-width:0.5;" width="225.7988" x="188.3931" y="87.2969"/><text fill="#000000" font-family="sans-serif" font-size="12" lengthAdjust="spacing" textLength="205.7988" x="198.3931" y="108.4355">Nh&#7853;p t&#234;n ng&#432;&#7901;i d&#249;ng v&#224; m&#7853;t kh&#7849;u</text><rect fill="#F1F1F1" height="33.9688" rx="12.5" ry="12.5" style="stroke:#181818;stroke-width:0.5;" width="155.9961" x="223.2944" y="141.2656"/><text fill="#000000" font-family="sans-serif" font-size="12" lengthAdjust="spacing" textLength="135.9961" x="233.2944" y="162.4043">Nh&#7845;n n&#250;t "&#272;&#259;ng nh&#7853;p"</text><rect fill="#F1F1F1" height="33.9688" rx="12.5" ry="12.5" style="stroke:#181818;stroke-width:0.5;" width="182.2988" x="210.1431" y="195.2344"/><text fill="#000000" font-family="sans-serif" font-size="12" lengthAdjust="spacing" textLength="162.2988" x="220.1431" y="216.373">G&#7917;i th&#244;ng tin &#273;&#7871;n h&#7879; th&#7889;ng</text><polygon fill="#F1F1F1" points="253.5166,249.2031,349.0684,249.2031,361.0684,261.2031,349.0684,273.2031,253.5166,273.2031,241.5166,261.2031,253.5166,249.2031" style="stroke:#181818;stroke-width:0.5;"/><text fill="#000000" font-family="sans-serif" font-size="11" lengthAdjust="spacing" textLength="95.5518" x="253.5166" y="265.0112">Th&#244;ng tin h&#7907;p l&#7879;?</text><text fill="#000000" font-family="sans-serif" font-size="11" lengthAdjust="spacing" textLength="12.7778" x="228.7388" y="258.6089">c&#243;</text><text fill="#000000" font-family="sans-serif" font-size="11" lengthAdjust="spacing" textLength="34.0259" x="361.0684" y="258.6089">kh&#244;ng</text><rect fill="#F1F1F1" height="33.9688" rx="12.5" ry="12.5" style="stroke:#181818;stroke-width:0.5;" width="144.166" x="100.8711" y="283.2031"/><text fill="#000000" font-family="sans-serif" font-size="12" lengthAdjust="spacing" textLength="124.166" x="110.8711" y="304.3418">X&#225;c th&#7921;c th&#224;nh c&#244;ng</text><rect fill="#F1F1F1" height="33.9688" rx="12.5" ry="12.5" style="stroke:#181818;stroke-width:0.5;" width="323.9082" x="11" y="337.1719"/><text fill="#000000" font-family="sans-serif" font-size="12" lengthAdjust="spacing" textLength="303.9082" x="21" y="358.3105">Truy c&#7853;p giao di&#7879;n ng&#432;&#7901;i d&#249;ng (Admin Dashboard)</text><ellipse cx="172.9541" cy="401.1406" fill="none" rx="10" ry="10" style="stroke:#222222;stroke-width:1.5;"/><line style="stroke:#222222;stroke-width:2.5;" x1="166.7669" x2="179.1413" y1="394.9534" y2="407.3278"/><line style="stroke:#222222;stroke-width:2.5;" x1="179.1413" x2="166.7669" y1="394.9534" y2="407.3278"/><rect fill="#F1F1F1" height="33.9688" rx="12.5" ry="12.5" style="stroke:#181818;stroke-width:0.5;" width="149.4453" x="354.9082" y="283.2031"/><text fill="#000000" font-family="sans-serif" font-size="12" lengthAdjust="spacing" textLength="129.4453" x="364.9082" y="304.3418">Hi&#7875;n th&#7883; th&#244;ng b&#225;o l&#7895;i</text><rect fill="#F1F1F1" height="33.9688" rx="12.5" ry="12.5" style="stroke:#181818;stroke-width:0.5;" width="127.5371" x="365.8623" y="337.1719"/><text fill="#000000" font-family="sans-serif" font-size="12" lengthAdjust="spacing" textLength="107.5371" x="375.8623" y="358.3105">Nh&#7853;p l&#7841;i th&#244;ng tin</text><ellipse cx="429.6309" cy="401.1406" fill="none" rx="10" ry="10" style="stroke:#222222;stroke-width:1.5;"/><line style="stroke:#222222;stroke-width:2.5;" x1="423.4437" x2="435.818" y1="394.9534" y2="407.3278"/><line style="stroke:#222222;stroke-width:2.5;" x1="435.818" x2="423.4437" y1="394.9534" y2="407.3278"/><line style="stroke:#181818;stroke-width:1;" x1="301.2925" x2="301.2925" y1="67.2969" y2="87.2969"/><polygon fill="#181818" points="297.2925,77.2969,301.2925,87.2969,305.2925,77.2969,301.2925,81.2969" style="stroke:#181818;stroke-width:1;"/><line style="stroke:#181818;stroke-width:1;" x1="301.2925" x2="301.2925" y1="121.2656" y2="141.2656"/><polygon fill="#181818" points="297.2925,131.2656,301.2925,141.2656,305.2925,131.2656,301.2925,135.2656" style="stroke:#181818;stroke-width:1;"/><line style="stroke:#181818;stroke-width:1;" x1="301.2925" x2="301.2925" y1="175.2344" y2="195.2344"/><polygon fill="#181818" points="297.2925,185.2344,301.2925,195.2344,305.2925,185.2344,301.2925,189.2344" style="stroke:#181818;stroke-width:1;"/><line style="stroke:#181818;stroke-width:1;" x1="172.9541" x2="172.9541" y1="317.1719" y2="337.1719"/><polygon fill="#181818" points="168.9541,327.1719,172.9541,337.1719,176.9541,327.1719,172.9541,331.1719" style="stroke:#181818;stroke-width:1;"/><line style="stroke:#181818;stroke-width:1;" x1="172.9541" x2="172.9541" y1="371.1406" y2="391.1406"/><polygon fill="#181818" points="168.9541,381.1406,172.9541,391.1406,176.9541,381.1406,172.9541,385.1406" style="stroke:#181818;stroke-width:1;"/><line style="stroke:#181818;stroke-width:1;" x1="429.6309" x2="429.6309" y1="317.1719" y2="337.1719"/><polygon fill="#181818" points="425.6309,327.1719,429.6309,337.1719,433.6309,327.1719,429.6309,331.1719" style="stroke:#181818;stroke-width:1;"/><line style="stroke:#181818;stroke-width:1;" x1="429.6309" x2="429.6309" y1="371.1406" y2="391.1406"/><polygon fill="#181818" points="425.6309,381.1406,429.6309,391.1406,433.6309,381.1406,429.6309,385.1406" style="stroke:#181818;stroke-width:1;"/><line style="stroke:#181818;stroke-width:1;" x1="241.5166" x2="172.9541" y1="261.2031" y2="261.2031"/><line style="stroke:#181818;stroke-width:1;" x1="172.9541" x2="172.9541" y1="261.2031" y2="283.2031"/><polygon fill="#181818" points="168.9541,273.2031,172.9541,283.2031,176.9541,273.2031,172.9541,277.2031" style="stroke:#181818;stroke-width:1;"/><line style="stroke:#181818;stroke-width:1;" x1="361.0684" x2="429.6309" y1="261.2031" y2="261.2031"/><line style="stroke:#181818;stroke-width:1;" x1="429.6309" x2="429.6309" y1="261.2031" y2="283.2031"/><polygon fill="#181818" points="425.6309,273.2031,429.6309,283.2031,433.6309,273.2031,429.6309,277.2031" style="stroke:#181818;stroke-width:1;"/><line style="stroke:#181818;stroke-width:1;" x1="301.2925" x2="301.2925" y1="229.2031" y2="249.2031"/><polygon fill="#181818" points="297.2925,239.2031,301.2925,249.2031,305.2925,239.2031,301.2925,243.2031" style="stroke:#181818;stroke-width:1;"/><!--SRC=[PL2xJiD04EplAqQfx88VY0k4X4GggXIqZi-nJt7MaNr1eav1GKCgH84K2r6050a43NP1SHR_SN_2teMdg5QQdPcTMQrqaM9KshRHwDUskwOC_MM_ua6vRRSBxE50pXK9KUkuqc9ul8ErUI1Gzlvekni5QLvPSMescFDMOyQa-sMqOzynqRGQWp_60zuUsMwhe7Fpmh1Mv2AqRuJSTkSCssvDMII4cY8O_v0OlrsWOCv-oAoK42JcEHJ0yCGqYHS-kM4sb2DnkiWjnzNo38bFdwcuX5HiyQz4uElYCAxpIHbNCdJQbAH8Ypf5CFCv_B4HwrVaprrybPYOfdJHhfG_-VciWl_xk-Ut9Kar_G00]--></g></svg>