<svg xmlns="http://www.w3.org/2000/svg" xmlns:xlink="http://www.w3.org/1999/xlink" contentStyleType="text/css" data-diagram-type="ACTIVITY" height="466px" preserveAspectRatio="none" style="width:394px;height:466px;background:#FFFFFF;" version="1.1" viewBox="0 0 394 466" width="394px" zoomAndPan="magnify"><title>Ho&#7841;t &#273;&#7897;ng &#272;&#259;ng nh&#7853;p</title><defs/><g><g class="title" data-source-line="1"><text fill="#000000" font-family="sans-serif" font-size="14" font-weight="bold" lengthAdjust="spacing" textLength="172.293" x="109.6494" y="32.9951">Ho&#7841;t &#273;&#7897;ng &#272;&#259;ng nh&#7853;p</text></g><ellipse cx="210.7212" cy="57.2969" fill="#222222" rx="10" ry="10" style="stroke:#222222;stroke-width:1;"/><rect fill="#F1F1F1" height="33.9688" rx="12.5" ry="12.5" style="stroke:#181818;stroke-width:0.5;" width="225.7988" x="97.8218" y="87.2969"/><text fill="#000000" font-family="sans-serif" font-size="12" lengthAdjust="spacing" textLength="205.7988" x="107.8218" y="108.4355">Nh&#7853;p t&#234;n ng&#432;&#7901;i d&#249;ng v&#224; m&#7853;t kh&#7849;u</text><rect fill="#F1F1F1" height="33.9688" rx="12.5" ry="12.5" style="stroke:#181818;stroke-width:0.5;" width="155.9961" x="132.7231" y="141.2656"/><text fill="#000000" font-family="sans-serif" font-size="12" lengthAdjust="spacing" textLength="135.9961" x="142.7231" y="162.4043">Nh&#7845;n n&#250;t "&#272;&#259;ng nh&#7853;p"</text><rect fill="#F1F1F1" height="33.9688" rx="12.5" ry="12.5" style="stroke:#181818;stroke-width:0.5;" width="182.2988" x="119.5718" y="195.2344"/><text fill="#000000" font-family="sans-serif" font-size="12" lengthAdjust="spacing" textLength="162.2988" x="129.5718" y="216.373">G&#7917;i th&#244;ng tin &#273;&#7871;n h&#7879; th&#7889;ng</text><polygon fill="#F1F1F1" points="162.9453,249.2031,258.4971,249.2031,270.4971,261.2031,258.4971,273.2031,162.9453,273.2031,150.9453,261.2031,162.9453,249.2031" style="stroke:#181818;stroke-width:0.5;"/><text fill="#000000" font-family="sans-serif" font-size="11" lengthAdjust="spacing" textLength="95.5518" x="162.9453" y="265.0112">Th&#244;ng tin h&#7907;p l&#7879;?</text><text fill="#000000" font-family="sans-serif" font-size="11" lengthAdjust="spacing" textLength="12.7778" x="138.1675" y="258.6089">c&#243;</text><text fill="#000000" font-family="sans-serif" font-size="11" lengthAdjust="spacing" textLength="34.0259" x="270.4971" y="258.6089">kh&#244;ng</text><rect fill="#F1F1F1" height="33.9688" rx="12.5" ry="12.5" style="stroke:#181818;stroke-width:0.5;" width="144.166" x="40.4902" y="283.2031"/><text fill="#000000" font-family="sans-serif" font-size="12" lengthAdjust="spacing" textLength="124.166" x="50.4902" y="304.3418">X&#225;c th&#7921;c th&#224;nh c&#244;ng</text><rect fill="#F1F1F1" height="33.9688" rx="12.5" ry="12.5" style="stroke:#181818;stroke-width:0.5;" width="203.1465" x="11" y="337.1719"/><text fill="#000000" font-family="sans-serif" font-size="12" lengthAdjust="spacing" textLength="183.1465" x="21" y="358.3105">Truy c&#7853;p giao di&#7879;n ng&#432;&#7901;i d&#249;ng</text><rect fill="#F1F1F1" height="33.9688" rx="12.5" ry="12.5" style="stroke:#181818;stroke-width:0.5;" width="149.4453" x="234.1465" y="283.2031"/><text fill="#000000" font-family="sans-serif" font-size="12" lengthAdjust="spacing" textLength="129.4453" x="244.1465" y="304.3418">Hi&#7875;n th&#7883; th&#244;ng b&#225;o l&#7895;i</text><rect fill="#F1F1F1" height="33.9688" rx="12.5" ry="12.5" style="stroke:#181818;stroke-width:0.5;" width="127.5371" x="245.1006" y="337.1719"/><text fill="#000000" font-family="sans-serif" font-size="12" lengthAdjust="spacing" textLength="107.5371" x="255.1006" y="358.3105">Nh&#7853;p l&#7841;i th&#244;ng tin</text><ellipse cx="308.8691" cy="402.1406" fill="none" rx="11" ry="11" style="stroke:#222222;stroke-width:1;"/><ellipse cx="308.8691" cy="402.1406" fill="#222222" rx="6" ry="6" style="stroke:#222222;stroke-width:1;"/><ellipse cx="210.7212" cy="444.1406" fill="none" rx="11" ry="11" style="stroke:#222222;stroke-width:1;"/><ellipse cx="210.7212" cy="444.1406" fill="#222222" rx="6" ry="6" style="stroke:#222222;stroke-width:1;"/><line style="stroke:#181818;stroke-width:1;" x1="210.7212" x2="210.7212" y1="67.2969" y2="87.2969"/><polygon fill="#181818" points="206.7212,77.2969,210.7212,87.2969,214.7212,77.2969,210.7212,81.2969" style="stroke:#181818;stroke-width:1;"/><line style="stroke:#181818;stroke-width:1;" x1="210.7212" x2="210.7212" y1="121.2656" y2="141.2656"/><polygon fill="#181818" points="206.7212,131.2656,210.7212,141.2656,214.7212,131.2656,210.7212,135.2656" style="stroke:#181818;stroke-width:1;"/><line style="stroke:#181818;stroke-width:1;" x1="210.7212" x2="210.7212" y1="175.2344" y2="195.2344"/><polygon fill="#181818" points="206.7212,185.2344,210.7212,195.2344,214.7212,185.2344,210.7212,189.2344" style="stroke:#181818;stroke-width:1;"/><line style="stroke:#181818;stroke-width:1;" x1="112.5732" x2="112.5732" y1="317.1719" y2="337.1719"/><polygon fill="#181818" points="108.5732,327.1719,112.5732,337.1719,116.5732,327.1719,112.5732,331.1719" style="stroke:#181818;stroke-width:1;"/><line style="stroke:#181818;stroke-width:1;" x1="308.8691" x2="308.8691" y1="317.1719" y2="337.1719"/><polygon fill="#181818" points="304.8691,327.1719,308.8691,337.1719,312.8691,327.1719,308.8691,331.1719" style="stroke:#181818;stroke-width:1;"/><line style="stroke:#181818;stroke-width:1;" x1="308.8691" x2="308.8691" y1="371.1406" y2="391.1406"/><polygon fill="#181818" points="304.8691,381.1406,308.8691,391.1406,312.8691,381.1406,308.8691,385.1406" style="stroke:#181818;stroke-width:1;"/><line style="stroke:#181818;stroke-width:1;" x1="150.9453" x2="112.5732" y1="261.2031" y2="261.2031"/><line style="stroke:#181818;stroke-width:1;" x1="112.5732" x2="112.5732" y1="261.2031" y2="283.2031"/><polygon fill="#181818" points="108.5732,273.2031,112.5732,283.2031,116.5732,273.2031,112.5732,277.2031" style="stroke:#181818;stroke-width:1;"/><line style="stroke:#181818;stroke-width:1;" x1="270.4971" x2="308.8691" y1="261.2031" y2="261.2031"/><line style="stroke:#181818;stroke-width:1;" x1="308.8691" x2="308.8691" y1="261.2031" y2="283.2031"/><polygon fill="#181818" points="304.8691,273.2031,308.8691,283.2031,312.8691,273.2031,308.8691,277.2031" style="stroke:#181818;stroke-width:1;"/><line style="stroke:#181818;stroke-width:1;" x1="112.5732" x2="112.5732" y1="371.1406" y2="418.1406"/><line style="stroke:#181818;stroke-width:1;" x1="112.5732" x2="210.7212" y1="418.1406" y2="418.1406"/><line style="stroke:#181818;stroke-width:1;" x1="210.7212" x2="210.7212" y1="418.1406" y2="433.1406"/><polygon fill="#181818" points="206.7212,423.1406,210.7212,433.1406,214.7212,423.1406,210.7212,427.1406" style="stroke:#181818;stroke-width:1;"/><line style="stroke:#181818;stroke-width:1;" x1="210.7212" x2="210.7212" y1="229.2031" y2="249.2031"/><polygon fill="#181818" points="206.7212,239.2031,210.7212,249.2031,214.7212,239.2031,210.7212,243.2031" style="stroke:#181818;stroke-width:1;"/><!--SRC=[NP0zJiD048NxFSLJAkSASP6IL5GfQ8EziLSnOokU856dI453AaI150jHW1G910rsGR4MzzYRCBi4yLFDxhnltlomuK9ZKhgsOVHRrzrGXlwgNqkWtBNxIjKyMx8Q7OSVs3uIAFjuSjsjGMhV13otEvo9obW8zB2Al-Xx0MtB6Fpn6uXwvBgz0UVsLT9io7TktmcvwpQITjsMibYPEQBf3oFfkmg58EEXG9eG9VPbg83HYMsIKFViWzrHZiJNnLwSBbSNICBmcPcLI8rO_DyXLhgeDQ95w1TC9yAjATXUVizwQflIZt1jWlNX9eLSx_SwNgkvh9IcrCoLVtu2]--></g></svg>