<svg xmlns="http://www.w3.org/2000/svg" xmlns:xlink="http://www.w3.org/1999/xlink" contentStyleType="text/css" data-diagram-type="ACTIVITY" height="571px" preserveAspectRatio="none" style="width:835px;height:571px;background:#FFFFFF;" version="1.1" viewBox="0 0 835 571" width="835px" zoomAndPan="magnify"><title>Ho&#7841;t &#273;&#7897;ng Xem BXH &amp; &#272;&#225;nh gi&#225;</title><defs/><g><g class="title" data-source-line="1"><text fill="#000000" font-family="sans-serif" font-size="14" font-weight="bold" lengthAdjust="spacing" textLength="251.9932" x="290.0806" y="32.9951">Ho&#7841;t &#273;&#7897;ng Xem BXH &amp; &#272;&#225;nh gi&#225;</text></g><ellipse cx="361.4478" cy="57.2969" fill="#222222" rx="10" ry="10" style="stroke:#222222;stroke-width:1;"/><rect fill="#F1F1F1" height="33.9688" rx="12.5" ry="12.5" style="stroke:#181818;stroke-width:0.5;" width="165.1426" x="278.8765" y="87.2969"/><text fill="#000000" font-family="sans-serif" font-size="12" lengthAdjust="spacing" textLength="145.1426" x="288.8765" y="108.4355">Ch&#7885;n m&#7897;t game &#273;&#7875; xem</text><rect fill="none" height="387.1719" style="stroke:#000000;stroke-width:1.5;" width="813.1543" x="11" y="131.2656"/><path d="M161.9639,131.2656 L161.9639,140.5625 L151.9639,150.5625 L11,150.5625" fill="none" style="stroke:#000000;stroke-width:1.5;"/><text fill="#000000" font-family="sans-serif" font-size="14" lengthAdjust="spacing" textLength="140.9639" x="14" y="145.2607">L&#7921;a ch&#7885;n ch&#7913;c n&#259;ng</text><polygon fill="#F1F1F1" points="286.7654,167.5625,436.1301,167.5625,448.1301,179.5625,436.1301,191.5625,286.7654,191.5625,274.7654,179.5625,286.7654,167.5625" style="stroke:#181818;stroke-width:0.5;"/><text fill="#000000" font-family="sans-serif" font-size="11" lengthAdjust="spacing" textLength="149.3647" x="286.7654" y="183.3706">Ch&#7885;n Xem B&#7843;ng x&#7871;p h&#7841;ng?</text><text fill="#000000" font-family="sans-serif" font-size="11" lengthAdjust="spacing" textLength="12.7778" x="261.9875" y="176.9683">c&#243;</text><text fill="#000000" font-family="sans-serif" font-size="11" lengthAdjust="spacing" textLength="34.0259" x="448.1301" y="176.9683">kh&#244;ng</text><rect fill="#F1F1F1" height="33.9688" rx="12.5" ry="12.5" style="stroke:#181818;stroke-width:0.5;" width="268.1738" x="23" y="201.5625"/><text fill="#000000" font-family="sans-serif" font-size="12" lengthAdjust="spacing" textLength="248.1738" x="33" y="222.7012">H&#7879; th&#7889;ng truy v&#7845;n d&#7919; li&#7879;u B&#7843;ng x&#7871;p h&#7841;ng</text><rect fill="#F1F1F1" height="33.9688" rx="12.5" ry="12.5" style="stroke:#181818;stroke-width:0.5;" width="267.9512" x="23.1113" y="270.5313"/><text fill="#000000" font-family="sans-serif" font-size="12" lengthAdjust="spacing" textLength="247.9512" x="33.1113" y="291.6699">Hi&#7875;n th&#7883; danh s&#225;ch ng&#432;&#7901;i ch&#417;i v&#224; &#273;i&#7875;m s&#7889;</text><polygon fill="#F1F1F1" points="509.6431,201.5625,621.9741,201.5625,633.9741,213.5625,621.9741,225.5625,509.6431,225.5625,497.6431,213.5625,509.6431,201.5625" style="stroke:#181818;stroke-width:0.5;"/><text fill="#000000" font-family="sans-serif" font-size="11" lengthAdjust="spacing" textLength="112.3311" x="509.6431" y="217.3706">Ch&#7885;n Vi&#7871;t &#272;&#225;nh gi&#225;?</text><text fill="#000000" font-family="sans-serif" font-size="11" lengthAdjust="spacing" textLength="12.7778" x="484.8652" y="210.9683">c&#243;</text><text fill="#000000" font-family="sans-serif" font-size="11" lengthAdjust="spacing" textLength="34.0259" x="633.9741" y="210.9683">kh&#244;ng</text><rect fill="#F1F1F1" height="33.9688" rx="12.5" ry="12.5" style="stroke:#181818;stroke-width:0.5;" width="233.5391" x="321.2939" y="235.5625"/><text fill="#000000" font-family="sans-serif" font-size="12" lengthAdjust="spacing" textLength="213.5391" x="331.2939" y="256.7012">Nh&#7853;p n&#7897;i dung &#273;&#225;nh gi&#225; v&#224; &#273;i&#7875;m s&#7889;</text><rect fill="#F1F1F1" height="33.9688" rx="12.5" ry="12.5" style="stroke:#181818;stroke-width:0.5;" width="180.2656" x="347.9307" y="304.5313"/><text fill="#000000" font-family="sans-serif" font-size="12" lengthAdjust="spacing" textLength="160.2656" x="357.9307" y="325.6699">G&#7917;i &#273;&#225;nh gi&#225; &#273;&#7871;n h&#7879; th&#7889;ng</text><rect fill="#F1F1F1" height="33.9688" rx="12.5" ry="12.5" style="stroke:#181818;stroke-width:0.5;" width="203.293" x="336.417" y="358.5"/><text fill="#000000" font-family="sans-serif" font-size="12" lengthAdjust="spacing" textLength="183.293" x="346.417" y="379.6387">L&#432;u &#273;&#225;nh gi&#225; v&#224;o c&#417; s&#7903; d&#7919; li&#7879;u</text><rect fill="#F1F1F1" height="33.9688" rx="12.5" ry="12.5" style="stroke:#181818;stroke-width:0.5;" width="233.7793" x="321.1738" y="412.4688"/><text fill="#000000" font-family="sans-serif" font-size="12" lengthAdjust="spacing" textLength="213.7793" x="331.1738" y="433.6074">Th&#244;ng b&#225;o g&#7917;i &#273;&#225;nh gi&#225; th&#224;nh c&#244;ng</text><rect fill="#F1F1F1" height="33.9688" rx="12.5" ry="12.5" style="stroke:#181818;stroke-width:0.5;" width="237.2012" x="574.9531" y="235.5625"/><text fill="#000000" font-family="sans-serif" font-size="12" lengthAdjust="spacing" textLength="217.2012" x="584.9531" y="256.7012">H&#7879; th&#7889;ng truy v&#7845;n c&#225;c Review &#273;&#227; c&#243;</text><rect fill="#F1F1F1" height="33.9688" rx="12.5" ry="12.5" style="stroke:#181818;stroke-width:0.5;" width="203.9551" x="591.5762" y="304.5313"/><text fill="#000000" font-family="sans-serif" font-size="12" lengthAdjust="spacing" textLength="183.9551" x="601.5762" y="325.6699">Hi&#7875;n th&#7883; danh s&#225;ch c&#225;c Review</text><polygon fill="#F1F1F1" points="565.8086,452.4375,577.8086,464.4375,565.8086,476.4375,553.8086,464.4375,565.8086,452.4375" style="stroke:#181818;stroke-width:0.5;"/><polygon fill="#F1F1F1" points="361.4478,482.4375,373.4478,494.4375,361.4478,506.4375,349.4478,494.4375,361.4478,482.4375" style="stroke:#181818;stroke-width:0.5;"/><ellipse cx="361.4478" cy="549.4375" fill="none" rx="11" ry="11" style="stroke:#222222;stroke-width:1;"/><ellipse cx="361.4478" cy="549.4375" fill="#222222" rx="6" ry="6" style="stroke:#222222;stroke-width:1;"/><line style="stroke:#181818;stroke-width:1;" x1="361.4478" x2="361.4478" y1="67.2969" y2="87.2969"/><polygon fill="#181818" points="357.4478,77.2969,361.4478,87.2969,365.4478,77.2969,361.4478,81.2969" style="stroke:#181818;stroke-width:1;"/><line style="stroke:#181818;stroke-width:1;" x1="157.0869" x2="157.0869" y1="235.5313" y2="270.5313"/><polygon fill="#181818" points="153.0869,260.5313,157.0869,270.5313,161.0869,260.5313,157.0869,264.5313" style="stroke:#181818;stroke-width:1;"/><line style="stroke:#181818;stroke-width:1;" x1="438.0635" x2="438.0635" y1="269.5313" y2="304.5313"/><polygon fill="#181818" points="434.0635,294.5313,438.0635,304.5313,442.0635,294.5313,438.0635,298.5313" style="stroke:#181818;stroke-width:1;"/><line style="stroke:#181818;stroke-width:1;" x1="438.0635" x2="438.0635" y1="338.5" y2="358.5"/><polygon fill="#181818" points="434.0635,348.5,438.0635,358.5,442.0635,348.5,438.0635,352.5" style="stroke:#181818;stroke-width:1;"/><line style="stroke:#181818;stroke-width:1;" x1="438.0635" x2="438.0635" y1="392.4688" y2="412.4688"/><polygon fill="#181818" points="434.0635,402.4688,438.0635,412.4688,442.0635,402.4688,438.0635,406.4688" style="stroke:#181818;stroke-width:1;"/><line style="stroke:#181818;stroke-width:1;" x1="693.5537" x2="693.5537" y1="269.5313" y2="304.5313"/><polygon fill="#181818" points="689.5537,294.5313,693.5537,304.5313,697.5537,294.5313,693.5537,298.5313" style="stroke:#181818;stroke-width:1;"/><line style="stroke:#181818;stroke-width:1;" x1="497.6431" x2="438.0635" y1="213.5625" y2="213.5625"/><line style="stroke:#181818;stroke-width:1;" x1="438.0635" x2="438.0635" y1="213.5625" y2="235.5625"/><polygon fill="#181818" points="434.0635,225.5625,438.0635,235.5625,442.0635,225.5625,438.0635,229.5625" style="stroke:#181818;stroke-width:1;"/><line style="stroke:#181818;stroke-width:1;" x1="633.9741" x2="693.5537" y1="213.5625" y2="213.5625"/><line style="stroke:#181818;stroke-width:1;" x1="693.5537" x2="693.5537" y1="213.5625" y2="235.5625"/><polygon fill="#181818" points="689.5537,225.5625,693.5537,235.5625,697.5537,225.5625,693.5537,229.5625" style="stroke:#181818;stroke-width:1;"/><line style="stroke:#181818;stroke-width:1;" x1="438.0635" x2="438.0635" y1="446.4375" y2="464.4375"/><line style="stroke:#181818;stroke-width:1;" x1="438.0635" x2="553.8086" y1="464.4375" y2="464.4375"/><polygon fill="#181818" points="543.8086,460.4375,553.8086,464.4375,543.8086,468.4375,547.8086,464.4375" style="stroke:#181818;stroke-width:1;"/><line style="stroke:#181818;stroke-width:1;" x1="693.5537" x2="693.5537" y1="338.5" y2="464.4375"/><line style="stroke:#181818;stroke-width:1;" x1="693.5537" x2="577.8086" y1="464.4375" y2="464.4375"/><polygon fill="#181818" points="587.8086,460.4375,577.8086,464.4375,587.8086,468.4375,583.8086,464.4375" style="stroke:#181818;stroke-width:1;"/><line style="stroke:#181818;stroke-width:1;" x1="274.7654" x2="157.0869" y1="179.5625" y2="179.5625"/><line style="stroke:#181818;stroke-width:1;" x1="157.0869" x2="157.0869" y1="179.5625" y2="201.5625"/><polygon fill="#181818" points="153.0869,191.5625,157.0869,201.5625,161.0869,191.5625,157.0869,195.5625" style="stroke:#181818;stroke-width:1;"/><line style="stroke:#181818;stroke-width:1;" x1="448.1301" x2="565.8086" y1="179.5625" y2="179.5625"/><line style="stroke:#181818;stroke-width:1;" x1="565.8086" x2="565.8086" y1="179.5625" y2="201.5625"/><polygon fill="#181818" points="561.8086,191.5625,565.8086,201.5625,569.8086,191.5625,565.8086,195.5625" style="stroke:#181818;stroke-width:1;"/><line style="stroke:#181818;stroke-width:1;" x1="157.0869" x2="157.0869" y1="304.5" y2="494.4375"/><line style="stroke:#181818;stroke-width:1;" x1="157.0869" x2="349.4478" y1="494.4375" y2="494.4375"/><polygon fill="#181818" points="339.4478,490.4375,349.4478,494.4375,339.4478,498.4375,343.4478,494.4375" style="stroke:#181818;stroke-width:1;"/><line style="stroke:#181818;stroke-width:1;" x1="565.8086" x2="565.8086" y1="476.4375" y2="494.4375"/><line style="stroke:#181818;stroke-width:1;" x1="565.8086" x2="373.4478" y1="494.4375" y2="494.4375"/><polygon fill="#181818" points="383.4478,490.4375,373.4478,494.4375,383.4478,498.4375,379.4478,494.4375" style="stroke:#181818;stroke-width:1;"/><line style="stroke:#181818;stroke-width:1;" x1="361.4478" x2="361.4478" y1="121.2656" y2="167.5625"/><polygon fill="#181818" points="357.4478,157.5625,361.4478,167.5625,365.4478,157.5625,361.4478,161.5625" style="stroke:#181818;stroke-width:1;"/><line style="stroke:#181818;stroke-width:1;" x1="361.4478" x2="361.4478" y1="506.4375" y2="538.4375"/><polygon fill="#181818" points="357.4478,528.4375,361.4478,538.4375,365.4478,528.4375,361.4478,532.4375" style="stroke:#181818;stroke-width:1;"/><!--SRC=[VLA_Ji907Dxx55yO3Bm232Owo40SZ36ijJtQY_JQq2jYZ1E3Wp6HqS58GnmSY1YSse6XJT_ZtiHV2zOgw7INk-_VxxkJNFOPsgwAGebqek97OQ7B71nqszX3-f24meR5ar3pfJwGMlFGLl6zW4DG2KjtM44ROyISbkOHX4lk2jGwAdxNOQpH-V9gGAHZOTLmhG6yX_f6gh1JqOoSHofQUR0fZR3s6v0s4wWRoR913A3PLl4j7QfuGbWv2AumLD6BWAdYD_GvtGQxb5eRDW76ek3VmTHfBZy93Hl2oXOgVkAKCWivXicKHign3dooojcixpFKB-paGrZhB9NyPvoyPBMhxUXaVqnXvXu45STX1fGndPICdQu5xKZ5S_u3Idr7Aq6pVPTHeZlP8lYjwyB8mbpqkLfKIJajfi9v4hgmjioadKnfR-IODMMxYtzUng26SSA6d5tciZCwM9REVpr8XRIn52RlQL_h3Nr5r_i4]--></g></svg>