<svg xmlns="http://www.w3.org/2000/svg" xmlns:xlink="http://www.w3.org/1999/xlink" contentStyleType="text/css" data-diagram-type="ACTIVITY" height="454px" preserveAspectRatio="none" style="width:558px;height:454px;background:#FFFFFF;" version="1.1" viewBox="0 0 558 454" width="558px" zoomAndPan="magnify"><title>Ho&#7841;t &#273;&#7897;ng &#272;&#7893;i qu&#224; b&#7857;ng &#273;i&#7875;m t&#237;ch lu&#7929;</title><defs/><g><g class="title" data-source-line="1"><text fill="#000000" font-family="sans-serif" font-size="14" font-weight="bold" lengthAdjust="spacing" textLength="298.8125" x="128.4414" y="32.9951">Ho&#7841;t &#273;&#7897;ng &#272;&#7893;i qu&#224; b&#7857;ng &#273;i&#7875;m t&#237;ch lu&#7929;</text></g><ellipse cx="278.8936" cy="57.2969" fill="#222222" rx="10" ry="10" style="stroke:#222222;stroke-width:1;"/><rect fill="#F1F1F1" height="33.9688" rx="12.5" ry="12.5" style="stroke:#181818;stroke-width:0.5;" width="156.8809" x="200.4531" y="87.2969"/><text fill="#000000" font-family="sans-serif" font-size="12" lengthAdjust="spacing" textLength="136.8809" x="210.4531" y="108.4355">Truy c&#7853;p trang &#273;&#7893;i qu&#224;</text><rect fill="#F1F1F1" height="33.9688" rx="12.5" ry="12.5" style="stroke:#181818;stroke-width:0.5;" width="167.9375" x="194.9248" y="141.2656"/><text fill="#000000" font-family="sans-serif" font-size="12" lengthAdjust="spacing" textLength="147.9375" x="204.9248" y="162.4043">Ch&#7885;n m&#243;n qu&#224; mu&#7889;n &#273;&#7893;i</text><polygon fill="#F1F1F1" points="230.7578,195.2344,327.0293,195.2344,339.0293,207.2344,327.0293,219.2344,230.7578,219.2344,218.7578,207.2344,230.7578,195.2344" style="stroke:#181818;stroke-width:0.5;"/><text fill="#000000" font-family="sans-serif" font-size="11" lengthAdjust="spacing" textLength="96.2715" x="230.7578" y="211.0425">&#272;i&#7875;m t&#237;ch lu&#7929; &#273;&#7911;?</text><text fill="#000000" font-family="sans-serif" font-size="11" lengthAdjust="spacing" textLength="12.7778" x="205.98" y="204.6401">c&#243;</text><text fill="#000000" font-family="sans-serif" font-size="11" lengthAdjust="spacing" textLength="34.0259" x="339.0293" y="204.6401">kh&#244;ng</text><rect fill="#F1F1F1" height="33.9688" rx="12.5" ry="12.5" style="stroke:#181818;stroke-width:0.5;" width="162.6289" x="58.4053" y="229.2344"/><text fill="#000000" font-family="sans-serif" font-size="12" lengthAdjust="spacing" textLength="142.6289" x="68.4053" y="250.373">Tr&#7915; &#273;i&#7875;m kh&#7887;i t&#224;i kho&#7843;n</text><rect fill="#F1F1F1" height="33.9688" rx="12.5" ry="12.5" style="stroke:#181818;stroke-width:0.5;" width="257.4395" x="11" y="283.2031"/><text fill="#000000" font-family="sans-serif" font-size="12" lengthAdjust="spacing" textLength="237.4395" x="21" y="304.3418">C&#7853;p nh&#7853;t tr&#7841;ng th&#225;i &#273;&#7893;i qu&#224; th&#224;nh c&#244;ng</text><rect fill="#F1F1F1" height="33.9688" rx="12.5" ry="12.5" style="stroke:#181818;stroke-width:0.5;" width="251.7852" x="13.8271" y="337.1719"/><text fill="#000000" font-family="sans-serif" font-size="12" lengthAdjust="spacing" textLength="231.7852" x="23.8271" y="358.3105">Hi&#7875;n th&#7883; th&#244;ng b&#225;o &#273;&#7893;i qu&#224; th&#224;nh c&#244;ng</text><rect fill="#F1F1F1" height="33.9688" rx="12.5" ry="12.5" style="stroke:#181818;stroke-width:0.5;" width="259.2559" x="288.4395" y="229.2344"/><text fill="#000000" font-family="sans-serif" font-size="12" lengthAdjust="spacing" textLength="239.2559" x="298.4395" y="250.373">Hi&#7875;n th&#7883; th&#244;ng b&#225;o l&#7895;i: "Kh&#244;ng &#273;&#7911; &#273;i&#7875;m"</text><polygon fill="#F1F1F1" points="278.8936,377.1406,290.8936,389.1406,278.8936,401.1406,266.8936,389.1406,278.8936,377.1406" style="stroke:#181818;stroke-width:0.5;"/><ellipse cx="278.8936" cy="432.1406" fill="none" rx="11" ry="11" style="stroke:#222222;stroke-width:1;"/><ellipse cx="278.8936" cy="432.1406" fill="#222222" rx="6" ry="6" style="stroke:#222222;stroke-width:1;"/><line style="stroke:#181818;stroke-width:1;" x1="278.8936" x2="278.8936" y1="67.2969" y2="87.2969"/><polygon fill="#181818" points="274.8936,77.2969,278.8936,87.2969,282.8936,77.2969,278.8936,81.2969" style="stroke:#181818;stroke-width:1;"/><line style="stroke:#181818;stroke-width:1;" x1="278.8936" x2="278.8936" y1="121.2656" y2="141.2656"/><polygon fill="#181818" points="274.8936,131.2656,278.8936,141.2656,282.8936,131.2656,278.8936,135.2656" style="stroke:#181818;stroke-width:1;"/><line style="stroke:#181818;stroke-width:1;" x1="139.7197" x2="139.7197" y1="263.2031" y2="283.2031"/><polygon fill="#181818" points="135.7197,273.2031,139.7197,283.2031,143.7197,273.2031,139.7197,277.2031" style="stroke:#181818;stroke-width:1;"/><line style="stroke:#181818;stroke-width:1;" x1="139.7197" x2="139.7197" y1="317.1719" y2="337.1719"/><polygon fill="#181818" points="135.7197,327.1719,139.7197,337.1719,143.7197,327.1719,139.7197,331.1719" style="stroke:#181818;stroke-width:1;"/><line style="stroke:#181818;stroke-width:1;" x1="218.7578" x2="139.7197" y1="207.2344" y2="207.2344"/><line style="stroke:#181818;stroke-width:1;" x1="139.7197" x2="139.7197" y1="207.2344" y2="229.2344"/><polygon fill="#181818" points="135.7197,219.2344,139.7197,229.2344,143.7197,219.2344,139.7197,223.2344" style="stroke:#181818;stroke-width:1;"/><line style="stroke:#181818;stroke-width:1;" x1="339.0293" x2="418.0674" y1="207.2344" y2="207.2344"/><line style="stroke:#181818;stroke-width:1;" x1="418.0674" x2="418.0674" y1="207.2344" y2="229.2344"/><polygon fill="#181818" points="414.0674,219.2344,418.0674,229.2344,422.0674,219.2344,418.0674,223.2344" style="stroke:#181818;stroke-width:1;"/><line style="stroke:#181818;stroke-width:1;" x1="139.7197" x2="139.7197" y1="371.1406" y2="389.1406"/><line style="stroke:#181818;stroke-width:1;" x1="139.7197" x2="266.8936" y1="389.1406" y2="389.1406"/><polygon fill="#181818" points="256.8936,385.1406,266.8936,389.1406,256.8936,393.1406,260.8936,389.1406" style="stroke:#181818;stroke-width:1;"/><line style="stroke:#181818;stroke-width:1;" x1="418.0674" x2="418.0674" y1="263.2031" y2="389.1406"/><line style="stroke:#181818;stroke-width:1;" x1="418.0674" x2="290.8936" y1="389.1406" y2="389.1406"/><polygon fill="#181818" points="300.8936,385.1406,290.8936,389.1406,300.8936,393.1406,296.8936,389.1406" style="stroke:#181818;stroke-width:1;"/><line style="stroke:#181818;stroke-width:1;" x1="278.8936" x2="278.8936" y1="175.2344" y2="195.2344"/><polygon fill="#181818" points="274.8936,185.2344,278.8936,195.2344,282.8936,185.2344,278.8936,189.2344" style="stroke:#181818;stroke-width:1;"/><line style="stroke:#181818;stroke-width:1;" x1="278.8936" x2="278.8936" y1="401.1406" y2="421.1406"/><polygon fill="#181818" points="274.8936,411.1406,278.8936,421.1406,282.8936,411.1406,278.8936,415.1406" style="stroke:#181818;stroke-width:1;"/><!--SRC=[VL0nJiD04Epl5QjKzXViWY9D95e-a1WdTugz3iwweAP4YBX0YCuM1GLAWKA3hpn_P7_2tWKY9AHKkvgTcPivCbJaCAjuw0d6bkqBhc3SiNqoSDEu3XOyV7YeDMplIY2tppGK3TiljQLvJIgvgfjRo7ZORu3gUU2UvAbAffhj0qBf3dXqB4NSuWyhLMO9qRZxvnxkRnSnaCuHeimTOWKWZx5zFwLPY_UZ4LbdP9SIhvXwrZIaGIs399IKarYaNM_-XlD8Xneozuche9jvMnISxRs_2WuBrrTdL7cnpI5Q1svyrgDW-smIc5mUiT3ljyb4ZF3QBELFgyqt]--></g></svg>