<svg xmlns="http://www.w3.org/2000/svg" xmlns:xlink="http://www.w3.org/1999/xlink" contentStyleType="text/css" data-diagram-type="ACTIVITY" height="336px" preserveAspectRatio="none" style="width:302px;height:336px;background:#FFFFFF;" version="1.1" viewBox="0 0 302 336" width="302px" zoomAndPan="magnify"><title>Activity Diagram - &#272;&#259;ng k&#253; asset</title><defs/><g><g class="title" data-source-line="1"><text fill="#000000" font-family="sans-serif" font-size="14" font-weight="bold" lengthAdjust="spacing" textLength="259.2803" x="20" y="32.9951">Activity Diagram - &#272;&#259;ng k&#253; asset</text></g><ellipse cx="151.1401" cy="57.2969" fill="#222222" rx="10" ry="10" style="stroke:#222222;stroke-width:1;"/><rect fill="#F1F1F1" height="33.9688" rx="12.5" ry="12.5" style="stroke:#181818;stroke-width:0.5;" width="141.5293" x="80.3755" y="87.2969"/><text fill="#000000" font-family="sans-serif" font-size="12" lengthAdjust="spacing" textLength="121.5293" x="90.3755" y="108.4355">&#272;i&#7873;n th&#244;ng tin asset</text><rect fill="#F1F1F1" height="33.9688" rx="12.5" ry="12.5" style="stroke:#181818;stroke-width:0.5;" width="166.5254" x="67.8774" y="141.2656"/><text fill="#000000" font-family="sans-serif" font-size="12" lengthAdjust="spacing" textLength="146.5254" x="77.8774" y="162.4043">Ch&#7885;n danh m&#7909;c &amp; m&#244; t&#7843;</text><rect fill="#F1F1F1" height="33.9688" rx="12.5" ry="12.5" style="stroke:#181818;stroke-width:0.5;" width="128.0293" x="87.1255" y="195.2344"/><text fill="#000000" font-family="sans-serif" font-size="12" lengthAdjust="spacing" textLength="108.0293" x="97.1255" y="216.373">X&#225;c nh&#7853;n &#273;&#259;ng k&#253;</text><rect fill="#F1F1F1" height="33.9688" rx="12.5" ry="12.5" style="stroke:#181818;stroke-width:0.5;" width="133.2617" x="84.5093" y="249.2031"/><text fill="#000000" font-family="sans-serif" font-size="12" lengthAdjust="spacing" textLength="113.2617" x="94.5093" y="270.3418">Nh&#7853;p m&#227; x&#225;c nh&#7853;n</text><ellipse cx="151.1401" cy="314.1719" fill="none" rx="11" ry="11" style="stroke:#222222;stroke-width:1;"/><ellipse cx="151.1401" cy="314.1719" fill="#222222" rx="6" ry="6" style="stroke:#222222;stroke-width:1;"/><line style="stroke:#181818;stroke-width:1;" x1="151.1401" x2="151.1401" y1="67.2969" y2="87.2969"/><polygon fill="#181818" points="147.1401,77.2969,151.1401,87.2969,155.1401,77.2969,151.1401,81.2969" style="stroke:#181818;stroke-width:1;"/><line style="stroke:#181818;stroke-width:1;" x1="151.1401" x2="151.1401" y1="121.2656" y2="141.2656"/><polygon fill="#181818" points="147.1401,131.2656,151.1401,141.2656,155.1401,131.2656,151.1401,135.2656" style="stroke:#181818;stroke-width:1;"/><line style="stroke:#181818;stroke-width:1;" x1="151.1401" x2="151.1401" y1="175.2344" y2="195.2344"/><polygon fill="#181818" points="147.1401,185.2344,151.1401,195.2344,155.1401,185.2344,151.1401,189.2344" style="stroke:#181818;stroke-width:1;"/><line style="stroke:#181818;stroke-width:1;" x1="151.1401" x2="151.1401" y1="229.2031" y2="249.2031"/><polygon fill="#181818" points="147.1401,239.2031,151.1401,249.2031,155.1401,239.2031,151.1401,243.2031" style="stroke:#181818;stroke-width:1;"/><line style="stroke:#181818;stroke-width:1;" x1="151.1401" x2="151.1401" y1="283.1719" y2="303.1719"/><polygon fill="#181818" points="147.1401,293.1719,151.1401,303.1719,155.1401,293.1719,151.1401,297.1719" style="stroke:#181818;stroke-width:1;"/><!--SRC=[AyaioKbLS4mkoIpBBAbKSCbCJ2zAp5NGLJWouKXpNhf2zk6z2ed5nQabN5p59Ob59LnMHoPaFjpTcATGad5u2r11IMOUH84rbvLpniFTlNaAAObv6Ggv3tSlJLPGKyWzl4MXvE6knK3fYCCBanNoCXxkMfkdS6GYp7YWX1z8h02eTB521KADDSZA_080]--></g></svg>