<svg xmlns="http://www.w3.org/2000/svg" xmlns:xlink="http://www.w3.org/1999/xlink" contentStyleType="text/css" data-diagram-type="ACTIVITY" height="513px" preserveAspectRatio="none" style="width:505px;height:513px;background:#FFFFFF;" version="1.1" viewBox="0 0 505 513" width="505px" zoomAndPan="magnify"><title>Activity Diagram - &#272;&#259;ng nh&#7853;p h&#7879; th&#7889;ng (Graphic Designer)</title><defs/><g><g class="title" data-source-line="1"><text fill="#000000" font-family="sans-serif" font-size="14" font-weight="bold" lengthAdjust="spacing" textLength="462.6563" x="20" y="32.9951">Activity Diagram - &#272;&#259;ng nh&#7853;p h&#7879; th&#7889;ng (Graphic Designer)</text></g><ellipse cx="254.8677" cy="57.2969" fill="#222222" rx="10" ry="10" style="stroke:#222222;stroke-width:1;"/><rect fill="#F1F1F1" height="33.9688" rx="12.5" ry="12.5" style="stroke:#181818;stroke-width:0.5;" width="274.3672" x="117.6841" y="87.2969"/><text fill="#000000" font-family="sans-serif" font-size="12" lengthAdjust="spacing" textLength="254.3672" x="127.6841" y="108.4355">Graphic Designer m&#7903; giao di&#7879;n &#273;&#259;ng nh&#7853;p</text><rect fill="#F1F1F1" height="33.9688" rx="12.5" ry="12.5" style="stroke:#181818;stroke-width:0.5;" width="162.5234" x="173.606" y="185.2656"/><text fill="#000000" font-family="sans-serif" font-size="12" lengthAdjust="spacing" textLength="142.5234" x="183.606" y="206.4043">Nh&#7853;p email &amp; m&#7853;t kh&#7849;u</text><rect fill="#F1F1F1" height="33.9688" rx="12.5" ry="12.5" style="stroke:#181818;stroke-width:0.5;" width="94.5723" x="207.5815" y="239.2344"/><text fill="#000000" font-family="sans-serif" font-size="12" lengthAdjust="spacing" textLength="74.5723" x="217.5815" y="260.373">Submit form</text><polygon fill="#F1F1F1" points="207.0918,293.2031,302.6436,293.2031,314.6436,305.2031,302.6436,317.2031,207.0918,317.2031,195.0918,305.2031,207.0918,293.2031" style="stroke:#181818;stroke-width:0.5;"/><text fill="#000000" font-family="sans-serif" font-size="11" lengthAdjust="spacing" textLength="95.5518" x="207.0918" y="309.0112">Th&#244;ng tin h&#7907;p l&#7879;?</text><text fill="#000000" font-family="sans-serif" font-size="11" lengthAdjust="spacing" textLength="19.2178" x="175.874" y="302.6089">Yes</text><text fill="#000000" font-family="sans-serif" font-size="11" lengthAdjust="spacing" textLength="14.9585" x="314.6436" y="302.6089">No</text><rect fill="#F1F1F1" height="33.9688" rx="12.5" ry="12.5" style="stroke:#181818;stroke-width:0.5;" width="124.666" x="89.6787" y="327.2031"/><text fill="#000000" font-family="sans-serif" font-size="12" lengthAdjust="spacing" textLength="104.666" x="99.6787" y="348.3418">T&#7841;o session / JWT</text><rect fill="#F1F1F1" height="33.9688" rx="12.5" ry="12.5" style="stroke:#181818;stroke-width:0.5;" width="218.791" x="42.6162" y="381.1719"/><text fill="#000000" font-family="sans-serif" font-size="12" lengthAdjust="spacing" textLength="198.791" x="52.6162" y="402.3105">Chuy&#7875;n &#273;&#7871;n Dashboard Designer</text><ellipse cx="152.0117" cy="446.1406" fill="none" rx="11" ry="11" style="stroke:#222222;stroke-width:1;"/><ellipse cx="152.0117" cy="446.1406" fill="#222222" rx="6" ry="6" style="stroke:#222222;stroke-width:1;"/><rect fill="#F1F1F1" height="33.9688" rx="12.5" ry="12.5" style="stroke:#181818;stroke-width:0.5;" width="152.6328" x="281.4072" y="327.2031"/><text fill="#000000" font-family="sans-serif" font-size="12" lengthAdjust="spacing" textLength="132.6328" x="291.4072" y="348.3418">Hi&#7875;n th&#7883; l&#7895;i &#273;&#259;ng nh&#7853;p</text><polygon fill="#F1F1F1" points="254.8677,141.2656,266.8677,153.2656,254.8677,165.2656,242.8677,153.2656,254.8677,141.2656" style="stroke:#181818;stroke-width:0.5;"/><polygon fill="#F1F1F1" points="219.0156,477.1406,290.7197,477.1406,302.7197,489.1406,290.7197,501.1406,219.0156,501.1406,207.0156,489.1406,219.0156,477.1406" style="stroke:#181818;stroke-width:0.5;"/><text fill="#000000" font-family="sans-serif" font-size="11" lengthAdjust="spacing" textLength="71.7041" x="219.0156" y="492.9487">Ch&#432;a h&#7907;p l&#7879;?</text><line style="stroke:#181818;stroke-width:1;" x1="254.8677" x2="254.8677" y1="67.2969" y2="87.2969"/><polygon fill="#181818" points="250.8677,77.2969,254.8677,87.2969,258.8677,77.2969,254.8677,81.2969" style="stroke:#181818;stroke-width:1;"/><line style="stroke:#181818;stroke-width:1;" x1="254.8677" x2="254.8677" y1="219.2344" y2="239.2344"/><polygon fill="#181818" points="250.8677,229.2344,254.8677,239.2344,258.8677,229.2344,254.8677,233.2344" style="stroke:#181818;stroke-width:1;"/><line style="stroke:#181818;stroke-width:1;" x1="152.0117" x2="152.0117" y1="361.1719" y2="381.1719"/><polygon fill="#181818" points="148.0117,371.1719,152.0117,381.1719,156.0117,371.1719,152.0117,375.1719" style="stroke:#181818;stroke-width:1;"/><line style="stroke:#181818;stroke-width:1;" x1="152.0117" x2="152.0117" y1="415.1406" y2="435.1406"/><polygon fill="#181818" points="148.0117,425.1406,152.0117,435.1406,156.0117,425.1406,152.0117,429.1406" style="stroke:#181818;stroke-width:1;"/><line style="stroke:#181818;stroke-width:1;" x1="195.0918" x2="152.0117" y1="305.2031" y2="305.2031"/><line style="stroke:#181818;stroke-width:1;" x1="152.0117" x2="152.0117" y1="305.2031" y2="327.2031"/><polygon fill="#181818" points="148.0117,317.2031,152.0117,327.2031,156.0117,317.2031,152.0117,321.2031" style="stroke:#181818;stroke-width:1;"/><line style="stroke:#181818;stroke-width:1;" x1="314.6436" x2="357.7236" y1="305.2031" y2="305.2031"/><line style="stroke:#181818;stroke-width:1;" x1="357.7236" x2="357.7236" y1="305.2031" y2="327.2031"/><polygon fill="#181818" points="353.7236,317.2031,357.7236,327.2031,361.7236,317.2031,357.7236,321.2031" style="stroke:#181818;stroke-width:1;"/><line style="stroke:#181818;stroke-width:1;" x1="357.7236" x2="357.7236" y1="361.1719" y2="462.1406"/><line style="stroke:#181818;stroke-width:1;" x1="357.7236" x2="254.8677" y1="462.1406" y2="462.1406"/><line style="stroke:#181818;stroke-width:1;" x1="254.8677" x2="254.8677" y1="462.1406" y2="477.1406"/><polygon fill="#181818" points="250.8677,467.1406,254.8677,477.1406,258.8677,467.1406,254.8677,471.1406" style="stroke:#181818;stroke-width:1;"/><line style="stroke:#181818;stroke-width:1;" x1="254.8677" x2="254.8677" y1="273.2031" y2="293.2031"/><polygon fill="#181818" points="250.8677,283.2031,254.8677,293.2031,258.8677,283.2031,254.8677,287.2031" style="stroke:#181818;stroke-width:1;"/><line style="stroke:#181818;stroke-width:1;" x1="254.8677" x2="254.8677" y1="165.2656" y2="185.2656"/><polygon fill="#181818" points="250.8677,175.2656,254.8677,185.2656,258.8677,175.2656,254.8677,179.2656" style="stroke:#181818;stroke-width:1;"/><line style="stroke:#181818;stroke-width:1;" x1="302.7197" x2="448.04" y1="489.1406" y2="489.1406"/><polygon fill="#181818" points="444.04,334.2031,448.04,324.2031,452.04,334.2031,448.04,330.2031" style="stroke:#181818;stroke-width:1;"/><line style="stroke:#181818;stroke-width:1;" x1="448.04" x2="448.04" y1="153.2656" y2="489.1406"/><line style="stroke:#181818;stroke-width:1;" x1="448.04" x2="266.8677" y1="153.2656" y2="153.2656"/><polygon fill="#181818" points="276.8677,149.2656,266.8677,153.2656,276.8677,157.2656,272.8677,153.2656" style="stroke:#181818;stroke-width:1;"/><line style="stroke:#181818;stroke-width:1;" x1="254.8677" x2="254.8677" y1="121.2656" y2="141.2656"/><polygon fill="#181818" points="250.8677,131.2656,254.8677,141.2656,258.8677,131.2656,254.8677,135.2656" style="stroke:#181818;stroke-width:1;"/><!--SRC=[NL0zJyCm4DtzAzw4qW6njmD2ZGHYw48bnEWsJdmYiIFR0NNkmC129qQ4c1WgCJ0b0mCL_yF_X0kj47Inh7ltlYvGA1LEve5kA2oGaYoSh728pSDcQGeO7Tjr3HsxEmH-LpnBJfsiDSsHAa-5KMuWX0_I1I66-n2gs3sX86cH4OiOR5P_X4T2E5Kh6GGmd6ozL2Mfn04pstN0DGzVcr6FNpIpYW9owohc0PGZcUhFTrOBPFgCBpLADZaUS5Pba5mfF-15vavZ-spXbVTa3OvmVZaTRP6nRXQnM_R1OljXa4glPrQwxBV3Tj47M_D7bLuXcTYTxXdzSFlJtFVUZxHVa2acetpN4xUQ-E39M7-zoN-Hlm40]--></g></svg>