<svg xmlns="http://www.w3.org/2000/svg" xmlns:xlink="http://www.w3.org/1999/xlink" contentStyleType="text/css" data-diagram-type="ACTIVITY" height="464px" preserveAspectRatio="none" style="width:383px;height:464px;background:#FFFFFF;" version="1.1" viewBox="0 0 383 464" width="383px" zoomAndPan="magnify"><title>Activity Diagram - Qu&#7843;n l&#253; danh s&#225;ch asset</title><defs/><g><g class="title" data-source-line="1"><text fill="#000000" font-family="sans-serif" font-size="14" font-weight="bold" lengthAdjust="spacing" textLength="340.0811" x="20" y="32.9951">Activity Diagram - Qu&#7843;n l&#253; danh s&#225;ch asset</text></g><ellipse cx="190.4624" cy="57.2969" fill="#222222" rx="10" ry="10" style="stroke:#222222;stroke-width:1;"/><rect fill="#F1F1F1" height="33.9688" rx="12.5" ry="12.5" style="stroke:#181818;stroke-width:0.5;" width="173.7324" x="103.5962" y="87.2969"/><text fill="#000000" font-family="sans-serif" font-size="12" lengthAdjust="spacing" textLength="153.7324" x="113.5962" y="108.4355">Truy c&#7853;p danh s&#225;ch asset</text><rect fill="#F1F1F1" height="33.9688" rx="12.5" ry="12.5" style="stroke:#181818;stroke-width:0.5;" width="86.6914" x="147.1167" y="141.2656"/><text fill="#000000" font-family="sans-serif" font-size="12" lengthAdjust="spacing" textLength="66.6914" x="157.1167" y="162.4043">Ch&#7885;n asset</text><polygon fill="#F1F1F1" points="144.2334,195.2344,236.6914,195.2344,248.6914,207.2344,236.6914,219.2344,144.2334,219.2344,132.2334,207.2344,144.2334,195.2344" style="stroke:#181818;stroke-width:0.5;"/><text fill="#000000" font-family="sans-serif" font-size="11" lengthAdjust="spacing" textLength="92.458" x="144.2334" y="211.0425">Mu&#7889;n ch&#7881;nh s&#7917;a?</text><text fill="#000000" font-family="sans-serif" font-size="11" lengthAdjust="spacing" textLength="19.2178" x="113.0156" y="204.6401">Yes</text><text fill="#000000" font-family="sans-serif" font-size="11" lengthAdjust="spacing" textLength="14.9585" x="248.6914" y="204.6401">No</text><rect fill="#F1F1F1" height="33.9688" rx="12.5" ry="12.5" style="stroke:#181818;stroke-width:0.5;" width="115.3145" x="64.0698" y="229.2344"/><text fill="#000000" font-family="sans-serif" font-size="12" lengthAdjust="spacing" textLength="95.3145" x="74.0698" y="250.373">Ch&#7881;nh s&#7917;a asset</text><rect fill="#F1F1F1" height="33.9688" rx="12.5" ry="12.5" style="stroke:#181818;stroke-width:0.5;" width="119.627" x="199.3843" y="229.2344"/><text fill="#000000" font-family="sans-serif" font-size="12" lengthAdjust="spacing" textLength="99.627" x="209.3843" y="250.373">Kh&#244;ng ch&#7881;nh s&#7917;a</text><polygon fill="#F1F1F1" points="190.4624,269.2031,202.4624,281.2031,190.4624,293.2031,178.4624,281.2031,190.4624,269.2031" style="stroke:#181818;stroke-width:0.5;"/><polygon fill="#F1F1F1" points="160.7227,313.2031,220.2021,313.2031,232.2021,325.2031,220.2021,337.2031,160.7227,337.2031,148.7227,325.2031,160.7227,313.2031" style="stroke:#181818;stroke-width:0.5;"/><text fill="#000000" font-family="sans-serif" font-size="11" lengthAdjust="spacing" textLength="59.4795" x="160.7227" y="329.0112">Mu&#7889;n x&#243;a?</text><text fill="#000000" font-family="sans-serif" font-size="11" lengthAdjust="spacing" textLength="19.2178" x="129.5049" y="322.6089">Yes</text><text fill="#000000" font-family="sans-serif" font-size="11" lengthAdjust="spacing" textLength="14.9585" x="232.2021" y="322.6089">No</text><rect fill="#F1F1F1" height="33.9688" rx="12.5" ry="12.5" style="stroke:#181818;stroke-width:0.5;" width="78.6758" x="99.3848" y="347.2031"/><text fill="#000000" font-family="sans-serif" font-size="12" lengthAdjust="spacing" textLength="58.6758" x="109.3848" y="368.3418">X&#243;a asset</text><rect fill="#F1F1F1" height="33.9688" rx="12.5" ry="12.5" style="stroke:#181818;stroke-width:0.5;" width="83.6504" x="200.377" y="347.2031"/><text fill="#000000" font-family="sans-serif" font-size="12" lengthAdjust="spacing" textLength="63.6504" x="210.377" y="368.3418">Kh&#244;ng x&#243;a</text><polygon fill="#F1F1F1" points="190.4624,387.1719,202.4624,399.1719,190.4624,411.1719,178.4624,399.1719,190.4624,387.1719" style="stroke:#181818;stroke-width:0.5;"/><ellipse cx="190.4624" cy="442.1719" fill="none" rx="11" ry="11" style="stroke:#222222;stroke-width:1;"/><ellipse cx="190.4624" cy="442.1719" fill="#222222" rx="6" ry="6" style="stroke:#222222;stroke-width:1;"/><line style="stroke:#181818;stroke-width:1;" x1="190.4624" x2="190.4624" y1="67.2969" y2="87.2969"/><polygon fill="#181818" points="186.4624,77.2969,190.4624,87.2969,194.4624,77.2969,190.4624,81.2969" style="stroke:#181818;stroke-width:1;"/><line style="stroke:#181818;stroke-width:1;" x1="190.4624" x2="190.4624" y1="121.2656" y2="141.2656"/><polygon fill="#181818" points="186.4624,131.2656,190.4624,141.2656,194.4624,131.2656,190.4624,135.2656" style="stroke:#181818;stroke-width:1;"/><line style="stroke:#181818;stroke-width:1;" x1="132.2334" x2="121.7271" y1="207.2344" y2="207.2344"/><line style="stroke:#181818;stroke-width:1;" x1="121.7271" x2="121.7271" y1="207.2344" y2="229.2344"/><polygon fill="#181818" points="117.7271,219.2344,121.7271,229.2344,125.7271,219.2344,121.7271,223.2344" style="stroke:#181818;stroke-width:1;"/><line style="stroke:#181818;stroke-width:1;" x1="248.6914" x2="259.1978" y1="207.2344" y2="207.2344"/><line style="stroke:#181818;stroke-width:1;" x1="259.1978" x2="259.1978" y1="207.2344" y2="229.2344"/><polygon fill="#181818" points="255.1978,219.2344,259.1978,229.2344,263.1978,219.2344,259.1978,223.2344" style="stroke:#181818;stroke-width:1;"/><line style="stroke:#181818;stroke-width:1;" x1="121.7271" x2="121.7271" y1="263.2031" y2="281.2031"/><line style="stroke:#181818;stroke-width:1;" x1="121.7271" x2="178.4624" y1="281.2031" y2="281.2031"/><polygon fill="#181818" points="168.4624,277.2031,178.4624,281.2031,168.4624,285.2031,172.4624,281.2031" style="stroke:#181818;stroke-width:1;"/><line style="stroke:#181818;stroke-width:1;" x1="259.1978" x2="259.1978" y1="263.2031" y2="281.2031"/><line style="stroke:#181818;stroke-width:1;" x1="259.1978" x2="202.4624" y1="281.2031" y2="281.2031"/><polygon fill="#181818" points="212.4624,277.2031,202.4624,281.2031,212.4624,285.2031,208.4624,281.2031" style="stroke:#181818;stroke-width:1;"/><line style="stroke:#181818;stroke-width:1;" x1="190.4624" x2="190.4624" y1="175.2344" y2="195.2344"/><polygon fill="#181818" points="186.4624,185.2344,190.4624,195.2344,194.4624,185.2344,190.4624,189.2344" style="stroke:#181818;stroke-width:1;"/><line style="stroke:#181818;stroke-width:1;" x1="148.7227" x2="138.7227" y1="325.2031" y2="325.2031"/><line style="stroke:#181818;stroke-width:1;" x1="138.7227" x2="138.7227" y1="325.2031" y2="347.2031"/><polygon fill="#181818" points="134.7227,337.2031,138.7227,347.2031,142.7227,337.2031,138.7227,341.2031" style="stroke:#181818;stroke-width:1;"/><line style="stroke:#181818;stroke-width:1;" x1="232.2021" x2="242.2021" y1="325.2031" y2="325.2031"/><line style="stroke:#181818;stroke-width:1;" x1="242.2021" x2="242.2021" y1="325.2031" y2="347.2031"/><polygon fill="#181818" points="238.2021,337.2031,242.2021,347.2031,246.2021,337.2031,242.2021,341.2031" style="stroke:#181818;stroke-width:1;"/><line style="stroke:#181818;stroke-width:1;" x1="138.7227" x2="138.7227" y1="381.1719" y2="399.1719"/><line style="stroke:#181818;stroke-width:1;" x1="138.7227" x2="178.4624" y1="399.1719" y2="399.1719"/><polygon fill="#181818" points="168.4624,395.1719,178.4624,399.1719,168.4624,403.1719,172.4624,399.1719" style="stroke:#181818;stroke-width:1;"/><line style="stroke:#181818;stroke-width:1;" x1="242.2021" x2="242.2021" y1="381.1719" y2="399.1719"/><line style="stroke:#181818;stroke-width:1;" x1="242.2021" x2="202.4624" y1="399.1719" y2="399.1719"/><polygon fill="#181818" points="212.4624,395.1719,202.4624,399.1719,212.4624,403.1719,208.4624,399.1719" style="stroke:#181818;stroke-width:1;"/><line style="stroke:#181818;stroke-width:1;" x1="190.4624" x2="190.4624" y1="293.2031" y2="313.2031"/><polygon fill="#181818" points="186.4624,303.2031,190.4624,313.2031,194.4624,303.2031,190.4624,307.2031" style="stroke:#181818;stroke-width:1;"/><line style="stroke:#181818;stroke-width:1;" x1="190.4624" x2="190.4624" y1="411.1719" y2="431.1719"/><polygon fill="#181818" points="186.4624,421.1719,190.4624,431.1719,194.4624,421.1719,190.4624,425.1719" style="stroke:#181818;stroke-width:1;"/><!--SRC=[AyaioKbLS4mkoIpBBAbKSCbCJ2zAp5NGLGWiVRXhSPv2pk6z2Yc9UHaAnOSN9cSe91ONfvPmSHMN91QLS5c559LMAYG_tBMs04EDDPULSyR3tRrvC2vNPfg2Xc_fmzqJynIIWJAT8FKFTwzDjDTKACb8pLFGY4mjrkHIK03hWyl2jAVc5ASgQFZbWrLuPnpUafUEQWnGILvAPXgAFHM7DsCQ7m4Kn6SgI1FSiEAI_080]--></g></svg>