<svg xmlns="http://www.w3.org/2000/svg" xmlns:xlink="http://www.w3.org/1999/xlink" contentStyleType="text/css" data-diagram-type="STATE" height="920px" preserveAspectRatio="none" style="width:490px;height:920px;background:#FFFFFF;" version="1.1" viewBox="0 0 490 920" width="490px" zoomAndPan="magnify"><title>Tr&#7841;ng th&#225;i: Asset (Designer)</title><defs><filter height="300%" id="f1p8hknadyrizw" width="300%" x="-1" y="-1"><feGaussianBlur result="blurOut" stdDeviation="2"/><feColorMatrix in="blurOut" result="blurOut2" type="matrix" values="0 0 0 0 0 0 0 0 0 0 0 0 0 0 0 0 0 0 .4 0"/><feOffset dx="4" dy="4" in="blurOut2" result="blurOut3"/><feBlend in="SourceGraphic" in2="blurOut3" mode="normal"/></filter></defs><g><g class="title" data-source-line="8"><text fill="#000000" font-family="sans-serif" font-size="14" font-weight="bold" lengthAdjust="spacing" textLength="224.1367" x="126.319" y="22.9951">Tr&#7841;ng th&#225;i: Asset (Designer)</text></g><g id="Draft"><rect fill="#F1F1F1" filter="url(#f1p8hknadyrizw)" height="50" rx="12.5" ry="12.5" style="stroke:#666666;stroke-width:0.5;" width="55.5332" x="321.72" y="140.2969"/><line style="stroke:#666666;stroke-width:0.5;" x1="321.72" x2="377.2532" y1="166.5938" y2="166.5938"/><text fill="#000000" font-family="sans-serif" font-size="14" lengthAdjust="spacing" textLength="35.5332" x="331.72" y="158.292">Draft</text></g><g id="Submitted"><rect fill="#F1F1F1" filter="url(#f1p8hknadyrizw)" height="50" rx="12.5" ry="12.5" style="stroke:#666666;stroke-width:0.5;" width="92.6523" x="245.16" y="267.2969"/><line style="stroke:#666666;stroke-width:0.5;" x1="245.16" x2="337.8123" y1="293.5938" y2="293.5938"/><text fill="#000000" font-family="sans-serif" font-size="14" lengthAdjust="spacing" textLength="72.6523" x="255.16" y="285.292">Submitted</text></g><g id="Approved"><rect fill="#F1F1F1" filter="url(#f1p8hknadyrizw)" height="50" rx="12.5" ry="12.5" style="stroke:#666666;stroke-width:0.5;" width="87.457" x="95.76" y="394.2969"/><line style="stroke:#666666;stroke-width:0.5;" x1="95.76" x2="183.217" y1="420.5938" y2="420.5938"/><text fill="#000000" font-family="sans-serif" font-size="14" lengthAdjust="spacing" textLength="67.457" x="105.76" y="412.292">Approved</text></g><g id="Published"><rect fill="#F1F1F1" filter="url(#f1p8hknadyrizw)" height="50" rx="12.5" ry="12.5" style="stroke:#666666;stroke-width:0.5;" width="87.6484" x="28.66" y="521.2969"/><line style="stroke:#666666;stroke-width:0.5;" x1="28.66" x2="116.3084" y1="547.5938" y2="547.5938"/><text fill="#000000" font-family="sans-serif" font-size="14" lengthAdjust="spacing" textLength="67.6484" x="38.66" y="539.292">Published</text></g><g id="Suspended"><rect fill="#F1F1F1" filter="url(#f1p8hknadyrizw)" height="50" rx="12.5" ry="12.5" style="stroke:#666666;stroke-width:0.5;" width="97.8135" x="156.58" y="648.2969"/><line style="stroke:#666666;stroke-width:0.5;" x1="156.58" x2="254.3935" y1="674.5938" y2="674.5938"/><text fill="#000000" font-family="sans-serif" font-size="14" lengthAdjust="spacing" textLength="77.8135" x="166.58" y="666.292">Suspended</text></g><g id="Retired"><rect fill="#F1F1F1" filter="url(#f1p8hknadyrizw)" height="50" rx="12.5" ry="12.5" style="stroke:#666666;stroke-width:0.5;" width="70.9756" x="7" y="775.2969"/><line style="stroke:#666666;stroke-width:0.5;" x1="7" x2="77.9756" y1="801.5938" y2="801.5938"/><text fill="#000000" font-family="sans-serif" font-size="14" lengthAdjust="spacing" textLength="50.9756" x="17" y="793.292">Retired</text></g><g id="Rejected"><rect fill="#F1F1F1" filter="url(#f1p8hknadyrizw)" height="50" rx="12.5" ry="12.5" style="stroke:#666666;stroke-width:0.5;" width="81.5303" x="308.72" y="394.2969"/><line style="stroke:#666666;stroke-width:0.5;" x1="308.72" x2="390.2503" y1="420.5938" y2="420.5938"/><text fill="#000000" font-family="sans-serif" font-size="14" lengthAdjust="spacing" textLength="61.5303" x="318.72" y="412.292">Rejected</text></g><ellipse cx="349.49" cy="53.2969" fill="#222222" filter="url(#f1p8hknadyrizw)" rx="10" ry="10" style="stroke:#222222;stroke-width:1;"/><ellipse cx="42.49" cy="897.2969" fill="none" filter="url(#f1p8hknadyrizw)" rx="11" ry="11" style="stroke:#222222;stroke-width:1;"/><ellipse cx="42.49" cy="897.2969" fill="#222222" rx="6" ry="6" style="stroke:#222222;stroke-width:1;"/><!--link *start* to Draft--><g class="link" data-entity-1=".start." data-entity-2="Draft" data-source-line="10" data-uid="lnk3" id="link_.start._Draft"><path d="M349.49,63.6769 C349.49,80.4069 349.49,109.8869 349.49,133.9269" fill="none" id="*start*-to-Draft" style="stroke:#181818;stroke-width:1;"/><polygon fill="#181818" points="349.49,139.9269,353.49,130.9269,349.49,134.9269,345.49,130.9269,349.49,139.9269" style="stroke:#181818;stroke-width:1;"/><text fill="#000000" font-family="sans-serif" font-size="13" lengthAdjust="spacing" textLength="118.8091" x="350.49" y="106.3638">Chu&#7849;n b&#7883; n&#7897;i dung</text></g><!--link Draft to Submitted--><g class="link" data-entity-1="Draft" data-entity-2="Submitted" data-source-line="20" data-uid="lnk4" id="link_Draft_Submitted"><path d="M333.08,190.6869 C327.39,199.7569 321.25,210.2769 316.49,220.2969 C309.37,235.2869 304.987,247.1618 300.537,261.0818" fill="none" id="Draft-to-Submitted" style="stroke:#181818;stroke-width:1;"/><polygon fill="#181818" points="298.71,266.7969,305.2606,259.4423,300.2325,262.0343,297.6405,257.0063,298.71,266.7969" style="stroke:#181818;stroke-width:1;"/><text fill="#000000" font-family="sans-serif" font-size="13" lengthAdjust="spacing" textLength="63.3369" x="317.49" y="233.3638">G&#7917;i duy&#7879;t</text></g><!--link Submitted to Approved--><g class="link" data-entity-1="Submitted" data-entity-2="Approved" data-source-line="21" data-uid="lnk5" id="link_Submitted_Approved"><path d="M244.97,303.1569 C218.22,311.0169 185.8,324.5869 164.49,347.2969 C152.5,360.0669 147.496,373.0541 144.216,388.1241" fill="none" id="Submitted-to-Approved" style="stroke:#181818;stroke-width:1;"/><polygon fill="#181818" points="142.94,393.9869,148.7625,386.0434,144.0034,389.1013,140.9456,384.3421,142.94,393.9869" style="stroke:#181818;stroke-width:1;"/><text fill="#000000" font-family="sans-serif" font-size="13" lengthAdjust="spacing" textLength="111.6934" x="165.49" y="360.3638">Admin ph&#234; duy&#7879;t</text></g><!--link Submitted to Rejected--><g class="link" data-entity-1="Submitted" data-entity-2="Rejected" data-source-line="22" data-uid="lnk6" id="link_Submitted_Rejected"><path d="M285.72,317.6569 C283.57,331.8469 283.02,349.7669 289.49,364.2969 C294.56,375.6869 298.8553,381.7235 308.1753,389.9235" fill="none" id="Submitted-to-Rejected" style="stroke:#181818;stroke-width:1;"/><polygon fill="#181818" points="312.68,393.8869,308.5652,384.9388,308.9261,390.5841,303.2808,390.945,312.68,393.8869" style="stroke:#181818;stroke-width:1;"/><text fill="#000000" font-family="sans-serif" font-size="13" lengthAdjust="spacing" textLength="90.2129" x="290.49" y="360.3638">Admin t&#7915; ch&#7889;i</text></g><!--link Rejected to Draft--><g class="link" data-entity-1="Rejected" data-entity-2="Draft" data-source-line="23" data-uid="lnk7" id="link_Rejected_Draft"><path d="M370.04,394.0569 C376.26,385.2569 382.29,374.8669 385.49,364.2969 C404.03,303.0469 404.03,281.5469 385.49,220.2969 C382.29,209.7269 379.7232,204.2365 373.5032,195.4365" fill="none" id="Rejected-to-Draft" style="stroke:#181818;stroke-width:1;"/><polygon fill="#181818" points="370.04,190.5369,371.9683,200.1951,372.926,194.6199,378.5012,195.5776,370.04,190.5369" style="stroke:#181818;stroke-width:1;"/><text fill="#000000" font-family="sans-serif" font-size="13" lengthAdjust="spacing" textLength="82.2847" x="400.49" y="296.8638">S&#7917;a &amp; g&#7917;i l&#7841;i</text></g><!--link Approved to Published--><g class="link" data-entity-1="Approved" data-entity-2="Published" data-source-line="25" data-uid="lnk8" id="link_Approved_Published"><path d="M112.73,444.6669 C104.56,453.3169 96.24,463.5869 90.49,474.2969 C82.73,488.7469 79.2871,500.7625 76.7171,514.9825" fill="none" id="Approved-to-Published" style="stroke:#181818;stroke-width:1;"/><polygon fill="#181818" points="75.65,520.8869,81.1869,512.7418,76.5393,515.9666,73.3144,511.319,75.65,520.8869" style="stroke:#181818;stroke-width:1;"/><text fill="#000000" font-family="sans-serif" font-size="13" lengthAdjust="spacing" textLength="87.5596" x="91.49" y="487.3638">&#272;&#432;a l&#234;n store</text></g><!--link Published to Suspended--><g class="link" data-entity-1="Published" data-entity-2="Suspended" data-source-line="26" data-uid="lnk9" id="link_Published_Suspended"><path d="M64.62,571.6469 C61.42,586.3669 60.34,604.8269 69.49,618.2969 C74.77,626.0769 113.7355,640.9287 150.4455,653.7487" fill="none" id="Published-to-Suspended" style="stroke:#181818;stroke-width:1;"/><polygon fill="#181818" points="156.11,655.7269,148.932,648.9833,151.3896,654.0784,146.2944,656.5359,156.11,655.7269" style="stroke:#181818;stroke-width:1;"/><text fill="#000000" font-family="sans-serif" font-size="13" lengthAdjust="spacing" textLength="108.9766" x="70.49" y="614.3638">B&#225;o c&#225;o/vi ph&#7841;m</text></g><!--link Suspended to Approved--><g class="link" data-entity-1="Suspended" data-entity-2="Approved" data-source-line="27" data-uid="lnk10" id="link_Suspended_Approved"><path d="M207.09,648.0469 C208.7,609.5969 208.1,532.9869 183.49,474.2969 C179,463.5869 175.5874,457.8787 168.1974,449.2287" fill="none" id="Suspended-to-Approved" style="stroke:#181818;stroke-width:1;"/><polygon fill="#181818" points="164.3,444.6669,167.1048,454.1079,167.5478,448.4684,173.1873,448.9114,164.3,444.6669" style="stroke:#181818;stroke-width:1;"/><text fill="#000000" font-family="sans-serif" font-size="13" lengthAdjust="spacing" textLength="89.064" x="206.49" y="550.8638">&#272;&#227; kh&#7855;c ph&#7909;c</text></g><!--link Suspended to Retired--><g class="link" data-entity-1="Suspended" data-entity-2="Retired" data-source-line="28" data-uid="lnk11" id="link_Suspended_Retired"><path d="M173.67,698.6969 C144.95,720.7169 107.6819,749.3066 78.9819,771.3066" fill="none" id="Suspended-to-Retired" style="stroke:#181818;stroke-width:1;"/><polygon fill="#181818" points="74.22,774.9569,83.7964,772.6561,78.1883,771.915,78.9294,766.3069,74.22,774.9569" style="stroke:#181818;stroke-width:1;"/><text fill="#000000" font-family="sans-serif" font-size="13" lengthAdjust="spacing" textLength="90.5874" x="135.49" y="741.3638">Vi ph&#7841;m n&#7863;ng</text></g><!--link Published to Retired--><g class="link" data-entity-1="Published" data-entity-2="Retired" data-source-line="30" data-uid="lnk12" id="link_Published_Retired"><path d="M59.42,571.7869 C49.55,591.7469 36.82,620.9969 31.49,648.2969 C22.88,692.4069 29.48,739.0881 35.61,769.1181" fill="none" id="Published-to-Retired" style="stroke:#181818;stroke-width:1;"/><polygon fill="#181818" points="36.81,774.9969,38.9291,765.3787,35.81,770.0979,31.0908,766.9787,36.81,774.9969" style="stroke:#181818;stroke-width:1;"/><text fill="#000000" font-family="sans-serif" font-size="13" lengthAdjust="spacing" textLength="106.2153" x="32.49" y="677.8638">Ng&#7915;ng cung c&#7845;p</text></g><!--link Retired to *end*--><g class="link" data-entity-1="Retired" data-entity-2=".end." data-source-line="31" data-uid="lnk14" id="link_Retired_.end."><path d="M42.49,825.7569 C42.49,845.3369 42.49,865.7869 42.49,880.0969" fill="none" id="Retired-to-*end*" style="stroke:#181818;stroke-width:1;"/><polygon fill="#181818" points="42.49,886.0969,46.49,877.0969,42.49,881.0969,38.49,877.0969,42.49,886.0969" style="stroke:#181818;stroke-width:1;"/></g><!--SRC=[TP8zImD148Rx-HK3WgWG9211KWZvG3kHH6p4udAttgsvx1vxUn4LQmkRM5e6IM62Q2VaoWl-Z_qdpkRZBWPibfrz7sRUcTcuoqNaAAU7SU1uyfOB7xLA6CI5e1tDy04GMp8HNaCgmHIM3-cXBfN7L4E6Kk5MfLAXfsCfT9lVComVm2E0vZfaUAxCT6Wp1zcGLx4MnqpZJfF5tATSkm2NUrTOAXrXKpdN6glO218pVHVOCUap2fE-SlGIuGCipConvRsTT7fSQ-OjureKATdFmxEa4_8uoEDs4aTCU7dSOfghjUY6kJONB9nOJta1ydLYqWzhvSwaJneAnNAhmeJLl1uN60NP-1zsLITdjKadw0OcVU6GY-iJQLDb1xVHdpi8QPuS82zfoRnJecU3doy7msmiQ7rICIZ4HKlB8H1QpuOINJhs-vmiK-8U5Ff6OxD1zePTWZvTowOZTuDTZfFGYrKssj_qs-xkhuU2FAMU9lGxtCGUPZgAO2LQaFx6Bm00]--></g></svg>