<svg xmlns="http://www.w3.org/2000/svg" xmlns:xlink="http://www.w3.org/1999/xlink" contentStyleType="text/css" data-diagram-type="ACTIVITY" height="508px" preserveAspectRatio="none" style="width:619px;height:508px;background:#FFFFFF;" version="1.1" viewBox="0 0 619 508" width="619px" zoomAndPan="magnify"><title>Activity Diagram - Theo d&#245;i doanh thu t&#7915; asset c&#243; ph&#237; (Graphic Designer)</title><defs/><g><g class="title" data-source-line="1"><text fill="#000000" font-family="sans-serif" font-size="14" font-weight="bold" lengthAdjust="spacing" textLength="576.2354" x="20" y="32.9951">Activity Diagram - Theo d&#245;i doanh thu t&#7915; asset c&#243; ph&#237; (Graphic Designer)</text></g><ellipse cx="327.6177" cy="57.2969" fill="#222222" rx="10" ry="10" style="stroke:#222222;stroke-width:1;"/><rect fill="#F1F1F1" height="33.9688" rx="12.5" ry="12.5" style="stroke:#181818;stroke-width:0.5;" width="259.2207" x="198.0073" y="87.2969"/><text fill="#000000" font-family="sans-serif" font-size="12" lengthAdjust="spacing" textLength="239.2207" x="208.0073" y="108.4355">Truy c&#7853;p ch&#7913;c n&#259;ng Theo d&#245;i doanh thu</text><rect fill="#F1F1F1" height="33.9688" rx="12.5" ry="12.5" style="stroke:#181818;stroke-width:0.5;" width="211.1035" x="222.0659" y="141.2656"/><text fill="#000000" font-family="sans-serif" font-size="12" lengthAdjust="spacing" textLength="191.1035" x="232.0659" y="162.4043">Ch&#7885;n kho&#7843;ng th&#7901;i gian c&#7847;n xem</text><rect fill="#F1F1F1" height="33.9688" rx="12.5" ry="12.5" style="stroke:#181818;stroke-width:0.5;" width="214.3496" x="220.4429" y="195.2344"/><text fill="#000000" font-family="sans-serif" font-size="12" lengthAdjust="spacing" textLength="194.3496" x="230.4429" y="216.373">Truy v&#7845;n danh s&#225;ch asset c&#243; ph&#237;</text><rect fill="#F1F1F1" height="33.9688" rx="12.5" ry="12.5" style="stroke:#181818;stroke-width:0.5;" width="198.4824" x="228.3765" y="249.2031"/><text fill="#000000" font-family="sans-serif" font-size="12" lengthAdjust="spacing" textLength="178.4824" x="238.3765" y="270.3418">Hi&#7875;n th&#7883; doanh thu theo asset</text><rect fill="#F1F1F1" height="33.9688" rx="12.5" ry="12.5" style="stroke:#181818;stroke-width:0.5;" width="162.957" x="246.1392" y="303.1719"/><text fill="#000000" font-family="sans-serif" font-size="12" lengthAdjust="spacing" textLength="142.957" x="256.1392" y="324.3105">Hi&#7875;n th&#7883; t&#7893;ng doanh thu</text><polygon fill="#F1F1F1" points="258.7227,357.1406,396.5127,357.1406,408.5127,369.1406,396.5127,381.1406,258.7227,381.1406,246.7227,369.1406,258.7227,357.1406" style="stroke:#181818;stroke-width:0.5;"/><text fill="#000000" font-family="sans-serif" font-size="11" lengthAdjust="spacing" textLength="137.79" x="258.7227" y="372.9487">Mu&#7889;n xem chi ti&#7871;t asset?</text><text fill="#000000" font-family="sans-serif" font-size="11" lengthAdjust="spacing" textLength="19.2178" x="227.5049" y="366.5464">Yes</text><text fill="#000000" font-family="sans-serif" font-size="11" lengthAdjust="spacing" textLength="14.9585" x="408.5127" y="366.5464">No</text><rect fill="#F1F1F1" height="33.9688" rx="12.5" ry="12.5" style="stroke:#181818;stroke-width:0.5;" width="237.3535" x="98.2642" y="391.1406"/><text fill="#000000" font-family="sans-serif" font-size="12" lengthAdjust="spacing" textLength="217.3535" x="108.2642" y="412.2793">Hi&#7875;n th&#7883; th&#244;ng tin chi ti&#7871;t t&#7915;ng asset</text><rect fill="#F1F1F1" height="33.9688" rx="12.5" ry="12.5" style="stroke:#181818;stroke-width:0.5;" width="165.3535" x="355.6177" y="391.1406"/><text fill="#000000" font-family="sans-serif" font-size="12" lengthAdjust="spacing" textLength="145.3535" x="365.6177" y="412.2793">K&#7871;t th&#250;c xem t&#7893;ng quan</text><polygon fill="#F1F1F1" points="327.6177,431.1094,339.6177,443.1094,327.6177,455.1094,315.6177,443.1094,327.6177,431.1094" style="stroke:#181818;stroke-width:0.5;"/><ellipse cx="327.6177" cy="486.1094" fill="none" rx="11" ry="11" style="stroke:#222222;stroke-width:1;"/><ellipse cx="327.6177" cy="486.1094" fill="#222222" rx="6" ry="6" style="stroke:#222222;stroke-width:1;"/><line style="stroke:#181818;stroke-width:1;" x1="327.6177" x2="327.6177" y1="67.2969" y2="87.2969"/><polygon fill="#181818" points="323.6177,77.2969,327.6177,87.2969,331.6177,77.2969,327.6177,81.2969" style="stroke:#181818;stroke-width:1;"/><line style="stroke:#181818;stroke-width:1;" x1="327.6177" x2="327.6177" y1="121.2656" y2="141.2656"/><polygon fill="#181818" points="323.6177,131.2656,327.6177,141.2656,331.6177,131.2656,327.6177,135.2656" style="stroke:#181818;stroke-width:1;"/><line style="stroke:#181818;stroke-width:1;" x1="327.6177" x2="327.6177" y1="175.2344" y2="195.2344"/><polygon fill="#181818" points="323.6177,185.2344,327.6177,195.2344,331.6177,185.2344,327.6177,189.2344" style="stroke:#181818;stroke-width:1;"/><line style="stroke:#181818;stroke-width:1;" x1="327.6177" x2="327.6177" y1="229.2031" y2="249.2031"/><polygon fill="#181818" points="323.6177,239.2031,327.6177,249.2031,331.6177,239.2031,327.6177,243.2031" style="stroke:#181818;stroke-width:1;"/><line style="stroke:#181818;stroke-width:1;" x1="327.6177" x2="327.6177" y1="283.1719" y2="303.1719"/><polygon fill="#181818" points="323.6177,293.1719,327.6177,303.1719,331.6177,293.1719,327.6177,297.1719" style="stroke:#181818;stroke-width:1;"/><line style="stroke:#181818;stroke-width:1;" x1="246.7227" x2="216.9409" y1="369.1406" y2="369.1406"/><line style="stroke:#181818;stroke-width:1;" x1="216.9409" x2="216.9409" y1="369.1406" y2="391.1406"/><polygon fill="#181818" points="212.9409,381.1406,216.9409,391.1406,220.9409,381.1406,216.9409,385.1406" style="stroke:#181818;stroke-width:1;"/><line style="stroke:#181818;stroke-width:1;" x1="408.5127" x2="438.2944" y1="369.1406" y2="369.1406"/><line style="stroke:#181818;stroke-width:1;" x1="438.2944" x2="438.2944" y1="369.1406" y2="391.1406"/><polygon fill="#181818" points="434.2944,381.1406,438.2944,391.1406,442.2944,381.1406,438.2944,385.1406" style="stroke:#181818;stroke-width:1;"/><line style="stroke:#181818;stroke-width:1;" x1="216.9409" x2="216.9409" y1="425.1094" y2="443.1094"/><line style="stroke:#181818;stroke-width:1;" x1="216.9409" x2="315.6177" y1="443.1094" y2="443.1094"/><polygon fill="#181818" points="305.6177,439.1094,315.6177,443.1094,305.6177,447.1094,309.6177,443.1094" style="stroke:#181818;stroke-width:1;"/><line style="stroke:#181818;stroke-width:1;" x1="438.2944" x2="438.2944" y1="425.1094" y2="443.1094"/><line style="stroke:#181818;stroke-width:1;" x1="438.2944" x2="339.6177" y1="443.1094" y2="443.1094"/><polygon fill="#181818" points="349.6177,439.1094,339.6177,443.1094,349.6177,447.1094,345.6177,443.1094" style="stroke:#181818;stroke-width:1;"/><line style="stroke:#181818;stroke-width:1;" x1="327.6177" x2="327.6177" y1="337.1406" y2="357.1406"/><polygon fill="#181818" points="323.6177,347.1406,327.6177,357.1406,331.6177,347.1406,327.6177,351.1406" style="stroke:#181818;stroke-width:1;"/><line style="stroke:#181818;stroke-width:1;" x1="327.6177" x2="327.6177" y1="455.1094" y2="475.1094"/><polygon fill="#181818" points="323.6177,465.1094,327.6177,475.1094,331.6177,465.1094,327.6177,469.1094" style="stroke:#181818;stroke-width:1;"/><!--SRC=[RP2nJiCm68JtFCMDoS0Ba04XAe64OEh2Q3bk_8lsJuYTYiuT4GC38mD2227K2LYIWI6yYDy4EyqGHOosxhwx-otPfSAnjBGcky6CH5w95Gumrwf0rdqJiaAmXjKrh6i_88nH5hBxHAcx7UBJIfIQ96RAKCwgIgB8M57PA3gSL_K6qZMx4bAxzbs2VxUS_yTElVp4Q-uPrxfmpOkNMVz-8kGaE53U6BTgbGxOjMjU6Lcmc-vPwaclm3iZrswvnzoDLuJqNfrED7xVeyyTbw85uelQjGzzk9z1iEIQ7xid72K1nuYlb4aYOCBJtLVOGJmsXYlwtw61MXg5-BBetUTxWUuQsSSDXMvgmLx96It2SOlo3m00]--></g></svg>