<svg xmlns="http://www.w3.org/2000/svg" xmlns:xlink="http://www.w3.org/1999/xlink" contentStyleType="text/css" data-diagram-type="ACTIVITY" height="508px" preserveAspectRatio="none" style="width:333px;height:508px;background:#FFFFFF;" version="1.1" viewBox="0 0 333 508" width="333px" zoomAndPan="magnify"><title>Activity Diagram - Upload asset</title><defs/><g><g class="title" data-source-line="4"><text fill="#000000" font-family="sans-serif" font-size="14" font-weight="bold" lengthAdjust="spacing" textLength="250.0791" x="40.4282" y="32.9951">Activity Diagram - Upload asset</text></g><ellipse cx="170.9858" cy="57.2969" fill="#222222" rx="10" ry="10" style="stroke:#222222;stroke-width:1;"/><rect fill="#F1F1F1" height="33.9688" rx="12.5" ry="12.5" style="stroke:#181818;stroke-width:0.5;" width="173.7324" x="84.1196" y="87.2969"/><text fill="#000000" font-family="sans-serif" font-size="12" lengthAdjust="spacing" textLength="153.7324" x="94.1196" y="108.4355">Truy c&#7853;p danh s&#225;ch asset</text><rect fill="#F1F1F1" height="33.9688" rx="12.5" ry="12.5" style="stroke:#181818;stroke-width:0.5;" width="86.6914" x="127.6401" y="141.2656"/><text fill="#000000" font-family="sans-serif" font-size="12" lengthAdjust="spacing" textLength="66.6914" x="137.6401" y="162.4043">Ch&#7885;n asset</text><rect fill="#F1F1F1" height="33.9688" rx="12.5" ry="12.5" style="stroke:#181818;stroke-width:0.5;" width="181.9238" x="80.0239" y="195.2344"/><text fill="#000000" font-family="sans-serif" font-size="12" lengthAdjust="spacing" textLength="161.9238" x="90.0239" y="216.373">Ch&#7885;n lo&#7841;i asset c&#7847;n upload</text><polygon fill="#F1F1F1" points="144.6702,249.2031,197.3015,249.2031,209.3015,261.2031,197.3015,273.2031,144.6702,273.2031,132.6702,261.2031,144.6702,249.2031" style="stroke:#181818;stroke-width:0.5;"/><text fill="#000000" font-family="sans-serif" font-size="11" lengthAdjust="spacing" textLength="52.6313" x="144.6702" y="265.0112">Mi&#7877;n ph&#237;?</text><text fill="#000000" font-family="sans-serif" font-size="11" lengthAdjust="spacing" textLength="19.2178" x="113.4524" y="258.6089">Yes</text><text fill="#000000" font-family="sans-serif" font-size="11" lengthAdjust="spacing" textLength="14.9585" x="209.3015" y="258.6089">No</text><rect fill="#F1F1F1" height="33.9688" rx="12.5" ry="12.5" style="stroke:#181818;stroke-width:0.5;" width="154.0039" x="11" y="283.2031"/><text fill="#000000" font-family="sans-serif" font-size="12" lengthAdjust="spacing" textLength="134.0039" x="21" y="304.3418">Upload asset mi&#7877;n ph&#237;</text><rect fill="#F1F1F1" height="33.9688" rx="12.5" ry="12.5" style="stroke:#181818;stroke-width:0.5;" width="137.9316" x="185.0039" y="283.2031"/><text fill="#000000" font-family="sans-serif" font-size="12" lengthAdjust="spacing" textLength="117.9316" x="195.0039" y="304.3418">Upload asset c&#243; ph&#237;</text><rect fill="#F1F1F1" height="33.9688" rx="12.5" ry="12.5" style="stroke:#181818;stroke-width:0.5;" width="89.8672" x="209.0361" y="337.1719"/><text fill="#000000" font-family="sans-serif" font-size="12" lengthAdjust="spacing" textLength="69.8672" x="219.0361" y="358.3105">&#272;&#7863;t gi&#225; b&#225;n</text><polygon fill="#F1F1F1" points="170.9858,377.1406,182.9858,389.1406,170.9858,401.1406,158.9858,389.1406,170.9858,377.1406" style="stroke:#181818;stroke-width:0.5;"/><rect fill="#F1F1F1" height="33.9688" rx="12.5" ry="12.5" style="stroke:#181818;stroke-width:0.5;" width="120.8398" x="110.5659" y="421.1406"/><text fill="#000000" font-family="sans-serif" font-size="12" lengthAdjust="spacing" textLength="100.8398" x="120.5659" y="442.2793">X&#225;c nh&#7853;n upload</text><ellipse cx="170.9858" cy="486.1094" fill="none" rx="11" ry="11" style="stroke:#222222;stroke-width:1;"/><ellipse cx="170.9858" cy="486.1094" fill="#222222" rx="6" ry="6" style="stroke:#222222;stroke-width:1;"/><line style="stroke:#181818;stroke-width:1;" x1="170.9858" x2="170.9858" y1="67.2969" y2="87.2969"/><polygon fill="#181818" points="166.9858,77.2969,170.9858,87.2969,174.9858,77.2969,170.9858,81.2969" style="stroke:#181818;stroke-width:1;"/><line style="stroke:#181818;stroke-width:1;" x1="170.9858" x2="170.9858" y1="121.2656" y2="141.2656"/><polygon fill="#181818" points="166.9858,131.2656,170.9858,141.2656,174.9858,131.2656,170.9858,135.2656" style="stroke:#181818;stroke-width:1;"/><line style="stroke:#181818;stroke-width:1;" x1="170.9858" x2="170.9858" y1="175.2344" y2="195.2344"/><polygon fill="#181818" points="166.9858,185.2344,170.9858,195.2344,174.9858,185.2344,170.9858,189.2344" style="stroke:#181818;stroke-width:1;"/><line style="stroke:#181818;stroke-width:1;" x1="253.9697" x2="253.9697" y1="317.1719" y2="337.1719"/><polygon fill="#181818" points="249.9697,327.1719,253.9697,337.1719,257.9697,327.1719,253.9697,331.1719" style="stroke:#181818;stroke-width:1;"/><line style="stroke:#181818;stroke-width:1;" x1="132.6702" x2="88.002" y1="261.2031" y2="261.2031"/><line style="stroke:#181818;stroke-width:1;" x1="88.002" x2="88.002" y1="261.2031" y2="283.2031"/><polygon fill="#181818" points="84.002,273.2031,88.002,283.2031,92.002,273.2031,88.002,277.2031" style="stroke:#181818;stroke-width:1;"/><line style="stroke:#181818;stroke-width:1;" x1="209.3015" x2="253.9697" y1="261.2031" y2="261.2031"/><line style="stroke:#181818;stroke-width:1;" x1="253.9697" x2="253.9697" y1="261.2031" y2="283.2031"/><polygon fill="#181818" points="249.9697,273.2031,253.9697,283.2031,257.9697,273.2031,253.9697,277.2031" style="stroke:#181818;stroke-width:1;"/><line style="stroke:#181818;stroke-width:1;" x1="88.002" x2="88.002" y1="317.1719" y2="389.1406"/><line style="stroke:#181818;stroke-width:1;" x1="88.002" x2="158.9858" y1="389.1406" y2="389.1406"/><polygon fill="#181818" points="148.9858,385.1406,158.9858,389.1406,148.9858,393.1406,152.9858,389.1406" style="stroke:#181818;stroke-width:1;"/><line style="stroke:#181818;stroke-width:1;" x1="253.9697" x2="253.9697" y1="371.1406" y2="389.1406"/><line style="stroke:#181818;stroke-width:1;" x1="253.9697" x2="182.9858" y1="389.1406" y2="389.1406"/><polygon fill="#181818" points="192.9858,385.1406,182.9858,389.1406,192.9858,393.1406,188.9858,389.1406" style="stroke:#181818;stroke-width:1;"/><line style="stroke:#181818;stroke-width:1;" x1="170.9858" x2="170.9858" y1="229.2031" y2="249.2031"/><polygon fill="#181818" points="166.9858,239.2031,170.9858,249.2031,174.9858,239.2031,170.9858,243.2031" style="stroke:#181818;stroke-width:1;"/><line style="stroke:#181818;stroke-width:1;" x1="170.9858" x2="170.9858" y1="401.1406" y2="421.1406"/><polygon fill="#181818" points="166.9858,411.1406,170.9858,421.1406,174.9858,411.1406,170.9858,415.1406" style="stroke:#181818;stroke-width:1;"/><line style="stroke:#181818;stroke-width:1;" x1="170.9858" x2="170.9858" y1="455.1094" y2="475.1094"/><polygon fill="#181818" points="166.9858,465.1094,170.9858,475.1094,174.9858,465.1094,170.9858,469.1094" style="stroke:#181818;stroke-width:1;"/><!--SRC=[POyx3i8m44HxdsBAK721f408MgX0Wj8a1gyKd2XUa3W09H9NI4L5HO4KIdCHtmJpHwBSsJUxCvPbnI8ULQiDKjySIsJIQ5XNfnhIMiM9Y7lQNtRcFJ9nhj1DcTR46_H9BYgvH1lZCYzaziJ4nvKNlgdfgTvV70nM3p0HWkQ81kGlMuDIksEd1TRA89egsn90_7iHoo-O29LRXMXO_6EfExsOiBdkVNDcBCZLcBdQ1AF9Q1xIJK9361qgV_DOBieR]--></g></svg>