<svg xmlns="http://www.w3.org/2000/svg" xmlns:xlink="http://www.w3.org/1999/xlink" contentStyleType="text/css" data-diagram-type="ACTIVITY" height="400px" preserveAspectRatio="none" style="width:313px;height:400px;background:#FFFFFF;" version="1.1" viewBox="0 0 313 400" width="313px" zoomAndPan="magnify"><title>Activity - &#272;&#259;ng nh&#7853;p h&#7879; th&#7889;ng</title><defs/><g><g class="title" data-source-line="1"><text fill="#000000" font-family="sans-serif" font-size="14" font-weight="bold" lengthAdjust="spacing" textLength="236.8447" x="36.6362" y="32.9951">Activity - &#272;&#259;ng nh&#7853;p h&#7879; th&#7889;ng</text></g><ellipse cx="182.0234" cy="57.2969" fill="#222222" rx="10" ry="10" style="stroke:#222222;stroke-width:1;"/><rect fill="#F1F1F1" height="33.9688" rx="12.5" ry="12.5" style="stroke:#181818;stroke-width:0.5;" width="162.5234" x="100.7617" y="87.2969"/><text fill="#000000" font-family="sans-serif" font-size="12" lengthAdjust="spacing" textLength="142.5234" x="110.7617" y="108.4355">Nh&#7853;p email &amp; m&#7853;t kh&#7849;u</text><rect fill="#F1F1F1" height="33.9688" rx="12.5" ry="12.5" style="stroke:#181818;stroke-width:0.5;" width="94.5723" x="134.7373" y="141.2656"/><text fill="#000000" font-family="sans-serif" font-size="12" lengthAdjust="spacing" textLength="74.5723" x="144.7373" y="162.4043">Submit form</text><polygon fill="#F1F1F1" points="134.2476,195.2344,229.7993,195.2344,241.7993,207.2344,229.7993,219.2344,134.2476,219.2344,122.2476,207.2344,134.2476,195.2344" style="stroke:#181818;stroke-width:0.5;"/><text fill="#000000" font-family="sans-serif" font-size="11" lengthAdjust="spacing" textLength="95.5518" x="134.2476" y="211.0425">Th&#244;ng tin h&#7907;p l&#7879;?</text><text fill="#000000" font-family="sans-serif" font-size="11" lengthAdjust="spacing" textLength="19.2178" x="103.0298" y="204.6401">Yes</text><text fill="#000000" font-family="sans-serif" font-size="11" lengthAdjust="spacing" textLength="14.9585" x="241.7993" y="204.6401">No</text><rect fill="#F1F1F1" height="33.9688" rx="12.5" ry="12.5" style="stroke:#181818;stroke-width:0.5;" width="120.8516" x="43.8184" y="229.2344"/><text fill="#000000" font-family="sans-serif" font-size="12" lengthAdjust="spacing" textLength="100.8516" x="53.8184" y="250.373">T&#7841;o session/ JWT</text><rect fill="#F1F1F1" height="33.9688" rx="12.5" ry="12.5" style="stroke:#181818;stroke-width:0.5;" width="186.4883" x="11" y="283.2031"/><text fill="#000000" font-family="sans-serif" font-size="12" lengthAdjust="spacing" textLength="166.4883" x="21" y="304.3418">&#272;i t&#7899;i Dashboard Developer</text><rect fill="#F1F1F1" height="33.9688" rx="12.5" ry="12.5" style="stroke:#181818;stroke-width:0.5;" width="84.6289" x="217.4883" y="229.2344"/><text fill="#000000" font-family="sans-serif" font-size="12" lengthAdjust="spacing" textLength="64.6289" x="227.4883" y="250.373">Hi&#7875;n th&#7883; l&#7895;i</text><polygon fill="#F1F1F1" points="182.0234,323.1719,194.0234,335.1719,182.0234,347.1719,170.0234,335.1719,182.0234,323.1719" style="stroke:#181818;stroke-width:0.5;"/><ellipse cx="182.0234" cy="378.1719" fill="none" rx="11" ry="11" style="stroke:#222222;stroke-width:1;"/><ellipse cx="182.0234" cy="378.1719" fill="#222222" rx="6" ry="6" style="stroke:#222222;stroke-width:1;"/><line style="stroke:#181818;stroke-width:1;" x1="182.0234" x2="182.0234" y1="67.2969" y2="87.2969"/><polygon fill="#181818" points="178.0234,77.2969,182.0234,87.2969,186.0234,77.2969,182.0234,81.2969" style="stroke:#181818;stroke-width:1;"/><line style="stroke:#181818;stroke-width:1;" x1="182.0234" x2="182.0234" y1="121.2656" y2="141.2656"/><polygon fill="#181818" points="178.0234,131.2656,182.0234,141.2656,186.0234,131.2656,182.0234,135.2656" style="stroke:#181818;stroke-width:1;"/><line style="stroke:#181818;stroke-width:1;" x1="104.2441" x2="104.2441" y1="263.2031" y2="283.2031"/><polygon fill="#181818" points="100.2441,273.2031,104.2441,283.2031,108.2441,273.2031,104.2441,277.2031" style="stroke:#181818;stroke-width:1;"/><line style="stroke:#181818;stroke-width:1;" x1="122.2476" x2="104.2441" y1="207.2344" y2="207.2344"/><line style="stroke:#181818;stroke-width:1;" x1="104.2441" x2="104.2441" y1="207.2344" y2="229.2344"/><polygon fill="#181818" points="100.2441,219.2344,104.2441,229.2344,108.2441,219.2344,104.2441,223.2344" style="stroke:#181818;stroke-width:1;"/><line style="stroke:#181818;stroke-width:1;" x1="241.7993" x2="259.8027" y1="207.2344" y2="207.2344"/><line style="stroke:#181818;stroke-width:1;" x1="259.8027" x2="259.8027" y1="207.2344" y2="229.2344"/><polygon fill="#181818" points="255.8027,219.2344,259.8027,229.2344,263.8027,219.2344,259.8027,223.2344" style="stroke:#181818;stroke-width:1;"/><line style="stroke:#181818;stroke-width:1;" x1="104.2441" x2="104.2441" y1="317.1719" y2="335.1719"/><line style="stroke:#181818;stroke-width:1;" x1="104.2441" x2="170.0234" y1="335.1719" y2="335.1719"/><polygon fill="#181818" points="160.0234,331.1719,170.0234,335.1719,160.0234,339.1719,164.0234,335.1719" style="stroke:#181818;stroke-width:1;"/><line style="stroke:#181818;stroke-width:1;" x1="259.8027" x2="259.8027" y1="263.2031" y2="335.1719"/><line style="stroke:#181818;stroke-width:1;" x1="259.8027" x2="194.0234" y1="335.1719" y2="335.1719"/><polygon fill="#181818" points="204.0234,331.1719,194.0234,335.1719,204.0234,339.1719,200.0234,335.1719" style="stroke:#181818;stroke-width:1;"/><line style="stroke:#181818;stroke-width:1;" x1="182.0234" x2="182.0234" y1="175.2344" y2="195.2344"/><polygon fill="#181818" points="178.0234,185.2344,182.0234,195.2344,186.0234,185.2344,182.0234,189.2344" style="stroke:#181818;stroke-width:1;"/><line style="stroke:#181818;stroke-width:1;" x1="182.0234" x2="182.0234" y1="347.1719" y2="367.1719"/><polygon fill="#181818" points="178.0234,357.1719,182.0234,367.1719,186.0234,357.1719,182.0234,361.1719" style="stroke:#181818;stroke-width:1;"/><!--SRC=[9OujRiD048NvdkAXoW5LkGsYI05LWKajLOLECev7NUzQth6bue20a0G514L11ML5CQmliZVfsYKZlHzzyuH54nPhuOxb4uyOZiFER65AV_-kKVf-3mdtPBRAITw8YjF_YAgSDHvG1INu2EPNcwZujLrLB2XiKoMA2qHP-ViJWC9cfDrgwC2SpmAL3A9tSZC5n9c_NoqSESVMFE7bBKj6UpWonFSNnZ9tvShcpGPBwaZRcff4aNQ4ABKJufbzlpFJsiFuvCoXO3PSXE6s_WC0]--></g></svg>