<svg xmlns="http://www.w3.org/2000/svg" xmlns:xlink="http://www.w3.org/1999/xlink" contentStyleType="text/css" data-diagram-type="ACTIVITY" height="454px" preserveAspectRatio="none" style="width:354px;height:454px;background:#FFFFFF;" version="1.1" viewBox="0 0 354 454" width="354px" zoomAndPan="magnify"><title>Activity - Mua asset c&#243; ph&#237;</title><defs/><g><g class="title" data-source-line="1"><text fill="#000000" font-family="sans-serif" font-size="14" font-weight="bold" lengthAdjust="spacing" textLength="208.8994" x="71.5186" y="32.9951">Activity - Mua asset c&#243; ph&#237;</text></g><ellipse cx="177.7876" cy="57.2969" fill="#222222" rx="10" ry="10" style="stroke:#222222;stroke-width:1;"/><rect fill="#F1F1F1" height="33.9688" rx="12.5" ry="12.5" style="stroke:#181818;stroke-width:0.5;" width="126.8164" x="114.3794" y="87.2969"/><text fill="#000000" font-family="sans-serif" font-size="12" lengthAdjust="spacing" textLength="106.8164" x="124.3794" y="108.4355">Ch&#7885;n asset c&#243; ph&#237;</text><rect fill="#F1F1F1" height="33.9688" rx="12.5" ry="12.5" style="stroke:#181818;stroke-width:0.5;" width="172.2031" x="91.686" y="141.2656"/><text fill="#000000" font-family="sans-serif" font-size="12" lengthAdjust="spacing" textLength="152.2031" x="101.686" y="162.4043">Th&#234;m v&#224;o gi&#7887; / Mua ngay</text><rect fill="#F1F1F1" height="33.9688" rx="12.5" ry="12.5" style="stroke:#181818;stroke-width:0.5;" width="191.4512" x="82.062" y="195.2344"/><text fill="#000000" font-family="sans-serif" font-size="12" lengthAdjust="spacing" textLength="171.4512" x="92.062" y="216.373">Thanh to&#225;n (VNPay/Stripe...)</text><polygon fill="#F1F1F1" points="110.708,249.2031,244.8672,249.2031,256.8672,261.2031,244.8672,273.2031,110.708,273.2031,98.708,261.2031,110.708,249.2031" style="stroke:#181818;stroke-width:0.5;"/><text fill="#000000" font-family="sans-serif" font-size="11" lengthAdjust="spacing" textLength="134.1592" x="110.708" y="265.0112">Thanh to&#225;n th&#224;nh c&#244;ng?</text><text fill="#000000" font-family="sans-serif" font-size="11" lengthAdjust="spacing" textLength="19.2178" x="79.4902" y="258.6089">Yes</text><text fill="#000000" font-family="sans-serif" font-size="11" lengthAdjust="spacing" textLength="14.9585" x="256.8672" y="258.6089">No</text><rect fill="#F1F1F1" height="33.9688" rx="12.5" ry="12.5" style="stroke:#181818;stroke-width:0.5;" width="155.416" x="11" y="283.2031"/><text fill="#000000" font-family="sans-serif" font-size="12" lengthAdjust="spacing" textLength="135.416" x="21" y="304.3418">C&#7845;p license + ho&#225; &#273;&#417;n</text><rect fill="#F1F1F1" height="33.9688" rx="12.5" ry="12.5" style="stroke:#181818;stroke-width:0.5;" width="140.4395" x="18.4883" y="337.1719"/><text fill="#000000" font-family="sans-serif" font-size="12" lengthAdjust="spacing" textLength="120.4395" x="28.4883" y="358.3105">Cho ph&#233;p t&#7843;i/Import</text><rect fill="#F1F1F1" height="33.9688" rx="12.5" ry="12.5" style="stroke:#181818;stroke-width:0.5;" width="154.1387" x="189.7979" y="283.2031"/><text fill="#000000" font-family="sans-serif" font-size="12" lengthAdjust="spacing" textLength="134.1387" x="199.7979" y="304.3418">Hi&#7875;n th&#7883; l&#7895;i thanh to&#225;n</text><polygon fill="#F1F1F1" points="177.7876,377.1406,189.7876,389.1406,177.7876,401.1406,165.7876,389.1406,177.7876,377.1406" style="stroke:#181818;stroke-width:0.5;"/><ellipse cx="177.7876" cy="432.1406" fill="none" rx="11" ry="11" style="stroke:#222222;stroke-width:1;"/><ellipse cx="177.7876" cy="432.1406" fill="#222222" rx="6" ry="6" style="stroke:#222222;stroke-width:1;"/><line style="stroke:#181818;stroke-width:1;" x1="177.7876" x2="177.7876" y1="67.2969" y2="87.2969"/><polygon fill="#181818" points="173.7876,77.2969,177.7876,87.2969,181.7876,77.2969,177.7876,81.2969" style="stroke:#181818;stroke-width:1;"/><line style="stroke:#181818;stroke-width:1;" x1="177.7876" x2="177.7876" y1="121.2656" y2="141.2656"/><polygon fill="#181818" points="173.7876,131.2656,177.7876,141.2656,181.7876,131.2656,177.7876,135.2656" style="stroke:#181818;stroke-width:1;"/><line style="stroke:#181818;stroke-width:1;" x1="177.7876" x2="177.7876" y1="175.2344" y2="195.2344"/><polygon fill="#181818" points="173.7876,185.2344,177.7876,195.2344,181.7876,185.2344,177.7876,189.2344" style="stroke:#181818;stroke-width:1;"/><line style="stroke:#181818;stroke-width:1;" x1="88.708" x2="88.708" y1="317.1719" y2="337.1719"/><polygon fill="#181818" points="84.708,327.1719,88.708,337.1719,92.708,327.1719,88.708,331.1719" style="stroke:#181818;stroke-width:1;"/><line style="stroke:#181818;stroke-width:1;" x1="98.708" x2="88.708" y1="261.2031" y2="261.2031"/><line style="stroke:#181818;stroke-width:1;" x1="88.708" x2="88.708" y1="261.2031" y2="283.2031"/><polygon fill="#181818" points="84.708,273.2031,88.708,283.2031,92.708,273.2031,88.708,277.2031" style="stroke:#181818;stroke-width:1;"/><line style="stroke:#181818;stroke-width:1;" x1="256.8672" x2="266.8672" y1="261.2031" y2="261.2031"/><line style="stroke:#181818;stroke-width:1;" x1="266.8672" x2="266.8672" y1="261.2031" y2="283.2031"/><polygon fill="#181818" points="262.8672,273.2031,266.8672,283.2031,270.8672,273.2031,266.8672,277.2031" style="stroke:#181818;stroke-width:1;"/><line style="stroke:#181818;stroke-width:1;" x1="88.708" x2="88.708" y1="371.1406" y2="389.1406"/><line style="stroke:#181818;stroke-width:1;" x1="88.708" x2="165.7876" y1="389.1406" y2="389.1406"/><polygon fill="#181818" points="155.7876,385.1406,165.7876,389.1406,155.7876,393.1406,159.7876,389.1406" style="stroke:#181818;stroke-width:1;"/><line style="stroke:#181818;stroke-width:1;" x1="266.8672" x2="266.8672" y1="317.1719" y2="389.1406"/><line style="stroke:#181818;stroke-width:1;" x1="266.8672" x2="189.7876" y1="389.1406" y2="389.1406"/><polygon fill="#181818" points="199.7876,385.1406,189.7876,389.1406,199.7876,393.1406,195.7876,389.1406" style="stroke:#181818;stroke-width:1;"/><line style="stroke:#181818;stroke-width:1;" x1="177.7876" x2="177.7876" y1="229.2031" y2="249.2031"/><polygon fill="#181818" points="173.7876,239.2031,177.7876,249.2031,181.7876,239.2031,177.7876,243.2031" style="stroke:#181818;stroke-width:1;"/><line style="stroke:#181818;stroke-width:1;" x1="177.7876" x2="177.7876" y1="401.1406" y2="421.1406"/><polygon fill="#181818" points="173.7876,411.1406,177.7876,421.1406,181.7876,411.1406,177.7876,415.1406" style="stroke:#181818;stroke-width:1;"/><!--SRC=[NK-xIiH05EtdAqwP82PzKeXieuMBe0YMGvpDNCZE39dhGcfB4R6otKKi5AoqsfGZ_iVyYRCf5h6xX_EyJDmf73TCA-81XpYxbP3UAqOJFk5q-12UPS-YckauFfX_P2sgIntUbrY5jKLBSNn4EOMOLWuJAuq6sx0noAxcvt8eBxWdfugYo6j12sH_9Qp3Ee4cV9dsA4zG9Tkryha0gbdSlZfqr2ZZ5GwWamNVJpyRKq-qjhjDRmuSjozKdYwTxRaMgalgR6wdZ9CqyMxN4yTxT75yfdJl-vFOtD0YlMpTBm00]--></g></svg>