<svg xmlns="http://www.w3.org/2000/svg" xmlns:xlink="http://www.w3.org/1999/xlink" contentStyleType="text/css" data-diagram-type="DESCRIPTION" height="767px" preserveAspectRatio="none" style="width:843px;height:767px;background:#FFFFFF;" version="1.1" viewBox="0 0 843 767" width="843px" zoomAndPan="magnify"><defs/><g><!--cluster H? th?ng Game--><g class="cluster" data-entity="H. th.ng Game" data-source-line="8" data-uid="ent0003" id="cluster_H. th.ng Game"><rect fill="none" height="577" rx="2.5" ry="2.5" style="stroke:#181818;stroke-width:1;" width="666.05" x="171.13" y="7"/><text fill="#000000" font-family="sans-serif" font-size="14" font-weight="bold" lengthAdjust="spacing" textLength="122.2471" x="443.0315" y="21.9951">H&#7879; th&#7889;ng Game</text></g><!--entity UC_Login--><g class="entity" data-entity="UC_Login" data-source-line="9" data-uid="ent0004" id="entity_UC_Login"><ellipse cx="299.6309" cy="57.0036" fill="#F1F1F1" rx="57.3409" ry="14.5236" style="stroke:#181818;stroke-width:0.5;"/><text fill="#000000" font-family="sans-serif" font-size="14" lengthAdjust="spacing" textLength="76.8496" x="261.2061" y="61.6521">&#272;&#259;ng nh&#7853;p</text></g><!--entity UC_FreeAsset--><g class="entity" data-entity="UC_FreeAsset" data-source-line="10" data-uid="ent0005" id="entity_UC_FreeAsset"><ellipse cx="299.6275" cy="128.0035" fill="#F1F1F1" rx="95.0175" ry="21.4035" style="stroke:#181818;stroke-width:0.5;"/><text fill="#000000" font-family="sans-serif" font-size="14" lengthAdjust="spacing" textLength="165.0127" x="217.1212" y="132.6519">S&#7917; d&#7909;ng asset mi&#7877;n ph&#237;</text></g><!--entity UC_BuyAsset--><g class="entity" data-entity="UC_BuyAsset" data-source-line="11" data-uid="ent0006" id="entity_UC_BuyAsset"><ellipse cx="712.1464" cy="541.9953" fill="#F1F1F1" rx="74.7264" ry="17.3453" style="stroke:#181818;stroke-width:0.5;"/><text fill="#000000" font-family="sans-serif" font-size="14" lengthAdjust="spacing" textLength="118.0635" x="653.1146" y="546.6437">Mua asset c&#243; ph&#237;</text></g><!--entity UC_RegisterGame--><g class="entity" data-entity="UC_RegisterGame" data-source-line="12" data-uid="ent0007" id="entity_UC_RegisterGame"><ellipse cx="299.6329" cy="209.9983" fill="#F1F1F1" rx="97.7229" ry="25.9783" style="stroke:#181818;stroke-width:0.5;"/><text fill="#000000" font-family="sans-serif" font-size="14" lengthAdjust="spacing" textLength="132.7402" x="233.2628" y="206.4006">&#272;&#259;ng k&#253; game m&#7899;i</text><text fill="#000000" font-family="sans-serif" font-size="14" lengthAdjust="spacing" textLength="134.3604" x="232.4527" y="222.6975">&amp; Upload file game</text></g><!--entity UC_LeaderboardAPI--><g class="entity" data-entity="UC_LeaderboardAPI" data-source-line="13" data-uid="ent0008" id="entity_UC_LeaderboardAPI"><ellipse cx="299.6265" cy="293.9973" fill="#F1F1F1" rx="102.2365" ry="22.8473" style="stroke:#181818;stroke-width:0.5;"/><text fill="#000000" font-family="sans-serif" font-size="14" lengthAdjust="spacing" textLength="180.9746" x="209.1392" y="298.6457">Khai b&#225;o API Leaderboard</text></g><!--entity UC_RewardsAPI--><g class="entity" data-entity="UC_RewardsAPI" data-source-line="14" data-uid="ent0009" id="entity_UC_RewardsAPI"><ellipse cx="299.6263" cy="377.0039" fill="#F1F1F1" rx="106.7563" ry="25.1139" style="stroke:#181818;stroke-width:0.5;"/><text fill="#000000" font-family="sans-serif" font-size="14" lengthAdjust="spacing" textLength="152.9268" x="223.1629" y="374.853">Khai b&#225;o API/SDK/Doc</text><text fill="#000000" font-family="sans-serif" font-size="14" lengthAdjust="spacing" textLength="125.0703" x="237.0911" y="391.1499">T&#237;ch &#273;i&#7875;m &#273;&#7893;i qu&#224;</text></g><!--entity UC_TopupAPI--><g class="entity" data-entity="UC_TopupAPI" data-source-line="15" data-uid="ent0010" id="entity_UC_TopupAPI"><ellipse cx="299.626" cy="463.0035" fill="#F1F1F1" rx="112.496" ry="25.9535" style="stroke:#181818;stroke-width:0.5;"/><text fill="#000000" font-family="sans-serif" font-size="14" lengthAdjust="spacing" textLength="152.9268" x="223.1627" y="459.3706">Khai b&#225;o API/SDK/Doc</text><text fill="#000000" font-family="sans-serif" font-size="14" lengthAdjust="spacing" textLength="155.4834" x="221.8843" y="475.6675">N&#7841;p ti&#7873;n v&#224;o TK game</text></g><!--entity UC_ManageGames--><g class="entity" data-entity="UC_ManageGames" data-source-line="16" data-uid="ent0011" id="entity_UC_ManageGames"><ellipse cx="712.1497" cy="400.9959" fill="#F1F1F1" rx="109.0297" ry="24.2059" style="stroke:#181818;stroke-width:0.5;"/><text fill="#000000" font-family="sans-serif" font-size="14" lengthAdjust="spacing" textLength="174.6924" x="624.8035" y="401.7713">Qu&#7843;n l&#253; danh s&#225;ch game</text><text fill="#000000" font-family="sans-serif" font-size="14" lengthAdjust="spacing" textLength="51.4541" x="686.4226" y="418.0681">(CRUD)</text></g><!--entity UC_Revenue--><g class="entity" data-entity="UC_Revenue" data-source-line="17" data-uid="ent0012" id="entity_UC_Revenue"><ellipse cx="299.6299" cy="545.998" fill="#F1F1F1" rx="99.0899" ry="22.218" style="stroke:#181818;stroke-width:0.5;"/><text fill="#000000" font-family="sans-serif" font-size="14" lengthAdjust="spacing" textLength="174.0498" x="212.6049" y="550.6464">Qu&#7843;n l&#253; doanh thu game</text></g><!--entity Dev--><g class="entity" data-entity="Dev" data-source-line="6" data-uid="ent0002" id="entity_Dev"><ellipse cx="65.0659" cy="354.86" fill="#F1F1F1" rx="16" ry="16" style="stroke:#181818;stroke-width:0.5;"/><path d="M65.0659,374.86 C69.0659,374.86 72.0659,374.86 76.0659,370.86 C84.0659,370.86 92.0659,378.86 92.0659,386.86 L92.0659,390.86 C92.0659,394.86 88.0659,398.86 84.0659,398.86 L46.0659,398.86 C42.0659,398.86 38.0659,394.86 38.0659,390.86 L38.0659,386.86 C38.0659,378.86 46.0659,370.86 54.0659,370.86 C58.0659,374.86 61.0659,374.86 65.0659,374.86" fill="#F1F1F1" style="stroke:#181818;stroke-width:0.5;"/><text fill="#000000" font-family="sans-serif" font-size="14" lengthAdjust="spacing" textLength="118.1318" x="6" y="412.3551">Game Developer</text></g><!--link Dev to UC_Login--><g class="link" data-entity-1="Dev" data-entity-2="UC_Login" data-source-line="21" data-uid="lnk13" id="link_Dev_UC_Login"><path d="M67.67,338 C72.41,275.87 90.97,154.74 163.13,89 C184.4,69.63 209.2151,62.0941 236.0651,58.7841" fill="none" id="Dev-to-UC_Login" style="stroke:#181818;stroke-width:1;"/><polygon fill="#181818" points="242.02,58.05,232.5982,55.1812,237.0576,58.6618,233.577,63.1211,242.02,58.05" style="stroke:#181818;stroke-width:1;"/></g><!--link Dev to UC_FreeAsset--><g class="link" data-entity-1="Dev" data-entity-2="UC_FreeAsset" data-source-line="22" data-uid="lnk14" id="link_Dev_UC_FreeAsset"><path d="M73.72,338.13 C85.06,290.86 110.85,211.85 163.13,167 C178.55,153.78 192.4675,146.7354 211.9975,140.9454" fill="none" id="Dev-to-UC_FreeAsset" style="stroke:#181818;stroke-width:1;"/><polygon fill="#181818" points="217.75,139.24,207.9843,137.9631,212.9562,140.6612,210.2582,145.6332,217.75,139.24" style="stroke:#181818;stroke-width:1;"/></g><!--link Dev to UC_BuyAsset--><g class="link" data-entity-1="Dev" data-entity-2="UC_BuyAsset" data-source-line="23" data-uid="lnk15" id="link_Dev_UC_BuyAsset"><path d="M66.5,416.15 C69.58,478.8 85.81,600.1 163.13,655 C311.9,760.64 402.29,698.07 573.12,634 C620.04,616.41 662.3716,584.1079 687.6016,562.7379" fill="none" id="Dev-to-UC_BuyAsset" style="stroke:#181818;stroke-width:1;"/><polygon fill="#181818" points="692.18,558.86,682.7271,561.6246,688.3647,562.0916,687.8977,567.7292,692.18,558.86" style="stroke:#181818;stroke-width:1;"/></g><!--link Dev to UC_RegisterGame--><g class="link" data-entity-1="Dev" data-entity-2="UC_RegisterGame" data-source-line="24" data-uid="lnk16" id="link_Dev_UC_RegisterGame"><path d="M88.18,338.11 C105.41,311.01 131.66,275.92 163.13,254 C180.69,241.78 196.1383,234.6274 216.4683,228.0874" fill="none" id="Dev-to-UC_RegisterGame" style="stroke:#181818;stroke-width:1;"/><polygon fill="#181818" points="222.18,226.25,212.3875,225.1983,217.4202,227.7812,214.8373,232.814,222.18,226.25" style="stroke:#181818;stroke-width:1;"/></g><!--link Dev to UC_LeaderboardAPI--><g class="link" data-entity-1="Dev" data-entity-2="UC_LeaderboardAPI" data-source-line="25" data-uid="lnk17" id="link_Dev_UC_LeaderboardAPI"><path d="M124.59,349.61 C137.18,344.13 150.5,338.64 163.13,334 C185.46,325.8 204.5664,319.7375 226.8264,313.2975" fill="none" id="Dev-to-UC_LeaderboardAPI" style="stroke:#181818;stroke-width:1;"/><polygon fill="#181818" points="232.59,311.63,222.8329,310.2888,227.787,313.0196,225.0562,317.9736,232.59,311.63" style="stroke:#181818;stroke-width:1;"/></g><!--link Dev to UC_RewardsAPI--><g class="link" data-entity-1="Dev" data-entity-2="UC_RewardsAPI" data-source-line="26" data-uid="lnk18" id="link_Dev_UC_RewardsAPI"><path d="M124.45,377 C145.17,377 163.19,377 186.64,377" fill="none" id="Dev-to-UC_RewardsAPI" style="stroke:#181818;stroke-width:1;"/><polygon fill="#181818" points="192.64,377,183.64,373,187.64,377,183.64,381,192.64,377" style="stroke:#181818;stroke-width:1;"/></g><!--link Dev to UC_TopupAPI--><g class="link" data-entity-1="Dev" data-entity-2="UC_TopupAPI" data-source-line="27" data-uid="lnk19" id="link_Dev_UC_TopupAPI"><path d="M124.41,404.09 C137.07,409.62 150.46,415.2 163.13,420 C184.25,428 201.8564,433.9798 223.1264,440.6698" fill="none" id="Dev-to-UC_TopupAPI" style="stroke:#181818;stroke-width:1;"/><polygon fill="#181818" points="228.85,442.47,221.4648,435.954,224.0804,440.9698,219.0645,443.5854,228.85,442.47" style="stroke:#181818;stroke-width:1;"/></g><!--link Dev to UC_ManageGames--><g class="link" data-entity-1="Dev" data-entity-2="UC_ManageGames" data-source-line="28" data-uid="lnk20" id="link_Dev_UC_ManageGames"><path d="M71.5,416.07 C80.7,465.46 104.45,548.56 163.13,586 C317.23,684.35 421.99,655.85 573.12,553 C593.3,539.27 587.66,525.88 603.12,507 C628.1,476.52 656.439,449.3724 679.309,428.8024" fill="none" id="Dev-to-UC_ManageGames" style="stroke:#181818;stroke-width:1;"/><polygon fill="#181818" points="683.77,424.79,674.4035,427.8346,680.0525,428.1337,679.7534,433.7826,683.77,424.79" style="stroke:#181818;stroke-width:1;"/></g><!--link Dev to UC_Revenue--><g class="link" data-entity-1="Dev" data-entity-2="UC_Revenue" data-source-line="29" data-uid="lnk21" id="link_Dev_UC_Revenue"><path d="M86.33,415.97 C103.22,444.8 129.85,482.92 163.13,506 C180.26,517.89 195.2067,524.587 215.2067,530.507" fill="none" id="Dev-to-UC_Revenue" style="stroke:#181818;stroke-width:1;"/><polygon fill="#181818" points="220.96,532.21,213.4654,525.8201,216.1656,530.7909,211.1948,533.4911,220.96,532.21" style="stroke:#181818;stroke-width:1;"/></g><!--link UC_RegisterGame to UC_ManageGames--><g class="link" data-entity-1="UC_RegisterGame" data-entity-2="UC_ManageGames" data-source-line="32" data-uid="lnk22" id="link_UC_RegisterGame_UC_ManageGames"><path d="M357.43,231.39 C375.08,238.32 394.52,246.22 412.12,254 C504.71,294.95 605.1221,345.8508 662.7621,375.7008" fill="none" id="UC_RegisterGame-to-UC_ManageGames" style="stroke:#181818;stroke-width:1;stroke-dasharray:7,7;"/><polygon fill="#181818" points="668.09,378.46,661.9375,370.7693,663.6501,376.1607,658.2586,377.8732,668.09,378.46" style="stroke:#181818;stroke-width:1;"/><text fill="#000000" font-family="sans-serif" font-size="13" lengthAdjust="spacing" textLength="63.0068" x="476.12" y="265.0669">&#171;include&#187;</text></g><!--link UC_Revenue to UC_BuyAsset--><g class="link" data-entity-1="UC_Revenue" data-entity-2="UC_BuyAsset" data-source-line="33" data-uid="lnk23" id="link_UC_Revenue_UC_BuyAsset"><path d="M398.96,545.05 C472.14,544.33 564.4703,543.4276 631.0803,542.7876" fill="none" id="UC_Revenue-to-UC_BuyAsset" style="stroke:#181818;stroke-width:1;stroke-dasharray:7,7;"/><polygon fill="#181818" points="637.08,542.73,628.042,538.8167,632.0802,542.778,628.1188,546.8163,637.08,542.73" style="stroke:#181818;stroke-width:1;"/><text fill="#000000" font-family="sans-serif" font-size="13" lengthAdjust="spacing" textLength="63.0068" x="476.3817" y="525.0669">&#171;include&#187;</text><text fill="#000000" font-family="sans-serif" font-size="13" lengthAdjust="spacing" textLength="129.5303" x="443.12" y="540.1997">(d&#7919; li&#7879;u thanh to&#225;n)</text></g><!--SRC=[ZLCzRzim4DtvAmuUscP8l1U10TT6F-2aQ69xCr0mqbaYB96gIDeDYWw5KMHDXavTOXGTZGxT91GPv3-YVr9I_g9S1EWawEwzT_VkZX6E5IW1AGj21JvBqLDCS28dZ2SqfJ4ar9lG0FlgEaAmQSg321q0zPH8rsawGobYDob3weiPum6CQIIHa0eDZLSqHkZY52EHODe0AkqV8Ri2q7XTvZUWmZA_CsoBRy0d0g0bUbIQ_EfsDJSP7fRPCgaKXfttPo9Wt4Nrotm9Vfd_D50g9Ig8MPb_vP24nNBBUfaYjctIPPvhkc5unUyQ_8M-_WUzwMPI_870UelB_3iRyISmJ291VHWpuoceNAn5BZ5WKc5gdRb2lP0ok2eM0jhlti0PKX_JAq5JVsTn7pA8HwdDVhVNx0fln0V5qWjXTMTypsFpBVDl33xeudxVoio8oVzJUrjcYmIK4Vl2OLhS2nZqQiO68j79WTQ5BhCV728p7P_o46InC2rPreW_wrmEkqTRzZdbvjhiKEHZ0i8gg50VZ7EAN2FvJCXJw9NPWm9kJeT1kpeuPTS1GoFLCNh4t1eS7xVs5-C4ziVW17ShTsAr3RgAzGNL6Bj1Ez7Tm9oOEuQQmDgbyNYXAOVGlX76lKZxsCIF2hblR6SF6c9j7qxrVkOGcctTS7BGCvoS7DQ2vt1wkj5hjSY-uXQxdKCTQ9PedjWlY6mTROfM6nB5WX_z1G00]--></g></svg>