<svg xmlns="http://www.w3.org/2000/svg" xmlns:xlink="http://www.w3.org/1999/xlink" contentStyleType="text/css" data-diagram-type="ACTIVITY" height="336px" preserveAspectRatio="none" style="width:280px;height:336px;background:#FFFFFF;" version="1.1" viewBox="0 0 280 336" width="280px" zoomAndPan="magnify"><title>Activity - Xin API Leaderboard</title><defs/><g><g class="title" data-source-line="1"><text fill="#000000" font-family="sans-serif" font-size="14" font-weight="bold" lengthAdjust="spacing" textLength="237.8359" x="20" y="32.9951">Activity - Xin API Leaderboard</text></g><ellipse cx="140.418" cy="57.2969" fill="#222222" rx="10" ry="10" style="stroke:#222222;stroke-width:1;"/><rect fill="#F1F1F1" height="33.9688" rx="12.5" ry="12.5" style="stroke:#181818;stroke-width:0.5;" width="88.7891" x="96.0234" y="87.2969"/><text fill="#000000" font-family="sans-serif" font-size="12" lengthAdjust="spacing" textLength="68.7891" x="106.0234" y="108.4355">Ch&#7885;n game</text><rect fill="#F1F1F1" height="33.9688" rx="12.5" ry="12.5" style="stroke:#181818;stroke-width:0.5;" width="239.2578" x="20.7891" y="141.2656"/><text fill="#000000" font-family="sans-serif" font-size="12" lengthAdjust="spacing" textLength="219.2578" x="30.7891" y="162.4043">Request API key scope=leaderboard</text><rect fill="#F1F1F1" height="33.9688" rx="12.5" ry="12.5" style="stroke:#181818;stroke-width:0.5;" width="99.8867" x="90.4746" y="195.2344"/><text fill="#000000" font-family="sans-serif" font-size="12" lengthAdjust="spacing" textLength="79.8867" x="100.4746" y="216.373">Accept terms</text><rect fill="#F1F1F1" height="33.9688" rx="12.5" ry="12.5" style="stroke:#181818;stroke-width:0.5;" width="146" x="67.418" y="249.2031"/><text fill="#000000" font-family="sans-serif" font-size="12" lengthAdjust="spacing" textLength="126" x="77.418" y="270.3418">Nh&#7853;n API Key + docs</text><ellipse cx="140.418" cy="314.1719" fill="none" rx="11" ry="11" style="stroke:#222222;stroke-width:1;"/><ellipse cx="140.418" cy="314.1719" fill="#222222" rx="6" ry="6" style="stroke:#222222;stroke-width:1;"/><line style="stroke:#181818;stroke-width:1;" x1="140.418" x2="140.418" y1="67.2969" y2="87.2969"/><polygon fill="#181818" points="136.418,77.2969,140.418,87.2969,144.418,77.2969,140.418,81.2969" style="stroke:#181818;stroke-width:1;"/><line style="stroke:#181818;stroke-width:1;" x1="140.418" x2="140.418" y1="121.2656" y2="141.2656"/><polygon fill="#181818" points="136.418,131.2656,140.418,141.2656,144.418,131.2656,140.418,135.2656" style="stroke:#181818;stroke-width:1;"/><line style="stroke:#181818;stroke-width:1;" x1="140.418" x2="140.418" y1="175.2344" y2="195.2344"/><polygon fill="#181818" points="136.418,185.2344,140.418,195.2344,144.418,185.2344,140.418,189.2344" style="stroke:#181818;stroke-width:1;"/><line style="stroke:#181818;stroke-width:1;" x1="140.418" x2="140.418" y1="229.2031" y2="249.2031"/><polygon fill="#181818" points="136.418,239.2031,140.418,249.2031,144.418,239.2031,140.418,243.2031" style="stroke:#181818;stroke-width:1;"/><line style="stroke:#181818;stroke-width:1;" x1="140.418" x2="140.418" y1="283.1719" y2="303.1719"/><polygon fill="#181818" points="136.418,293.1719,140.418,303.1719,144.418,293.1719,140.418,297.1719" style="stroke:#181818;stroke-width:1;"/><!--SRC=[AyaioKbLS4mkoIpBBAbKq5M8oCnJS0pmLF19JKn9BKhAJonAuIekIImguR9opdYukpTF8JqnDzMQooeejR0qjRW4h3WxjLAXE3c_8DKs1w4DgCOnEJcre4IX9BKejnZ8zSjuk6ijn7Xle0vjXPJyPA1uSKb-0G00]--></g></svg>