<svg xmlns="http://www.w3.org/2000/svg" xmlns:xlink="http://www.w3.org/1999/xlink" contentStyleType="text/css" data-diagram-type="ACTIVITY" height="400px" preserveAspectRatio="none" style="width:437px;height:400px;background:#FFFFFF;" version="1.1" viewBox="0 0 437 400" width="437px" zoomAndPan="magnify"><title>Activity - &#272;&#259;ng k&#253; game m&#7899;i &amp; Upload</title><defs/><g><g class="title" data-source-line="1"><text fill="#000000" font-family="sans-serif" font-size="14" font-weight="bold" lengthAdjust="spacing" textLength="299.9404" x="67.0718" y="32.9951">Activity - &#272;&#259;ng k&#253; game m&#7899;i &amp; Upload</text></g><ellipse cx="225.4663" cy="57.2969" fill="#222222" rx="10" ry="10" style="stroke:#222222;stroke-width:1;"/><rect fill="#F1F1F1" height="33.9688" rx="12.5" ry="12.5" style="stroke:#181818;stroke-width:0.5;" width="264.6816" x="93.1255" y="87.2969"/><text fill="#000000" font-family="sans-serif" font-size="12" lengthAdjust="spacing" textLength="244.6816" x="103.1255" y="108.4355">&#272;i&#7873;n th&#244;ng tin game (title, desc, price...)</text><rect fill="#F1F1F1" height="33.9688" rx="12.5" ry="12.5" style="stroke:#181818;stroke-width:0.5;" width="159.4473" x="145.7427" y="141.2656"/><text fill="#000000" font-family="sans-serif" font-size="12" lengthAdjust="spacing" textLength="139.4473" x="155.7427" y="162.4043">Upload file build/binary</text><polygon fill="#F1F1F1" points="180.384,195.2344,270.5486,195.2344,282.5486,207.2344,270.5486,219.2344,180.384,219.2344,168.384,207.2344,180.384,195.2344" style="stroke:#181818;stroke-width:0.5;"/><text fill="#000000" font-family="sans-serif" font-size="11" lengthAdjust="spacing" textLength="90.1646" x="180.384" y="211.0425">Ki&#7875;m tra h&#7907;p l&#7879;?</text><text fill="#000000" font-family="sans-serif" font-size="11" lengthAdjust="spacing" textLength="19.2178" x="149.1663" y="204.6401">Yes</text><text fill="#000000" font-family="sans-serif" font-size="11" lengthAdjust="spacing" textLength="14.9585" x="282.5486" y="204.6401">No</text><rect fill="#F1F1F1" height="33.9688" rx="12.5" ry="12.5" style="stroke:#181818;stroke-width:0.5;" width="139.8301" x="46.7803" y="229.2344"/><text fill="#000000" font-family="sans-serif" font-size="12" lengthAdjust="spacing" textLength="119.8301" x="56.7803" y="250.373">L&#432;u metadata + file</text><rect fill="#F1F1F1" height="33.9688" rx="12.5" ry="12.5" style="stroke:#181818;stroke-width:0.5;" width="211.3906" x="11" y="283.2031"/><text fill="#000000" font-family="sans-serif" font-size="12" lengthAdjust="spacing" textLength="191.3906" x="21" y="304.3418">Game &#7903; tr&#7841;ng th&#225;i Draft/Review</text><rect fill="#F1F1F1" height="33.9688" rx="12.5" ry="12.5" style="stroke:#181818;stroke-width:0.5;" width="183.6934" x="242.3906" y="229.2344"/><text fill="#000000" font-family="sans-serif" font-size="12" lengthAdjust="spacing" textLength="163.6934" x="252.3906" y="250.373">B&#225;o l&#7895;i (thi&#7871;u/th&#244;ng tin sai)</text><polygon fill="#F1F1F1" points="225.4663,323.1719,237.4663,335.1719,225.4663,347.1719,213.4663,335.1719,225.4663,323.1719" style="stroke:#181818;stroke-width:0.5;"/><ellipse cx="225.4663" cy="378.1719" fill="none" rx="11" ry="11" style="stroke:#222222;stroke-width:1;"/><ellipse cx="225.4663" cy="378.1719" fill="#222222" rx="6" ry="6" style="stroke:#222222;stroke-width:1;"/><line style="stroke:#181818;stroke-width:1;" x1="225.4663" x2="225.4663" y1="67.2969" y2="87.2969"/><polygon fill="#181818" points="221.4663,77.2969,225.4663,87.2969,229.4663,77.2969,225.4663,81.2969" style="stroke:#181818;stroke-width:1;"/><line style="stroke:#181818;stroke-width:1;" x1="225.4663" x2="225.4663" y1="121.2656" y2="141.2656"/><polygon fill="#181818" points="221.4663,131.2656,225.4663,141.2656,229.4663,131.2656,225.4663,135.2656" style="stroke:#181818;stroke-width:1;"/><line style="stroke:#181818;stroke-width:1;" x1="116.6953" x2="116.6953" y1="263.2031" y2="283.2031"/><polygon fill="#181818" points="112.6953,273.2031,116.6953,283.2031,120.6953,273.2031,116.6953,277.2031" style="stroke:#181818;stroke-width:1;"/><line style="stroke:#181818;stroke-width:1;" x1="168.384" x2="116.6953" y1="207.2344" y2="207.2344"/><line style="stroke:#181818;stroke-width:1;" x1="116.6953" x2="116.6953" y1="207.2344" y2="229.2344"/><polygon fill="#181818" points="112.6953,219.2344,116.6953,229.2344,120.6953,219.2344,116.6953,223.2344" style="stroke:#181818;stroke-width:1;"/><line style="stroke:#181818;stroke-width:1;" x1="282.5486" x2="334.2373" y1="207.2344" y2="207.2344"/><line style="stroke:#181818;stroke-width:1;" x1="334.2373" x2="334.2373" y1="207.2344" y2="229.2344"/><polygon fill="#181818" points="330.2373,219.2344,334.2373,229.2344,338.2373,219.2344,334.2373,223.2344" style="stroke:#181818;stroke-width:1;"/><line style="stroke:#181818;stroke-width:1;" x1="116.6953" x2="116.6953" y1="317.1719" y2="335.1719"/><line style="stroke:#181818;stroke-width:1;" x1="116.6953" x2="213.4663" y1="335.1719" y2="335.1719"/><polygon fill="#181818" points="203.4663,331.1719,213.4663,335.1719,203.4663,339.1719,207.4663,335.1719" style="stroke:#181818;stroke-width:1;"/><line style="stroke:#181818;stroke-width:1;" x1="334.2373" x2="334.2373" y1="263.2031" y2="335.1719"/><line style="stroke:#181818;stroke-width:1;" x1="334.2373" x2="237.4663" y1="335.1719" y2="335.1719"/><polygon fill="#181818" points="247.4663,331.1719,237.4663,335.1719,247.4663,339.1719,243.4663,335.1719" style="stroke:#181818;stroke-width:1;"/><line style="stroke:#181818;stroke-width:1;" x1="225.4663" x2="225.4663" y1="175.2344" y2="195.2344"/><polygon fill="#181818" points="221.4663,185.2344,225.4663,195.2344,229.4663,185.2344,225.4663,189.2344" style="stroke:#181818;stroke-width:1;"/><line style="stroke:#181818;stroke-width:1;" x1="225.4663" x2="225.4663" y1="347.1719" y2="367.1719"/><polygon fill="#181818" points="221.4663,357.1719,225.4663,367.1719,229.4663,357.1719,225.4663,361.1719" style="stroke:#181818;stroke-width:1;"/><!--SRC=[JO-nJeDG58Rt-nJ_P21Ms64m6XC7ZOE9W-Cj7Cg9S25mgEbeEhXsSt0mn1TmS2en3ZI-ntsJNjh5-Vpd-xzVM0h2HIAyP5dX3BlDRcqMU1f_iD0beRJ3E-C43tLHwLIreXjHqMx3TdWna7pyTcbXSqnxCl5cIAbDPgWRJYW80ZzMqV4V6RkwUST56ixPw6OLAyxWtJZSkeGq6haTFciKTdWzznsV3Bn7Qdq5HBT_NnrA4frgqJWzmEBfS3rrs-730UosduJoiMTSDJgJy9wMJC-neg9rWdVL0NKvzjLKyiREEMUx_Ut2VsDQpKwQJCgPcrpLUm00]--></g></svg>