<svg xmlns="http://www.w3.org/2000/svg" xmlns:xlink="http://www.w3.org/1999/xlink" contentStyleType="text/css" data-diagram-type="ACTIVITY" height="390px" preserveAspectRatio="none" style="width:281px;height:390px;background:#FFFFFF;" version="1.1" viewBox="0 0 281 390" width="281px" zoomAndPan="magnify"><title>Activity - D&#249;ng asset mi&#7877;n ph&#237;</title><defs/><g><g class="title" data-source-line="1"><text fill="#000000" font-family="sans-serif" font-size="14" font-weight="bold" lengthAdjust="spacing" textLength="238.0615" x="20" y="32.9951">Activity - D&#249;ng asset mi&#7877;n ph&#237;</text></g><ellipse cx="140.5308" cy="57.2969" fill="#222222" rx="10" ry="10" style="stroke:#222222;stroke-width:1;"/><rect fill="#F1F1F1" height="33.9688" rx="12.5" ry="12.5" style="stroke:#181818;stroke-width:0.5;" width="115.3145" x="82.8735" y="87.2969"/><text fill="#000000" font-family="sans-serif" font-size="12" lengthAdjust="spacing" textLength="95.3145" x="92.8735" y="108.4355">V&#224;o Asset Store</text><rect fill="#F1F1F1" height="33.9688" rx="12.5" ry="12.5" style="stroke:#181818;stroke-width:0.5;" width="94.877" x="93.0923" y="141.2656"/><text fill="#000000" font-family="sans-serif" font-size="12" lengthAdjust="spacing" textLength="74.877" x="103.0923" y="162.4043">Filter = Free</text><rect fill="#F1F1F1" height="33.9688" rx="12.5" ry="12.5" style="stroke:#181818;stroke-width:0.5;" width="86.6914" x="97.1851" y="195.2344"/><text fill="#000000" font-family="sans-serif" font-size="12" lengthAdjust="spacing" textLength="66.6914" x="107.1851" y="216.373">Ch&#7885;n asset</text><rect fill="#F1F1F1" height="33.9688" rx="12.5" ry="12.5" style="stroke:#181818;stroke-width:0.5;" width="172.373" x="54.3442" y="249.2031"/><text fill="#000000" font-family="sans-serif" font-size="12" lengthAdjust="spacing" textLength="152.373" x="64.3442" y="270.3418">Accept license (mi&#7877;n ph&#237;)</text><rect fill="#F1F1F1" height="33.9688" rx="12.5" ry="12.5" style="stroke:#181818;stroke-width:0.5;" width="194.8555" x="43.103" y="303.1719"/><text fill="#000000" font-family="sans-serif" font-size="12" lengthAdjust="spacing" textLength="174.8555" x="53.103" y="324.3105">Download/Import v&#224;o project</text><ellipse cx="140.5308" cy="368.1406" fill="none" rx="11" ry="11" style="stroke:#222222;stroke-width:1;"/><ellipse cx="140.5308" cy="368.1406" fill="#222222" rx="6" ry="6" style="stroke:#222222;stroke-width:1;"/><line style="stroke:#181818;stroke-width:1;" x1="140.5308" x2="140.5308" y1="67.2969" y2="87.2969"/><polygon fill="#181818" points="136.5308,77.2969,140.5308,87.2969,144.5308,77.2969,140.5308,81.2969" style="stroke:#181818;stroke-width:1;"/><line style="stroke:#181818;stroke-width:1;" x1="140.5308" x2="140.5308" y1="121.2656" y2="141.2656"/><polygon fill="#181818" points="136.5308,131.2656,140.5308,141.2656,144.5308,131.2656,140.5308,135.2656" style="stroke:#181818;stroke-width:1;"/><line style="stroke:#181818;stroke-width:1;" x1="140.5308" x2="140.5308" y1="175.2344" y2="195.2344"/><polygon fill="#181818" points="136.5308,185.2344,140.5308,195.2344,144.5308,185.2344,140.5308,189.2344" style="stroke:#181818;stroke-width:1;"/><line style="stroke:#181818;stroke-width:1;" x1="140.5308" x2="140.5308" y1="229.2031" y2="249.2031"/><polygon fill="#181818" points="136.5308,239.2031,140.5308,249.2031,144.5308,239.2031,140.5308,243.2031" style="stroke:#181818;stroke-width:1;"/><line style="stroke:#181818;stroke-width:1;" x1="140.5308" x2="140.5308" y1="283.1719" y2="303.1719"/><polygon fill="#181818" points="136.5308,293.1719,140.5308,303.1719,144.5308,293.1719,140.5308,297.1719" style="stroke:#181818;stroke-width:1;"/><line style="stroke:#181818;stroke-width:1;" x1="140.5308" x2="140.5308" y1="337.1406" y2="357.1406"/><polygon fill="#181818" points="136.5308,347.1406,140.5308,357.1406,144.5308,347.1406,140.5308,351.1406" style="stroke:#181818;stroke-width:1;"/><!--SRC=[JOqn2i9044NxFSMKMeXzn68n1Am5-sKTpCXcPvaT8Xx0qZju0GyWAVSakOc9DfQFntzVIGE2zKezwGrMK9TtF8FB6HKw6eTxXDIMbydgH4rrB4y6-xK7PS6DgHeAYW9RQ0HdthNZy8Y_n8JMUqmAWJp6ZB3uYoudNVCr1dQdzRvBB0hzV924B-YdTLPE7m00]--></g></svg>