<svg xmlns="http://www.w3.org/2000/svg" xmlns:xlink="http://www.w3.org/1999/xlink" contentStyleType="text/css" data-diagram-type="STATE" height="920px" preserveAspectRatio="none" style="width:886px;height:920px;background:#FFFFFF;" version="1.1" viewBox="0 0 886 920" width="886px" zoomAndPan="magnify"><title>Tr&#7841;ng th&#225;i: Game</title><defs><filter height="300%" id="fjfxk8ph80pmk" width="300%" x="-1" y="-1"><feGaussianBlur result="blurOut" stdDeviation="2"/><feColorMatrix in="blurOut" result="blurOut2" type="matrix" values="0 0 0 0 0 0 0 0 0 0 0 0 0 0 0 0 0 0 .4 0"/><feOffset dx="4" dy="4" in="blurOut2" result="blurOut3"/><feBlend in="SourceGraphic" in2="blurOut3" mode="normal"/></filter></defs><g><g class="title" data-source-line="8"><text fill="#000000" font-family="sans-serif" font-size="14" font-weight="bold" lengthAdjust="spacing" textLength="137.1631" x="367.5458" y="22.9951">Tr&#7841;ng th&#225;i: Game</text></g><g id="Draft"><rect fill="#F1F1F1" filter="url(#fjfxk8ph80pmk)" height="50" rx="12.5" ry="12.5" style="stroke:#666666;stroke-width:0.5;" width="55.5332" x="700.2" y="140.2969"/><line style="stroke:#666666;stroke-width:0.5;" x1="700.2" x2="755.7332" y1="166.5938" y2="166.5938"/><text fill="#000000" font-family="sans-serif" font-size="14" lengthAdjust="spacing" textLength="35.5332" x="710.2" y="158.292">Draft</text></g><g id="Submitted"><rect fill="#F1F1F1" filter="url(#fjfxk8ph80pmk)" height="50" rx="12.5" ry="12.5" style="stroke:#666666;stroke-width:0.5;" width="92.6523" x="608.64" y="267.2969"/><line style="stroke:#666666;stroke-width:0.5;" x1="608.64" x2="701.2923" y1="293.5938" y2="293.5938"/><text fill="#000000" font-family="sans-serif" font-size="14" lengthAdjust="spacing" textLength="72.6523" x="618.64" y="285.292">Submitted</text></g><g id="Approved"><rect fill="#F1F1F1" filter="url(#fjfxk8ph80pmk)" height="50" rx="12.5" ry="12.5" style="stroke:#666666;stroke-width:0.5;" width="87.457" x="489.24" y="394.2969"/><line style="stroke:#666666;stroke-width:0.5;" x1="489.24" x2="576.697" y1="420.5938" y2="420.5938"/><text fill="#000000" font-family="sans-serif" font-size="14" lengthAdjust="spacing" textLength="67.457" x="499.24" y="412.292">Approved</text></g><g id="Published"><rect fill="#F1F1F1" filter="url(#fjfxk8ph80pmk)" height="50" rx="12.5" ry="12.5" style="stroke:#666666;stroke-width:0.5;" width="87.6484" x="209.14" y="521.2969"/><line style="stroke:#666666;stroke-width:0.5;" x1="209.14" x2="296.7884" y1="547.5938" y2="547.5938"/><text fill="#000000" font-family="sans-serif" font-size="14" lengthAdjust="spacing" textLength="67.6484" x="219.14" y="539.292">Published</text></g><g id="InPlay"><rect fill="#F1F1F1" filter="url(#fjfxk8ph80pmk)" height="50" rx="12.5" ry="12.5" style="stroke:#666666;stroke-width:0.5;" width="62.1982" x="189.87" y="648.2969"/><line style="stroke:#666666;stroke-width:0.5;" x1="189.87" x2="252.0682" y1="674.5938" y2="674.5938"/><text fill="#000000" font-family="sans-serif" font-size="14" lengthAdjust="spacing" textLength="42.1982" x="199.87" y="666.292">InPlay</text></g><g id="Suspended"><rect fill="#F1F1F1" filter="url(#fjfxk8ph80pmk)" height="50" rx="12.5" ry="12.5" style="stroke:#666666;stroke-width:0.5;" width="97.8135" x="484.06" y="648.2969"/><line style="stroke:#666666;stroke-width:0.5;" x1="484.06" x2="581.8735" y1="674.5938" y2="674.5938"/><text fill="#000000" font-family="sans-serif" font-size="14" lengthAdjust="spacing" textLength="77.8135" x="494.06" y="666.292">Suspended</text></g><g id="Retired"><rect fill="#F1F1F1" filter="url(#fjfxk8ph80pmk)" height="50" rx="12.5" ry="12.5" style="stroke:#666666;stroke-width:0.5;" width="70.9756" x="497.48" y="775.2969"/><line style="stroke:#666666;stroke-width:0.5;" x1="497.48" x2="568.4556" y1="801.5938" y2="801.5938"/><text fill="#000000" font-family="sans-serif" font-size="14" lengthAdjust="spacing" textLength="50.9756" x="507.48" y="793.292">Retired</text></g><g id="Rejected"><rect fill="#F1F1F1" filter="url(#fjfxk8ph80pmk)" height="50" rx="12.5" ry="12.5" style="stroke:#666666;stroke-width:0.5;" width="81.5303" x="702.2" y="394.2969"/><line style="stroke:#666666;stroke-width:0.5;" x1="702.2" x2="783.7303" y1="420.5938" y2="420.5938"/><text fill="#000000" font-family="sans-serif" font-size="14" lengthAdjust="spacing" textLength="61.5303" x="712.2" y="412.292">Rejected</text></g><ellipse cx="727.97" cy="53.2969" fill="#222222" filter="url(#fjfxk8ph80pmk)" rx="10" ry="10" style="stroke:#222222;stroke-width:1;"/><ellipse cx="532.97" cy="897.2969" fill="none" filter="url(#fjfxk8ph80pmk)" rx="11" ry="11" style="stroke:#222222;stroke-width:1;"/><ellipse cx="532.97" cy="897.2969" fill="#222222" rx="6" ry="6" style="stroke:#222222;stroke-width:1;"/><!--link *start* to Draft--><g class="link" data-entity-1=".start." data-entity-2="Draft" data-source-line="10" data-uid="lnk3" id="link_.start._Draft"><path d="M727.97,63.6769 C727.97,80.4069 727.97,109.8869 727.97,133.9269" fill="none" id="*start*-to-Draft" style="stroke:#181818;stroke-width:1;"/><polygon fill="#181818" points="727.97,139.9269,731.97,130.9269,727.97,134.9269,723.97,130.9269,727.97,139.9269" style="stroke:#181818;stroke-width:1;"/><text fill="#000000" font-family="sans-serif" font-size="13" lengthAdjust="spacing" textLength="111.8457" x="728.97" y="106.3638">T&#7841;o game (nh&#225;p)</text></g><!--link Draft to Submitted--><g class="link" data-entity-1="Draft" data-entity-2="Submitted" data-source-line="21" data-uid="lnk4" id="link_Draft_Submitted"><path d="M699.8,178.0669 C682.58,186.9269 661.99,200.8769 651.97,220.2969 C644.61,234.5469 644.4064,246.7374 647.0664,261.0874" fill="none" id="Draft-to-Submitted" style="stroke:#181818;stroke-width:1;"/><polygon fill="#181818" points="648.16,266.9869,650.4527,257.4086,647.2487,262.0706,642.5867,258.8667,648.16,266.9869" style="stroke:#181818;stroke-width:1;"/><text fill="#000000" font-family="sans-serif" font-size="13" lengthAdjust="spacing" textLength="121.8877" x="652.97" y="233.3638">G&#7917;i duy&#7879;t (upload)</text></g><!--link Submitted to Approved--><g class="link" data-entity-1="Submitted" data-entity-2="Approved" data-source-line="22" data-uid="lnk5" id="link_Submitted_Approved"><path d="M608.36,308.5269 C588.73,317.0969 567.19,329.6769 552.97,347.2969 C542.27,360.5469 538.2155,373.2687 535.8955,388.1287" fill="none" id="Submitted-to-Approved" style="stroke:#181818;stroke-width:1;"/><polygon fill="#181818" points="534.97,394.0569,540.3104,385.7816,535.7413,389.1167,532.4062,384.5476,534.97,394.0569" style="stroke:#181818;stroke-width:1;"/><text fill="#000000" font-family="sans-serif" font-size="13" lengthAdjust="spacing" textLength="111.6934" x="553.97" y="360.3638">Admin ph&#234; duy&#7879;t</text></g><!--link Submitted to Rejected--><g class="link" data-entity-1="Submitted" data-entity-2="Rejected" data-source-line="23" data-uid="lnk6" id="link_Submitted_Rejected"><path d="M661.5,317.6769 C666.08,332.0569 673.14,350.1469 682.97,364.2969 C690.56,375.2369 696.2557,381.5459 706.1057,390.1259" fill="none" id="Submitted-to-Rejected" style="stroke:#181818;stroke-width:1;"/><polygon fill="#181818" points="710.63,394.0669,706.4709,385.1393,706.8598,390.7828,701.2163,391.1716,710.63,394.0669" style="stroke:#181818;stroke-width:1;"/><text fill="#000000" font-family="sans-serif" font-size="13" lengthAdjust="spacing" textLength="90.2129" x="683.97" y="360.3638">Admin t&#7915; ch&#7889;i</text></g><!--link Rejected to Draft--><g class="link" data-entity-1="Rejected" data-entity-2="Draft" data-source-line="24" data-uid="lnk7" id="link_Rejected_Draft"><path d="M763.52,394.0569 C769.74,385.2569 775.77,374.8669 778.97,364.2969 C797.51,303.0469 802.61,279.7669 778.97,220.2969 C774.16,208.1969 769.5014,201.4199 760.4214,192.5899" fill="none" id="Rejected-to-Draft" style="stroke:#181818;stroke-width:1;"/><polygon fill="#181818" points="756.12,188.4069,759.7835,197.549,759.7045,191.8927,765.3608,191.8138,756.12,188.4069" style="stroke:#181818;stroke-width:1;"/><text fill="#000000" font-family="sans-serif" font-size="13" lengthAdjust="spacing" textLength="82.2847" x="795.97" y="296.8638">S&#7917;a &amp; g&#7917;i l&#7841;i</text></g><!--link Approved to Published--><g class="link" data-entity-1="Approved" data-entity-2="Published" data-source-line="26" data-uid="lnk8" id="link_Approved_Published"><path d="M488.91,439.9669 C436.55,463.3369 355.1586,499.6706 302.7086,523.0906" fill="none" id="Approved-to-Published" style="stroke:#181818;stroke-width:1;"/><polygon fill="#181818" points="297.23,525.5369,307.0788,525.5198,301.7955,523.4983,303.8171,518.215,297.23,525.5369" style="stroke:#181818;stroke-width:1;"/><text fill="#000000" font-family="sans-serif" font-size="13" lengthAdjust="spacing" textLength="65.9585" x="410.97" y="487.3638">Ph&#225;t h&#224;nh</text></g><!--link Published to InPlay--><g class="link" data-entity-1="Published" data-entity-2="InPlay" data-source-line="27" data-uid="lnk9" id="link_Published_InPlay"><path d="M208.67,561.6869 C190.19,570.1269 170.59,582.8469 159.97,601.2969 C148.29,621.5769 164.0532,638.1855 184.4532,651.7455" fill="none" id="Published-to-InPlay" style="stroke:#181818;stroke-width:1;"/><polygon fill="#181818" points="189.45,655.0669,184.169,646.7535,185.286,652.299,179.7405,653.416,189.45,655.0669" style="stroke:#181818;stroke-width:1;"/><text fill="#000000" font-family="sans-serif" font-size="13" lengthAdjust="spacing" textLength="137.6235" x="160.97" y="614.3638">Ng&#432;&#7901;i ch&#417;i v&#224;o game</text></g><!--link InPlay to InPlay--><g class="link" data-entity-1="InPlay" data-entity-2="InPlay" data-source-line="28" data-uid="lnk10" id="link_InPlay_InPlay"><path d="M252.25,662.0469 C270.28,659.7469 287.07,663.4969 287.07,673.2969 C287.07,683.0969 276.2318,687.6061 258.2018,685.3061" fill="none" id="InPlay-to-InPlay" style="stroke:#181818;stroke-width:1;"/><polygon fill="#181818" points="252.25,684.5469,260.6715,689.6536,257.2098,685.1796,261.6838,681.7179,252.25,684.5469" style="stroke:#181818;stroke-width:1;"/><text fill="#000000" font-family="sans-serif" font-size="13" lengthAdjust="spacing" textLength="167.1782" x="293.07" y="677.8638">Ch&#417;i/Leaderboard/Review</text></g><!--link Published to Suspended--><g class="link" data-entity-1="Published" data-entity-2="Suspended" data-source-line="30" data-uid="lnk11" id="link_Published_Suspended"><path d="M276.39,571.7669 C292.58,587.2969 315.37,606.6069 338.97,618.2969 C391.32,644.2469 410.97,631.6169 466.97,648.2969 C472.46,649.9369 472.4791,649.8464 478.1291,651.7664" fill="none" id="Published-to-Suspended" style="stroke:#181818;stroke-width:1;"/><polygon fill="#181818" points="483.81,653.6969,476.5756,647.0138,479.0759,652.0881,474.0016,654.5884,483.81,653.6969" style="stroke:#181818;stroke-width:1;"/><text fill="#000000" font-family="sans-serif" font-size="13" lengthAdjust="spacing" textLength="166.0483" x="339.97" y="614.3638">Vi ph&#7841;m ho&#7863;c c&#7847;n r&#224; so&#225;t</text></g><!--link Suspended to Approved--><g class="link" data-entity-1="Suspended" data-entity-2="Approved" data-source-line="31" data-uid="lnk12" id="link_Suspended_Approved"><path d="M532.97,647.8369 C532.97,599.5469 532.97,498.5069 532.97,450.4569" fill="none" id="Suspended-to-Approved" style="stroke:#181818;stroke-width:1;"/><polygon fill="#181818" points="532.97,444.4569,528.97,453.4569,532.97,449.4569,536.97,453.4569,532.97,444.4569" style="stroke:#181818;stroke-width:1;"/><text fill="#000000" font-family="sans-serif" font-size="13" lengthAdjust="spacing" textLength="89.064" x="533.97" y="550.8638">&#272;&#227; kh&#7855;c ph&#7909;c</text></g><!--link Suspended to Retired--><g class="link" data-entity-1="Suspended" data-entity-2="Retired" data-source-line="32" data-uid="lnk13" id="link_Suspended_Retired"><path d="M532.97,698.6969 C532.97,720.7169 532.97,746.9569 532.97,768.9569" fill="none" id="Suspended-to-Retired" style="stroke:#181818;stroke-width:1;"/><polygon fill="#181818" points="532.97,774.9569,536.97,765.9569,532.97,769.9569,528.97,765.9569,532.97,774.9569" style="stroke:#181818;stroke-width:1;"/><text fill="#000000" font-family="sans-serif" font-size="13" lengthAdjust="spacing" textLength="90.5874" x="533.97" y="741.3638">Vi ph&#7841;m n&#7863;ng</text></g><!--link Published to Retired--><g class="link" data-entity-1="Published" data-entity-2="Retired" data-source-line="34" data-uid="lnk14" id="link_Published_Retired"><path d="M208.64,560.1369 C136.36,583.2469 6,635.3769 56.97,698.2969 C112.67,767.0569 390.002,790.5377 491.082,796.9377" fill="none" id="Published-to-Retired" style="stroke:#181818;stroke-width:1;"/><polygon fill="#181818" points="497.07,797.3169,488.3407,792.7562,492.08,797.0009,487.8352,800.7402,497.07,797.3169" style="stroke:#181818;stroke-width:1;"/><text fill="#000000" font-family="sans-serif" font-size="13" lengthAdjust="spacing" textLength="113.2104" x="57.97" y="677.8638">Ng&#7915;ng ph&#225;t h&#224;nh</text></g><!--link Approved to Retired--><g class="link" data-entity-1="Approved" data-entity-2="Retired" data-source-line="35" data-uid="lnk15" id="link_Approved_Retired"><path d="M567.97,444.5269 C590.92,462.6669 618.99,489.7269 631.97,521.2969 C669.83,613.3769 683.97,659.7969 632.97,745.2969 C619.12,768.5069 597.1218,780.3897 574.4018,788.2297" fill="none" id="Approved-to-Retired" style="stroke:#181818;stroke-width:1;"/><polygon fill="#181818" points="568.73,790.1869,578.5425,791.0323,573.4565,788.5559,575.9329,783.4699,568.73,790.1869" style="stroke:#181818;stroke-width:1;"/><text fill="#000000" font-family="sans-serif" font-size="13" lengthAdjust="spacing" textLength="96.2114" x="664.97" y="614.3638">Hu&#7927; ph&#225;t h&#224;nh</text></g><!--link Retired to *end*--><g class="link" data-entity-1="Retired" data-entity-2=".end." data-source-line="36" data-uid="lnk17" id="link_Retired_.end."><path d="M532.97,825.7569 C532.97,845.3369 532.97,865.7869 532.97,880.0969" fill="none" id="Retired-to-*end*" style="stroke:#181818;stroke-width:1;"/><polygon fill="#181818" points="532.97,886.0969,536.97,877.0969,532.97,881.0969,528.97,877.0969,532.97,886.0969" style="stroke:#181818;stroke-width:1;"/></g><!--SRC=[NP91Izn05CVlxrCy44G5MOIo50-2hcWBHPPTyI8zp6QcoTHa9amcAxPuzjf-064NAOMAw4tO75FsUymtySNiJdPpovltU-__ptyckv8gPOObc4MCwskfGhGc5v0r3Skim9-0ED2vuZrjb32uzv4EZhJXmlHqh0rkTBjTEZhHoWxb3u5x7-0Mm4eR2pmtRZQjDaVbLExZAKi4mENELzpTFS1ZmxvPtCTpOZI6rCCjHM2w3L1hlnEBxs4-IgIrWY_gmpGrUkpBVZwAPHRv-hFgn-p6psQfKDmt1y9Air9z5q6r66f7bJUlHlvENV4aaUSthhYpk9MdiMPy6nga6bZQ8VwG9r9X6fN_baCjTYdeMUkAHmmYL_oMu9kh4Gt90iDD3D-jn1IO1F2I5Ud_d-W-XMWnAYSgWkQyekfK23aBvo-kk9UaEfzA79UJ-WPWGQp1lOhfV16CxdoacU6TWHXBSGsjxJvcchcGb03vJ33IRlOQOE1cVnMQSeAP9dlGmAtu_lyg7_2APf-3QaNn9sYnYzjR4r6aeSAseOOye-GUwI6cAz5upHRxANV5wngvxDKalTyt]--></g></svg>