<svg xmlns="http://www.w3.org/2000/svg" xmlns:xlink="http://www.w3.org/1999/xlink" contentStyleType="text/css" data-diagram-type="ACTIVITY" height="352px" preserveAspectRatio="none" style="width:243px;height:352px;background:#FFFFFF;" version="1.1" viewBox="0 0 243 352" width="243px" zoomAndPan="magnify"><defs/><g><ellipse cx="121.5439" cy="20" fill="#222222" rx="10" ry="10" style="stroke:#222222;stroke-width:1;"/><rect fill="#F1F1F1" height="33.9688" rx="12.5" ry="12.5" style="stroke:#181818;stroke-width:0.5;" width="221.0879" x="11" y="50"/><text fill="#000000" font-family="sans-serif" font-size="12" lengthAdjust="spacing" textLength="201.0879" x="21" y="71.1387">Guest ch&#7885;n "Ch&#417;i th&#7917; mini game"</text><rect fill="#F1F1F1" height="33.9688" rx="12.5" ry="12.5" style="stroke:#181818;stroke-width:0.5;" width="156.125" x="43.4814" y="103.9688"/><text fill="#000000" font-family="sans-serif" font-size="12" lengthAdjust="spacing" textLength="136.125" x="53.4814" y="125.1074">Request t&#7843;i mini game</text><rect fill="#F1F1F1" height="33.9688" rx="12.5" ry="12.5" style="stroke:#181818;stroke-width:0.5;" width="193.8652" x="24.6113" y="157.9375"/><text fill="#000000" font-family="sans-serif" font-size="12" lengthAdjust="spacing" textLength="173.8652" x="34.6113" y="179.0762">Server g&#7917;i d&#7919; li&#7879;u mini game</text><rect fill="#F1F1F1" height="33.9688" rx="12.5" ry="12.5" style="stroke:#181818;stroke-width:0.5;" width="134.4395" x="54.3242" y="211.9063"/><text fill="#000000" font-family="sans-serif" font-size="12" lengthAdjust="spacing" textLength="114.4395" x="64.3242" y="233.0449">Hi&#7875;n th&#7883; mini game</text><rect fill="#F1F1F1" height="33.9688" rx="12.5" ry="12.5" style="stroke:#181818;stroke-width:0.5;" width="214.1621" x="14.4629" y="265.875"/><text fill="#000000" font-family="sans-serif" font-size="12" lengthAdjust="spacing" textLength="194.1621" x="24.4629" y="287.0137">Guest ch&#417;i th&#7917; (kh&#244;ng l&#432;u &#273;i&#7875;m)</text><ellipse cx="121.5439" cy="330.8438" fill="none" rx="11" ry="11" style="stroke:#222222;stroke-width:1;"/><ellipse cx="121.5439" cy="330.8438" fill="#222222" rx="6" ry="6" style="stroke:#222222;stroke-width:1;"/><line style="stroke:#181818;stroke-width:1;" x1="121.5439" x2="121.5439" y1="30" y2="50"/><polygon fill="#181818" points="117.5439,40,121.5439,50,125.5439,40,121.5439,44" style="stroke:#181818;stroke-width:1;"/><line style="stroke:#181818;stroke-width:1;" x1="121.5439" x2="121.5439" y1="83.9688" y2="103.9688"/><polygon fill="#181818" points="117.5439,93.9688,121.5439,103.9688,125.5439,93.9688,121.5439,97.9688" style="stroke:#181818;stroke-width:1;"/><line style="stroke:#181818;stroke-width:1;" x1="121.5439" x2="121.5439" y1="137.9375" y2="157.9375"/><polygon fill="#181818" points="117.5439,147.9375,121.5439,157.9375,125.5439,147.9375,121.5439,151.9375" style="stroke:#181818;stroke-width:1;"/><line style="stroke:#181818;stroke-width:1;" x1="121.5439" x2="121.5439" y1="191.9063" y2="211.9063"/><polygon fill="#181818" points="117.5439,201.9063,121.5439,211.9063,125.5439,201.9063,121.5439,205.9063" style="stroke:#181818;stroke-width:1;"/><line style="stroke:#181818;stroke-width:1;" x1="121.5439" x2="121.5439" y1="245.875" y2="265.875"/><polygon fill="#181818" points="117.5439,255.875,121.5439,265.875,125.5439,255.875,121.5439,259.875" style="stroke:#181818;stroke-width:1;"/><line style="stroke:#181818;stroke-width:1;" x1="121.5439" x2="121.5439" y1="299.8438" y2="319.8438"/><polygon fill="#181818" points="117.5439,309.8438,121.5439,319.8438,125.5439,309.8438,121.5439,313.8438" style="stroke:#181818;stroke-width:1;"/><!--SRC=[Aov9B2hXid8lJIqkKKZEUBYxDqz1oJdZsC9CXH8WRwr2RcPUfa9wOcwgaZMNLL1g8LXXoSDTYpCHKa2PuDIYijGYXNIWbao5b8UxrolaP3xStLwAeiW3ADIS1pQu6qK2PZt2MetiZCDRyj8LSevjA5KuCX6aCLVJcgku9By00000]--></g></svg>