<svg xmlns="http://www.w3.org/2000/svg" xmlns:xlink="http://www.w3.org/1999/xlink" contentStyleType="text/css" data-diagram-type="ACTIVITY" height="352px" preserveAspectRatio="none" style="width:285px;height:352px;background:#FFFFFF;" version="1.1" viewBox="0 0 285 352" width="285px" zoomAndPan="magnify"><defs/><g><ellipse cx="142.8047" cy="20" fill="#222222" rx="10" ry="10" style="stroke:#222222;stroke-width:1;"/><rect fill="#F1F1F1" height="33.9688" rx="12.5" ry="12.5" style="stroke:#181818;stroke-width:0.5;" width="263.6094" x="11" y="50"/><text fill="#000000" font-family="sans-serif" font-size="12" lengthAdjust="spacing" textLength="243.6094" x="21" y="71.1387">Guest ch&#7885;n "Xem danh s&#225;ch mini game"</text><rect fill="#F1F1F1" height="33.9688" rx="12.5" ry="12.5" style="stroke:#181818;stroke-width:0.5;" width="202.5371" x="41.5361" y="103.9688"/><text fill="#000000" font-family="sans-serif" font-size="12" lengthAdjust="spacing" textLength="182.5371" x="51.5361" y="125.1074">Request danh s&#225;ch mini game</text><rect fill="#F1F1F1" height="33.9688" rx="12.5" ry="12.5" style="stroke:#181818;stroke-width:0.5;" width="193.0977" x="46.2559" y="157.9375"/><text fill="#000000" font-family="sans-serif" font-size="12" lengthAdjust="spacing" textLength="173.0977" x="56.2559" y="179.0762">Server l&#7845;y d&#7919; li&#7879;u mini game</text><rect fill="#F1F1F1" height="33.9688" rx="12.5" ry="12.5" style="stroke:#181818;stroke-width:0.5;" width="191.1699" x="47.2197" y="211.9063"/><text fill="#000000" font-family="sans-serif" font-size="12" lengthAdjust="spacing" textLength="171.1699" x="57.2197" y="233.0449">Tr&#7843; v&#7873; danh s&#225;ch mini game</text><rect fill="#F1F1F1" height="33.9688" rx="12.5" ry="12.5" style="stroke:#181818;stroke-width:0.5;" width="196.8418" x="44.3838" y="265.875"/><text fill="#000000" font-family="sans-serif" font-size="12" lengthAdjust="spacing" textLength="176.8418" x="54.3838" y="287.0137">Hi&#7875;n th&#7883; danh s&#225;ch cho Guest</text><ellipse cx="142.8047" cy="330.8438" fill="none" rx="11" ry="11" style="stroke:#222222;stroke-width:1;"/><ellipse cx="142.8047" cy="330.8438" fill="#222222" rx="6" ry="6" style="stroke:#222222;stroke-width:1;"/><line style="stroke:#181818;stroke-width:1;" x1="142.8047" x2="142.8047" y1="30" y2="50"/><polygon fill="#181818" points="138.8047,40,142.8047,50,146.8047,40,142.8047,44" style="stroke:#181818;stroke-width:1;"/><line style="stroke:#181818;stroke-width:1;" x1="142.8047" x2="142.8047" y1="83.9688" y2="103.9688"/><polygon fill="#181818" points="138.8047,93.9688,142.8047,103.9688,146.8047,93.9688,142.8047,97.9688" style="stroke:#181818;stroke-width:1;"/><line style="stroke:#181818;stroke-width:1;" x1="142.8047" x2="142.8047" y1="137.9375" y2="157.9375"/><polygon fill="#181818" points="138.8047,147.9375,142.8047,157.9375,146.8047,147.9375,142.8047,151.9375" style="stroke:#181818;stroke-width:1;"/><line style="stroke:#181818;stroke-width:1;" x1="142.8047" x2="142.8047" y1="191.9063" y2="211.9063"/><polygon fill="#181818" points="138.8047,201.9063,142.8047,211.9063,146.8047,201.9063,142.8047,205.9063" style="stroke:#181818;stroke-width:1;"/><line style="stroke:#181818;stroke-width:1;" x1="142.8047" x2="142.8047" y1="245.875" y2="265.875"/><polygon fill="#181818" points="138.8047,255.875,142.8047,265.875,146.8047,255.875,142.8047,259.875" style="stroke:#181818;stroke-width:1;"/><line style="stroke:#181818;stroke-width:1;" x1="142.8047" x2="142.8047" y1="299.8438" y2="319.8438"/><polygon fill="#181818" points="138.8047,309.8438,142.8047,319.8438,146.8047,309.8438,142.8047,313.8438" style="stroke:#181818;stroke-width:1;"/><!--SRC=[Aov9B2hXid8lJIqkKKZEUBYxDqz1AI8rLo4bCIz3eVZmmkGCXTpCl4o5zCJSL2LhBgkWr4AmMcpoGEdWrAAor2A5d8UxbbOgf3pSlLuX9_FXxlPI54KXHGztBLOeUxYx4PSn7a1DpNaA9K07TIEhISx8Lm2xrPghk2I_0000]--></g></svg>