<svg xmlns="http://www.w3.org/2000/svg" xmlns:xlink="http://www.w3.org/1999/xlink" contentStyleType="text/css" data-diagram-type="DESCRIPTION" height="430px" preserveAspectRatio="none" style="width:674px;height:430px;background:#FFFFFF;" version="1.1" viewBox="0 0 674 430" width="674px" zoomAndPan="magnify"><defs/><g><!--cluster H? Th?ng Mini Game--><g class="cluster" data-entity="H. Th.ng Mini Game" data-source-line="5" data-uid="ent0003" id="cluster_H. Th.ng Mini Game"><rect fill="none" height="417" rx="2.5" ry="2.5" style="stroke:#181818;stroke-width:1;" width="574.65" x="94.12" y="7"/><text fill="#000000" font-family="sans-serif" font-size="14" font-weight="bold" lengthAdjust="spacing" textLength="163.4746" x="299.7077" y="21.9951">H&#7879; Th&#7889;ng Mini Game</text></g><!--entity UC1--><g class="entity" data-entity="UC1" data-source-line="6" data-uid="ent0004" id="entity_UC1"><ellipse cx="223.1057" cy="65.0031" fill="#F1F1F1" rx="105.3157" ry="23.4631" style="stroke:#181818;stroke-width:0.5;"/><text fill="#000000" font-family="sans-serif" font-size="14" lengthAdjust="spacing" textLength="187.708" x="129.2517" y="69.6516">Xem danh s&#225;ch Mini Game</text></g><!--entity UC2--><g class="entity" data-entity="UC2" data-source-line="7" data-uid="ent0005" id="entity_UC2"><ellipse cx="223.1136" cy="142.0047" fill="#F1F1F1" rx="83.1736" ry="19.0347" style="stroke:#181818;stroke-width:0.5;"/><text fill="#000000" font-family="sans-serif" font-size="14" lengthAdjust="spacing" textLength="138.0996" x="154.0638" y="146.6532">Ch&#417;i th&#7917; Mini Game</text></g><!--entity UC3--><g class="entity" data-entity="UC3" data-source-line="8" data-uid="ent0006" id="entity_UC3"><ellipse cx="223.1095" cy="217.9959" fill="#F1F1F1" rx="99.9295" ry="22.3859" style="stroke:#181818;stroke-width:0.5;"/><text fill="#000000" font-family="sans-serif" font-size="14" lengthAdjust="spacing" textLength="175.9023" x="135.1584" y="222.6443">&#272;&#259;ng k&#253; t&#224;i kho&#7843;n Player</text></g><!--entity UC4--><g class="entity" data-entity="UC4" data-source-line="9" data-uid="ent0007" id="entity_UC4"><ellipse cx="223.1137" cy="299.9987" fill="#F1F1F1" rx="112.9937" ry="24.9987" style="stroke:#181818;stroke-width:0.5;"/><text fill="#000000" font-family="sans-serif" font-size="14" lengthAdjust="spacing" textLength="204.3398" x="120.9438" y="304.6472">&#272;&#259;ng k&#253; t&#224;i kho&#7843;n Developer</text></g><!--entity UC5--><g class="entity" data-entity="UC5" data-source-line="10" data-uid="ent0008" id="entity_UC5"><ellipse cx="223.11" cy="383.998" fill="#F1F1F1" rx="108.69" ry="24.138" style="stroke:#181818;stroke-width:0.5;"/><text fill="#000000" font-family="sans-serif" font-size="14" lengthAdjust="spacing" textLength="195.043" x="125.5885" y="388.6464">&#272;&#259;ng k&#253; t&#224;i kho&#7843;n Designer</text></g><!--entity UC6--><g class="entity" data-entity="UC6" data-source-line="11" data-uid="ent0009" id="entity_UC6"><ellipse cx="555.9399" cy="334.996" fill="#F1F1F1" rx="96.8299" ry="21.766" style="stroke:#181818;stroke-width:0.5;"/><text fill="#000000" font-family="sans-serif" font-size="14" lengthAdjust="spacing" textLength="169.0459" x="471.417" y="339.6444">Nh&#7853;p th&#244;ng tin x&#225;c th&#7921;c</text></g><!--entity Guest--><g class="entity" data-entity="Guest" data-source-line="3" data-uid="ent0002" id="entity_Guest"><ellipse cx="26.5591" cy="188.35" fill="#F1F1F1" rx="8" ry="8" style="stroke:#181818;stroke-width:0.5;"/><path d="M26.5591,196.35 L26.5591,223.35 M13.5591,204.35 L39.5591,204.35 M26.5591,223.35 L13.5591,238.35 M26.5591,223.35 L39.5591,238.35" fill="none" style="stroke:#181818;stroke-width:0.5;"/><text fill="#000000" font-family="sans-serif" font-size="14" lengthAdjust="spacing" textLength="41.1182" x="6" y="252.8451">Guest</text></g><!--link Guest to UC1--><g class="link" data-entity-1="Guest" data-entity-2="UC1" data-source-line="14" data-uid="lnk10" id="link_Guest_UC1"><path d="M38.81,179.39 C47.85,154.81 62.93,124.11 86.12,105 C100.65,93.03 112.9239,86.4947 131.0139,80.6147" fill="none" id="Guest-to-UC1" style="stroke:#181818;stroke-width:1;"/><polygon fill="#181818" points="136.72,78.76,126.9243,77.738,131.9649,80.3056,129.3973,85.3462,136.72,78.76" style="stroke:#181818;stroke-width:1;"/></g><!--link Guest to UC2--><g class="link" data-entity-1="Guest" data-entity-2="UC2" data-source-line="15" data-uid="lnk11" id="link_Guest_UC2"><path d="M47.4,201.93 C58.29,193.78 72.35,184.3 86.12,178 C108.66,167.69 128.8801,161.3086 152.1001,155.6586" fill="none" id="Guest-to-UC2" style="stroke:#181818;stroke-width:1;"/><polygon fill="#181818" points="157.93,154.24,148.2394,152.4812,153.0718,155.4221,150.1309,160.2544,157.93,154.24" style="stroke:#181818;stroke-width:1;"/></g><!--link Guest to UC3--><g class="link" data-entity-1="Guest" data-entity-2="UC3" data-source-line="16" data-uid="lnk12" id="link_Guest_UC3"><path d="M47.28,218 C65.54,218 88.14,218 116.96,218" fill="none" id="Guest-to-UC3" style="stroke:#181818;stroke-width:1;"/><polygon fill="#181818" points="122.96,218,113.96,214,117.96,218,113.96,222,122.96,218" style="stroke:#181818;stroke-width:1;"/></g><!--link Guest to UC4--><g class="link" data-entity-1="Guest" data-entity-2="UC4" data-source-line="17" data-uid="lnk13" id="link_Guest_UC4"><path d="M47.51,233.84 C58.43,241.93 72.48,251.42 86.12,258 C105.15,267.18 120.907,273.1401 141.087,279.3701" fill="none" id="Guest-to-UC4" style="stroke:#181818;stroke-width:1;"/><polygon fill="#181818" points="146.82,281.14,139.4004,274.6631,142.0425,279.6651,137.0405,282.3072,146.82,281.14" style="stroke:#181818;stroke-width:1;"/></g><!--link Guest to UC5--><g class="link" data-entity-1="Guest" data-entity-2="UC5" data-source-line="18" data-uid="lnk14" id="link_Guest_UC5"><path d="M36.77,256.4 C45.25,283.87 60.49,319.77 86.12,342 C100.3,354.31 112.3739,361.0653 130.3239,367.2153" fill="none" id="Guest-to-UC5" style="stroke:#181818;stroke-width:1;"/><polygon fill="#181818" points="136,369.16,128.7824,362.4588,131.2699,367.5394,126.1894,370.027,136,369.16" style="stroke:#181818;stroke-width:1;"/></g><!--link UC4 to UC6--><g class="link" data-entity-1="UC4" data-entity-2="UC6" data-source-line="20" data-uid="lnk15" id="link_UC4_UC6"><path d="M325.62,310.74 C371.01,315.54 418.0333,320.519 461.6233,325.129" fill="none" id="UC4-to-UC6" style="stroke:#181818;stroke-width:1;stroke-dasharray:7,7;"/><polygon fill="#181818" points="467.59,325.76,459.0606,320.8356,462.6177,325.2341,458.2192,328.7913,467.59,325.76" style="stroke:#181818;stroke-width:1;"/><text fill="#000000" font-family="sans-serif" font-size="13" lengthAdjust="spacing" textLength="61.1851" x="367.11" y="312.0669">&#171;extend&#187;</text></g><!--link UC5 to UC6--><g class="link" data-entity-1="UC5" data-entity-2="UC6" data-source-line="21" data-uid="lnk16" id="link_UC5_UC6"><path d="M314.51,370.61 C364.35,363.23 419.7748,355.0193 468.0348,347.8693" fill="none" id="UC5-to-UC6" style="stroke:#181818;stroke-width:1;stroke-dasharray:7,7;"/><polygon fill="#181818" points="473.97,346.99,464.481,344.3522,469.024,347.7228,465.6534,352.2658,473.97,346.99" style="stroke:#181818;stroke-width:1;"/><text fill="#000000" font-family="sans-serif" font-size="13" lengthAdjust="spacing" textLength="61.1851" x="367.11" y="350.0669">&#171;extend&#187;</text></g><!--SRC=[XT2nJiCm40RW_PxYLoSOMecswO2gB4Kg2uW195OhEMAhgLCb1of2J0oiy0PKp1sGc5enfUfxv4rmaweGWS3Rx_jitpdcAu4aI4sa1Q59EH2JM28LI99YUCsP46rsbOrYHkEuM3xYN1VBPnlXn5Y3eHfp0tS4j_OkUOnGMOqidmNw2-n3PRWO75HgeDSp0t6tp7-GTaLMJwi7zy8e_u3aBmOZdHIBLukpMDrokhMTl-qHtt2SJ7Qy-n_FJ6HtsglqgIuMyubhDdztXyHOJDrePVDlmPRsw9we_2iqctuvv_VKhgLEBNLhoIDoMsYrDg67G_JxF1MseU-xWlThuHC0]--></g></svg>