<svg xmlns="http://www.w3.org/2000/svg" xmlns:xlink="http://www.w3.org/1999/xlink" contentStyleType="text/css" data-diagram-type="DESCRIPTION" height="378px" preserveAspectRatio="none" style="width:381px;height:378px;background:#FFFFFF;" version="1.1" viewBox="0 0 381 378" width="381px" zoomAndPan="magnify"><defs/><g><!--cluster Mini Game Platform--><g class="cluster" data-entity="Mini Game Platform" data-source-line="6" data-uid="ent0003" id="cluster_Mini Game Platform"><path d="M93.62,6 L251.286,6 A3.75,3.75 0 0 1 253.786,8.5 L260.786,28.2969 L372.27,28.2969 A2.5,2.5 0 0 1 374.77,30.7969 L374.77,368.5 A2.5,2.5 0 0 1 372.27,371 L93.62,371 A2.5,2.5 0 0 1 91.12,368.5 L91.12,8.5 A2.5,2.5 0 0 1 93.62,6" fill="none" style="stroke:#000000;stroke-width:1.5;"/><line style="stroke:#000000;stroke-width:1.5;" x1="91.12" x2="260.786" y1="28.2969" y2="28.2969"/><text fill="#000000" font-family="sans-serif" font-size="14" font-weight="bold" lengthAdjust="spacing" textLength="156.666" x="95.12" y="20.9951">Mini Game Platform</text></g><!--entity UC_ViewList--><g class="entity" data-entity="UC_ViewList" data-source-line="7" data-uid="ent0004" id="entity_UC_ViewList"><ellipse cx="232.9394" cy="329.9957" fill="#F1F1F1" rx="88.3394" ry="25.3657" style="stroke:#181818;stroke-width:0.5;"/><text fill="#000000" font-family="sans-serif" font-size="14" lengthAdjust="spacing" textLength="108.3975" x="178.7407" y="325.5166">Xem danh s&#225;ch</text><text fill="#000000" font-family="sans-serif" font-size="14" lengthAdjust="spacing" textLength="124.3662" x="170.7563" y="341.8134">mini game c&#243; s&#7861;n</text></g><!--entity UC_PlayTrial--><g class="entity" data-entity="UC_PlayTrial" data-source-line="8" data-uid="ent0005" id="entity_UC_PlayTrial"><ellipse cx="232.9405" cy="243.9961" fill="#F1F1F1" rx="114.2305" ry="25.2461" style="stroke:#181818;stroke-width:0.5;"/><text fill="#000000" font-family="sans-serif" font-size="14" lengthAdjust="spacing" textLength="137.6963" x="164.0923" y="239.3205">Ch&#417;i th&#7917; mini game</text><text fill="#000000" font-family="sans-serif" font-size="14" lengthAdjust="spacing" textLength="163.167" x="151.357" y="255.6174">(kh&#244;ng c&#7847;n &#273;&#259;ng nh&#7853;p)</text></g><!--entity UC_Register--><g class="entity" data-entity="UC_Register" data-source-line="9" data-uid="ent0006" id="entity_UC_Register"><ellipse cx="232.9364" cy="155.9953" fill="#F1F1F1" rx="125.8264" ry="27.5653" style="stroke:#181818;stroke-width:0.5;"/><text fill="#000000" font-family="sans-serif" font-size="14" lengthAdjust="spacing" textLength="127.8867" x="168.993" y="147.8183">&#272;&#259;ng k&#253; t&#224;i kho&#7843;n</text><text fill="#000000" font-family="sans-serif" font-size="14" lengthAdjust="spacing" textLength="216.4326" x="124.7201" y="164.1152">(Player / Developer / Designer)</text></g><!--entity UC_Verify--><g class="entity" data-entity="UC_Verify" data-source-line="10" data-uid="ent0007" id="entity_UC_Verify"><ellipse cx="232.9362" cy="67.0012" fill="#F1F1F1" rx="118.7062" ry="26.1412" style="stroke:#181818;stroke-width:0.5;"/><text fill="#000000" font-family="sans-serif" font-size="14" lengthAdjust="spacing" textLength="169.0459" x="148.4132" y="63.9946">Nh&#7853;p th&#244;ng tin x&#225;c th&#7921;c</text><text fill="#000000" font-family="sans-serif" font-size="14" lengthAdjust="spacing" textLength="159.25" x="153.3112" y="80.2915">(Developer / Designer)</text></g><!--entity Guest--><g class="entity" data-entity="Guest" data-source-line="4" data-uid="ent0002" id="entity_Guest"><ellipse cx="26.5591" cy="170.35" fill="#F1F1F1" rx="8" ry="8" style="stroke:#181818;stroke-width:0.5;"/><path d="M26.5591,178.35 L26.5591,205.35 M13.5591,186.35 L39.5591,186.35 M26.5591,205.35 L13.5591,220.35 M26.5591,205.35 L39.5591,220.35" fill="none" style="stroke:#181818;stroke-width:0.5;"/><text fill="#000000" font-family="sans-serif" font-size="14" lengthAdjust="spacing" textLength="41.1182" x="6" y="234.8451">Guest</text></g><!--link Guest to UC_ViewList--><g class="link" data-entity-1="Guest" data-entity-2="UC_ViewList" data-source-line="14" data-uid="lnk8" id="link_Guest_UC_ViewList"><path d="M44.29,238.43 C53.5,255.52 66.47,274.55 83.12,287 C103.58,302.3 123.5451,310.6426 147.8751,317.0026" fill="none" id="Guest-to-UC_ViewList" style="stroke:#181818;stroke-width:1;"/><polygon fill="#181818" points="153.68,318.52,145.9842,312.3739,148.8425,317.2555,143.961,320.1138,153.68,318.52" style="stroke:#181818;stroke-width:1;"/></g><!--link Guest to UC_PlayTrial--><g class="link" data-entity-1="Guest" data-entity-2="UC_PlayTrial" data-source-line="15" data-uid="lnk9" id="link_Guest_UC_PlayTrial"><path d="M47.53,204.3 C71.33,209.42 106.7545,217.0467 144.2245,225.1167" fill="none" id="Guest-to-UC_PlayTrial" style="stroke:#181818;stroke-width:1;"/><polygon fill="#181818" points="150.09,226.38,142.1339,220.5748,145.2021,225.3273,140.4496,228.3954,150.09,226.38" style="stroke:#181818;stroke-width:1;"/></g><!--link Guest to UC_Register--><g class="link" data-entity-1="Guest" data-entity-2="UC_Register" data-source-line="16" data-uid="lnk10" id="link_Guest_UC_Register"><path d="M47.53,195.7 C69.63,190.94 100.9141,184.2015 136.1141,176.6315" fill="none" id="Guest-to-UC_Register" style="stroke:#181818;stroke-width:1;"/><polygon fill="#181818" points="141.98,175.37,132.3402,173.3517,137.0918,176.4212,134.0222,181.1728,141.98,175.37" style="stroke:#181818;stroke-width:1;"/></g><!--link Guest to UC_Verify--><g class="link" data-entity-1="Guest" data-entity-2="UC_Verify" data-source-line="17" data-uid="lnk11" id="link_Guest_UC_Verify"><path d="M43.67,161.64 C52.87,143.93 66.01,124.01 83.12,111 C99.42,98.61 113.4536,91.5439 133.1536,85.1439" fill="none" id="Guest-to-UC_Verify" style="stroke:#181818;stroke-width:1;"/><polygon fill="#181818" points="138.86,83.29,129.0645,82.2665,134.1047,84.8349,131.5363,89.8751,138.86,83.29" style="stroke:#181818;stroke-width:1;"/></g><!--SRC=[TP2nIWD154Nx-OhBDj4Y-0Ss4TAeY6Ym2CWmUTaPTdScpiogGQmiRBMsCLXO1HIrsM2r8V-nV-9aOu89sCrStZltljk0dBrLaoST8-L3atkMKj_36rWLIu-UiYIyCfenBhonQEVaF6C3BX8U4w83fHNQF2CSfTptZSqYt30WToIu8vospZkAhlQLym1tYCueGuzh2LUEXEpgR0w8vm1HVi1LnPUErlS3U7XY5K_h_PQSZHIyh2PZh7QxUYkHvMUuGbJ5gyRqSNeNFbfMnNYmlS4xfZYa8Rl8CtseHvFo6xvyLaYagOeN7OXptp2rWpswfDGCVjzEnPhi9hH3LlM7m09wM1k7b7KchpIkmxLrwdSHqFyGRnbhu2Bd6c7m7el6cxjB7rQNZsPG_jIwhgxAMfUNDsyWwj0_]--></g></svg>