<svg xmlns="http://www.w3.org/2000/svg" xmlns:xlink="http://www.w3.org/1999/xlink" contentStyleType="text/css" data-diagram-type="ACTIVITY" height="470px" preserveAspectRatio="none" style="width:437px;height:470px;background:#FFFFFF;" version="1.1" viewBox="0 0 437 470" width="437px" zoomAndPan="magnify"><defs/><g><ellipse cx="239.3237" cy="20" fill="#222222" rx="10" ry="10" style="stroke:#222222;stroke-width:1;"/><rect fill="#F1F1F1" height="33.9688" rx="12.5" ry="12.5" style="stroke:#181818;stroke-width:0.5;" width="213.7109" x="132.4683" y="50"/><text fill="#000000" font-family="sans-serif" font-size="12" lengthAdjust="spacing" textLength="193.7109" x="142.4683" y="71.1387">Guest ch&#7885;n "X&#225;c th&#7921;c th&#244;ng tin"</text><rect fill="#F1F1F1" height="33.9688" rx="12.5" ry="12.5" style="stroke:#181818;stroke-width:0.5;" width="164.8965" x="156.8755" y="103.9688"/><text fill="#000000" font-family="sans-serif" font-size="12" lengthAdjust="spacing" textLength="144.8965" x="166.8755" y="125.1074">Nh&#7853;p th&#244;ng tin x&#225;c th&#7921;c</text><rect fill="#F1F1F1" height="33.9688" rx="12.5" ry="12.5" style="stroke:#181818;stroke-width:0.5;" width="124.4785" x="177.0845" y="157.9375"/><text fill="#000000" font-family="sans-serif" font-size="12" lengthAdjust="spacing" textLength="104.4785" x="187.0845" y="179.0762">Request x&#225;c th&#7921;c</text><rect fill="#F1F1F1" height="33.9688" rx="12.5" ry="12.5" style="stroke:#181818;stroke-width:0.5;" width="157.8359" x="160.4058" y="211.9063"/><text fill="#000000" font-family="sans-serif" font-size="12" lengthAdjust="spacing" textLength="137.8359" x="170.4058" y="233.0449">Server ki&#7875;m tra d&#7919; li&#7879;u</text><polygon fill="#F1F1F1" points="191.5479,265.875,287.0996,265.875,299.0996,277.875,287.0996,289.875,191.5479,289.875,179.5479,277.875,191.5479,265.875" style="stroke:#181818;stroke-width:0.5;"/><text fill="#000000" font-family="sans-serif" font-size="11" lengthAdjust="spacing" textLength="95.5518" x="191.5479" y="281.6831">Th&#244;ng tin h&#7907;p l&#7879;?</text><text fill="#000000" font-family="sans-serif" font-size="11" lengthAdjust="spacing" textLength="14.4106" x="165.1372" y="275.2808">C&#243;</text><text fill="#000000" font-family="sans-serif" font-size="11" lengthAdjust="spacing" textLength="34.8691" x="299.0996" y="275.2808">Kh&#244;ng</text><rect fill="#F1F1F1" height="33.9688" rx="12.5" ry="12.5" style="stroke:#181818;stroke-width:0.5;" width="238.8828" x="11" y="299.875"/><text fill="#000000" font-family="sans-serif" font-size="12" lengthAdjust="spacing" textLength="218.8828" x="21" y="321.0137">C&#7853;p nh&#7853;t quy&#7873;n Developer/Designer</text><rect fill="#F1F1F1" height="33.9688" rx="12.5" ry="12.5" style="stroke:#181818;stroke-width:0.5;" width="178.8242" x="41.0293" y="353.8438"/><text fill="#000000" font-family="sans-serif" font-size="12" lengthAdjust="spacing" textLength="158.8242" x="51.0293" y="374.9824">Tr&#7843; v&#7873; k&#7871;t qu&#7843; th&#224;nh c&#244;ng</text><rect fill="#F1F1F1" height="33.9688" rx="12.5" ry="12.5" style="stroke:#181818;stroke-width:0.5;" width="156.6465" x="269.8828" y="299.875"/><text fill="#000000" font-family="sans-serif" font-size="12" lengthAdjust="spacing" textLength="136.6465" x="279.8828" y="321.0137">Th&#244;ng b&#225;o l&#7895;i x&#225;c th&#7921;c</text><polygon fill="#F1F1F1" points="239.3237,393.8125,251.3237,405.8125,239.3237,417.8125,227.3237,405.8125,239.3237,393.8125" style="stroke:#181818;stroke-width:0.5;"/><ellipse cx="239.3237" cy="448.8125" fill="none" rx="11" ry="11" style="stroke:#222222;stroke-width:1;"/><ellipse cx="239.3237" cy="448.8125" fill="#222222" rx="6" ry="6" style="stroke:#222222;stroke-width:1;"/><line style="stroke:#181818;stroke-width:1;" x1="239.3237" x2="239.3237" y1="30" y2="50"/><polygon fill="#181818" points="235.3237,40,239.3237,50,243.3237,40,239.3237,44" style="stroke:#181818;stroke-width:1;"/><line style="stroke:#181818;stroke-width:1;" x1="239.3237" x2="239.3237" y1="83.9688" y2="103.9688"/><polygon fill="#181818" points="235.3237,93.9688,239.3237,103.9688,243.3237,93.9688,239.3237,97.9688" style="stroke:#181818;stroke-width:1;"/><line style="stroke:#181818;stroke-width:1;" x1="239.3237" x2="239.3237" y1="137.9375" y2="157.9375"/><polygon fill="#181818" points="235.3237,147.9375,239.3237,157.9375,243.3237,147.9375,239.3237,151.9375" style="stroke:#181818;stroke-width:1;"/><line style="stroke:#181818;stroke-width:1;" x1="239.3237" x2="239.3237" y1="191.9063" y2="211.9063"/><polygon fill="#181818" points="235.3237,201.9063,239.3237,211.9063,243.3237,201.9063,239.3237,205.9063" style="stroke:#181818;stroke-width:1;"/><line style="stroke:#181818;stroke-width:1;" x1="130.4414" x2="130.4414" y1="333.8438" y2="353.8438"/><polygon fill="#181818" points="126.4414,343.8438,130.4414,353.8438,134.4414,343.8438,130.4414,347.8438" style="stroke:#181818;stroke-width:1;"/><line style="stroke:#181818;stroke-width:1;" x1="179.5479" x2="130.4414" y1="277.875" y2="277.875"/><line style="stroke:#181818;stroke-width:1;" x1="130.4414" x2="130.4414" y1="277.875" y2="299.875"/><polygon fill="#181818" points="126.4414,289.875,130.4414,299.875,134.4414,289.875,130.4414,293.875" style="stroke:#181818;stroke-width:1;"/><line style="stroke:#181818;stroke-width:1;" x1="299.0996" x2="348.2061" y1="277.875" y2="277.875"/><line style="stroke:#181818;stroke-width:1;" x1="348.2061" x2="348.2061" y1="277.875" y2="299.875"/><polygon fill="#181818" points="344.2061,289.875,348.2061,299.875,352.2061,289.875,348.2061,293.875" style="stroke:#181818;stroke-width:1;"/><line style="stroke:#181818;stroke-width:1;" x1="130.4414" x2="130.4414" y1="387.8125" y2="405.8125"/><line style="stroke:#181818;stroke-width:1;" x1="130.4414" x2="227.3237" y1="405.8125" y2="405.8125"/><polygon fill="#181818" points="217.3237,401.8125,227.3237,405.8125,217.3237,409.8125,221.3237,405.8125" style="stroke:#181818;stroke-width:1;"/><line style="stroke:#181818;stroke-width:1;" x1="348.2061" x2="348.2061" y1="333.8438" y2="405.8125"/><line style="stroke:#181818;stroke-width:1;" x1="348.2061" x2="251.3237" y1="405.8125" y2="405.8125"/><polygon fill="#181818" points="261.3237,401.8125,251.3237,405.8125,261.3237,409.8125,257.3237,405.8125" style="stroke:#181818;stroke-width:1;"/><line style="stroke:#181818;stroke-width:1;" x1="239.3237" x2="239.3237" y1="245.875" y2="265.875"/><polygon fill="#181818" points="235.3237,255.875,239.3237,265.875,243.3237,255.875,239.3237,259.875" style="stroke:#181818;stroke-width:1;"/><line style="stroke:#181818;stroke-width:1;" x1="239.3237" x2="239.3237" y1="417.8125" y2="437.8125"/><polygon fill="#181818" points="235.3237,427.8125,239.3237,437.8125,243.3237,427.8125,239.3237,431.8125" style="stroke:#181818;stroke-width:1;"/><!--SRC=[LKynRi904Epl5ICgKwMt2mgGKaHA4IXemIpuXBCsTsSBIaH1HKqBeaPHb5HsaS8lkP_apa82gjNEpCxCQZDHHeIl1Mc3EB7rWT4PD-SOnYtVVZI_l82Ht8b4-9xOwfe_W5ZVjOx_e5Nhz8mEIPMai9Istdt2g0bcjlv2wlPz4GavHp2wExghIuxKSRskyo16q6z-kW88-sqw-n86gs9ZworZG2MbMKxgPK1QBfXKvBKZPQiBIYV1qbP_Nky1L_t42M8V5mbADI5uQyFRX5kFQNFEV8MZV7w5U2RdGfii_mS0]--></g></svg>