<svg xmlns="http://www.w3.org/2000/svg" xmlns:xlink="http://www.w3.org/1999/xlink" contentStyleType="text/css" data-diagram-type="DESCRIPTION" height="645px" preserveAspectRatio="none" style="width:362px;height:645px;background:#FFFFFF;" version="1.1" viewBox="0 0 362 645" width="362px" zoomAndPan="magnify"><defs><filter height="300%" id="f1tf3srnjh3il5" width="300%" x="-1" y="-1"><feGaussianBlur result="blurOut" stdDeviation="2"/><feColorMatrix in="blurOut" result="blurOut2" type="matrix" values="0 0 0 0 0 0 0 0 0 0 0 0 0 0 0 0 0 0 .4 0"/><feOffset dx="4" dy="4" in="blurOut2" result="blurOut3"/><feBlend in="SourceGraphic" in2="blurOut3" mode="normal"/></filter></defs><g><!--cluster Client--><g class="cluster" data-entity="Client" data-source-line="13" data-uid="ent0002" id="cluster_Client"><rect fill="none" filter="url(#f1tf3srnjh3il5)" height="87.29" rx="6" ry="6" style="stroke:#666666;stroke-width:1;" width="106" x="73" y="7"/><text fill="#000000" font-family="sans-serif" font-size="14" font-weight="bold" lengthAdjust="spacing" textLength="46.0264" x="102.9868" y="21.9951">Client</text></g><!--cluster Server (Python)--><g class="cluster" data-entity="Server .Python." data-source-line="17" data-uid="ent0004" id="cluster_Server .Python."><rect fill="none" filter="url(#f1tf3srnjh3il5)" height="361.79" rx="6" ry="6" style="stroke:#666666;stroke-width:1;" width="343" x="7" y="158.29"/><text fill="#000000" font-family="sans-serif" font-size="14" font-weight="bold" lengthAdjust="spacing" textLength="125.3096" x="115.8452" y="173.2851">Server (Python)</text></g><!--entity React--><g class="entity" data-entity="React" data-source-line="14" data-uid="ent0003" id="entity_React"><rect fill="#F1F1F1" filter="url(#f1tf3srnjh3il5)" height="36.2969" rx="6" ry="6" style="stroke:#666666;stroke-width:0.5;" width="73.1221" x="89.44" y="42"/><text fill="#000000" font-family="sans-serif" font-size="14" lengthAdjust="spacing" textLength="53.1221" x="99.44" y="64.9951">ReactJS</text></g><!--entity C--><g class="entity" data-entity="C" data-source-line="18" data-uid="ent0005" id="entity_C"><rect fill="#F1F1F1" filter="url(#f1tf3srnjh3il5)" height="52.5938" rx="6" ry="6" style="stroke:#666666;stroke-width:0.5;" width="196.75" x="27.62" y="193.29"/><text fill="#000000" font-family="sans-serif" font-size="14" lengthAdjust="spacing" textLength="65.6318" x="37.62" y="216.2851">API Layer</text><text fill="#000000" font-family="sans-serif" font-size="14" lengthAdjust="spacing" textLength="176.75" x="37.62" y="232.582">FastAPI/Flask (Controller)</text></g><!--entity S--><g class="entity" data-entity="S" data-source-line="19" data-uid="ent0006" id="entity_S"><rect fill="#F1F1F1" filter="url(#f1tf3srnjh3il5)" height="52.5938" rx="6" ry="6" style="stroke:#666666;stroke-width:0.5;" width="133.9482" x="23.03" y="337.89"/><text fill="#000000" font-family="sans-serif" font-size="14" lengthAdjust="spacing" textLength="95.2246" x="33.03" y="360.8851">Service Layer</text><text fill="#000000" font-family="sans-serif" font-size="14" lengthAdjust="spacing" textLength="113.9482" x="33.03" y="377.182">(Business Logic)</text></g><!--entity R--><g class="entity" data-entity="R" data-source-line="20" data-uid="ent0007" id="entity_R"><rect fill="#F1F1F1" filter="url(#f1tf3srnjh3il5)" height="52.5938" rx="6" ry="6" style="stroke:#666666;stroke-width:0.5;" width="156.4795" x="22.76" y="451.48"/><text fill="#000000" font-family="sans-serif" font-size="14" lengthAdjust="spacing" textLength="118.5557" x="32.76" y="474.4751">Repository Layer</text><text fill="#000000" font-family="sans-serif" font-size="14" lengthAdjust="spacing" textLength="136.4795" x="32.76" y="490.772">(SQLAlchemy ORM)</text></g><!--entity Auth--><g class="entity" data-entity="Auth" data-source-line="21" data-uid="ent0008" id="entity_Auth"><rect fill="#F1F1F1" filter="url(#f1tf3srnjh3il5)" height="52.5938" rx="6" ry="6" style="stroke:#666666;stroke-width:0.5;" width="142.8486" x="191.58" y="337.89"/><text fill="#000000" font-family="sans-serif" font-size="14" lengthAdjust="spacing" textLength="122.8486" x="201.58" y="360.8851">Auth &amp; Validation</text><text fill="#000000" font-family="sans-serif" font-size="14" lengthAdjust="spacing" textLength="111.207" x="201.58" y="377.182">(Pydantic / JWT)</text></g><!--entity DB--><g class="entity" data-entity="DB" data-source-line="24" data-uid="ent0009" id="entity_DB"><path d="M46.5,577.08 C46.5,567.08 100.9951,567.08 100.9951,567.08 C100.9951,567.08 155.4902,567.08 155.4902,577.08 L155.4902,618.6737 C155.4902,628.6737 100.9951,628.6737 100.9951,628.6737 C100.9951,628.6737 46.5,628.6737 46.5,618.6737 L46.5,577.08" fill="#F1F1F1" filter="url(#f1tf3srnjh3il5)" style="stroke:#666666;stroke-width:0.5;"/><path d="M46.5,577.08 C46.5,587.08 100.9951,587.08 100.9951,587.08 C100.9951,587.08 155.4902,587.08 155.4902,577.08" fill="none" style="stroke:#666666;stroke-width:0.5;"/><text fill="#000000" font-family="sans-serif" font-size="14" lengthAdjust="spacing" textLength="66.8008" x="56.5" y="604.0751">Database</text><text fill="#000000" font-family="sans-serif" font-size="14" lengthAdjust="spacing" textLength="88.9902" x="56.5" y="620.372">(SQL Server)</text></g><!--link React to C--><g class="link" data-entity-1="React" data-entity-2="C" data-source-line="27" data-uid="lnk10" id="link_React_C"><path d="M126,78.6 C126,106.38 126,154.81 126,187" fill="none" id="React-to-C" style="stroke:#181818;stroke-width:1;stroke-dasharray:7,7;"/><polygon fill="#181818" points="126,193,130,184,126,188,122,184,126,193" style="stroke:#181818;stroke-width:1;"/><text fill="#000000" font-family="sans-serif" font-size="13" lengthAdjust="spacing" textLength="58.1382" x="132.8906" y="123.3569">REST API</text><text fill="#000000" font-family="sans-serif" font-size="13" lengthAdjust="spacing" textLength="69.9194" x="127" y="138.4897">HTTP/JSON</text></g><!--link C to Auth--><g class="link" data-entity-1="C" data-entity-2="Auth" data-source-line="28" data-uid="lnk11" id="link_C_Auth"><path d="M150.49,246.08 C175.28,271.88 209.2326,307.2238 234.1026,333.1038" fill="none" id="C-to-Auth" style="stroke:#181818;stroke-width:1;"/><polygon fill="#181818" points="238.26,337.43,234.9081,328.1691,234.7955,333.8248,229.1398,333.7123,238.26,337.43" style="stroke:#181818;stroke-width:1;"/><text fill="#000000" font-family="sans-serif" font-size="13" lengthAdjust="spacing" textLength="36.918" x="213.8428" y="288.9569">verify</text><text fill="#000000" font-family="sans-serif" font-size="13" lengthAdjust="spacing" textLength="50.6035" x="207" y="304.0897">&amp; parse</text></g><!--link C to S--><g class="link" data-entity-1="C" data-entity-2="S" data-source-line="29" data-uid="lnk12" id="link_C_S"><path d="M119.56,246.08 C113.05,271.88 104.51,305.7329 97.97,331.6129" fill="none" id="C-to-S" style="stroke:#181818;stroke-width:1;"/><polygon fill="#181818" points="96.5,337.43,102.5831,329.6843,97.725,332.5824,94.8269,327.7243,96.5,337.43" style="stroke:#181818;stroke-width:1;"/></g><!--link S to R--><g class="link" data-entity-1="S" data-entity-2="R" data-source-line="30" data-uid="lnk13" id="link_S_R"><path d="M92.52,390.79 C94.31,408.93 96.1102,427.2091 97.9002,445.3291" fill="none" id="S-to-R" style="stroke:#181818;stroke-width:1;"/><polygon fill="#181818" points="98.49,451.3,101.5859,441.9504,97.9985,446.3242,93.6246,442.7368,98.49,451.3" style="stroke:#181818;stroke-width:1;"/></g><!--link R to DB--><g class="link" data-entity-1="R" data-entity-2="DB" data-source-line="31" data-uid="lnk14" id="link_R_DB"><path d="M101,504.4 C101,522.72 101,541.43 101,560.7" fill="none" id="R-to-DB" style="stroke:#181818;stroke-width:1;"/><polygon fill="#181818" points="101,566.7,105,557.7,101,561.7,97,557.7,101,566.7" style="stroke:#181818;stroke-width:1;"/></g><!--SRC=[PP9VJy8m5CNV-obkPeBm80HZUF21X0qN9IYuBlh2Izdgrb1wbxQJJEDtjsmu-RENjhVdT-xTsImMO17MQ2rk8HMQ9rQW8cOZLC4qsuB9MOexeJAmkkH75mLBDYpZr5QImvvZAfF7WhO6tmGWmbAb0Mh5DGnlNS57dN8Te4GDLwFHo9L2L9QABmx3E_9pv9GoozRCD4ONt0yXXrd02wJWodgryB-_5t6Ms1drW1cezoSGvVhJJTLTLZP7rRkW9yidcBEAwvKAcR7kE0WbCnle1cvWZL9otQkzWrDmRomI_WTt_T88nOs1EMOYQH1wFcc1HbZKLKlHr_b49ZdVLh28dXigEfkmj3bqu8r9uR9o7z1Xoofboee41Z1xZnjihzk_UXkeDpticZxGHD68fpuXrt1pU22Kk3FjaTGnGhy_XW3k8NgWCRXWLkenZfU36LsyaC29ntLB9t2kugDQgOxxRxJXXqjAQBr69AhNgVyB]--></g></svg>