<svg xmlns="http://www.w3.org/2000/svg" xmlns:xlink="http://www.w3.org/1999/xlink" contentStyleType="text/css" data-diagram-type="STATE" height="699px" preserveAspectRatio="none" style="width:452px;height:699px;background:#FFFFFF;" version="1.1" viewBox="0 0 452 699" width="452px" zoomAndPan="magnify"><title>Tr&#7841;ng th&#225;i: Payment Transaction</title><defs><filter height="300%" id="fgaa01chq6vyq" width="300%" x="-1" y="-1"><feGaussianBlur result="blurOut" stdDeviation="2"/><feColorMatrix in="blurOut" result="blurOut2" type="matrix" values="0 0 0 0 0 0 0 0 0 0 0 0 0 0 0 0 0 0 .4 0"/><feOffset dx="4" dy="4" in="blurOut2" result="blurOut3"/><feBlend in="SourceGraphic" in2="blurOut3" mode="normal"/></filter></defs><g><g class="title" data-source-line="8"><text fill="#000000" font-family="sans-serif" font-size="14" font-weight="bold" lengthAdjust="spacing" textLength="259.6152" x="89.6425" y="22.9951">Tr&#7841;ng th&#225;i: Payment Transaction</text></g><g id="Initiated"><rect fill="#F1F1F1" filter="url(#fgaa01chq6vyq)" height="50" rx="12.5" ry="12.5" style="stroke:#666666;stroke-width:0.5;" width="77.8389" x="175.78" y="140.2969"/><line style="stroke:#666666;stroke-width:0.5;" x1="175.78" x2="253.6189" y1="166.5938" y2="166.5938"/><text fill="#000000" font-family="sans-serif" font-size="14" lengthAdjust="spacing" textLength="57.8389" x="185.78" y="158.292">Initiated</text></g><g id="Pending"><rect fill="#F1F1F1" filter="url(#fgaa01chq6vyq)" height="50" rx="12.5" ry="12.5" style="stroke:#666666;stroke-width:0.5;" width="76.4648" x="176.47" y="267.2969"/><line style="stroke:#666666;stroke-width:0.5;" x1="176.47" x2="252.9348" y1="293.5938" y2="293.5938"/><text fill="#000000" font-family="sans-serif" font-size="14" lengthAdjust="spacing" textLength="56.4648" x="186.47" y="285.292">Pending</text></g><g id="Successful"><rect fill="#F1F1F1" filter="url(#fgaa01chq6vyq)" height="50" rx="12.5" ry="12.5" style="stroke:#666666;stroke-width:0.5;" width="94.0469" x="29.68" y="394.2969"/><line style="stroke:#666666;stroke-width:0.5;" x1="29.68" x2="123.7269" y1="420.5938" y2="420.5938"/><text fill="#000000" font-family="sans-serif" font-size="14" lengthAdjust="spacing" textLength="74.0469" x="39.68" y="412.292">Successful</text></g><g id="Failed"><rect fill="#F1F1F1" filter="url(#fgaa01chq6vyq)" height="50" rx="12.5" ry="12.5" style="stroke:#666666;stroke-width:0.5;" width="61.9111" x="241.75" y="474.2969"/><line style="stroke:#666666;stroke-width:0.5;" x1="241.75" x2="303.6611" y1="500.5938" y2="500.5938"/><text fill="#000000" font-family="sans-serif" font-size="14" lengthAdjust="spacing" textLength="41.9111" x="251.75" y="492.292">Failed</text></g><g id="Refunded"><rect fill="#F1F1F1" filter="url(#fgaa01chq6vyq)" height="50" rx="12.5" ry="12.5" style="stroke:#666666;stroke-width:0.5;" width="87.4023" x="7" y="554.2969"/><line style="stroke:#666666;stroke-width:0.5;" x1="7" x2="94.4023" y1="580.5938" y2="580.5938"/><text fill="#000000" font-family="sans-serif" font-size="14" lengthAdjust="spacing" textLength="67.4023" x="17" y="572.292">Refunded</text></g><g id="Cancelled"><rect fill="#F1F1F1" filter="url(#fgaa01chq6vyq)" height="50" rx="12.5" ry="12.5" style="stroke:#666666;stroke-width:0.5;" width="88.8174" x="319.29" y="474.2969"/><line style="stroke:#666666;stroke-width:0.5;" x1="319.29" x2="408.1074" y1="500.5938" y2="500.5938"/><text fill="#000000" font-family="sans-serif" font-size="14" lengthAdjust="spacing" textLength="68.8174" x="329.29" y="492.292">Cancelled</text></g><ellipse cx="214.7" cy="53.2969" fill="#222222" filter="url(#fgaa01chq6vyq)" rx="10" ry="10" style="stroke:#222222;stroke-width:1;"/><ellipse cx="219.7" cy="676.2969" fill="none" filter="url(#fgaa01chq6vyq)" rx="11" ry="11" style="stroke:#222222;stroke-width:1;"/><ellipse cx="219.7" cy="676.2969" fill="#222222" rx="6" ry="6" style="stroke:#222222;stroke-width:1;"/><!--link *start* to Initiated--><g class="link" data-entity-1=".start." data-entity-2="Initiated" data-source-line="10" data-uid="lnk3" id="link_.start._Initiated"><path d="M214.7,63.6769 C214.7,80.4069 214.7,109.8869 214.7,133.9269" fill="none" id="*start*-to-Initiated" style="stroke:#181818;stroke-width:1;"/><polygon fill="#181818" points="214.7,139.9269,218.7,130.9269,214.7,134.9269,210.7,130.9269,214.7,139.9269" style="stroke:#181818;stroke-width:1;"/><text fill="#000000" font-family="sans-serif" font-size="13" lengthAdjust="spacing" textLength="113.8706" x="215.7" y="106.3638">B&#7855;t &#273;&#7847;u giao d&#7883;ch</text></g><!--link Initiated to Pending--><g class="link" data-entity-1="Initiated" data-entity-2="Pending" data-source-line="19" data-uid="lnk4" id="link_Initiated_Pending"><path d="M214.7,190.6969 C214.7,212.7169 214.7,238.9569 214.7,260.9569" fill="none" id="Initiated-to-Pending" style="stroke:#181818;stroke-width:1;"/><polygon fill="#181818" points="214.7,266.9569,218.7,257.9569,214.7,261.9569,210.7,257.9569,214.7,266.9569" style="stroke:#181818;stroke-width:1;"/><text fill="#000000" font-family="sans-serif" font-size="13" lengthAdjust="spacing" textLength="153.7466" x="215.7" y="233.3638">G&#7917;i t&#7899;i c&#7893;ng thanh to&#225;n</text></g><!--link Pending to Successful--><g class="link" data-entity-1="Pending" data-entity-2="Successful" data-source-line="21" data-uid="lnk5" id="link_Pending_Successful"><path d="M176.28,296.3469 C142.96,301.2569 96.58,314.0369 73.7,347.2969 C64.47,360.7169 64.2786,373.3153 67.4986,388.0453" fill="none" id="Pending-to-Successful" style="stroke:#181818;stroke-width:1;"/><polygon fill="#181818" points="68.78,393.9069,70.7657,384.2603,67.7122,389.0222,62.9503,385.9687,68.78,393.9069" style="stroke:#181818;stroke-width:1;"/><text fill="#000000" font-family="sans-serif" font-size="13" lengthAdjust="spacing" textLength="96.9033" x="74.7" y="360.3638">Thanh to&#225;n OK</text></g><!--link Pending to Failed--><g class="link" data-entity-1="Pending" data-entity-2="Failed" data-source-line="22" data-uid="lnk6" id="link_Pending_Failed"><path d="M210.65,317.5469 C209.09,331.3869 208.38,348.9869 211.7,364.2969 C220.53,405.0169 239.845,443.0136 254.895,469.0236" fill="none" id="Pending-to-Failed" style="stroke:#181818;stroke-width:1;"/><polygon fill="#181818" points="257.9,474.2169,256.8548,464.4236,255.3959,469.8891,249.9304,468.4303,257.9,474.2169" style="stroke:#181818;stroke-width:1;"/><text fill="#000000" font-family="sans-serif" font-size="13" lengthAdjust="spacing" textLength="113.1025" x="212.7" y="360.3638">L&#7895;i/kh&#244;ng &#273;&#7911; ti&#7873;n</text></g><!--link Pending to Cancelled--><g class="link" data-entity-1="Pending" data-entity-2="Cancelled" data-source-line="23" data-uid="lnk7" id="link_Pending_Cancelled"><path d="M253.43,301.8069 C279.1,309.4469 311.47,323.2769 330.7,347.2969 C360.13,384.0569 364.7237,435.3869 364.7037,467.7969" fill="none" id="Pending-to-Cancelled" style="stroke:#181818;stroke-width:1;"/><polygon fill="#181818" points="364.7,473.7969,368.7,464.7969,364.7,468.7969,360.7,464.7969,364.7,473.7969" style="stroke:#181818;stroke-width:1;"/><text fill="#000000" font-family="sans-serif" font-size="13" lengthAdjust="spacing" textLength="103.2002" x="341.7" y="360.3638">Ng&#432;&#7901;i d&#249;ng hu&#7927;</text></g><!--link Successful to *end*--><g class="link" data-entity-1="Successful" data-entity-2=".end." data-source-line="25" data-uid="lnk9" id="link_Successful_.end."><path d="M113.34,444.7669 C123.46,453.0869 133.6,463.1369 140.7,474.2969 C172.81,524.7869 151.91,549.3969 175.7,604.2969 C186.19,628.5169 200.4554,649.3531 209.8754,662.1631" fill="none" id="Successful-to-*end*" style="stroke:#181818;stroke-width:1;"/><polygon fill="#181818" points="213.43,666.9969,211.3207,657.3765,210.4679,662.9688,204.8757,662.116,213.43,666.9969" style="stroke:#181818;stroke-width:1;"/><text fill="#000000" font-family="sans-serif" font-size="13" lengthAdjust="spacing" textLength="56.2275" x="176.7" y="583.8638">Ho&#224;n t&#7845;t</text></g><!--link Failed to *end*--><g class="link" data-entity-1="Failed" data-entity-2=".end." data-source-line="26" data-uid="lnk10" id="link_Failed_.end."><path d="M265.33,524.6269 C253.5,563.6969 232.5096,633.0046 224.3996,659.7746" fill="none" id="Failed-to-*end*" style="stroke:#181818;stroke-width:1;"/><polygon fill="#181818" points="222.66,665.5169,229.0976,658.0632,224.1097,660.7316,221.4413,655.7437,222.66,665.5169" style="stroke:#181818;stroke-width:1;"/></g><!--link Cancelled to *end*--><g class="link" data-entity-1="Cancelled" data-entity-2=".end." data-source-line="27" data-uid="lnk11" id="link_Cancelled_.end."><path d="M346.27,524.3469 C326.04,551.8569 291.28,597.9169 258.7,635.2969 C248.38,647.1369 239.7983,655.8306 231.7383,663.6806" fill="none" id="Cancelled-to-*end*" style="stroke:#181818;stroke-width:1;"/><polygon fill="#181818" points="227.44,667.8669,236.6782,664.453,231.0219,664.3783,231.0965,658.7219,227.44,667.8669" style="stroke:#181818;stroke-width:1;"/></g><!--link Refunded to *end*--><g class="link" data-entity-1="Refunded" data-entity-2=".end." data-source-line="28" data-uid="lnk12" id="link_Refunded_.end."><path d="M87.89,604.6869 C103.39,614.5469 121.71,625.8169 138.7,635.2969 C163.77,649.2769 188.94,661.1975 204.36,668.2975" fill="none" id="Refunded-to-*end*" style="stroke:#181818;stroke-width:1;"/><polygon fill="#181818" points="209.81,670.8069,203.3079,663.4094,205.2683,668.7157,199.962,670.6761,209.81,670.8069" style="stroke:#181818;stroke-width:1;"/></g><!--link Successful to Refunded--><g class="link" data-entity-1="Successful" data-entity-2="Refunded" data-source-line="30" data-uid="lnk13" id="link_Successful_Refunded"><path d="M72.7,444.6369 C67.81,474.3269 60.5748,518.3066 55.6848,548.0066" fill="none" id="Successful-to-Refunded" style="stroke:#181818;stroke-width:1;"/><polygon fill="#181818" points="54.71,553.9269,60.119,545.6963,55.5223,548.9933,52.2253,544.3966,54.71,553.9269" style="stroke:#181818;stroke-width:1;"/><text fill="#000000" font-family="sans-serif" font-size="13" lengthAdjust="spacing" textLength="63.0132" x="68.7" y="503.8638">Ho&#224;n ti&#7873;n</text></g><!--SRC=[NL0zImCn6DxpArvm4ueKfCWD3YtuWQAbxIOEuPBsNdfD99T3L1oSdHp4GGGxI2VHGH0luud_8__4fBtchDdUv-DzdoVP6CKPLNG2MKAPF4Sn0groJhAQq5Hpk280FPaBrf5AS0NDBGUqfM9STMGg5QorMYq7xKYX-tZ9eRb9hWdHg5CE0sMBgT-Sb5ECe4il9bne1rEHqLYZ58ISh9z2ex4D-m8rkeiC8cZRuat3zvqjPZcCa4fWrjp62I6BK45RpLqkc6jGJVqyZdcM3VEq0dOefa7RuqFN9emTAcAUUfhK2NoUQgTBislDAuAsvX4XjkP-NeYA1BGifwx1KkbTzMrd7DGgE3vOqIqYWNyH75hpW1lZfFnmh6jjPg3HcXknOWb9lULezFDkpHC2AxySd-JMV1Bovxft-A-DO4-MpyB5BruqgSvM9AbNBf7bxmJW_yuW28ldINy1]--></g></svg>