<svg xmlns="http://www.w3.org/2000/svg" xmlns:xlink="http://www.w3.org/1999/xlink" contentStyleType="text/css" data-diagram-type="DESCRIPTION" height="594px" preserveAspectRatio="none" style="width:660px;height:594px;background:#FFFFFF;" version="1.1" viewBox="0 0 660 594" width="660px" zoomAndPan="magnify"><defs/><g><!--cluster H? th?ng Game--><g class="cluster" data-entity="H. th.ng Game" data-source-line="6" data-uid="ent0003" id="cluster_H. th.ng Game"><rect fill="none" height="436" rx="2.5" ry="2.5" style="stroke:#181818;stroke-width:1;" width="526.98" x="127.16" y="7"/><text fill="#000000" font-family="sans-serif" font-size="14" font-weight="bold" lengthAdjust="spacing" textLength="122.2471" x="329.5265" y="21.9951">H&#7879; th&#7889;ng Game</text></g><!--entity U1--><g class="entity" data-entity="U1" data-source-line="7" data-uid="ent0004" id="entity_U1"><ellipse cx="237.2509" cy="57.0036" fill="#F1F1F1" rx="57.3409" ry="14.5236" style="stroke:#181818;stroke-width:0.5;"/><text fill="#000000" font-family="sans-serif" font-size="14" lengthAdjust="spacing" textLength="76.8496" x="198.8261" y="61.6521">&#272;&#259;ng nh&#7853;p</text></g><!--entity U2--><g class="entity" data-entity="U2" data-source-line="8" data-uid="ent0005" id="entity_U2"><ellipse cx="237.2528" cy="121.0036" fill="#F1F1F1" rx="54.5228" ry="14.5236" style="stroke:#181818;stroke-width:0.5;"/><text fill="#000000" font-family="sans-serif" font-size="14" lengthAdjust="spacing" textLength="72.8643" x="200.8207" y="125.6521">&#272;&#259;ng xu&#7845;t</text></g><!--entity U3--><g class="entity" data-entity="U3" data-source-line="9" data-uid="ent0006" id="entity_U3"><ellipse cx="237.2494" cy="185.0036" fill="#F1F1F1" rx="41.2494" ry="14.5236" style="stroke:#181818;stroke-width:0.5;"/><text fill="#000000" font-family="sans-serif" font-size="14" lengthAdjust="spacing" textLength="54.0928" x="210.203" y="189.6521">&#272;&#7893;i qu&#224;</text></g><!--entity U4--><g class="entity" data-entity="U4" data-source-line="10" data-uid="ent0007" id="entity_U4"><ellipse cx="237.2495" cy="255.0019" fill="#F1F1F1" rx="89.8095" ry="20.3619" style="stroke:#181818;stroke-width:0.5;"/><text fill="#000000" font-family="sans-serif" font-size="14" lengthAdjust="spacing" textLength="153.3096" x="160.5947" y="259.6503">Ch&#417;i game ch&#237;nh th&#7913;c</text></g><!--entity U5--><g class="entity" data-entity="U5" data-source-line="11" data-uid="ent0008" id="entity_U5"><ellipse cx="547.2445" cy="254.9969" fill="#F1F1F1" rx="79.8345" ry="18.3669" style="stroke:#181818;stroke-width:0.5;"/><text fill="#000000" font-family="sans-serif" font-size="14" lengthAdjust="spacing" textLength="130.2861" x="482.1015" y="259.6453">Nh&#7853;n &#273;i&#7875;m th&#432;&#7903;ng</text></g><!--entity U6--><g class="entity" data-entity="U6" data-source-line="12" data-uid="ent0009" id="entity_U6"><ellipse cx="237.2468" cy="330.0034" fill="#F1F1F1" rx="84.9168" ry="19.3834" style="stroke:#181818;stroke-width:0.5;"/><text fill="#000000" font-family="sans-serif" font-size="14" lengthAdjust="spacing" textLength="142.1328" x="166.1804" y="334.6518">Xem B&#7843;ng x&#7871;p h&#7841;ng</text></g><!--entity U7--><g class="entity" data-entity="U7" data-source-line="13" data-uid="ent0010" id="entity_U7"><ellipse cx="237.2501" cy="405.998" fill="#F1F1F1" rx="94.0901" ry="21.218" style="stroke:#181818;stroke-width:0.5;"/><text fill="#000000" font-family="sans-serif" font-size="14" lengthAdjust="spacing" textLength="162.9414" x="155.7794" y="410.6465">Vi&#7871;t &#273;&#225;nh gi&#225;/b&#236;nh lu&#7853;n</text></g><!--entity U8--><g class="entity" data-entity="U8" data-source-line="14" data-uid="ent0011" id="entity_U8"><ellipse cx="547.2403" cy="408.0021" fill="#F1F1F1" rx="66.4603" ry="15.6921" style="stroke:#181818;stroke-width:0.5;"/><text fill="#000000" font-family="sans-serif" font-size="14" lengthAdjust="spacing" textLength="97.3096" x="498.5855" y="412.6505">Xem &#273;&#225;nh gi&#225;</text></g><!--entity U9--><g class="entity" data-entity="U9" data-source-line="15" data-uid="ent0012" id="entity_U9"><ellipse cx="547.2379" cy="331.9996" fill="#F1F1F1" rx="90.8979" ry="20.5796" style="stroke:#181818;stroke-width:0.5;"/><text fill="#000000" font-family="sans-serif" font-size="14" lengthAdjust="spacing" textLength="155.7705" x="469.3526" y="336.648">Theo d&#245;i &#273;i&#7875;m t&#237;ch lu&#7929;</text></g><!--entity Player--><g class="entity" data-entity="Player" data-source-line="4" data-uid="ent0002" id="entity_Player"><ellipse cx="43.0815" cy="282.35" fill="#F1F1F1" rx="4.5" ry="4.5" style="stroke:#181818;stroke-width:0.5;"/><path d="M30.5815,288.85 L30.5815,293.85 L40.0815,293.85 L40.0815,296.1074 L30.5815,305.6074 L34.8242,309.85 L43.0815,301.5926 L51.3389,309.85 L55.5815,305.6074 L46.0815,296.1074 L46.0815,293.85 L55.5815,293.85 L55.5815,288.85 L30.5815,288.85" fill="#F1F1F1" style="stroke:#181818;stroke-width:0.5;"/><text fill="#000000" font-family="sans-serif" font-size="14" lengthAdjust="spacing" textLength="74.1631" x="6" y="323.3451">Ng&#432;&#7901;i ch&#417;i</text></g><!--link Player to U1--><g class="link" data-entity-1="Player" data-entity-2="U1" data-source-line="18" data-uid="lnk13" id="link_Player_U1"><path d="M45.6,276.94 C49.68,232.49 64.62,139.74 119.16,89 C136.06,73.28 159.92,65.15 181.7,61" fill="none" id="Player-U1" style="stroke:#181818;stroke-width:1;"/></g><!--link Player to U2--><g class="link" data-entity-1="Player" data-entity-2="U2" data-source-line="19" data-uid="lnk14" id="link_Player_U2"><path d="M49.93,276.89 C59.01,243.59 79.7,185.27 119.16,153 C137.68,137.86 162.79,129.85 185.01,125.63" fill="none" id="Player-U2" style="stroke:#181818;stroke-width:1;"/></g><!--link Player to U3--><g class="link" data-entity-1="Player" data-entity-2="U3" data-source-line="20" data-uid="lnk15" id="link_Player_U3"><path d="M59.96,277.21 C73.49,258.06 94.59,232.3 119.16,217 C143.04,202.13 173.86,194.06 197.88,189.75" fill="none" id="Player-U3" style="stroke:#181818;stroke-width:1;"/></g><!--link Player to U4--><g class="link" data-entity-1="Player" data-entity-2="U4" data-source-line="21" data-uid="lnk16" id="link_Player_U4"><path d="M80.23,293.16 C106.87,286.64 143.74,277.63 174.95,269.99" fill="none" id="Player-U4" style="stroke:#181818;stroke-width:1;"/></g><!--link Player to U6--><g class="link" data-entity-1="Player" data-entity-2="U6" data-source-line="22" data-uid="lnk17" id="link_Player_U6"><path d="M80.23,307.27 C104.04,310.73 136.03,315.4 164.84,319.59" fill="none" id="Player-U6" style="stroke:#181818;stroke-width:1;"/></g><!--link Player to U7--><g class="link" data-entity-1="Player" data-entity-2="U7" data-source-line="23" data-uid="lnk18" id="link_Player_U7"><path d="M67.9,326.95 C81.8,340.34 100.28,356.25 119.16,367 C135.92,376.54 155.37,384.19 173.54,390.1" fill="none" id="Player-U7" style="stroke:#181818;stroke-width:1;"/></g><!--link Player to U8--><g class="link" data-entity-1="Player" data-entity-2="U8" data-source-line="24" data-uid="lnk19" id="link_Player_U8"><path d="M45.2,327.1 C48.65,370.4 62.64,458.19 119.16,497 C251.54,587.88 457.55,467.2 524.46,423.04" fill="none" id="Player-U8" style="stroke:#181818;stroke-width:1;"/></g><!--link Player to U9--><g class="link" data-entity-1="Player" data-entity-2="U9" data-source-line="25" data-uid="lnk20" id="link_Player_U9"><path d="M48.98,327.11 C57.06,360.79 76.69,419.33 119.16,445 C236.52,515.93 314.55,495.42 426.34,416 C444.75,402.92 438.97,389.42 456.34,375 C468.73,364.72 483.98,356.24 498.38,349.6" fill="none" id="Player-U9" style="stroke:#181818;stroke-width:1;"/></g><!--link U4 to U5--><g class="link" data-entity-1="U4" data-entity-2="U5" data-source-line="27" data-uid="lnk21" id="link_U4_U5"><path d="M327.34,255 C371.48,255 418.34,255 461.06,255" fill="none" id="U4-to-U5" style="stroke:#181818;stroke-width:1;stroke-dasharray:7,7;"/><polygon fill="#181818" points="467.06,255,458.06,251,462.06,255,458.06,259,467.06,255" style="stroke:#181818;stroke-width:1;"/><text fill="#000000" font-family="sans-serif" font-size="13" lengthAdjust="spacing" textLength="63.0068" x="362.34" y="251.0669">&#171;include&#187;</text></g><!--link U3 to U9--><g class="link" data-entity-1="U3" data-entity-2="U9" data-source-line="28" data-uid="lnk22" id="link_U3_U9"><path d="M275.28,190.71 C293.92,195.2 315.79,203.11 331.34,217 C354.48,237.65 337.63,260.01 361.34,280 C389.77,303.96 422.6283,315.7245 457.3083,322.7145" fill="none" id="U3-to-U9" style="stroke:#181818;stroke-width:1;stroke-dasharray:7,7;"/><polygon fill="#181818" points="463.19,323.9,455.1578,318.2006,458.2886,322.9121,453.5771,326.0429,463.19,323.9" style="stroke:#181818;stroke-width:1;"/><text fill="#000000" font-family="sans-serif" font-size="13" lengthAdjust="spacing" textLength="63.0068" x="362.34" y="276.0669">&#171;include&#187;</text></g><!--link U7 to U8--><g class="link" data-entity-1="U7" data-entity-2="U8" data-source-line="29" data-uid="lnk23" id="link_U7_U8"><path d="M331.5,406.6 C379.65,406.92 431.2501,407.2513 474.6701,407.5313" fill="none" id="U7-to-U8" style="stroke:#181818;stroke-width:1;stroke-dasharray:7,7;"/><polygon fill="#181818" points="480.67,407.57,471.696,403.512,475.6701,407.5378,471.6444,411.5119,480.67,407.57" style="stroke:#181818;stroke-width:1;"/><text fill="#000000" font-family="sans-serif" font-size="13" lengthAdjust="spacing" textLength="61.1851" x="363.34" y="403.0669">&#171;extend&#187;</text></g><!--SRC=[PP6zJiCm58LtFyLL9ZgqgFyjgZB001D2WY9MavZ48dLAueXMYAa3AnqO4KI80ObAB0ma0qEgleVV1CSjKAUUV7o-UtmiU-I20_SXe8xBmQO1iJZr6GelAHlY00y0MzmFZldO8-3wdkTV8wIEuCZ3On803i4uT1OV8dsaOBcBc1e8vJ6OENB6E13f7N1Nf5Fcm3uU40Dk4CWLXSJ28O5-LMNCx-SJIJ1N9BEXeHErTM8KYUIL5uZwYX3f0uMhA7ik-0tbx-Nrm94bPDDinbnLxCqgmCtbe_8c3EPJAjB9G9Bv6v-OKu1R2ZuZ0zWLoKlUJoJVGv33yGRRLkmfbGINmLai6pWqYxVFitUvzQByni9Cvoz_RQ30T1LpuX8VxEoJ_dVEPfQAJRyCT8lGwilAPTZgLqkQhEcohik6BbkwREkoeyjk2Q4y0IeLKyfc2NQWrwFCyYARc2RABrjvtKsl_UjrbXuPSS9iq_m1]--></g></svg>