<svg xmlns="http://www.w3.org/2000/svg" xmlns:xlink="http://www.w3.org/1999/xlink" contentStyleType="text/css" data-diagram-type="STATE" height="714px" preserveAspectRatio="none" style="width:475px;height:714px;background:#FFFFFF;" version="1.1" viewBox="0 0 475 714" width="475px" zoomAndPan="magnify"><title>Tr&#7841;ng th&#225;i: Reward &amp; Redemption</title><defs><filter height="300%" id="f1d8pl0c2lp465" width="300%" x="-1" y="-1"><feGaussianBlur result="blurOut" stdDeviation="2"/><feColorMatrix in="blurOut" result="blurOut2" type="matrix" values="0 0 0 0 0 0 0 0 0 0 0 0 0 0 0 0 0 0 .4 0"/><feOffset dx="4" dy="4" in="blurOut2" result="blurOut3"/><feBlend in="SourceGraphic" in2="blurOut3" mode="normal"/></filter></defs><g><g class="title" data-source-line="8"><text fill="#000000" font-family="sans-serif" font-size="14" font-weight="bold" lengthAdjust="spacing" textLength="269.1582" x="96.3269" y="22.9951">Tr&#7841;ng th&#225;i: Reward &amp; Redemption</text></g><g id="Earned"><rect fill="#F1F1F1" filter="url(#f1d8pl0c2lp465)" height="50" rx="12.5" ry="12.5" style="stroke:#666666;stroke-width:0.5;" width="69.5537" x="214.8" y="140.2969"/><line style="stroke:#666666;stroke-width:0.5;" x1="214.8" x2="284.3537" y1="166.5938" y2="166.5938"/><text fill="#000000" font-family="sans-serif" font-size="14" lengthAdjust="spacing" textLength="49.5537" x="224.8" y="158.292">Earned</text></g><g id="Accumulated"><rect fill="#F1F1F1" filter="url(#f1d8pl0c2lp465)" height="50" rx="12.5" ry="12.5" style="stroke:#666666;stroke-width:0.5;" width="111.8135" x="193.67" y="267.2969"/><line style="stroke:#666666;stroke-width:0.5;" x1="193.67" x2="305.4835" y1="293.5938" y2="293.5938"/><text fill="#000000" font-family="sans-serif" font-size="14" lengthAdjust="spacing" textLength="91.8135" x="203.67" y="285.292">Accumulated</text></g><g id="Reserved"><rect fill="#F1F1F1" filter="url(#f1d8pl0c2lp465)" height="50" rx="12.5" ry="12.5" style="stroke:#666666;stroke-width:0.5;" width="85.7891" x="206.69" y="409.2969"/><line style="stroke:#666666;stroke-width:0.5;" x1="206.69" x2="292.4791" y1="435.5938" y2="435.5938"/><text fill="#000000" font-family="sans-serif" font-size="14" lengthAdjust="spacing" textLength="65.7891" x="216.69" y="427.292">Reserved</text></g><g id="Redeemed"><rect fill="#F1F1F1" filter="url(#f1d8pl0c2lp465)" height="50" rx="12.5" ry="12.5" style="stroke:#666666;stroke-width:0.5;" width="95.5918" x="84.79" y="569.2969"/><line style="stroke:#666666;stroke-width:0.5;" x1="84.79" x2="180.3818" y1="595.5938" y2="595.5938"/><text fill="#000000" font-family="sans-serif" font-size="14" lengthAdjust="spacing" textLength="75.5918" x="94.79" y="587.292">Redeemed</text></g><g id="Expired"><rect fill="#F1F1F1" filter="url(#f1d8pl0c2lp465)" height="50" rx="12.5" ry="12.5" style="stroke:#666666;stroke-width:0.5;" width="73.1631" x="7" y="489.2969"/><line style="stroke:#666666;stroke-width:0.5;" x1="7" x2="80.1631" y1="515.5938" y2="515.5938"/><text fill="#000000" font-family="sans-serif" font-size="14" lengthAdjust="spacing" textLength="53.1631" x="17" y="507.292">Expired</text></g><g id="Cancelled"><rect fill="#F1F1F1" filter="url(#f1d8pl0c2lp465)" height="50" rx="12.5" ry="12.5" style="stroke:#666666;stroke-width:0.5;" width="88.8174" x="302.17" y="569.2969"/><line style="stroke:#666666;stroke-width:0.5;" x1="302.17" x2="390.9874" y1="595.5938" y2="595.5938"/><text fill="#000000" font-family="sans-serif" font-size="14" lengthAdjust="spacing" textLength="68.8174" x="312.17" y="587.292">Cancelled</text></g><ellipse cx="249.58" cy="53.2969" fill="#222222" filter="url(#f1d8pl0c2lp465)" rx="10" ry="10" style="stroke:#222222;stroke-width:1;"/><ellipse cx="51.58" cy="691.2969" fill="none" filter="url(#f1d8pl0c2lp465)" rx="11" ry="11" style="stroke:#222222;stroke-width:1;"/><ellipse cx="51.58" cy="691.2969" fill="#222222" rx="6" ry="6" style="stroke:#222222;stroke-width:1;"/><!--link *start* to Earned--><g class="link" data-entity-1=".start." data-entity-2="Earned" data-source-line="10" data-uid="lnk3" id="link_.start._Earned"><path d="M249.58,63.6769 C249.58,80.4069 249.58,109.8869 249.58,133.9269" fill="none" id="*start*-to-Earned" style="stroke:#181818;stroke-width:1;"/><polygon fill="#181818" points="249.58,139.9269,253.58,130.9269,249.58,134.9269,245.58,130.9269,249.58,139.9269" style="stroke:#181818;stroke-width:1;"/><text fill="#000000" font-family="sans-serif" font-size="13" lengthAdjust="spacing" textLength="70.8271" x="250.58" y="106.3638">Nh&#7853;n &#273;i&#7875;m</text></g><!--link Earned to Accumulated--><g class="link" data-entity-1="Earned" data-entity-2="Accumulated" data-source-line="19" data-uid="lnk4" id="link_Earned_Accumulated"><path d="M249.58,190.6969 C249.58,212.7169 249.58,238.9569 249.58,260.9569" fill="none" id="Earned-to-Accumulated" style="stroke:#181818;stroke-width:1;"/><polygon fill="#181818" points="249.58,266.9569,253.58,257.9569,249.58,261.9569,245.58,257.9569,249.58,266.9569" style="stroke:#181818;stroke-width:1;"/><text fill="#000000" font-family="sans-serif" font-size="13" lengthAdjust="spacing" textLength="141.9399" x="250.58" y="233.3638">C&#7897;ng d&#7891;n v&#224;o v&#237; &#273;i&#7875;m</text></g><!--link Accumulated to Reserved--><g class="link" data-entity-1="Accumulated" data-entity-2="Reserved" data-source-line="20" data-uid="lnk5" id="link_Accumulated_Reserved"><path d="M249.58,317.6869 C249.58,343.3769 249.58,377.5969 249.58,403.1869" fill="none" id="Accumulated-to-Reserved" style="stroke:#181818;stroke-width:1;"/><polygon fill="#181818" points="249.58,409.1869,253.58,400.1869,249.58,404.1869,245.58,400.1869,249.58,409.1869" style="stroke:#181818;stroke-width:1;"/><text fill="#000000" font-family="sans-serif" font-size="13" lengthAdjust="spacing" textLength="84.0303" x="250.58" y="360.3638">&#272;&#7863;t gi&#7919; &#273;i&#7875;m</text><text fill="#000000" font-family="sans-serif" font-size="13" lengthAdjust="spacing" textLength="82.0625" x="251.5639" y="375.4966">(khi &#273;&#7893;i qu&#224;)</text></g><!--link Reserved to Redeemed--><g class="link" data-entity-1="Reserved" data-entity-2="Redeemed" data-source-line="21" data-uid="lnk6" id="link_Reserved_Redeemed"><path d="M206.43,442.9269 C179.93,450.0869 148.01,463.7069 131.58,489.2969 C116.36,512.9969 118.704,540.5921 123.924,563.0921" fill="none" id="Reserved-to-Redeemed" style="stroke:#181818;stroke-width:1;"/><polygon fill="#181818" points="125.28,568.9369,127.1425,559.2657,124.15,564.0662,119.3495,561.0737,125.28,568.9369" style="stroke:#181818;stroke-width:1;"/><text fill="#000000" font-family="sans-serif" font-size="13" lengthAdjust="spacing" textLength="127.8672" x="132.58" y="518.8638">&#272;&#7893;i qu&#224; th&#224;nh c&#244;ng</text></g><!--link Reserved to Cancelled--><g class="link" data-entity-1="Reserved" data-entity-2="Cancelled" data-source-line="22" data-uid="lnk7" id="link_Reserved_Cancelled"><path d="M256.66,459.7569 C263.71,481.7169 275.87,514.2769 292.58,539.2969 C299.72,549.9969 304.8962,556.1666 313.9162,564.8866" fill="none" id="Reserved-to-Cancelled" style="stroke:#181818;stroke-width:1;"/><polygon fill="#181818" points="318.23,569.0569,314.5395,559.9256,314.6352,565.5816,308.9791,565.6773,318.23,569.0569" style="stroke:#181818;stroke-width:1;"/><text fill="#000000" font-family="sans-serif" font-size="13" lengthAdjust="spacing" textLength="78.2476" x="293.58" y="511.3638">Hu&#7927; &#273;&#7893;i qu&#224;</text><text fill="#000000" font-family="sans-serif" font-size="13" lengthAdjust="spacing" textLength="65.2095" x="300.099" y="526.4966">(tr&#7843; &#273;i&#7875;m)</text></g><!--link Accumulated to Expired--><g class="link" data-entity-1="Accumulated" data-entity-2="Expired" data-source-line="24" data-uid="lnk8" id="link_Accumulated_Expired"><path d="M220.65,317.5669 C210.27,326.6169 198.65,337.1669 188.58,347.2969 C140.98,395.2169 93.8827,451.3176 66.8727,484.4276" fill="none" id="Accumulated-to-Expired" style="stroke:#181818;stroke-width:1;"/><polygon fill="#181818" points="63.08,489.0769,71.8685,484.6315,66.2406,485.2025,65.6695,479.5745,63.08,489.0769" style="stroke:#181818;stroke-width:1;"/><text fill="#000000" font-family="sans-serif" font-size="13" lengthAdjust="spacing" textLength="51.4478" x="189.58" y="367.8638">H&#7871;t h&#7841;n</text></g><!--link Redeemed to *end*--><g class="link" data-entity-1="Redeemed" data-entity-2=".end." data-source-line="25" data-uid="lnk10" id="link_Redeemed_.end."><path d="M111.72,619.7569 C94.1,640.4369 73.8117,664.2202 62.2217,677.8202" fill="none" id="Redeemed-to-*end*" style="stroke:#181818;stroke-width:1;"/><polygon fill="#181818" points="58.33,682.3869,67.212,678.1314,61.5731,678.5813,61.1232,672.9424,58.33,682.3869" style="stroke:#181818;stroke-width:1;"/></g><!--link Expired to *end*--><g class="link" data-entity-1="Expired" data-entity-2=".end." data-source-line="26" data-uid="lnk11" id="link_Expired_.end."><path d="M44.69,539.6269 C46.47,578.5069 49.6057,647.0331 50.8457,674.1331" fill="none" id="Expired-to-*end*" style="stroke:#181818;stroke-width:1;"/><polygon fill="#181818" points="51.12,680.1269,54.7044,670.9534,50.8915,675.1321,46.7128,671.3191,51.12,680.1269" style="stroke:#181818;stroke-width:1;"/></g><!--link Cancelled to Accumulated--><g class="link" data-entity-1="Cancelled" data-entity-2="Accumulated" data-source-line="27" data-uid="lnk12" id="link_Cancelled_Accumulated"><path d="M363.59,568.8769 C368.83,559.9769 373.92,549.5769 376.58,539.2969 C398.3,455.4769 395.21,416.8069 343.58,347.2969 C333.82,334.1569 325.0465,326.6714 310.8465,318.6014" fill="none" id="Cancelled-to-Accumulated" style="stroke:#181818;stroke-width:1;"/><polygon fill="#181818" points="305.63,315.6369,311.4783,323.5614,309.977,318.1073,315.4311,316.6061,305.63,315.6369" style="stroke:#181818;stroke-width:1;"/><text fill="#000000" font-family="sans-serif" font-size="13" lengthAdjust="spacing" textLength="77.2319" x="390.58" y="438.8638">Tr&#7843; l&#7841;i &#273;i&#7875;m</text></g><!--SRC=[PL6_IiD06D_lAJuGn0eT2bAaWw2XukHGkwb3o1tDqUIkNYwjA4w-W28ERYtEnKKe98D3-YBt9dvdUjT8bt2_xtx_ybqsvc8IgZ25B0wfd74n0groHhBjXGurWqS2C92ve85KWYde7EFWJ2hAL20JgM2ls-tYw5mAVSKV67IEo1CXckk4mL2POc6Tush1Up1Wir1HsCS3PUb4Soa8kJwyXNRx1FeX-bFemMLiYgM0zIitvNDAIDsZljw0qoZAqpp1eviCMCRKj04fOwc7_Vi9Lnu5eOXOaY0ccr2Rt_344e4fFx0uDUMRW6arb_XP-avDhjMwT1IkNqonqZ12ufVZtuY3SSmHcVATmrrUpLl4IsfzNRVMEv9Tsrp445NVOlHVu7y15HUvALTDSupJkFXF5zyYEuKt2x5gK_neYEqx4L_3Kl1TYAFvmJPtTsN3lym4dRXB_WK0]--></g></svg>