<svg xmlns="http://www.w3.org/2000/svg" xmlns:xlink="http://www.w3.org/1999/xlink" contentStyleType="text/css" data-diagram-type="SEQUENCE" height="685px" preserveAspectRatio="none" style="width:1535px;height:685px;background:#FFFFFF;" version="1.1" viewBox="0 0 1535 685" width="1535px" zoomAndPan="magnify"><title>Lu&#7891;ng &#273;&#259;ng nh&#7853;p - Admin</title><defs/><g><text fill="#000000" font-family="sans-serif" font-size="14" font-weight="bold" lengthAdjust="spacing" textLength="202.8701" x="667.9158" y="27.9951">Lu&#7891;ng &#273;&#259;ng nh&#7853;p - Admin</text><rect fill="none" height="265" style="stroke:#000000;stroke-width:1.5;" width="1228.1519" x="10" y="325.5234"/><g><title>Admin</title><rect fill="#000000" fill-opacity="0.00000" height="502.9297" width="8" x="45.4321" y="104.5938"/><line style="stroke:#181818;stroke-width:0.5;stroke-dasharray:5,5;" x1="49" x2="49" y1="104.5938" y2="607.5234"/></g><g><title>WebApp</title><rect fill="#000000" fill-opacity="0.00000" height="502.9297" width="8" x="370.2856" y="104.5938"/><line style="stroke:#181818;stroke-width:0.5;stroke-dasharray:5,5;" x1="373.939" x2="373.939" y1="104.5938" y2="607.5234"/></g><g><title>Controller</title><rect fill="#000000" fill-opacity="0.00000" height="502.9297" width="8" x="605.707" y="104.5938"/><line style="stroke:#181818;stroke-width:0.5;stroke-dasharray:5,5;" x1="609.1206" x2="609.1206" y1="104.5938" y2="607.5234"/></g><g><title>Service</title><rect fill="#000000" fill-opacity="0.00000" height="502.9297" width="8" x="887.6123" y="104.5938"/><line style="stroke:#181818;stroke-width:0.5;stroke-dasharray:5,5;" x1="890.7417" x2="890.7417" y1="104.5938" y2="607.5234"/></g><g><title>Infrastructure</title><rect fill="#000000" fill-opacity="0.00000" height="502.9297" width="8" x="1169.0986" y="104.5938"/><line style="stroke:#181818;stroke-width:0.5;stroke-dasharray:5,5;" x1="1173.0454" x2="1173.0454" y1="104.5938" y2="607.5234"/></g><g><title>Database</title><rect fill="#000000" fill-opacity="0.00000" height="502.9297" width="8" x="1494.3013" y="104.5938"/><line style="stroke:#181818;stroke-width:0.5;stroke-dasharray:5,5;" x1="1497.9009" x2="1497.9009" y1="104.5938" y2="607.5234"/></g><g class="participant participant-head" data-participant="Admin"><rect fill="#E2E2F0" height="30.2969" rx="2.5" ry="2.5" style="stroke:#181818;stroke-width:0.5;" width="58.8643" x="20" y="73.2969"/><text fill="#000000" font-family="sans-serif" font-size="14" lengthAdjust="spacing" textLength="44.8643" x="27" y="93.292">Admin</text></g><g class="participant participant-tail" data-participant="Admin"><rect fill="#E2E2F0" height="30.2969" rx="2.5" ry="2.5" style="stroke:#181818;stroke-width:0.5;" width="58.8643" x="20" y="606.5234"/><text fill="#000000" font-family="sans-serif" font-size="14" lengthAdjust="spacing" textLength="44.8643" x="27" y="626.5186">Admin</text></g><g class="participant participant-head" data-participant="WebApp"><rect fill="#E2E2F0" height="30.2969" rx="2.5" ry="2.5" style="stroke:#181818;stroke-width:0.5;" width="72.6934" x="337.939" y="73.2969"/><text fill="#000000" font-family="sans-serif" font-size="14" lengthAdjust="spacing" textLength="58.6934" x="344.939" y="93.292">WebApp</text></g><g class="participant participant-tail" data-participant="WebApp"><rect fill="#E2E2F0" height="30.2969" rx="2.5" ry="2.5" style="stroke:#181818;stroke-width:0.5;" width="72.6934" x="337.939" y="606.5234"/><text fill="#000000" font-family="sans-serif" font-size="14" lengthAdjust="spacing" textLength="58.6934" x="344.939" y="626.5186">WebApp</text></g><g class="participant participant-head" data-participant="Controller"><rect fill="#E2E2F0" height="30.2969" rx="2.5" ry="2.5" style="stroke:#181818;stroke-width:0.5;" width="83.1729" x="568.1206" y="73.2969"/><text fill="#000000" font-family="sans-serif" font-size="14" lengthAdjust="spacing" textLength="69.1729" x="575.1206" y="93.292">Controller</text></g><g class="participant participant-tail" data-participant="Controller"><rect fill="#E2E2F0" height="30.2969" rx="2.5" ry="2.5" style="stroke:#181818;stroke-width:0.5;" width="83.1729" x="568.1206" y="606.5234"/><text fill="#000000" font-family="sans-serif" font-size="14" lengthAdjust="spacing" textLength="69.1729" x="575.1206" y="626.5186">Controller</text></g><g class="participant participant-head" data-participant="Service"><rect fill="#E2E2F0" height="30.2969" rx="2.5" ry="2.5" style="stroke:#181818;stroke-width:0.5;" width="65.7412" x="858.7417" y="73.2969"/><text fill="#000000" font-family="sans-serif" font-size="14" lengthAdjust="spacing" textLength="51.7412" x="865.7417" y="93.292">Service</text></g><g class="participant participant-tail" data-participant="Service"><rect fill="#E2E2F0" height="30.2969" rx="2.5" ry="2.5" style="stroke:#181818;stroke-width:0.5;" width="65.7412" x="858.7417" y="606.5234"/><text fill="#000000" font-family="sans-serif" font-size="14" lengthAdjust="spacing" textLength="51.7412" x="865.7417" y="626.5186">Service</text></g><g class="participant participant-head" data-participant="Infrastructure"><rect fill="#E2E2F0" height="30.2969" rx="2.5" ry="2.5" style="stroke:#181818;stroke-width:0.5;" width="110.1064" x="1118.0454" y="73.2969"/><text fill="#000000" font-family="sans-serif" font-size="14" lengthAdjust="spacing" textLength="96.1064" x="1125.0454" y="93.292">Infrastructure</text></g><g class="participant participant-tail" data-participant="Infrastructure"><rect fill="#E2E2F0" height="30.2969" rx="2.5" ry="2.5" style="stroke:#181818;stroke-width:0.5;" width="110.1064" x="1118.0454" y="606.5234"/><text fill="#000000" font-family="sans-serif" font-size="14" lengthAdjust="spacing" textLength="96.1064" x="1125.0454" y="626.5186">Infrastructure</text></g><g class="participant participant-head" data-participant="Database"><text fill="#000000" font-family="sans-serif" font-size="14" lengthAdjust="spacing" textLength="66.8008" x="1461.9009" y="101.292">Database</text><path d="M1480.3013,52.2969 C1480.3013,42.2969 1498.3013,42.2969 1498.3013,42.2969 C1498.3013,42.2969 1516.3013,42.2969 1516.3013,52.2969 L1516.3013,78.2969 C1516.3013,88.2969 1498.3013,88.2969 1498.3013,88.2969 C1498.3013,88.2969 1480.3013,88.2969 1480.3013,78.2969 L1480.3013,52.2969" fill="#E2E2F0" style="stroke:#181818;stroke-width:0.5;"/><path d="M1480.3013,52.2969 C1480.3013,62.2969 1498.3013,62.2969 1498.3013,62.2969 C1498.3013,62.2969 1516.3013,62.2969 1516.3013,52.2969" fill="none" style="stroke:#181818;stroke-width:0.5;"/></g><g class="participant participant-tail" data-participant="Database"><text fill="#000000" font-family="sans-serif" font-size="14" lengthAdjust="spacing" textLength="66.8008" x="1461.9009" y="619.5186">Database</text><path d="M1480.3013,632.8203 C1480.3013,622.8203 1498.3013,622.8203 1498.3013,622.8203 C1498.3013,622.8203 1516.3013,622.8203 1516.3013,632.8203 L1516.3013,658.8203 C1516.3013,668.8203 1498.3013,668.8203 1498.3013,668.8203 C1498.3013,668.8203 1480.3013,668.8203 1480.3013,658.8203 L1480.3013,632.8203" fill="#E2E2F0" style="stroke:#181818;stroke-width:0.5;"/><path d="M1480.3013,632.8203 C1480.3013,642.8203 1498.3013,642.8203 1498.3013,642.8203 C1498.3013,642.8203 1516.3013,642.8203 1516.3013,632.8203" fill="none" style="stroke:#181818;stroke-width:0.5;"/></g><g class="message" data-participant-1="Admin" data-participant-2="WebApp"><polygon fill="#181818" points="362.2856,131.7266,372.2856,135.7266,362.2856,139.7266,366.2856,135.7266" style="stroke:#181818;stroke-width:1;"/><line style="stroke:#181818;stroke-width:1;" x1="49.4321" x2="368.2856" y1="135.7266" y2="135.7266"/><text fill="#000000" font-family="sans-serif" font-size="13" lengthAdjust="spacing" textLength="300.8535" x="56.4321" y="130.6606">G&#7917;i y&#234;u c&#7847;u &#273;&#259;ng nh&#7853;p (username, password)</text></g><g class="message" data-participant-1="WebApp" data-participant-2="Controller"><polygon fill="#181818" points="597.707,160.8594,607.707,164.8594,597.707,168.8594,601.707,164.8594" style="stroke:#181818;stroke-width:1;"/><line style="stroke:#181818;stroke-width:1;" x1="374.2856" x2="603.707" y1="164.8594" y2="164.8594"/><text fill="#000000" font-family="sans-serif" font-size="13" lengthAdjust="spacing" textLength="178.7056" x="381.2856" y="159.7935">Chuy&#7875;n y&#234;u c&#7847;u &#273;&#259;ng nh&#7853;p</text></g><g class="message" data-participant-1="Controller" data-participant-2="Service"><polygon fill="#181818" points="879.6123,189.9922,889.6123,193.9922,879.6123,197.9922,883.6123,193.9922" style="stroke:#181818;stroke-width:1;"/><line style="stroke:#181818;stroke-width:1;" x1="609.707" x2="885.6123" y1="193.9922" y2="193.9922"/><text fill="#000000" font-family="sans-serif" font-size="13" lengthAdjust="spacing" textLength="257.9053" x="616.707" y="188.9263">authenticateUser(username, password)</text></g><g class="message" data-participant-1="Service" data-participant-2="Infrastructure"><polygon fill="#181818" points="1161.0986,219.125,1171.0986,223.125,1161.0986,227.125,1165.0986,223.125" style="stroke:#181818;stroke-width:1;"/><line style="stroke:#181818;stroke-width:1;" x1="891.6123" x2="1167.0986" y1="223.125" y2="223.125"/><text fill="#000000" font-family="sans-serif" font-size="13" lengthAdjust="spacing" textLength="257.4863" x="898.6123" y="218.0591">Y&#234;u c&#7847;u t&#236;m ng&#432;&#7901;i d&#249;ng theo username</text></g><g class="message" data-participant-1="Infrastructure" data-participant-2="Database"><polygon fill="#181818" points="1486.3013,248.2578,1496.3013,252.2578,1486.3013,256.2578,1490.3013,252.2578" style="stroke:#181818;stroke-width:1;"/><line style="stroke:#181818;stroke-width:1;" x1="1173.0986" x2="1492.3013" y1="252.2578" y2="252.2578"/><text fill="#000000" font-family="sans-serif" font-size="13" lengthAdjust="spacing" textLength="301.2026" x="1180.0986" y="247.1919">SELECT * FROM users WHERE username = '...'</text></g><g class="message" data-participant-1="Database" data-participant-2="Infrastructure"><polygon fill="#181818" points="1184.0986,277.3906,1174.0986,281.3906,1184.0986,285.3906,1180.0986,281.3906" style="stroke:#181818;stroke-width:1;"/><line style="stroke:#181818;stroke-width:1;stroke-dasharray:2,2;" x1="1178.0986" x2="1497.3013" y1="281.3906" y2="281.3906"/><text fill="#000000" font-family="sans-serif" font-size="13" lengthAdjust="spacing" textLength="181.6128" x="1190.0986" y="276.3247">Tr&#7843; v&#7873; th&#244;ng tin ng&#432;&#7901;i d&#249;ng</text></g><g class="message" data-participant-1="Infrastructure" data-participant-2="Service"><polygon fill="#181818" points="902.6123,306.5234,892.6123,310.5234,902.6123,314.5234,898.6123,310.5234" style="stroke:#181818;stroke-width:1;"/><line style="stroke:#181818;stroke-width:1;stroke-dasharray:2,2;" x1="896.6123" x2="1172.0986" y1="310.5234" y2="310.5234"/><text fill="#000000" font-family="sans-serif" font-size="13" lengthAdjust="spacing" textLength="140.7021" x="908.6123" y="305.4575">Tr&#7843; v&#7873; &#273;&#7889;i t&#432;&#7907;ng User</text></g><path d="M10,325.5234 L74.4429,325.5234 L74.4429,332.6563 L64.4429,342.6563 L10,342.6563 L10,325.5234" fill="#EEEEEE" style="stroke:#000000;stroke-width:1.5;"/><rect fill="none" height="265" style="stroke:#000000;stroke-width:1.5;" width="1228.1519" x="10" y="325.5234"/><text fill="#000000" font-family="sans-serif" font-size="13" font-weight="bold" lengthAdjust="spacing" textLength="19.4429" x="25" y="338.5903">alt</text><text fill="#000000" font-family="sans-serif" font-size="11" font-weight="bold" lengthAdjust="spacing" textLength="110.0645" x="89.4429" y="337.7339">[M&#7853;t kh&#7849;u h&#7907;p l&#7879;]</text><g class="message" data-participant-1="Service" data-participant-2="Infrastructure"><polygon fill="#181818" points="1161.0986,359.7891,1171.0986,363.7891,1161.0986,367.7891,1165.0986,363.7891" style="stroke:#181818;stroke-width:1;"/><line style="stroke:#181818;stroke-width:1;" x1="891.6123" x2="1167.0986" y1="363.7891" y2="363.7891"/><text fill="#000000" font-family="sans-serif" font-size="13" lengthAdjust="spacing" textLength="170.2632" x="898.6123" y="358.7231">Y&#234;u c&#7847;u t&#7841;o session/token</text></g><g class="message" data-participant-1="Infrastructure" data-participant-2="Service"><polygon fill="#181818" points="902.6123,388.9219,892.6123,392.9219,902.6123,396.9219,898.6123,392.9219" style="stroke:#181818;stroke-width:1;"/><line style="stroke:#181818;stroke-width:1;stroke-dasharray:2,2;" x1="896.6123" x2="1172.0986" y1="392.9219" y2="392.9219"/><text fill="#000000" font-family="sans-serif" font-size="13" lengthAdjust="spacing" textLength="127.5244" x="908.6123" y="387.856">Tr&#7843; v&#7873; token &#273;&#227; t&#7841;o</text></g><g class="message" data-participant-1="Service" data-participant-2="Controller"><polygon fill="#181818" points="620.707,418.0547,610.707,422.0547,620.707,426.0547,616.707,422.0547" style="stroke:#181818;stroke-width:1;"/><line style="stroke:#181818;stroke-width:1;stroke-dasharray:2,2;" x1="614.707" x2="890.6123" y1="422.0547" y2="422.0547"/><text fill="#000000" font-family="sans-serif" font-size="13" lengthAdjust="spacing" textLength="222.8091" x="626.707" y="416.9888">Tr&#7843; v&#7873; token/th&#244;ng tin ng&#432;&#7901;i d&#249;ng</text></g><g class="message" data-participant-1="Controller" data-participant-2="WebApp"><polygon fill="#181818" points="385.2856,447.1875,375.2856,451.1875,385.2856,455.1875,381.2856,451.1875" style="stroke:#181818;stroke-width:1;"/><line style="stroke:#181818;stroke-width:1;stroke-dasharray:2,2;" x1="379.2856" x2="608.707" y1="451.1875" y2="451.1875"/><text fill="#000000" font-family="sans-serif" font-size="13" lengthAdjust="spacing" textLength="211.4214" x="391.2856" y="446.1216">G&#7917;i ph&#7843;n h&#7891;i th&#224;nh c&#244;ng (token)</text></g><g class="message" data-participant-1="WebApp" data-participant-2="Admin"><polygon fill="#181818" points="60.4321,476.3203,50.4321,480.3203,60.4321,484.3203,56.4321,480.3203" style="stroke:#181818;stroke-width:1;"/><line style="stroke:#181818;stroke-width:1;stroke-dasharray:2,2;" x1="54.4321" x2="373.2856" y1="480.3203" y2="480.3203"/><text fill="#000000" font-family="sans-serif" font-size="13" lengthAdjust="spacing" textLength="208.876" x="66.4321" y="475.2544">Hi&#7875;n th&#7883; giao di&#7879;n &#273;&#227; &#273;&#259;ng nh&#7853;p</text></g><line style="stroke:#000000;stroke-width:1;stroke-dasharray:2,2;" x1="10" x2="1238.1519" y1="489.3203" y2="489.3203"/><text fill="#000000" font-family="sans-serif" font-size="11" font-weight="bold" lengthAdjust="spacing" textLength="152.3027" x="15" y="499.5308">[M&#7853;t kh&#7849;u kh&#244;ng h&#7907;p l&#7879;]</text><g class="message" data-participant-1="Service" data-participant-2="Controller"><polygon fill="#181818" points="620.707,520.2578,610.707,524.2578,620.707,528.2578,616.707,524.2578" style="stroke:#181818;stroke-width:1;"/><line style="stroke:#181818;stroke-width:1;stroke-dasharray:2,2;" x1="614.707" x2="890.6123" y1="524.2578" y2="524.2578"/><text fill="#000000" font-family="sans-serif" font-size="13" lengthAdjust="spacing" textLength="120.1802" x="626.707" y="519.1919">Tr&#7843; v&#7873; l&#7895;i x&#225;c th&#7921;c</text></g><g class="message" data-participant-1="Controller" data-participant-2="WebApp"><polygon fill="#181818" points="385.2856,549.3906,375.2856,553.3906,385.2856,557.3906,381.2856,553.3906" style="stroke:#181818;stroke-width:1;"/><line style="stroke:#181818;stroke-width:1;stroke-dasharray:2,2;" x1="379.2856" x2="608.707" y1="553.3906" y2="553.3906"/><text fill="#000000" font-family="sans-serif" font-size="13" lengthAdjust="spacing" textLength="102.0005" x="391.2856" y="548.3247">G&#7917;i ph&#7843;n h&#7891;i l&#7895;i</text></g><g class="message" data-participant-1="WebApp" data-participant-2="Admin"><polygon fill="#181818" points="60.4321,578.5234,50.4321,582.5234,60.4321,586.5234,56.4321,582.5234" style="stroke:#181818;stroke-width:1;"/><line style="stroke:#181818;stroke-width:1;stroke-dasharray:2,2;" x1="54.4321" x2="373.2856" y1="582.5234" y2="582.5234"/><text fill="#000000" font-family="sans-serif" font-size="13" lengthAdjust="spacing" textLength="140.2324" x="66.4321" y="577.4575">Hi&#7875;n th&#7883; th&#244;ng b&#225;o l&#7895;i</text></g><!--SRC=[bL8_Qzj05D_lK_os9ALsTa4BmN6QGa8XIGaTpzBLEYoVnEcKDcF9aA6JoT2fqE2XD3JGG9PQeqo-ntsJlfFbMd9icauIJ-_tLyz84maSP3Q_KdrCHzCBUgZGJcuJjB0J3ALYBE7QI5ycN9bgL9-SYjvEaZH6dLWP7KUHq8tniT1dqXUDsMlrNlFKwCmtcHOiu8RtU2gmMxqmLYgYzR8Iyl3AvhSIvyLD1jzElcTBjZUpL6Z5X-8v4fwc7s8TRB4Prh4il7deXDcvpI_KMZAss7ROAe07dfbGA0h1ZNXBSYirgsq7RARqy6wXPugVGwZ-mo-RVvK8YjyaJkGnvfIi2NPqyt8y77SFkfqJFCFUqPl34fBYTBzxrFqBnmjijDlj3JO7eRN2q8csap7ERFw9n8jxvu5ARzfwPAJUI8rWEhBvIC8ux9YON46CySZWa3er652rFpA4z3L1PFDB1ZonApkvZf6AD9MnsZRnG2Z2Fj5MkKxcYl6CfwwwT1VBgEtrdG3r4tbqfGbb7IkNzKgwPh-f47x9jLaoRn71_3O9NDwwXtrPNgKXs6Vq9OyHqEIoSj-yK17HBsqKEvYPNTtl-gIq-KNYOt7jby9t_dzbAz7_3bCLsIleFyuWGWL_0000]--></g></svg>