<svg xmlns="http://www.w3.org/2000/svg" xmlns:xlink="http://www.w3.org/1999/xlink" contentStyleType="text/css" data-diagram-type="SEQUENCE" height="873px" preserveAspectRatio="none" style="width:801px;height:873px;background:#FFFFFF;" version="1.1" viewBox="0 0 801 873" width="801px" zoomAndPan="magnify"><title>Sequence - Qu&#7843;n l&#253; danh s&#225;ch game (CRUD)</title><defs/><g><text fill="#000000" font-family="sans-serif" font-size="14" font-weight="bold" lengthAdjust="spacing" textLength="347.7988" x="222.7805" y="27.9951">Sequence - Qu&#7843;n l&#253; danh s&#225;ch game (CRUD)</text><g><title>Developer</title><rect fill="#000000" fill-opacity="0.00000" height="673.7891" width="8" x="40.0015" y="118.5938"/><line style="stroke:#181818;stroke-width:0.5;stroke-dasharray:5,5;" x1="44" x2="44" y1="118.5938" y2="792.3828"/></g><g><title>UI</title><rect fill="#000000" fill-opacity="0.00000" height="673.7891" width="8" x="271.7412" y="118.5938"/><line style="stroke:#181818;stroke-width:0.5;stroke-dasharray:5,5;" x1="275.5532" x2="275.5532" y1="118.5938" y2="792.3828"/></g><g><title>Game Service</title><rect fill="#000000" fill-opacity="0.00000" height="673.7891" width="8" x="499.5073" y="118.5938"/><line style="stroke:#181818;stroke-width:0.5;stroke-dasharray:5,5;" x1="502.5723" x2="502.5723" y1="118.5938" y2="792.3828"/></g><g><title>Game DB</title><rect fill="#000000" fill-opacity="0.00000" height="673.7891" width="8" x="749.103" y="118.5938"/><line style="stroke:#181818;stroke-width:0.5;stroke-dasharray:5,5;" x1="752.8462" x2="752.8462" y1="118.5938" y2="792.3828"/></g><g class="participant participant-head" data-participant="Dev"><text fill="#000000" font-family="sans-serif" font-size="14" lengthAdjust="spacing" textLength="72.0029" x="5" y="115.292">Developer</text><ellipse cx="44.0015" cy="50.7969" fill="#E2E2F0" rx="8" ry="8" style="stroke:#181818;stroke-width:0.5;"/><path d="M44.0015,58.7969 L44.0015,85.7969 M31.0015,66.7969 L57.0015,66.7969 M44.0015,85.7969 L31.0015,100.7969 M44.0015,85.7969 L57.0015,100.7969" fill="none" style="stroke:#181818;stroke-width:0.5;"/></g><g class="participant participant-tail" data-participant="Dev"><text fill="#000000" font-family="sans-serif" font-size="14" lengthAdjust="spacing" textLength="72.0029" x="5" y="804.3779">Developer</text><ellipse cx="44.0015" cy="816.1797" fill="#E2E2F0" rx="8" ry="8" style="stroke:#181818;stroke-width:0.5;"/><path d="M44.0015,824.1797 L44.0015,851.1797 M31.0015,832.1797 L57.0015,832.1797 M44.0015,851.1797 L31.0015,866.1797 M44.0015,851.1797 L57.0015,866.1797" fill="none" style="stroke:#181818;stroke-width:0.5;"/></g><g class="participant participant-head" data-participant="UI"><rect fill="#E2E2F0" height="30.2969" rx="2.5" ry="2.5" style="stroke:#181818;stroke-width:0.5;" width="28.376" x="261.5532" y="87.2969"/><text fill="#000000" font-family="sans-serif" font-size="14" lengthAdjust="spacing" textLength="14.376" x="268.5532" y="107.292">UI</text></g><g class="participant participant-tail" data-participant="UI"><rect fill="#E2E2F0" height="30.2969" rx="2.5" ry="2.5" style="stroke:#181818;stroke-width:0.5;" width="28.376" x="261.5532" y="791.3828"/><text fill="#000000" font-family="sans-serif" font-size="14" lengthAdjust="spacing" textLength="14.376" x="268.5532" y="811.3779">UI</text></g><g class="participant participant-head" data-participant="GS"><rect fill="#E2E2F0" height="30.2969" rx="2.5" ry="2.5" style="stroke:#181818;stroke-width:0.5;" width="111.8701" x="447.5723" y="87.2969"/><text fill="#000000" font-family="sans-serif" font-size="14" lengthAdjust="spacing" textLength="97.8701" x="454.5723" y="107.292">Game Service</text></g><g class="participant participant-tail" data-participant="GS"><rect fill="#E2E2F0" height="30.2969" rx="2.5" ry="2.5" style="stroke:#181818;stroke-width:0.5;" width="111.8701" x="447.5723" y="791.3828"/><text fill="#000000" font-family="sans-serif" font-size="14" lengthAdjust="spacing" textLength="97.8701" x="454.5723" y="811.3779">Game Service</text></g><g class="participant participant-head" data-participant="GDB"><text fill="#000000" font-family="sans-serif" font-size="14" lengthAdjust="spacing" textLength="66.5137" x="716.8462" y="115.292">Game DB</text><path d="M735.103,66.2969 C735.103,56.2969 753.103,56.2969 753.103,56.2969 C753.103,56.2969 771.103,56.2969 771.103,66.2969 L771.103,92.2969 C771.103,102.2969 753.103,102.2969 753.103,102.2969 C753.103,102.2969 735.103,102.2969 735.103,92.2969 L735.103,66.2969" fill="#E2E2F0" style="stroke:#181818;stroke-width:0.5;"/><path d="M735.103,66.2969 C735.103,76.2969 753.103,76.2969 753.103,76.2969 C753.103,76.2969 771.103,76.2969 771.103,66.2969" fill="none" style="stroke:#181818;stroke-width:0.5;"/></g><g class="participant participant-tail" data-participant="GDB"><text fill="#000000" font-family="sans-serif" font-size="14" lengthAdjust="spacing" textLength="66.5137" x="716.8462" y="804.3779">Game DB</text><path d="M735.103,817.6797 C735.103,807.6797 753.103,807.6797 753.103,807.6797 C753.103,807.6797 771.103,807.6797 771.103,817.6797 L771.103,843.6797 C771.103,853.6797 753.103,853.6797 753.103,853.6797 C753.103,853.6797 735.103,853.6797 735.103,843.6797 L735.103,817.6797" fill="#E2E2F0" style="stroke:#181818;stroke-width:0.5;"/><path d="M735.103,817.6797 C735.103,827.6797 753.103,827.6797 753.103,827.6797 C753.103,827.6797 771.103,827.6797 771.103,817.6797" fill="none" style="stroke:#181818;stroke-width:0.5;"/></g><rect fill="#EEEEEE" height="3" style="stroke:#EEEEEE;stroke-width:1;" width="794.3599" x="0" y="149.1602"/><line style="stroke:#000000;stroke-width:1;" x1="0" x2="794.3599" y1="149.1602" y2="149.1602"/><line style="stroke:#000000;stroke-width:1;" x1="0" x2="794.3599" y1="152.1602" y2="152.1602"/><rect fill="#EEEEEE" height="23.1328" style="stroke:#000000;stroke-width:2;" width="130.0225" x="332.1687" y="138.5938"/><text fill="#000000" font-family="sans-serif" font-size="13" font-weight="bold" lengthAdjust="spacing" textLength="111.4966" x="338.1687" y="154.6606">Xem danh s&#225;ch</text><g class="message" data-participant-1="Dev" data-participant-2="UI"><polygon fill="#181818" points="263.7412,188.8594,273.7412,192.8594,263.7412,196.8594,267.7412,192.8594" style="stroke:#181818;stroke-width:1;"/><line style="stroke:#181818;stroke-width:1;" x1="44.0015" x2="269.7412" y1="192.8594" y2="192.8594"/><text fill="#000000" font-family="sans-serif" font-size="13" lengthAdjust="spacing" textLength="103.7778" x="51.0015" y="187.7935">M&#7903; "My Games"</text></g><g class="message" data-participant-1="UI" data-participant-2="GS"><polygon fill="#181818" points="491.5073,217.9922,501.5073,221.9922,491.5073,225.9922,495.5073,221.9922" style="stroke:#181818;stroke-width:1;"/><line style="stroke:#181818;stroke-width:1;" x1="275.7412" x2="497.5073" y1="221.9922" y2="221.9922"/><text fill="#000000" font-family="sans-serif" font-size="13" lengthAdjust="spacing" textLength="157.0156" x="282.7412" y="216.9263">GET /games?owner=me</text></g><g class="message" data-participant-1="GS" data-participant-2="GDB"><polygon fill="#181818" points="741.103,247.125,751.103,251.125,741.103,255.125,745.103,251.125" style="stroke:#181818;stroke-width:1;"/><line style="stroke:#181818;stroke-width:1;" x1="503.5073" x2="747.103" y1="251.125" y2="251.125"/><text fill="#000000" font-family="sans-serif" font-size="13" lengthAdjust="spacing" textLength="163.7568" x="510.5073" y="246.0591">Query games by ownerId</text></g><g class="message" data-participant-1="GDB" data-participant-2="GS"><polygon fill="#181818" points="514.5073,276.2578,504.5073,280.2578,514.5073,284.2578,510.5073,280.2578" style="stroke:#181818;stroke-width:1;"/><line style="stroke:#181818;stroke-width:1;stroke-dasharray:2,2;" x1="508.5073" x2="752.103" y1="280.2578" y2="280.2578"/><text fill="#000000" font-family="sans-serif" font-size="13" lengthAdjust="spacing" textLength="19.0938" x="520.5073" y="275.1919">list</text></g><g class="message" data-participant-1="GS" data-participant-2="UI"><polygon fill="#181818" points="286.7412,305.3906,276.7412,309.3906,286.7412,313.3906,282.7412,309.3906" style="stroke:#181818;stroke-width:1;"/><line style="stroke:#181818;stroke-width:1;stroke-dasharray:2,2;" x1="280.7412" x2="502.5073" y1="309.3906" y2="309.3906"/><text fill="#000000" font-family="sans-serif" font-size="13" lengthAdjust="spacing" textLength="19.0938" x="292.7412" y="304.3247">list</text></g><g class="message" data-participant-1="UI" data-participant-2="Dev"><polygon fill="#181818" points="55.0015,334.5234,45.0015,338.5234,55.0015,342.5234,51.0015,338.5234" style="stroke:#181818;stroke-width:1;"/><line style="stroke:#181818;stroke-width:1;stroke-dasharray:2,2;" x1="49.0015" x2="274.7412" y1="338.5234" y2="338.5234"/><text fill="#000000" font-family="sans-serif" font-size="13" lengthAdjust="spacing" textLength="50.7051" x="61.0015" y="333.4575">Hi&#7875;n th&#7883;</text></g><rect fill="#EEEEEE" height="3" style="stroke:#EEEEEE;stroke-width:1;" width="794.3599" x="0" y="367.0898"/><line style="stroke:#000000;stroke-width:1;" x1="0" x2="794.3599" y1="367.0898" y2="367.0898"/><line style="stroke:#000000;stroke-width:1;" x1="0" x2="794.3599" y1="370.0898" y2="370.0898"/><rect fill="#EEEEEE" height="23.1328" style="stroke:#000000;stroke-width:2;" width="84.167" x="355.0964" y="356.5234"/><text fill="#000000" font-family="sans-serif" font-size="13" font-weight="bold" lengthAdjust="spacing" textLength="65.6411" x="361.0964" y="372.5903">C&#7853;p nh&#7853;t</text><g class="message" data-participant-1="Dev" data-participant-2="UI"><polygon fill="#181818" points="263.7412,406.7891,273.7412,410.7891,263.7412,414.7891,267.7412,410.7891" style="stroke:#181818;stroke-width:1;"/><line style="stroke:#181818;stroke-width:1;" x1="44.0015" x2="269.7412" y1="410.7891" y2="410.7891"/><text fill="#000000" font-family="sans-serif" font-size="13" lengthAdjust="spacing" textLength="152.5088" x="51.0015" y="405.7231">S&#7917;a metadata/price/file</text></g><g class="message" data-participant-1="UI" data-participant-2="GS"><polygon fill="#181818" points="491.5073,435.9219,501.5073,439.9219,491.5073,443.9219,495.5073,439.9219" style="stroke:#181818;stroke-width:1;"/><line style="stroke:#181818;stroke-width:1;" x1="275.7412" x2="497.5073" y1="439.9219" y2="439.9219"/><text fill="#000000" font-family="sans-serif" font-size="13" lengthAdjust="spacing" textLength="203.7661" x="282.7412" y="434.856">PATCH /games/{id} {changes}</text></g><g class="message" data-participant-1="GS" data-participant-2="GDB"><polygon fill="#181818" points="741.103,465.0547,751.103,469.0547,741.103,473.0547,745.103,469.0547" style="stroke:#181818;stroke-width:1;"/><line style="stroke:#181818;stroke-width:1;" x1="503.5073" x2="747.103" y1="469.0547" y2="469.0547"/><text fill="#000000" font-family="sans-serif" font-size="13" lengthAdjust="spacing" textLength="84.7603" x="510.5073" y="463.9888">update fields</text></g><g class="message" data-participant-1="GDB" data-participant-2="GS"><polygon fill="#181818" points="514.5073,494.1875,504.5073,498.1875,514.5073,502.1875,510.5073,498.1875" style="stroke:#181818;stroke-width:1;"/><line style="stroke:#181818;stroke-width:1;stroke-dasharray:2,2;" x1="508.5073" x2="752.103" y1="498.1875" y2="498.1875"/><text fill="#000000" font-family="sans-serif" font-size="13" lengthAdjust="spacing" textLength="18.7573" x="520.5073" y="493.1216">OK</text></g><g class="message" data-participant-1="GS" data-participant-2="UI"><polygon fill="#181818" points="286.7412,523.3203,276.7412,527.3203,286.7412,531.3203,282.7412,527.3203" style="stroke:#181818;stroke-width:1;"/><line style="stroke:#181818;stroke-width:1;stroke-dasharray:2,2;" x1="280.7412" x2="502.5073" y1="527.3203" y2="527.3203"/><text fill="#000000" font-family="sans-serif" font-size="13" lengthAdjust="spacing" textLength="47.7026" x="292.7412" y="522.2544">200 OK</text></g><g class="message" data-participant-1="UI" data-participant-2="Dev"><polygon fill="#181818" points="55.0015,552.4531,45.0015,556.4531,55.0015,560.4531,51.0015,556.4531" style="stroke:#181818;stroke-width:1;"/><line style="stroke:#181818;stroke-width:1;stroke-dasharray:2,2;" x1="49.0015" x2="274.7412" y1="556.4531" y2="556.4531"/><text fill="#000000" font-family="sans-serif" font-size="13" lengthAdjust="spacing" textLength="207.7397" x="61.0015" y="551.3872">Th&#244;ng b&#225;o c&#7853;p nh&#7853;t th&#224;nh c&#244;ng</text></g><rect fill="#EEEEEE" height="3" style="stroke:#EEEEEE;stroke-width:1;" width="794.3599" x="0" y="585.0195"/><line style="stroke:#000000;stroke-width:1;" x1="0" x2="794.3599" y1="585.0195" y2="585.0195"/><line style="stroke:#000000;stroke-width:1;" x1="0" x2="794.3599" y1="588.0195" y2="588.0195"/><rect fill="#EEEEEE" height="23.1328" style="stroke:#000000;stroke-width:2;" width="46.2524" x="374.0537" y="574.4531"/><text fill="#000000" font-family="sans-serif" font-size="13" font-weight="bold" lengthAdjust="spacing" textLength="27.7266" x="380.0537" y="590.52">Xo&#225;</text><g class="message" data-participant-1="Dev" data-participant-2="UI"><polygon fill="#181818" points="263.7412,624.7188,273.7412,628.7188,263.7412,632.7188,267.7412,628.7188" style="stroke:#181818;stroke-width:1;"/><line style="stroke:#181818;stroke-width:1;" x1="44.0015" x2="269.7412" y1="628.7188" y2="628.7188"/><text fill="#000000" font-family="sans-serif" font-size="13" lengthAdjust="spacing" textLength="65.8379" x="51.0015" y="623.6528">Xo&#225; game</text></g><g class="message" data-participant-1="UI" data-participant-2="GS"><polygon fill="#181818" points="491.5073,653.8516,501.5073,657.8516,491.5073,661.8516,495.5073,657.8516" style="stroke:#181818;stroke-width:1;"/><line style="stroke:#181818;stroke-width:1;" x1="275.7412" x2="497.5073" y1="657.8516" y2="657.8516"/><text fill="#000000" font-family="sans-serif" font-size="13" lengthAdjust="spacing" textLength="134.7861" x="282.7412" y="652.7856">DELETE /games/{id}</text></g><g class="message" data-participant-1="GS" data-participant-2="GDB"><polygon fill="#181818" points="741.103,682.9844,751.103,686.9844,741.103,690.9844,745.103,686.9844" style="stroke:#181818;stroke-width:1;"/><line style="stroke:#181818;stroke-width:1;" x1="503.5073" x2="747.103" y1="686.9844" y2="686.9844"/><text fill="#000000" font-family="sans-serif" font-size="13" lengthAdjust="spacing" textLength="225.5957" x="510.5073" y="681.9185">set status='DELETED' (soft delete)</text></g><g class="message" data-participant-1="GDB" data-participant-2="GS"><polygon fill="#181818" points="514.5073,712.1172,504.5073,716.1172,514.5073,720.1172,510.5073,716.1172" style="stroke:#181818;stroke-width:1;"/><line style="stroke:#181818;stroke-width:1;stroke-dasharray:2,2;" x1="508.5073" x2="752.103" y1="716.1172" y2="716.1172"/><text fill="#000000" font-family="sans-serif" font-size="13" lengthAdjust="spacing" textLength="18.7573" x="520.5073" y="711.0513">OK</text></g><g class="message" data-participant-1="GS" data-participant-2="UI"><polygon fill="#181818" points="286.7412,741.25,276.7412,745.25,286.7412,749.25,282.7412,745.25" style="stroke:#181818;stroke-width:1;"/><line style="stroke:#181818;stroke-width:1;stroke-dasharray:2,2;" x1="280.7412" x2="502.5073" y1="745.25" y2="745.25"/><text fill="#000000" font-family="sans-serif" font-size="13" lengthAdjust="spacing" textLength="102.4575" x="292.7412" y="740.1841">204 No Content</text></g><g class="message" data-participant-1="UI" data-participant-2="Dev"><polygon fill="#181818" points="55.0015,770.3828,45.0015,774.3828,55.0015,778.3828,51.0015,774.3828" style="stroke:#181818;stroke-width:1;"/><line style="stroke:#181818;stroke-width:1;stroke-dasharray:2,2;" x1="49.0015" x2="274.7412" y1="774.3828" y2="774.3828"/><text fill="#000000" font-family="sans-serif" font-size="13" lengthAdjust="spacing" textLength="45.7856" x="61.0015" y="769.3169">&#272;&#227; xo&#225;</text></g><!--SRC=[VP2nRjim48PtFiKFBKa6mq6HoO0Ir9QX64cQDBA1hhHqjWZ8b2BIQOmWKySiUOFMo9ojKunEweleJKhI7kWCdOZx_-FTzvyMkY0aTBSacH8w-BfitrybYkOFCYvpg6QTvfZp1U5mS3k9ZXXFTLaZYEYUYhAYEW1NC1MhUAr5AYekDOB9oEcJqRuSsq49rVSY9TSG9opZca-vefqRzRT6r6Si3F6D5Zv963Ap2vrJCxg7gtRp4y7L2lQd2jXaP9quwI4UZj6rsEgi_2wf3XV4uiIvKRzdObAzSh4KfYkubb76Z8VERa8Xb7PVThjSRHUOsY3qS2xQpGy9dRURPuSwQD_VAiZSFFe3QD9ktZWMfBbDswrgaxyx4mLvo3UVnuFp7NJtKMHFU4npBkUaddpqPML646Q2Yapj4LzV-BoVZe-juXEFy-Qtd6FQh4kaFgpEcr_cnAcrjrSlc_M724woS1voDBmSZeS-iq-gI4DfhfSgFDXsHWSuLELC8wE2D1tz5_y4NqeCIgb9xX_-xqlpYWU3ymy0]--></g></svg>