<svg xmlns="http://www.w3.org/2000/svg" xmlns:xlink="http://www.w3.org/1999/xlink" contentStyleType="text/css" data-diagram-type="SEQUENCE" height="702px" preserveAspectRatio="none" style="width:775px;height:702px;background:#FFFFFF;" version="1.1" viewBox="0 0 775 702" width="775px" zoomAndPan="magnify"><title>Sequence - Mua asset c&#243; ph&#237;</title><defs/><g><text fill="#000000" font-family="sans-serif" font-size="14" font-weight="bold" lengthAdjust="spacing" textLength="225.3535" x="276.7319" y="27.9951">Sequence - Mua asset c&#243; ph&#237;</text><rect fill="none" height="206.7344" style="stroke:#000000;stroke-width:1.5;" width="695.7148" x="10" y="397.7891"/><g><title>Developer</title><rect fill="#000000" fill-opacity="0.00000" height="502.9297" width="8" x="55.0015" y="118.5938"/><line style="stroke:#181818;stroke-width:0.5;stroke-dasharray:5,5;" x1="59" x2="59" y1="118.5938" y2="621.5234"/></g><g><title>UI</title><rect fill="#000000" fill-opacity="0.00000" height="502.9297" width="8" x="195.4238" y="118.5938"/><line style="stroke:#181818;stroke-width:0.5;stroke-dasharray:5,5;" x1="199.2358" x2="199.2358" y1="118.5938" y2="621.5234"/></g><g><title>Asset Service</title><rect fill="#000000" fill-opacity="0.00000" height="502.9297" width="8" x="390.5693" y="118.5938"/><line style="stroke:#181818;stroke-width:0.5;stroke-dasharray:5,5;" x1="394.3398" x2="394.3398" y1="118.5938" y2="621.5234"/></g><g><title>C.ng thanh to.n</title><rect fill="#000000" fill-opacity="0.00000" height="502.9297" width="8" x="520.3965" y="118.5938"/><line style="stroke:#181818;stroke-width:0.5;stroke-dasharray:5,5;" x1="523.7988" x2="523.7988" y1="118.5938" y2="621.5234"/></g><g><title>Order DB</title><rect fill="#000000" fill-opacity="0.00000" height="502.9297" width="8" x="656.2817" y="118.5938"/><line style="stroke:#181818;stroke-width:0.5;stroke-dasharray:5,5;" x1="659.8486" x2="659.8486" y1="118.5938" y2="621.5234"/></g><g><title>Asset DB</title><rect fill="#000000" fill-opacity="0.00000" height="502.9297" width="8" x="736.2661" y="118.5938"/><line style="stroke:#181818;stroke-width:0.5;stroke-dasharray:5,5;" x1="739.7148" x2="739.7148" y1="118.5938" y2="621.5234"/></g><g class="participant participant-head" data-participant="Dev"><text fill="#000000" font-family="sans-serif" font-size="14" lengthAdjust="spacing" textLength="72.0029" x="20" y="115.292">Developer</text><ellipse cx="59.0015" cy="50.7969" fill="#E2E2F0" rx="8" ry="8" style="stroke:#181818;stroke-width:0.5;"/><path d="M59.0015,58.7969 L59.0015,85.7969 M46.0015,66.7969 L72.0015,66.7969 M59.0015,85.7969 L46.0015,100.7969 M59.0015,85.7969 L72.0015,100.7969" fill="none" style="stroke:#181818;stroke-width:0.5;"/></g><g class="participant participant-tail" data-participant="Dev"><text fill="#000000" font-family="sans-serif" font-size="14" lengthAdjust="spacing" textLength="72.0029" x="20" y="633.5186">Developer</text><ellipse cx="59.0015" cy="645.3203" fill="#E2E2F0" rx="8" ry="8" style="stroke:#181818;stroke-width:0.5;"/><path d="M59.0015,653.3203 L59.0015,680.3203 M46.0015,661.3203 L72.0015,661.3203 M59.0015,680.3203 L46.0015,695.3203 M59.0015,680.3203 L72.0015,695.3203" fill="none" style="stroke:#181818;stroke-width:0.5;"/></g><g class="participant participant-head" data-participant="UI"><rect fill="#E2E2F0" height="30.2969" rx="2.5" ry="2.5" style="stroke:#181818;stroke-width:0.5;" width="28.376" x="185.2358" y="87.2969"/><text fill="#000000" font-family="sans-serif" font-size="14" lengthAdjust="spacing" textLength="14.376" x="192.2358" y="107.292">UI</text></g><g class="participant participant-tail" data-participant="UI"><rect fill="#E2E2F0" height="30.2969" rx="2.5" ry="2.5" style="stroke:#181818;stroke-width:0.5;" width="28.376" x="185.2358" y="620.5234"/><text fill="#000000" font-family="sans-serif" font-size="14" lengthAdjust="spacing" textLength="14.376" x="192.2358" y="640.5186">UI</text></g><g class="participant participant-head" data-participant="AS"><rect fill="#E2E2F0" height="30.2969" rx="2.5" ry="2.5" style="stroke:#181818;stroke-width:0.5;" width="108.459" x="340.3398" y="87.2969"/><text fill="#000000" font-family="sans-serif" font-size="14" lengthAdjust="spacing" textLength="94.459" x="347.3398" y="107.292">Asset Service</text></g><g class="participant participant-tail" data-participant="AS"><rect fill="#E2E2F0" height="30.2969" rx="2.5" ry="2.5" style="stroke:#181818;stroke-width:0.5;" width="108.459" x="340.3398" y="620.5234"/><text fill="#000000" font-family="sans-serif" font-size="14" lengthAdjust="spacing" textLength="94.459" x="347.3398" y="640.5186">Asset Service</text></g><g class="participant participant-head" data-participant="Pay"><rect fill="#E2E2F0" height="30.2969" rx="2.5" ry="2.5" style="stroke:#181818;stroke-width:0.5;" width="131.1953" x="458.7988" y="87.2969"/><text fill="#000000" font-family="sans-serif" font-size="14" lengthAdjust="spacing" textLength="117.1953" x="465.7988" y="107.292">C&#7893;ng thanh to&#225;n</text></g><g class="participant participant-tail" data-participant="Pay"><rect fill="#E2E2F0" height="30.2969" rx="2.5" ry="2.5" style="stroke:#181818;stroke-width:0.5;" width="131.1953" x="458.7988" y="620.5234"/><text fill="#000000" font-family="sans-serif" font-size="14" lengthAdjust="spacing" textLength="117.1953" x="465.7988" y="640.5186">C&#7893;ng thanh to&#225;n</text></g><g class="participant participant-head" data-participant="ODB"><text fill="#000000" font-family="sans-serif" font-size="14" lengthAdjust="spacing" textLength="64.8662" x="624.8486" y="115.292">Order DB</text><path d="M642.2817,66.2969 C642.2817,56.2969 660.2817,56.2969 660.2817,56.2969 C660.2817,56.2969 678.2817,56.2969 678.2817,66.2969 L678.2817,92.2969 C678.2817,102.2969 660.2817,102.2969 660.2817,102.2969 C660.2817,102.2969 642.2817,102.2969 642.2817,92.2969 L642.2817,66.2969" fill="#E2E2F0" style="stroke:#181818;stroke-width:0.5;"/><path d="M642.2817,66.2969 C642.2817,76.2969 660.2817,76.2969 660.2817,76.2969 C660.2817,76.2969 678.2817,76.2969 678.2817,66.2969" fill="none" style="stroke:#181818;stroke-width:0.5;"/></g><g class="participant participant-tail" data-participant="ODB"><text fill="#000000" font-family="sans-serif" font-size="14" lengthAdjust="spacing" textLength="64.8662" x="624.8486" y="633.5186">Order DB</text><path d="M642.2817,646.8203 C642.2817,636.8203 660.2817,636.8203 660.2817,636.8203 C660.2817,636.8203 678.2817,636.8203 678.2817,646.8203 L678.2817,672.8203 C678.2817,682.8203 660.2817,682.8203 660.2817,682.8203 C660.2817,682.8203 642.2817,682.8203 642.2817,672.8203 L642.2817,646.8203" fill="#E2E2F0" style="stroke:#181818;stroke-width:0.5;"/><path d="M642.2817,646.8203 C642.2817,656.8203 660.2817,656.8203 660.2817,656.8203 C660.2817,656.8203 678.2817,656.8203 678.2817,646.8203" fill="none" style="stroke:#181818;stroke-width:0.5;"/></g><g class="participant participant-head" data-participant="ADB"><text fill="#000000" font-family="sans-serif" font-size="14" lengthAdjust="spacing" textLength="63.1025" x="705.7148" y="115.292">Asset DB</text><path d="M722.2661,66.2969 C722.2661,56.2969 740.2661,56.2969 740.2661,56.2969 C740.2661,56.2969 758.2661,56.2969 758.2661,66.2969 L758.2661,92.2969 C758.2661,102.2969 740.2661,102.2969 740.2661,102.2969 C740.2661,102.2969 722.2661,102.2969 722.2661,92.2969 L722.2661,66.2969" fill="#E2E2F0" style="stroke:#181818;stroke-width:0.5;"/><path d="M722.2661,66.2969 C722.2661,76.2969 740.2661,76.2969 740.2661,76.2969 C740.2661,76.2969 758.2661,76.2969 758.2661,66.2969" fill="none" style="stroke:#181818;stroke-width:0.5;"/></g><g class="participant participant-tail" data-participant="ADB"><text fill="#000000" font-family="sans-serif" font-size="14" lengthAdjust="spacing" textLength="63.1025" x="705.7148" y="633.5186">Asset DB</text><path d="M722.2661,646.8203 C722.2661,636.8203 740.2661,636.8203 740.2661,636.8203 C740.2661,636.8203 758.2661,636.8203 758.2661,646.8203 L758.2661,672.8203 C758.2661,682.8203 740.2661,682.8203 740.2661,682.8203 C740.2661,682.8203 722.2661,682.8203 722.2661,672.8203 L722.2661,646.8203" fill="#E2E2F0" style="stroke:#181818;stroke-width:0.5;"/><path d="M722.2661,646.8203 C722.2661,656.8203 740.2661,656.8203 740.2661,656.8203 C740.2661,656.8203 758.2661,656.8203 758.2661,646.8203" fill="none" style="stroke:#181818;stroke-width:0.5;"/></g><g class="message" data-participant-1="Dev" data-participant-2="UI"><polygon fill="#181818" points="187.4238,145.7266,197.4238,149.7266,187.4238,153.7266,191.4238,149.7266" style="stroke:#181818;stroke-width:1;"/><line style="stroke:#181818;stroke-width:1;" x1="59.0015" x2="193.4238" y1="149.7266" y2="149.7266"/><text fill="#000000" font-family="sans-serif" font-size="13" lengthAdjust="spacing" textLength="116.4224" x="66.0015" y="144.6606">Nh&#7845;n "Mua" asset</text></g><g class="message" data-participant-1="UI" data-participant-2="AS"><polygon fill="#181818" points="382.5693,174.8594,392.5693,178.8594,382.5693,182.8594,386.5693,178.8594" style="stroke:#181818;stroke-width:1;"/><line style="stroke:#181818;stroke-width:1;" x1="199.4238" x2="388.5693" y1="178.8594" y2="178.8594"/><text fill="#000000" font-family="sans-serif" font-size="13" lengthAdjust="spacing" textLength="151.8105" x="206.4238" y="173.7935">POST /orders {assetId}</text></g><g class="message" data-participant-1="AS" data-participant-2="ADB"><polygon fill="#181818" points="728.2661,203.9922,738.2661,207.9922,728.2661,211.9922,732.2661,207.9922" style="stroke:#181818;stroke-width:1;"/><line style="stroke:#181818;stroke-width:1;" x1="394.5693" x2="734.2661" y1="207.9922" y2="207.9922"/><text fill="#000000" font-family="sans-serif" font-size="13" lengthAdjust="spacing" textLength="217.5405" x="401.5693" y="202.9263">Ki&#7875;m tra asset t&#7891;n t&#7841;i &amp; c&#242;n b&#225;n?</text></g><g class="message" data-participant-1="ADB" data-participant-2="AS"><polygon fill="#181818" points="405.5693,233.125,395.5693,237.125,405.5693,241.125,401.5693,237.125" style="stroke:#181818;stroke-width:1;"/><line style="stroke:#181818;stroke-width:1;stroke-dasharray:2,2;" x1="399.5693" x2="739.2661" y1="237.125" y2="237.125"/><text fill="#000000" font-family="sans-serif" font-size="13" lengthAdjust="spacing" textLength="70.2686" x="411.5693" y="232.0591">OK + price</text></g><g class="message" data-participant-1="AS" data-participant-2="ODB"><polygon fill="#181818" points="648.2817,262.2578,658.2817,266.2578,648.2817,270.2578,652.2817,266.2578" style="stroke:#181818;stroke-width:1;"/><line style="stroke:#181818;stroke-width:1;" x1="394.5693" x2="654.2817" y1="266.2578" y2="266.2578"/><text fill="#000000" font-family="sans-serif" font-size="13" lengthAdjust="spacing" textLength="241.7124" x="401.5693" y="261.1919">T&#7841;o order(status=PENDING, amount)</text></g><g class="message" data-participant-1="AS" data-participant-2="UI"><polygon fill="#181818" points="210.4238,291.3906,200.4238,295.3906,210.4238,299.3906,206.4238,295.3906" style="stroke:#181818;stroke-width:1;"/><line style="stroke:#181818;stroke-width:1;stroke-dasharray:2,2;" x1="204.4238" x2="393.5693" y1="295.3906" y2="295.3906"/><text fill="#000000" font-family="sans-serif" font-size="13" lengthAdjust="spacing" textLength="142.5176" x="216.4238" y="290.3247">orderId + paymentUrl</text></g><g class="message" data-participant-1="UI" data-participant-2="Pay"><polygon fill="#181818" points="512.3965,320.5234,522.3965,324.5234,512.3965,328.5234,516.3965,324.5234" style="stroke:#181818;stroke-width:1;"/><line style="stroke:#181818;stroke-width:1;" x1="199.4238" x2="518.3965" y1="324.5234" y2="324.5234"/><text fill="#000000" font-family="sans-serif" font-size="13" lengthAdjust="spacing" textLength="155.7905" x="206.4238" y="319.4575">Redirect t&#7899;i paymentUrl</text></g><g class="message" data-participant-1="Pay" data-participant-2="Dev"><polygon fill="#181818" points="70.0015,349.6563,60.0015,353.6563,70.0015,357.6563,66.0015,353.6563" style="stroke:#181818;stroke-width:1;"/><line style="stroke:#181818;stroke-width:1;" x1="64.0015" x2="523.3965" y1="353.6563" y2="353.6563"/><text fill="#000000" font-family="sans-serif" font-size="13" lengthAdjust="spacing" textLength="195.6475" x="76.0015" y="348.5903">Nh&#7853;p ph&#432;&#417;ng th&#7913;c thanh to&#225;n</text></g><g class="message" data-participant-1="Pay" data-participant-2="UI"><polygon fill="#181818" points="210.4238,378.7891,200.4238,382.7891,210.4238,386.7891,206.4238,382.7891" style="stroke:#181818;stroke-width:1;"/><line style="stroke:#181818;stroke-width:1;stroke-dasharray:2,2;" x1="204.4238" x2="523.3965" y1="382.7891" y2="382.7891"/><text fill="#000000" font-family="sans-serif" font-size="13" lengthAdjust="spacing" textLength="197.7803" x="216.4238" y="377.7231">Callback k&#7871;t qu&#7843; (success/fail)</text></g><path d="M10,397.7891 L74.4429,397.7891 L74.4429,404.9219 L64.4429,414.9219 L10,414.9219 L10,397.7891" fill="#EEEEEE" style="stroke:#000000;stroke-width:1.5;"/><rect fill="none" height="206.7344" style="stroke:#000000;stroke-width:1.5;" width="695.7148" x="10" y="397.7891"/><text fill="#000000" font-family="sans-serif" font-size="13" font-weight="bold" lengthAdjust="spacing" textLength="19.4429" x="25" y="410.856">alt</text><text fill="#000000" font-family="sans-serif" font-size="11" font-weight="bold" lengthAdjust="spacing" textLength="58.0293" x="89.4429" y="409.9995">[success]</text><g class="message" data-participant-1="UI" data-participant-2="AS"><polygon fill="#181818" points="382.5693,432.0547,392.5693,436.0547,382.5693,440.0547,386.5693,436.0547" style="stroke:#181818;stroke-width:1;"/><line style="stroke:#181818;stroke-width:1;" x1="199.4238" x2="388.5693" y1="436.0547" y2="436.0547"/><text fill="#000000" font-family="sans-serif" font-size="13" lengthAdjust="spacing" textLength="171.1455" x="206.4238" y="430.9888">POST /orders/{id}/confirm</text></g><g class="message" data-participant-1="AS" data-participant-2="ODB"><polygon fill="#181818" points="648.2817,461.1875,658.2817,465.1875,648.2817,469.1875,652.2817,465.1875" style="stroke:#181818;stroke-width:1;"/><line style="stroke:#181818;stroke-width:1;" x1="394.5693" x2="654.2817" y1="465.1875" y2="465.1875"/><text fill="#000000" font-family="sans-serif" font-size="13" lengthAdjust="spacing" textLength="131.3521" x="401.5693" y="460.1216">update status=PAID</text></g><g class="message" data-participant-1="AS" data-participant-2="Dev"><polygon fill="#181818" points="70.0015,490.3203,60.0015,494.3203,70.0015,498.3203,66.0015,494.3203" style="stroke:#181818;stroke-width:1;"/><line style="stroke:#181818;stroke-width:1;stroke-dasharray:2,2;" x1="64.0015" x2="393.5693" y1="494.3203" y2="494.3203"/><text fill="#000000" font-family="sans-serif" font-size="13" lengthAdjust="spacing" textLength="183.9487" x="76.0015" y="489.2544">C&#7845;p license + link download</text></g><line style="stroke:#000000;stroke-width:1;stroke-dasharray:2,2;" x1="10" x2="705.7148" y1="503.3203" y2="503.3203"/><text fill="#000000" font-family="sans-serif" font-size="11" font-weight="bold" lengthAdjust="spacing" textLength="29.8042" x="15" y="513.5308">[fail]</text><g class="message" data-participant-1="UI" data-participant-2="AS"><polygon fill="#181818" points="382.5693,534.2578,392.5693,538.2578,382.5693,542.2578,386.5693,538.2578" style="stroke:#181818;stroke-width:1;"/><line style="stroke:#181818;stroke-width:1;" x1="199.4238" x2="388.5693" y1="538.2578" y2="538.2578"/><text fill="#000000" font-family="sans-serif" font-size="13" lengthAdjust="spacing" textLength="163.7188" x="206.4238" y="533.1919">POST /orders/{id}/cancel</text></g><g class="message" data-participant-1="AS" data-participant-2="ODB"><polygon fill="#181818" points="648.2817,563.3906,658.2817,567.3906,648.2817,571.3906,652.2817,567.3906" style="stroke:#181818;stroke-width:1;"/><line style="stroke:#181818;stroke-width:1;" x1="394.5693" x2="654.2817" y1="567.3906" y2="567.3906"/><text fill="#000000" font-family="sans-serif" font-size="13" lengthAdjust="spacing" textLength="178.4707" x="401.5693" y="562.3247">update status=CANCELLED</text></g><g class="message" data-participant-1="AS" data-participant-2="Dev"><polygon fill="#181818" points="70.0015,592.5234,60.0015,596.5234,70.0015,600.5234,66.0015,596.5234" style="stroke:#181818;stroke-width:1;"/><line style="stroke:#181818;stroke-width:1;stroke-dasharray:2,2;" x1="64.0015" x2="393.5693" y1="596.5234" y2="596.5234"/><text fill="#000000" font-family="sans-serif" font-size="13" lengthAdjust="spacing" textLength="123.4238" x="76.0015" y="591.4575">Th&#244;ng b&#225;o th&#7845;t b&#7841;i</text></g><!--SRC=[XLB1Qjj05BplLpnqA0cfyTtG5baoHIIrJ6L_mFDgKorUxoghLKe8EVKJIayzcP933u7IzYGVUZ3aF_GdVLhBu9JINepqPZGpRvwTT4f09gvgeRc00Rof4R2gX0E- -m5biNjWo9sn4CJYMYXJ2XiG0UYDbMYTvB94xI1O97w-I9wEGw-L2NijkV2CC7lAYDhj9_qEN86w06Ts6-rfCxnXEJfSOYKWI6qkBCHZ3wNn-0ZQE_HGI12ZR31uIL56C2tQvbv3G6i5-xtO8kd0C1l1BCtcC3ITT0Mt7atoEnPcdX2FHt0ks-s7DJXxACMrsu-QVfkDX6TKqNSDIqhyYX4T1hrkUWvdK5fQkDTAEwqvVMJ0kvrK3brTlPXDfd4oVVqSS6rgxKuzlK_kYKdUAU7DMcYtiAhFJjMCuAt8fHNSH_eiZqa4TongOR__GqbtVFpskF4jjzkl_BZiFRqtZL2f9V8LhDhcbuEhkcs-m4bLSowgQdY9KfqoL0xw2GFuUvl3MvdV3RdHbzAkYNLKGrtIwGGS6WYJkCSFaIEwM0cAsjDqtZDwqYl8pNkj3EPCA1fsGVxdZVH_Ll-oZi9fDBcucFpfFozsFwafEglfwchk7IoxUpEXyzy0]--></g></svg>