<svg xmlns="http://www.w3.org/2000/svg" xmlns:xlink="http://www.w3.org/1999/xlink" contentStyleType="text/css" data-diagram-type="SEQUENCE" height="568px" preserveAspectRatio="none" style="width:784px;height:568px;background:#FFFFFF;" version="1.1" viewBox="0 0 784 568" width="784px" zoomAndPan="magnify"><title>Sequence - D&#249;ng asset mi&#7877;n ph&#237;</title><defs/><g><text fill="#000000" font-family="sans-serif" font-size="14" font-weight="bold" lengthAdjust="spacing" textLength="254.5156" x="263.9595" y="27.9951">Sequence - D&#249;ng asset mi&#7877;n ph&#237;</text><g><title>Developer</title><rect fill="#000000" fill-opacity="0.00000" height="369.5938" width="8" x="40.0015" y="118.5938"/><line style="stroke:#181818;stroke-width:0.5;stroke-dasharray:5,5;" x1="44" x2="44" y1="118.5938" y2="488.1875"/></g><g><title>UI</title><rect fill="#000000" fill-opacity="0.00000" height="369.5938" width="8" x="227.5552" y="118.5938"/><line style="stroke:#181818;stroke-width:0.5;stroke-dasharray:5,5;" x1="231.3672" x2="231.3672" y1="118.5938" y2="488.1875"/></g><g><title>Asset Service</title><rect fill="#000000" fill-opacity="0.00000" height="369.5938" width="8" x="427.7026" y="118.5938"/><line style="stroke:#181818;stroke-width:0.5;stroke-dasharray:5,5;" x1="431.4731" x2="431.4731" y1="118.5938" y2="488.1875"/></g><g><title>Asset DB</title><rect fill="#000000" fill-opacity="0.00000" height="369.5938" width="8" x="625.3618" y="118.5938"/><line style="stroke:#181818;stroke-width:0.5;stroke-dasharray:5,5;" x1="628.8105" x2="628.8105" y1="118.5938" y2="488.1875"/></g><g><title>CDN.Storage</title><rect fill="#000000" fill-opacity="0.00000" height="369.5938" width="8" x="722.1738" y="118.5938"/><line style="stroke:#181818;stroke-width:0.5;stroke-dasharray:5,5;" x1="725.9131" x2="725.9131" y1="118.5938" y2="488.1875"/></g><g class="participant participant-head" data-participant="Dev"><text fill="#000000" font-family="sans-serif" font-size="14" lengthAdjust="spacing" textLength="72.0029" x="5" y="115.292">Developer</text><ellipse cx="44.0015" cy="50.7969" fill="#E2E2F0" rx="8" ry="8" style="stroke:#181818;stroke-width:0.5;"/><path d="M44.0015,58.7969 L44.0015,85.7969 M31.0015,66.7969 L57.0015,66.7969 M44.0015,85.7969 L31.0015,100.7969 M44.0015,85.7969 L57.0015,100.7969" fill="none" style="stroke:#181818;stroke-width:0.5;"/></g><g class="participant participant-tail" data-participant="Dev"><text fill="#000000" font-family="sans-serif" font-size="14" lengthAdjust="spacing" textLength="72.0029" x="5" y="500.1826">Developer</text><ellipse cx="44.0015" cy="511.9844" fill="#E2E2F0" rx="8" ry="8" style="stroke:#181818;stroke-width:0.5;"/><path d="M44.0015,519.9844 L44.0015,546.9844 M31.0015,527.9844 L57.0015,527.9844 M44.0015,546.9844 L31.0015,561.9844 M44.0015,546.9844 L57.0015,561.9844" fill="none" style="stroke:#181818;stroke-width:0.5;"/></g><g class="participant participant-head" data-participant="UI"><rect fill="#E2E2F0" height="30.2969" rx="2.5" ry="2.5" style="stroke:#181818;stroke-width:0.5;" width="28.376" x="217.3672" y="87.2969"/><text fill="#000000" font-family="sans-serif" font-size="14" lengthAdjust="spacing" textLength="14.376" x="224.3672" y="107.292">UI</text></g><g class="participant participant-tail" data-participant="UI"><rect fill="#E2E2F0" height="30.2969" rx="2.5" ry="2.5" style="stroke:#181818;stroke-width:0.5;" width="28.376" x="217.3672" y="487.1875"/><text fill="#000000" font-family="sans-serif" font-size="14" lengthAdjust="spacing" textLength="14.376" x="224.3672" y="507.1826">UI</text></g><g class="participant participant-head" data-participant="AS"><rect fill="#E2E2F0" height="30.2969" rx="2.5" ry="2.5" style="stroke:#181818;stroke-width:0.5;" width="108.459" x="377.4731" y="87.2969"/><text fill="#000000" font-family="sans-serif" font-size="14" lengthAdjust="spacing" textLength="94.459" x="384.4731" y="107.292">Asset Service</text></g><g class="participant participant-tail" data-participant="AS"><rect fill="#E2E2F0" height="30.2969" rx="2.5" ry="2.5" style="stroke:#181818;stroke-width:0.5;" width="108.459" x="377.4731" y="487.1875"/><text fill="#000000" font-family="sans-serif" font-size="14" lengthAdjust="spacing" textLength="94.459" x="384.4731" y="507.1826">Asset Service</text></g><g class="participant participant-head" data-participant="ADB"><text fill="#000000" font-family="sans-serif" font-size="14" lengthAdjust="spacing" textLength="63.1025" x="594.8105" y="115.292">Asset DB</text><path d="M611.3618,66.2969 C611.3618,56.2969 629.3618,56.2969 629.3618,56.2969 C629.3618,56.2969 647.3618,56.2969 647.3618,66.2969 L647.3618,92.2969 C647.3618,102.2969 629.3618,102.2969 629.3618,102.2969 C629.3618,102.2969 611.3618,102.2969 611.3618,92.2969 L611.3618,66.2969" fill="#E2E2F0" style="stroke:#181818;stroke-width:0.5;"/><path d="M611.3618,66.2969 C611.3618,76.2969 629.3618,76.2969 629.3618,76.2969 C629.3618,76.2969 647.3618,76.2969 647.3618,66.2969" fill="none" style="stroke:#181818;stroke-width:0.5;"/></g><g class="participant participant-tail" data-participant="ADB"><text fill="#000000" font-family="sans-serif" font-size="14" lengthAdjust="spacing" textLength="63.1025" x="594.8105" y="500.1826">Asset DB</text><path d="M611.3618,513.4844 C611.3618,503.4844 629.3618,503.4844 629.3618,503.4844 C629.3618,503.4844 647.3618,503.4844 647.3618,513.4844 L647.3618,539.4844 C647.3618,549.4844 629.3618,549.4844 629.3618,549.4844 C629.3618,549.4844 611.3618,549.4844 611.3618,539.4844 L611.3618,513.4844" fill="#E2E2F0" style="stroke:#181818;stroke-width:0.5;"/><path d="M611.3618,513.4844 C611.3618,523.4844 629.3618,523.4844 629.3618,523.4844 C629.3618,523.4844 647.3618,523.4844 647.3618,513.4844" fill="none" style="stroke:#181818;stroke-width:0.5;"/></g><g class="participant participant-head" data-participant="CDN"><rect fill="#E2E2F0" height="30.2969" rx="2.5" ry="2.5" style="stroke:#181818;stroke-width:0.5;" width="104.5215" x="673.9131" y="87.2969"/><text fill="#000000" font-family="sans-serif" font-size="14" lengthAdjust="spacing" textLength="90.5215" x="680.9131" y="107.292">CDN/Storage</text></g><g class="participant participant-tail" data-participant="CDN"><rect fill="#E2E2F0" height="30.2969" rx="2.5" ry="2.5" style="stroke:#181818;stroke-width:0.5;" width="104.5215" x="673.9131" y="487.1875"/><text fill="#000000" font-family="sans-serif" font-size="14" lengthAdjust="spacing" textLength="90.5215" x="680.9131" y="507.1826">CDN/Storage</text></g><g class="message" data-participant-1="Dev" data-participant-2="UI"><polygon fill="#181818" points="219.5552,145.7266,229.5552,149.7266,219.5552,153.7266,223.5552,149.7266" style="stroke:#181818;stroke-width:1;"/><line style="stroke:#181818;stroke-width:1;" x1="44.0015" x2="225.5552" y1="149.7266" y2="149.7266"/><text fill="#000000" font-family="sans-serif" font-size="13" lengthAdjust="spacing" textLength="163.5537" x="51.0015" y="144.6606">M&#7903; Asset Store (l&#7885;c Free)</text></g><g class="message" data-participant-1="UI" data-participant-2="AS"><polygon fill="#181818" points="419.7026,174.8594,429.7026,178.8594,419.7026,182.8594,423.7026,178.8594" style="stroke:#181818;stroke-width:1;"/><line style="stroke:#181818;stroke-width:1;" x1="231.5552" x2="425.7026" y1="178.8594" y2="178.8594"/><text fill="#000000" font-family="sans-serif" font-size="13" lengthAdjust="spacing" textLength="165.2104" x="238.5552" y="173.7935">GET /assets?license=free</text></g><g class="message" data-participant-1="AS" data-participant-2="ADB"><polygon fill="#181818" points="617.3618,203.9922,627.3618,207.9922,617.3618,211.9922,621.3618,207.9922" style="stroke:#181818;stroke-width:1;"/><line style="stroke:#181818;stroke-width:1;" x1="431.7026" x2="623.3618" y1="207.9922" y2="207.9922"/><text fill="#000000" font-family="sans-serif" font-size="13" lengthAdjust="spacing" textLength="173.6592" x="438.7026" y="202.9263">Query assets free &amp; h&#7907;p l&#7879;</text></g><g class="message" data-participant-1="ADB" data-participant-2="AS"><polygon fill="#181818" points="442.7026,233.125,432.7026,237.125,442.7026,241.125,438.7026,237.125" style="stroke:#181818;stroke-width:1;"/><line style="stroke:#181818;stroke-width:1;stroke-dasharray:2,2;" x1="436.7026" x2="628.3618" y1="237.125" y2="237.125"/><text fill="#000000" font-family="sans-serif" font-size="13" lengthAdjust="spacing" textLength="107.4531" x="448.7026" y="232.0591">Danh s&#225;ch asset</text></g><g class="message" data-participant-1="AS" data-participant-2="UI"><polygon fill="#181818" points="242.5552,262.2578,232.5552,266.2578,242.5552,270.2578,238.5552,266.2578" style="stroke:#181818;stroke-width:1;"/><line style="stroke:#181818;stroke-width:1;stroke-dasharray:2,2;" x1="236.5552" x2="430.7026" y1="266.2578" y2="266.2578"/><text fill="#000000" font-family="sans-serif" font-size="13" lengthAdjust="spacing" textLength="55.269" x="248.5552" y="261.1919">JSON list</text></g><g class="message" data-participant-1="UI" data-participant-2="Dev"><polygon fill="#181818" points="55.0015,291.3906,45.0015,295.3906,55.0015,299.3906,51.0015,295.3906" style="stroke:#181818;stroke-width:1;"/><line style="stroke:#181818;stroke-width:1;stroke-dasharray:2,2;" x1="49.0015" x2="230.5552" y1="295.3906" y2="295.3906"/><text fill="#000000" font-family="sans-serif" font-size="13" lengthAdjust="spacing" textLength="104.0508" x="61.0015" y="290.3247">Hi&#7875;n th&#7883; k&#7871;t qu&#7843;</text></g><g class="message" data-participant-1="Dev" data-participant-2="UI"><polygon fill="#181818" points="219.5552,320.5234,229.5552,324.5234,219.5552,328.5234,223.5552,324.5234" style="stroke:#181818;stroke-width:1;"/><line style="stroke:#181818;stroke-width:1;" x1="44.0015" x2="225.5552" y1="324.5234" y2="324.5234"/><text fill="#000000" font-family="sans-serif" font-size="13" lengthAdjust="spacing" textLength="115.6162" x="51.0015" y="319.4575">Ch&#7885;n asset -&gt; T&#7843;i</text></g><g class="message" data-participant-1="UI" data-participant-2="AS"><polygon fill="#181818" points="419.7026,349.6563,429.7026,353.6563,419.7026,357.6563,423.7026,353.6563" style="stroke:#181818;stroke-width:1;"/><line style="stroke:#181818;stroke-width:1;" x1="231.5552" x2="425.7026" y1="353.6563" y2="353.6563"/><text fill="#000000" font-family="sans-serif" font-size="13" lengthAdjust="spacing" textLength="176.1475" x="238.5552" y="348.5903">GET /assets/{id}/download</text></g><g class="message" data-participant-1="AS" data-participant-2="CDN"><polygon fill="#181818" points="714.1738,378.7891,724.1738,382.7891,714.1738,386.7891,718.1738,382.7891" style="stroke:#181818;stroke-width:1;"/><line style="stroke:#181818;stroke-width:1;" x1="431.7026" x2="720.1738" y1="382.7891" y2="382.7891"/><text fill="#000000" font-family="sans-serif" font-size="13" lengthAdjust="spacing" textLength="157.6313" x="438.7026" y="377.7231">Generate download URL</text></g><g class="message" data-participant-1="CDN" data-participant-2="AS"><polygon fill="#181818" points="442.7026,407.9219,432.7026,411.9219,442.7026,415.9219,438.7026,411.9219" style="stroke:#181818;stroke-width:1;"/><line style="stroke:#181818;stroke-width:1;stroke-dasharray:2,2;" x1="436.7026" x2="725.1738" y1="411.9219" y2="411.9219"/><text fill="#000000" font-family="sans-serif" font-size="13" lengthAdjust="spacing" textLength="84.6841" x="448.7026" y="406.856">URL t&#7841;m th&#7901;i</text></g><g class="message" data-participant-1="AS" data-participant-2="UI"><polygon fill="#181818" points="242.5552,437.0547,232.5552,441.0547,242.5552,445.0547,238.5552,441.0547" style="stroke:#181818;stroke-width:1;"/><line style="stroke:#181818;stroke-width:1;stroke-dasharray:2,2;" x1="236.5552" x2="430.7026" y1="441.0547" y2="441.0547"/><text fill="#000000" font-family="sans-serif" font-size="13" lengthAdjust="spacing" textLength="25.7905" x="248.5552" y="435.9888">URL</text></g><g class="message" data-participant-1="UI" data-participant-2="Dev"><polygon fill="#181818" points="55.0015,466.1875,45.0015,470.1875,55.0015,474.1875,51.0015,470.1875" style="stroke:#181818;stroke-width:1;"/><line style="stroke:#181818;stroke-width:1;stroke-dasharray:2,2;" x1="49.0015" x2="230.5552" y1="470.1875" y2="470.1875"/><text fill="#000000" font-family="sans-serif" font-size="13" lengthAdjust="spacing" textLength="91.2031" x="61.0015" y="465.1216">B&#7855;t &#273;&#7847;u t&#7843;i v&#7873;</text></g><!--SRC=[RL2zJi9G5DxlKtnXC3eGTX8rGFt1A4OB3t0jHtfZkPJsWZ76mHZZO1Xy06C8WvDnjXqSy4NkctXQYe74yPplEz_FCSe419U68z8UeGnd_gLxa75C1drbqqUDq9z_2EcPGOIIGsCA1Y559UQ09n7Ao2XFXL8Rb3hDVDzfhgzhkPnBqLXvb3DghkXA8ozaJ4lOgIyGfxv-t71Q5PVDPMznohCGx8po3XjLSMBJDnGEJ2Di1ZQTUDYFYBP4fvdnQcuL1tjjLF9YyMx0ENHCsvVC4JKtfpZrAiv65DqisiV8G6p0j-ai16i-2UQWNCWvKlk8vrFFN_1pcIBIaNlQGg1YazlpakDMSSZlVD0mBFYCAvjy6mn7DfcjbcamED75_tdNPbpzNw9ogxftbUxWMWS3sIrQy7EOH9eYQGXB49tpOy7GNtYUOMmoxUTfNjLg-8ox6hjkaq-3dnURl8-oevd2sARtlm00]--></g></svg>