<svg xmlns="http://www.w3.org/2000/svg" xmlns:xlink="http://www.w3.org/1999/xlink" contentStyleType="text/css" data-diagram-type="SEQUENCE" height="541px" preserveAspectRatio="none" style="width:954px;height:541px;background:#FFFFFF;" version="1.1" viewBox="0 0 954 541" width="954px" zoomAndPan="magnify"><title>Sequence - Qu&#7843;n l&#253; doanh thu game</title><defs/><g><text fill="#000000" font-family="sans-serif" font-size="14" font-weight="bold" lengthAdjust="spacing" textLength="286.2822" x="335.427" y="27.9951">Sequence - Qu&#7843;n l&#253; doanh thu game</text><rect fill="none" height="133.6641" style="stroke:#000000;stroke-width:1.5;" width="938.1362" x="10" y="310.3906"/><g><title>Developer</title><rect fill="#000000" fill-opacity="0.00000" height="342.4609" width="8" x="55.0015" y="118.5938"/><line style="stroke:#181818;stroke-width:0.5;stroke-dasharray:5,5;" x1="59" x2="59" y1="118.5938" y2="461.0547"/></g><g><title>UI</title><rect fill="#000000" fill-opacity="0.00000" height="342.4609" width="8" x="282.0947" y="118.5938"/><line style="stroke:#181818;stroke-width:0.5;stroke-dasharray:5,5;" x1="285.9067" x2="285.9067" y1="118.5938" y2="461.0547"/></g><g><title>Revenue Service</title><rect fill="#000000" fill-opacity="0.00000" height="342.4609" width="8" x="514.0757" y="118.5938"/><line style="stroke:#181818;stroke-width:0.5;stroke-dasharray:5,5;" x1="517.1807" x2="517.1807" y1="118.5938" y2="461.0547"/></g><g><title>Billing DB</title><rect fill="#000000" fill-opacity="0.00000" height="342.4609" width="8" x="771.2378" y="118.5938"/><line style="stroke:#181818;stroke-width:0.5;stroke-dasharray:5,5;" x1="774.3589" x2="774.3589" y1="118.5938" y2="461.0547"/></g><g><title>Export Service</title><rect fill="#000000" fill-opacity="0.00000" height="342.4609" width="8" x="876.1265" y="118.5938"/><line style="stroke:#181818;stroke-width:0.5;stroke-dasharray:5,5;" x1="880.1167" x2="880.1167" y1="118.5938" y2="461.0547"/></g><g class="participant participant-head" data-participant="Dev"><text fill="#000000" font-family="sans-serif" font-size="14" lengthAdjust="spacing" textLength="72.0029" x="20" y="115.292">Developer</text><ellipse cx="59.0015" cy="50.7969" fill="#E2E2F0" rx="8" ry="8" style="stroke:#181818;stroke-width:0.5;"/><path d="M59.0015,58.7969 L59.0015,85.7969 M46.0015,66.7969 L72.0015,66.7969 M59.0015,85.7969 L46.0015,100.7969 M59.0015,85.7969 L72.0015,100.7969" fill="none" style="stroke:#181818;stroke-width:0.5;"/></g><g class="participant participant-tail" data-participant="Dev"><text fill="#000000" font-family="sans-serif" font-size="14" lengthAdjust="spacing" textLength="72.0029" x="20" y="473.0498">Developer</text><ellipse cx="59.0015" cy="484.8516" fill="#E2E2F0" rx="8" ry="8" style="stroke:#181818;stroke-width:0.5;"/><path d="M59.0015,492.8516 L59.0015,519.8516 M46.0015,500.8516 L72.0015,500.8516 M59.0015,519.8516 L46.0015,534.8516 M59.0015,519.8516 L72.0015,534.8516" fill="none" style="stroke:#181818;stroke-width:0.5;"/></g><g class="participant participant-head" data-participant="UI"><rect fill="#E2E2F0" height="30.2969" rx="2.5" ry="2.5" style="stroke:#181818;stroke-width:0.5;" width="28.376" x="271.9067" y="87.2969"/><text fill="#000000" font-family="sans-serif" font-size="14" lengthAdjust="spacing" textLength="14.376" x="278.9067" y="107.292">UI</text></g><g class="participant participant-tail" data-participant="UI"><rect fill="#E2E2F0" height="30.2969" rx="2.5" ry="2.5" style="stroke:#181818;stroke-width:0.5;" width="28.376" x="271.9067" y="460.0547"/><text fill="#000000" font-family="sans-serif" font-size="14" lengthAdjust="spacing" textLength="14.376" x="278.9067" y="480.0498">UI</text></g><g class="participant participant-head" data-participant="RS"><rect fill="#E2E2F0" height="30.2969" rx="2.5" ry="2.5" style="stroke:#181818;stroke-width:0.5;" width="131.79" x="452.1807" y="87.2969"/><text fill="#000000" font-family="sans-serif" font-size="14" lengthAdjust="spacing" textLength="117.79" x="459.1807" y="107.292">Revenue Service</text></g><g class="participant participant-tail" data-participant="RS"><rect fill="#E2E2F0" height="30.2969" rx="2.5" ry="2.5" style="stroke:#181818;stroke-width:0.5;" width="131.79" x="452.1807" y="460.0547"/><text fill="#000000" font-family="sans-serif" font-size="14" lengthAdjust="spacing" textLength="117.79" x="459.1807" y="480.0498">Revenue Service</text></g><g class="participant participant-head" data-participant="BDB"><text fill="#000000" font-family="sans-serif" font-size="14" lengthAdjust="spacing" textLength="67.7578" x="738.3589" y="115.292">Billing DB</text><path d="M757.2378,66.2969 C757.2378,56.2969 775.2378,56.2969 775.2378,56.2969 C775.2378,56.2969 793.2378,56.2969 793.2378,66.2969 L793.2378,92.2969 C793.2378,102.2969 775.2378,102.2969 775.2378,102.2969 C775.2378,102.2969 757.2378,102.2969 757.2378,92.2969 L757.2378,66.2969" fill="#E2E2F0" style="stroke:#181818;stroke-width:0.5;"/><path d="M757.2378,66.2969 C757.2378,76.2969 775.2378,76.2969 775.2378,76.2969 C775.2378,76.2969 793.2378,76.2969 793.2378,66.2969" fill="none" style="stroke:#181818;stroke-width:0.5;"/></g><g class="participant participant-tail" data-participant="BDB"><text fill="#000000" font-family="sans-serif" font-size="14" lengthAdjust="spacing" textLength="67.7578" x="738.3589" y="473.0498">Billing DB</text><path d="M757.2378,486.3516 C757.2378,476.3516 775.2378,476.3516 775.2378,476.3516 C775.2378,476.3516 793.2378,476.3516 793.2378,486.3516 L793.2378,512.3516 C793.2378,522.3516 775.2378,522.3516 775.2378,522.3516 C775.2378,522.3516 757.2378,522.3516 757.2378,512.3516 L757.2378,486.3516" fill="#E2E2F0" style="stroke:#181818;stroke-width:0.5;"/><path d="M757.2378,486.3516 C757.2378,496.3516 775.2378,496.3516 775.2378,496.3516 C775.2378,496.3516 793.2378,496.3516 793.2378,486.3516" fill="none" style="stroke:#181818;stroke-width:0.5;"/></g><g class="participant participant-head" data-participant="EX"><rect fill="#E2E2F0" height="30.2969" rx="2.5" ry="2.5" style="stroke:#181818;stroke-width:0.5;" width="116.0195" x="822.1167" y="87.2969"/><text fill="#000000" font-family="sans-serif" font-size="14" lengthAdjust="spacing" textLength="102.0195" x="829.1167" y="107.292">Export Service</text></g><g class="participant participant-tail" data-participant="EX"><rect fill="#E2E2F0" height="30.2969" rx="2.5" ry="2.5" style="stroke:#181818;stroke-width:0.5;" width="116.0195" x="822.1167" y="460.0547"/><text fill="#000000" font-family="sans-serif" font-size="14" lengthAdjust="spacing" textLength="102.0195" x="829.1167" y="480.0498">Export Service</text></g><g class="message" data-participant-1="Dev" data-participant-2="UI"><polygon fill="#181818" points="274.0947,145.7266,284.0947,149.7266,274.0947,153.7266,278.0947,149.7266" style="stroke:#181818;stroke-width:1;"/><line style="stroke:#181818;stroke-width:1;" x1="59.0015" x2="280.0947" y1="149.7266" y2="149.7266"/><text fill="#000000" font-family="sans-serif" font-size="13" lengthAdjust="spacing" textLength="203.0933" x="66.0015" y="144.6606">Ch&#7885;n game + kho&#7843;ng th&#7901;i gian</text></g><g class="message" data-participant-1="UI" data-participant-2="RS"><polygon fill="#181818" points="506.0757,174.8594,516.0757,178.8594,506.0757,182.8594,510.0757,178.8594" style="stroke:#181818;stroke-width:1;"/><line style="stroke:#181818;stroke-width:1;" x1="286.0947" x2="512.0757" y1="178.8594" y2="178.8594"/><text fill="#000000" font-family="sans-serif" font-size="13" lengthAdjust="spacing" textLength="207.981" x="293.0947" y="173.7935">GET /revenue?gameId&amp;from&amp;to</text></g><g class="message" data-participant-1="RS" data-participant-2="BDB"><polygon fill="#181818" points="763.2378,203.9922,773.2378,207.9922,763.2378,211.9922,767.2378,207.9922" style="stroke:#181818;stroke-width:1;"/><line style="stroke:#181818;stroke-width:1;" x1="518.0757" x2="769.2378" y1="207.9922" y2="207.9922"/><text fill="#000000" font-family="sans-serif" font-size="13" lengthAdjust="spacing" textLength="167.6543" x="525.0757" y="202.9263">Aggregate orders/refunds</text></g><g class="message" data-participant-1="BDB" data-participant-2="RS"><polygon fill="#181818" points="529.0757,233.125,519.0757,237.125,529.0757,241.125,525.0757,237.125" style="stroke:#181818;stroke-width:1;"/><line style="stroke:#181818;stroke-width:1;stroke-dasharray:2,2;" x1="523.0757" x2="774.2378" y1="237.125" y2="237.125"/><text fill="#000000" font-family="sans-serif" font-size="13" lengthAdjust="spacing" textLength="233.1621" x="535.0757" y="232.0591">totals, breakdown (theo ng&#224;y/k&#234;nh)</text></g><g class="message" data-participant-1="RS" data-participant-2="UI"><polygon fill="#181818" points="297.0947,262.2578,287.0947,266.2578,297.0947,270.2578,293.0947,266.2578" style="stroke:#181818;stroke-width:1;"/><line style="stroke:#181818;stroke-width:1;stroke-dasharray:2,2;" x1="291.0947" x2="517.0757" y1="266.2578" y2="266.2578"/><text fill="#000000" font-family="sans-serif" font-size="13" lengthAdjust="spacing" textLength="84.811" x="303.0947" y="261.1919">JSON metrics</text></g><g class="message" data-participant-1="UI" data-participant-2="Dev"><polygon fill="#181818" points="70.0015,291.3906,60.0015,295.3906,70.0015,299.3906,66.0015,295.3906" style="stroke:#181818;stroke-width:1;"/><line style="stroke:#181818;stroke-width:1;stroke-dasharray:2,2;" x1="64.0015" x2="285.0947" y1="295.3906" y2="295.3906"/><text fill="#000000" font-family="sans-serif" font-size="13" lengthAdjust="spacing" textLength="106.6851" x="76.0015" y="290.3247">V&#7869; chart + b&#7843;ng</text></g><path d="M10,310.3906 L74.4429,310.3906 L74.4429,317.5234 L64.4429,327.5234 L10,327.5234 L10,310.3906" fill="#EEEEEE" style="stroke:#000000;stroke-width:1.5;"/><rect fill="none" height="133.6641" style="stroke:#000000;stroke-width:1.5;" width="938.1362" x="10" y="310.3906"/><text fill="#000000" font-family="sans-serif" font-size="13" font-weight="bold" lengthAdjust="spacing" textLength="19.4429" x="25" y="323.4575">alt</text><text fill="#000000" font-family="sans-serif" font-size="11" font-weight="bold" lengthAdjust="spacing" textLength="148.5054" x="89.4429" y="322.6011">[Developer b&#7845;m Export]</text><g class="message" data-participant-1="Dev" data-participant-2="UI"><polygon fill="#181818" points="274.0947,344.6563,284.0947,348.6563,274.0947,352.6563,278.0947,348.6563" style="stroke:#181818;stroke-width:1;"/><line style="stroke:#181818;stroke-width:1;" x1="59.0015" x2="280.0947" y1="348.6563" y2="348.6563"/><text fill="#000000" font-family="sans-serif" font-size="13" lengthAdjust="spacing" textLength="90.27" x="66.0015" y="343.5903">Xu&#7845;t CSV/PDF</text></g><g class="message" data-participant-1="UI" data-participant-2="EX"><polygon fill="#181818" points="868.1265,373.7891,878.1265,377.7891,868.1265,381.7891,872.1265,377.7891" style="stroke:#181818;stroke-width:1;"/><line style="stroke:#181818;stroke-width:1;" x1="286.0947" x2="874.1265" y1="377.7891" y2="377.7891"/><text fill="#000000" font-family="sans-serif" font-size="13" lengthAdjust="spacing" textLength="206.2925" x="293.0947" y="372.7231">POST /export {metrics, format}</text></g><g class="message" data-participant-1="EX" data-participant-2="UI"><polygon fill="#181818" points="297.0947,402.9219,287.0947,406.9219,297.0947,410.9219,293.0947,406.9219" style="stroke:#181818;stroke-width:1;"/><line style="stroke:#181818;stroke-width:1;stroke-dasharray:2,2;" x1="291.0947" x2="879.1265" y1="406.9219" y2="406.9219"/><text fill="#000000" font-family="sans-serif" font-size="13" lengthAdjust="spacing" textLength="38.27" x="303.0947" y="401.856">fileUrl</text></g><g class="message" data-participant-1="UI" data-participant-2="Dev"><polygon fill="#181818" points="70.0015,432.0547,60.0015,436.0547,70.0015,440.0547,66.0015,436.0547" style="stroke:#181818;stroke-width:1;"/><line style="stroke:#181818;stroke-width:1;stroke-dasharray:2,2;" x1="64.0015" x2="285.0947" y1="436.0547" y2="436.0547"/><text fill="#000000" font-family="sans-serif" font-size="13" lengthAdjust="spacing" textLength="98.9536" x="76.0015" y="430.9888">T&#7843;i file b&#225;o c&#225;o</text></g><!--SRC=[LP51JkD044NtVOglB10ZYBBtWX593Cei1eW9ohPZL-nMsjsXNGP68ux04P10Y0r70B7AIN8Joau6JJQMkgf-_VVBRDWI4hgkoQM4BYxgzVkBWrrz8lFQ5U2YHgvBKZfb7z0PqWrPlwJGWQuWBxNKWKrgbjenEfDHMv-CTijZKRcwSGet9gLsPfoeJBEUwOhGwHjhZSinxBUz_h2_ko2-M_h0E_fugfJuetiaTX46nVhZmRMiEC2Yy4sGNFZN7uy6kT5EJKRDy3Y9S1fVeXSsK3yRoIZRcmTVxh5NuwIP4e88ntaUADTCy26ZK8baNhkiKj95TxkBFMjR7M8MI2yoV-kmpmLvk7przAUtMBsvuaUxT0lwApdxZP8ucBHgaQGkEI9ShTy_aHOIMmBCMdobj6LytxoflfRO74C1_yMVoezxPGoIgzxvy4Hwcx3nDCBvMI9fQNF1lrldGynzA3NVosWy_OQR6qkJOBVwVsIN0cFQ7cQhPuzKFefSzWK0]--></g></svg>