<svg xmlns="http://www.w3.org/2000/svg" xmlns:xlink="http://www.w3.org/1999/xlink" contentStyleType="text/css" data-diagram-type="SEQUENCE" height="540px" preserveAspectRatio="none" style="width:765px;height:540px;background:#FFFFFF;" version="1.1" viewBox="0 0 765 540" width="765px" zoomAndPan="magnify"><title>Sequence - &#272;&#259;ng nh&#7853;p h&#7879; th&#7889;ng (Developer)</title><defs/><g><text fill="#000000" font-family="sans-serif" font-size="14" font-weight="bold" lengthAdjust="spacing" textLength="351.5449" x="206.9255" y="27.9951">Sequence - &#272;&#259;ng nh&#7853;p h&#7879; th&#7889;ng (Developer)</text><rect fill="none" height="148.4688" style="stroke:#000000;stroke-width:1.5;" width="506.6025" x="10" y="294.2578"/><g><title>Developer</title><rect fill="#000000" fill-opacity="0.00000" height="341.1328" width="8" x="55.0015" y="118.5938"/><line style="stroke:#181818;stroke-width:0.5;stroke-dasharray:5,5;" x1="59" x2="59" y1="118.5938" y2="459.7266"/></g><g><title>Giao di.n .UI.</title><rect fill="#000000" fill-opacity="0.00000" height="341.1328" width="8" x="234.1572" y="118.5938"/><line style="stroke:#181818;stroke-width:0.5;stroke-dasharray:5,5;" x1="237.9844" x2="237.9844" y1="118.5938" y2="459.7266"/></g><g><title>Auth Service</title><rect fill="#000000" fill-opacity="0.00000" height="341.1328" width="8" x="451.1006" y="118.5938"/><line style="stroke:#181818;stroke-width:0.5;stroke-dasharray:5,5;" x1="454.5986" x2="454.5986" y1="118.5938" y2="459.7266"/></g><g><title>User DB</title><rect fill="#000000" fill-opacity="0.00000" height="341.1328" width="8" x="726.0234" y="118.5938"/><line style="stroke:#181818;stroke-width:0.5;stroke-dasharray:5,5;" x1="729.6509" x2="729.6509" y1="118.5938" y2="459.7266"/></g><g class="participant participant-head" data-participant="Dev"><text fill="#000000" font-family="sans-serif" font-size="14" lengthAdjust="spacing" textLength="72.0029" x="20" y="115.292">Developer</text><ellipse cx="59.0015" cy="50.7969" fill="#E2E2F0" rx="8" ry="8" style="stroke:#181818;stroke-width:0.5;"/><path d="M59.0015,58.7969 L59.0015,85.7969 M46.0015,66.7969 L72.0015,66.7969 M59.0015,85.7969 L46.0015,100.7969 M59.0015,85.7969 L72.0015,100.7969" fill="none" style="stroke:#181818;stroke-width:0.5;"/></g><g class="participant participant-tail" data-participant="Dev"><text fill="#000000" font-family="sans-serif" font-size="14" lengthAdjust="spacing" textLength="72.0029" x="20" y="471.7217">Developer</text><ellipse cx="59.0015" cy="483.5234" fill="#E2E2F0" rx="8" ry="8" style="stroke:#181818;stroke-width:0.5;"/><path d="M59.0015,491.5234 L59.0015,518.5234 M46.0015,499.5234 L72.0015,499.5234 M59.0015,518.5234 L46.0015,533.5234 M59.0015,518.5234 L72.0015,533.5234" fill="none" style="stroke:#181818;stroke-width:0.5;"/></g><g class="participant participant-head" data-participant="UI"><rect fill="#E2E2F0" height="30.2969" rx="2.5" ry="2.5" style="stroke:#181818;stroke-width:0.5;" width="110.3457" x="182.9844" y="87.2969"/><text fill="#000000" font-family="sans-serif" font-size="14" lengthAdjust="spacing" textLength="96.3457" x="189.9844" y="107.292">Giao di&#7879;n (UI)</text></g><g class="participant participant-tail" data-participant="UI"><rect fill="#E2E2F0" height="30.2969" rx="2.5" ry="2.5" style="stroke:#181818;stroke-width:0.5;" width="110.3457" x="182.9844" y="458.7266"/><text fill="#000000" font-family="sans-serif" font-size="14" lengthAdjust="spacing" textLength="96.3457" x="189.9844" y="478.7217">Giao di&#7879;n (UI)</text></g><g class="participant participant-head" data-participant="Auth"><rect fill="#E2E2F0" height="30.2969" rx="2.5" ry="2.5" style="stroke:#181818;stroke-width:0.5;" width="103.0039" x="403.5986" y="87.2969"/><text fill="#000000" font-family="sans-serif" font-size="14" lengthAdjust="spacing" textLength="89.0039" x="410.5986" y="107.292">Auth Service</text></g><g class="participant participant-tail" data-participant="Auth"><rect fill="#E2E2F0" height="30.2969" rx="2.5" ry="2.5" style="stroke:#181818;stroke-width:0.5;" width="103.0039" x="403.5986" y="458.7266"/><text fill="#000000" font-family="sans-serif" font-size="14" lengthAdjust="spacing" textLength="89.0039" x="410.5986" y="478.7217">Auth Service</text></g><g class="participant participant-head" data-participant="UDB"><text fill="#000000" font-family="sans-serif" font-size="14" lengthAdjust="spacing" textLength="56.7451" x="698.6509" y="115.292">User DB</text><path d="M712.0234,66.2969 C712.0234,56.2969 730.0234,56.2969 730.0234,56.2969 C730.0234,56.2969 748.0234,56.2969 748.0234,66.2969 L748.0234,92.2969 C748.0234,102.2969 730.0234,102.2969 730.0234,102.2969 C730.0234,102.2969 712.0234,102.2969 712.0234,92.2969 L712.0234,66.2969" fill="#E2E2F0" style="stroke:#181818;stroke-width:0.5;"/><path d="M712.0234,66.2969 C712.0234,76.2969 730.0234,76.2969 730.0234,76.2969 C730.0234,76.2969 748.0234,76.2969 748.0234,66.2969" fill="none" style="stroke:#181818;stroke-width:0.5;"/></g><g class="participant participant-tail" data-participant="UDB"><text fill="#000000" font-family="sans-serif" font-size="14" lengthAdjust="spacing" textLength="56.7451" x="698.6509" y="471.7217">User DB</text><path d="M712.0234,485.0234 C712.0234,475.0234 730.0234,475.0234 730.0234,475.0234 C730.0234,475.0234 748.0234,475.0234 748.0234,485.0234 L748.0234,511.0234 C748.0234,521.0234 730.0234,521.0234 730.0234,521.0234 C730.0234,521.0234 712.0234,521.0234 712.0234,511.0234 L712.0234,485.0234" fill="#E2E2F0" style="stroke:#181818;stroke-width:0.5;"/><path d="M712.0234,485.0234 C712.0234,495.0234 730.0234,495.0234 730.0234,495.0234 C730.0234,495.0234 748.0234,495.0234 748.0234,485.0234" fill="none" style="stroke:#181818;stroke-width:0.5;"/></g><g class="message" data-participant-1="Dev" data-participant-2="UI"><polygon fill="#181818" points="226.1572,145.7266,236.1572,149.7266,226.1572,153.7266,230.1572,149.7266" style="stroke:#181818;stroke-width:1;"/><line style="stroke:#181818;stroke-width:1;" x1="59.0015" x2="232.1572" y1="149.7266" y2="149.7266"/><text fill="#000000" font-family="sans-serif" font-size="13" lengthAdjust="spacing" textLength="155.1558" x="66.0015" y="144.6606">Nh&#7853;p email + m&#7853;t kh&#7849;u</text></g><g class="message" data-participant-1="UI" data-participant-2="Auth"><polygon fill="#181818" points="443.1006,174.8594,453.1006,178.8594,443.1006,182.8594,447.1006,178.8594" style="stroke:#181818;stroke-width:1;"/><line style="stroke:#181818;stroke-width:1;" x1="238.1572" x2="449.1006" y1="178.8594" y2="178.8594"/><text fill="#000000" font-family="sans-serif" font-size="13" lengthAdjust="spacing" textLength="162.2397" x="245.1572" y="173.7935">POST /login {email,pwd}</text></g><g class="message" data-participant-1="Auth" data-participant-2="UDB"><polygon fill="#181818" points="718.0234,203.9922,728.0234,207.9922,718.0234,211.9922,722.0234,207.9922" style="stroke:#181818;stroke-width:1;"/><line style="stroke:#181818;stroke-width:1;" x1="455.1006" x2="724.0234" y1="207.9922" y2="207.9922"/><text fill="#000000" font-family="sans-serif" font-size="13" lengthAdjust="spacing" textLength="250.9229" x="462.1006" y="202.9263">SELECT * FROM users WHERE email=?</text></g><g class="message" data-participant-1="UDB" data-participant-2="Auth"><polygon fill="#181818" points="466.1006,233.125,456.1006,237.125,466.1006,241.125,462.1006,237.125" style="stroke:#181818;stroke-width:1;"/><line style="stroke:#181818;stroke-width:1;stroke-dasharray:2,2;" x1="460.1006" x2="729.0234" y1="237.125" y2="237.125"/><text fill="#000000" font-family="sans-serif" font-size="13" lengthAdjust="spacing" textLength="230.2803" x="472.1006" y="232.0591">user + password_hash + tr&#7841;ng th&#225;i</text></g><g class="message" data-participant-1="Auth" data-participant-2="Auth"><line style="stroke:#181818;stroke-width:1;" x1="455.1006" x2="497.1006" y1="266.2578" y2="266.2578"/><line style="stroke:#181818;stroke-width:1;" x1="497.1006" x2="497.1006" y1="266.2578" y2="279.2578"/><line style="stroke:#181818;stroke-width:1;" x1="456.1006" x2="497.1006" y1="279.2578" y2="279.2578"/><polygon fill="#181818" points="466.1006,275.2578,456.1006,279.2578,466.1006,283.2578,462.1006,279.2578" style="stroke:#181818;stroke-width:1;"/><text fill="#000000" font-family="sans-serif" font-size="13" lengthAdjust="spacing" textLength="243.915" x="462.1006" y="261.1919">Ki&#7875;m tra m&#7853;t kh&#7849;u + kh&#243;a t&#224;i kho&#7843;n?</text></g><path d="M10,294.2578 L74.4429,294.2578 L74.4429,301.3906 L64.4429,311.3906 L10,311.3906 L10,294.2578" fill="#EEEEEE" style="stroke:#000000;stroke-width:1.5;"/><rect fill="none" height="148.4688" style="stroke:#000000;stroke-width:1.5;" width="506.6025" x="10" y="294.2578"/><text fill="#000000" font-family="sans-serif" font-size="13" font-weight="bold" lengthAdjust="spacing" textLength="19.4429" x="25" y="307.3247">alt</text><text fill="#000000" font-family="sans-serif" font-size="11" font-weight="bold" lengthAdjust="spacing" textLength="166.6758" x="89.4429" y="306.4683">[H&#7907;p l&#7879; &amp; t&#224;i kho&#7843;n active]</text><g class="message" data-participant-1="Auth" data-participant-2="UI"><polygon fill="#181818" points="249.1572,328.5234,239.1572,332.5234,249.1572,336.5234,245.1572,332.5234" style="stroke:#181818;stroke-width:1;"/><line style="stroke:#181818;stroke-width:1;stroke-dasharray:2,2;" x1="243.1572" x2="454.1006" y1="332.5234" y2="332.5234"/><text fill="#000000" font-family="sans-serif" font-size="13" lengthAdjust="spacing" textLength="192.9434" x="255.1572" y="327.4575">200 OK + JWT token + profile</text></g><g class="message" data-participant-1="UI" data-participant-2="Dev"><polygon fill="#181818" points="70.0015,357.6563,60.0015,361.6563,70.0015,365.6563,66.0015,361.6563" style="stroke:#181818;stroke-width:1;"/><line style="stroke:#181818;stroke-width:1;stroke-dasharray:2,2;" x1="64.0015" x2="237.1572" y1="361.6563" y2="361.6563"/><text fill="#000000" font-family="sans-serif" font-size="13" lengthAdjust="spacing" textLength="149.8682" x="76.0015" y="356.5903">&#272;i&#7873;u h&#432;&#7899;ng Dashboard</text></g><line style="stroke:#000000;stroke-width:1;stroke-dasharray:2,2;" x1="10" x2="516.6025" y1="370.6563" y2="370.6563"/><text fill="#000000" font-family="sans-serif" font-size="11" font-weight="bold" lengthAdjust="spacing" textLength="172.6323" x="15" y="380.8667">[Sai th&#244;ng tin ho&#7863;c b&#7883; kh&#243;a]</text><g class="message" data-participant-1="Auth" data-participant-2="UI"><polygon fill="#181818" points="249.1572,401.5938,239.1572,405.5938,249.1572,409.5938,245.1572,405.5938" style="stroke:#181818;stroke-width:1;"/><line style="stroke:#181818;stroke-width:1;stroke-dasharray:2,2;" x1="243.1572" x2="454.1006" y1="405.5938" y2="405.5938"/><text fill="#000000" font-family="sans-serif" font-size="13" lengthAdjust="spacing" textLength="139.2485" x="255.1572" y="400.5278">401/423 + th&#244;ng b&#225;o</text></g><g class="message" data-participant-1="UI" data-participant-2="Dev"><polygon fill="#181818" points="70.0015,430.7266,60.0015,434.7266,70.0015,438.7266,66.0015,434.7266" style="stroke:#181818;stroke-width:1;"/><line style="stroke:#181818;stroke-width:1;stroke-dasharray:2,2;" x1="64.0015" x2="237.1572" y1="434.7266" y2="434.7266"/><text fill="#000000" font-family="sans-serif" font-size="13" lengthAdjust="spacing" textLength="70.0146" x="76.0015" y="429.6606">Hi&#7875;n th&#7883; l&#7895;i</text></g><!--SRC=[NL8zJnj15EptLunS821Oc8_A4Y2SSx21n94_H8dMTnjkvVFkiRTd2aI1A5BG95KA6YnN54X8H8fabqRv7_TFylOkicIQqxrtysRcpJihRIJG4PUfKBv06My_tkxK1LIOJPzZXDdiEomzVr9lrHCZ4UbOc3N6VQiDIejE2Jm1LIpcnafVnbnPb8uarmWaaIYizffhEQhNN0OTfZOa1sOaVP43N8C5tF8-JmHAlKGOUBLYrginHZ8exnDF5LyAcsB8POGF659bCQ3cKyfwJOToP5LyRNMws8pqXLIupj4RyLLmmt9jn-NLgkZKJ-iVkrZ7ftRhCrAIJN3MgBVh1V_U0ICOoWjIXo3Hc2V9bJR1USYJa6fhikcOuhBXV2mN2iN82MLnDoG8N_9AKuDm_ifXvu-INdKsdQW3nYEBHZQRn8ZS7LQMFeDE84U20ON4_qIsAnMqJeZm-AmBgmT2EOj6VvEHmxfG24aHLkdKvEOsHVZt9Piza6EF5kXhRW8c8ag-mwLRuhVRXN9pidzyzBFPVU7slVHkPMjpTtl7HL1CzUTZ_KwpuG9G-IzrxxRw9PbGmJy0]--></g></svg>