<svg xmlns="http://www.w3.org/2000/svg" xmlns:xlink="http://www.w3.org/1999/xlink" contentStyleType="text/css" data-diagram-type="SEQUENCE" height="452px" preserveAspectRatio="none" style="width:980px;height:452px;background:#FFFFFF;" version="1.1" viewBox="0 0 980 452" width="980px" zoomAndPan="magnify"><title>Sequence - Xin API/SDK N&#7841;p ti&#7873;n v&#224;o TK game</title><defs/><g><text fill="#000000" font-family="sans-serif" font-size="14" font-weight="bold" lengthAdjust="spacing" textLength="365.4355" x="308.7883" y="27.9951">Sequence - Xin API/SDK N&#7841;p ti&#7873;n v&#224;o TK game</text><g><title>Developer</title><rect fill="#000000" fill-opacity="0.00000" height="253.0625" width="8" x="40.0015" y="118.5938"/><line style="stroke:#181818;stroke-width:0.5;stroke-dasharray:5,5;" x1="44" x2="44" y1="118.5938" y2="371.6563"/></g><g><title>UI</title><rect fill="#000000" fill-opacity="0.00000" height="253.0625" width="8" x="234.5059" y="118.5938"/><line style="stroke:#181818;stroke-width:0.5;stroke-dasharray:5,5;" x1="238.3179" x2="238.3179" y1="118.5938" y2="371.6563"/></g><g><title>Wallet.Billing Service</title><rect fill="#000000" fill-opacity="0.00000" height="253.0625" width="8" x="660.5854" y="118.5938"/><line style="stroke:#181818;stroke-width:0.5;stroke-dasharray:5,5;" x1="664.5181" x2="664.5181" y1="118.5938" y2="371.6563"/></g><g><title>Key Store</title><rect fill="#000000" fill-opacity="0.00000" height="253.0625" width="8" x="855.5786" y="118.5938"/><line style="stroke:#181818;stroke-width:0.5;stroke-dasharray:5,5;" x1="858.6587" x2="858.6587" y1="118.5938" y2="371.6563"/></g><g><title>Game DB</title><rect fill="#000000" fill-opacity="0.00000" height="253.0625" width="8" x="938.7554" y="118.5938"/><line style="stroke:#181818;stroke-width:0.5;stroke-dasharray:5,5;" x1="942.4985" x2="942.4985" y1="118.5938" y2="371.6563"/></g><g class="participant participant-head" data-participant="Dev"><text fill="#000000" font-family="sans-serif" font-size="14" lengthAdjust="spacing" textLength="72.0029" x="5" y="115.292">Developer</text><ellipse cx="44.0015" cy="50.7969" fill="#E2E2F0" rx="8" ry="8" style="stroke:#181818;stroke-width:0.5;"/><path d="M44.0015,58.7969 L44.0015,85.7969 M31.0015,66.7969 L57.0015,66.7969 M44.0015,85.7969 L31.0015,100.7969 M44.0015,85.7969 L57.0015,100.7969" fill="none" style="stroke:#181818;stroke-width:0.5;"/></g><g class="participant participant-tail" data-participant="Dev"><text fill="#000000" font-family="sans-serif" font-size="14" lengthAdjust="spacing" textLength="72.0029" x="5" y="383.6514">Developer</text><ellipse cx="44.0015" cy="395.4531" fill="#E2E2F0" rx="8" ry="8" style="stroke:#181818;stroke-width:0.5;"/><path d="M44.0015,403.4531 L44.0015,430.4531 M31.0015,411.4531 L57.0015,411.4531 M44.0015,430.4531 L31.0015,445.4531 M44.0015,430.4531 L57.0015,445.4531" fill="none" style="stroke:#181818;stroke-width:0.5;"/></g><g class="participant participant-head" data-participant="UI"><rect fill="#E2E2F0" height="30.2969" rx="2.5" ry="2.5" style="stroke:#181818;stroke-width:0.5;" width="28.376" x="224.3179" y="87.2969"/><text fill="#000000" font-family="sans-serif" font-size="14" lengthAdjust="spacing" textLength="14.376" x="231.3179" y="107.292">UI</text></g><g class="participant participant-tail" data-participant="UI"><rect fill="#E2E2F0" height="30.2969" rx="2.5" ry="2.5" style="stroke:#181818;stroke-width:0.5;" width="28.376" x="224.3179" y="370.6563"/><text fill="#000000" font-family="sans-serif" font-size="14" lengthAdjust="spacing" textLength="14.376" x="231.3179" y="390.6514">UI</text></g><g class="participant participant-head" data-participant="WS"><rect fill="#E2E2F0" height="30.2969" rx="2.5" ry="2.5" style="stroke:#181818;stroke-width:0.5;" width="162.1348" x="583.5181" y="87.2969"/><text fill="#000000" font-family="sans-serif" font-size="14" lengthAdjust="spacing" textLength="148.1348" x="590.5181" y="107.292">Wallet/Billing Service</text></g><g class="participant participant-tail" data-participant="WS"><rect fill="#E2E2F0" height="30.2969" rx="2.5" ry="2.5" style="stroke:#181818;stroke-width:0.5;" width="162.1348" x="583.5181" y="370.6563"/><text fill="#000000" font-family="sans-serif" font-size="14" lengthAdjust="spacing" textLength="148.1348" x="590.5181" y="390.6514">Wallet/Billing Service</text></g><g class="participant participant-head" data-participant="KDB"><text fill="#000000" font-family="sans-serif" font-size="14" lengthAdjust="spacing" textLength="67.8398" x="822.6587" y="115.292">Key Store</text><path d="M841.5786,66.2969 C841.5786,56.2969 859.5786,56.2969 859.5786,56.2969 C859.5786,56.2969 877.5786,56.2969 877.5786,66.2969 L877.5786,92.2969 C877.5786,102.2969 859.5786,102.2969 859.5786,102.2969 C859.5786,102.2969 841.5786,102.2969 841.5786,92.2969 L841.5786,66.2969" fill="#E2E2F0" style="stroke:#181818;stroke-width:0.5;"/><path d="M841.5786,66.2969 C841.5786,76.2969 859.5786,76.2969 859.5786,76.2969 C859.5786,76.2969 877.5786,76.2969 877.5786,66.2969" fill="none" style="stroke:#181818;stroke-width:0.5;"/></g><g class="participant participant-tail" data-participant="KDB"><text fill="#000000" font-family="sans-serif" font-size="14" lengthAdjust="spacing" textLength="67.8398" x="822.6587" y="383.6514">Key Store</text><path d="M841.5786,396.9531 C841.5786,386.9531 859.5786,386.9531 859.5786,386.9531 C859.5786,386.9531 877.5786,386.9531 877.5786,396.9531 L877.5786,422.9531 C877.5786,432.9531 859.5786,432.9531 859.5786,432.9531 C859.5786,432.9531 841.5786,432.9531 841.5786,422.9531 L841.5786,396.9531" fill="#E2E2F0" style="stroke:#181818;stroke-width:0.5;"/><path d="M841.5786,396.9531 C841.5786,406.9531 859.5786,406.9531 859.5786,406.9531 C859.5786,406.9531 877.5786,406.9531 877.5786,396.9531" fill="none" style="stroke:#181818;stroke-width:0.5;"/></g><g class="participant participant-head" data-participant="GDB"><text fill="#000000" font-family="sans-serif" font-size="14" lengthAdjust="spacing" textLength="66.5137" x="906.4985" y="115.292">Game DB</text><path d="M924.7554,66.2969 C924.7554,56.2969 942.7554,56.2969 942.7554,56.2969 C942.7554,56.2969 960.7554,56.2969 960.7554,66.2969 L960.7554,92.2969 C960.7554,102.2969 942.7554,102.2969 942.7554,102.2969 C942.7554,102.2969 924.7554,102.2969 924.7554,92.2969 L924.7554,66.2969" fill="#E2E2F0" style="stroke:#181818;stroke-width:0.5;"/><path d="M924.7554,66.2969 C924.7554,76.2969 942.7554,76.2969 942.7554,76.2969 C942.7554,76.2969 960.7554,76.2969 960.7554,66.2969" fill="none" style="stroke:#181818;stroke-width:0.5;"/></g><g class="participant participant-tail" data-participant="GDB"><text fill="#000000" font-family="sans-serif" font-size="14" lengthAdjust="spacing" textLength="66.5137" x="906.4985" y="383.6514">Game DB</text><path d="M924.7554,396.9531 C924.7554,386.9531 942.7554,386.9531 942.7554,386.9531 C942.7554,386.9531 960.7554,386.9531 960.7554,396.9531 L960.7554,422.9531 C960.7554,432.9531 942.7554,432.9531 942.7554,432.9531 C942.7554,432.9531 924.7554,432.9531 924.7554,422.9531 L924.7554,396.9531" fill="#E2E2F0" style="stroke:#181818;stroke-width:0.5;"/><path d="M924.7554,396.9531 C924.7554,406.9531 942.7554,406.9531 942.7554,406.9531 C942.7554,406.9531 960.7554,406.9531 960.7554,396.9531" fill="none" style="stroke:#181818;stroke-width:0.5;"/></g><g class="message" data-participant-1="Dev" data-participant-2="UI"><polygon fill="#181818" points="226.5059,145.7266,236.5059,149.7266,226.5059,153.7266,230.5059,149.7266" style="stroke:#181818;stroke-width:1;"/><line style="stroke:#181818;stroke-width:1;" x1="44.0015" x2="232.5059" y1="149.7266" y2="149.7266"/><text fill="#000000" font-family="sans-serif" font-size="13" lengthAdjust="spacing" textLength="111.5537" x="51.0015" y="144.6606">&#272;&#259;ng k&#253; n&#7841;p ti&#7873;n</text></g><g class="message" data-participant-1="UI" data-participant-2="WS"><polygon fill="#181818" points="652.5854,174.8594,662.5854,178.8594,652.5854,182.8594,656.5854,178.8594" style="stroke:#181818;stroke-width:1;"/><line style="stroke:#181818;stroke-width:1;" x1="238.5059" x2="658.5854" y1="178.8594" y2="178.8594"/><text fill="#000000" font-family="sans-serif" font-size="13" lengthAdjust="spacing" textLength="402.0796" x="245.5059" y="173.7935">POST /wallet/register {gameId, callbackURL, webhookSecret}</text></g><g class="message" data-participant-1="WS" data-participant-2="GDB"><polygon fill="#181818" points="930.7554,203.9922,940.7554,207.9922,930.7554,211.9922,934.7554,207.9922" style="stroke:#181818;stroke-width:1;"/><line style="stroke:#181818;stroke-width:1;" x1="664.5854" x2="936.7554" y1="207.9922" y2="207.9922"/><text fill="#000000" font-family="sans-serif" font-size="13" lengthAdjust="spacing" textLength="168.8667" x="671.5854" y="202.9263">Verify game &amp; ch&#7911; s&#7903; h&#7919;u</text></g><g class="message" data-participant-1="GDB" data-participant-2="WS"><polygon fill="#181818" points="675.5854,233.125,665.5854,237.125,675.5854,241.125,671.5854,237.125" style="stroke:#181818;stroke-width:1;"/><line style="stroke:#181818;stroke-width:1;stroke-dasharray:2,2;" x1="669.5854" x2="941.7554" y1="237.125" y2="237.125"/><text fill="#000000" font-family="sans-serif" font-size="13" lengthAdjust="spacing" textLength="18.7573" x="681.5854" y="232.0591">OK</text></g><g class="message" data-participant-1="WS" data-participant-2="KDB"><polygon fill="#181818" points="847.5786,262.2578,857.5786,266.2578,847.5786,270.2578,851.5786,266.2578" style="stroke:#181818;stroke-width:1;"/><line style="stroke:#181818;stroke-width:1;" x1="664.5854" x2="853.5786" y1="266.2578" y2="266.2578"/><text fill="#000000" font-family="sans-serif" font-size="13" lengthAdjust="spacing" textLength="170.9932" x="671.5854" y="261.1919">createKey(scope='wallet')</text></g><g class="message" data-participant-1="KDB" data-participant-2="WS"><polygon fill="#181818" points="675.5854,291.3906,665.5854,295.3906,675.5854,299.3906,671.5854,295.3906" style="stroke:#181818;stroke-width:1;"/><line style="stroke:#181818;stroke-width:1;stroke-dasharray:2,2;" x1="669.5854" x2="858.5786" y1="295.3906" y2="295.3906"/><text fill="#000000" font-family="sans-serif" font-size="13" lengthAdjust="spacing" textLength="63.1338" x="681.5854" y="290.3247">walletKey</text></g><g class="message" data-participant-1="WS" data-participant-2="UI"><polygon fill="#181818" points="249.5059,320.5234,239.5059,324.5234,249.5059,328.5234,245.5059,324.5234" style="stroke:#181818;stroke-width:1;"/><line style="stroke:#181818;stroke-width:1;stroke-dasharray:2,2;" x1="243.5059" x2="663.5854" y1="324.5234" y2="324.5234"/><text fill="#000000" font-family="sans-serif" font-size="13" lengthAdjust="spacing" textLength="252.9224" x="255.5059" y="319.4575">{walletKey, sdkLinks, docs, testCards}</text></g><g class="message" data-participant-1="UI" data-participant-2="Dev"><polygon fill="#181818" points="55.0015,349.6563,45.0015,353.6563,55.0015,357.6563,51.0015,353.6563" style="stroke:#181818;stroke-width:1;"/><line style="stroke:#181818;stroke-width:1;stroke-dasharray:2,2;" x1="49.0015" x2="237.5059" y1="353.6563" y2="353.6563"/><text fill="#000000" font-family="sans-serif" font-size="13" lengthAdjust="spacing" textLength="170.5044" x="61.0015" y="348.5903">Hi&#7875;n th&#7883; th&#244;ng tin t&#237;ch h&#7907;p</text></g><!--SRC=[LL6nJW915EplAoOKeWc4daGJyHAy717YWTWkUq_Ot7btxYuGGYYCfOr_eCR2ojXOIQpWH_WJtnt4OBFPVVFcpSnRgsnC2EXkJ8aaL76j4fnsl5hW-hZOVBzci6gpl4ymMRsawFeOYbjoXBIfHicb2SLfHhe4OS0l9nFQAgaoaLYKUbvHxtd_otqHnsHh3HN7AXcok9ueIKLhFt12OSL064B9fna2rjb2ljlOmvhi0cwZG9gCE2oEwWbhrR5-MZ_mt6ZrWsGlWTFpyev-K4Ud7NHHcsvzQ1egOqbZdaVpmWea0mCXezvbgu8f3KPf6WKaDTc5qm_o8InPnnLfTJCh5e83oD5c-GwpMJw3RvzZXtjGtGcs_HtHpuayILZYU8T6ylQEoridvIF7t-DiYznLK7VPvd_L2amOjLGIcGh2LF9foTWpeKEpAA8oWvTInpcdVqXWsTKZdwiltetbNxQh3pdAlRvblm00]--></g></svg>