<svg xmlns="http://www.w3.org/2000/svg" xmlns:xlink="http://www.w3.org/1999/xlink" contentStyleType="text/css" data-diagram-type="SEQUENCE" height="452px" preserveAspectRatio="none" style="width:841px;height:452px;background:#FFFFFF;" version="1.1" viewBox="0 0 841 452" width="841px" zoomAndPan="magnify"><title>Sequence - Xin API/SDK T&#237;ch &#273;i&#7875;m &#273;&#7893;i qu&#224;</title><defs/><g><text fill="#000000" font-family="sans-serif" font-size="14" font-weight="bold" lengthAdjust="spacing" textLength="331.6729" x="256.5977" y="27.9951">Sequence - Xin API/SDK T&#237;ch &#273;i&#7875;m &#273;&#7893;i qu&#224;</text><g><title>Developer</title><rect fill="#000000" fill-opacity="0.00000" height="253.0625" width="8" x="40.0015" y="118.5938"/><line style="stroke:#181818;stroke-width:0.5;stroke-dasharray:5,5;" x1="44" x2="44" y1="118.5938" y2="371.6563"/></g><g><title>UI</title><rect fill="#000000" fill-opacity="0.00000" height="253.0625" width="8" x="196.1533" y="118.5938"/><line style="stroke:#181818;stroke-width:0.5;stroke-dasharray:5,5;" x1="199.9653" x2="199.9653" y1="118.5938" y2="371.6563"/></g><g><title>Rewards Service</title><rect fill="#000000" fill-opacity="0.00000" height="253.0625" width="8" x="509.0479" y="118.5938"/><line style="stroke:#181818;stroke-width:0.5;stroke-dasharray:5,5;" x1="512.7988" x2="512.7988" y1="118.5938" y2="371.6563"/></g><g><title>Key Store</title><rect fill="#000000" fill-opacity="0.00000" height="253.0625" width="8" x="717.4346" y="118.5938"/><line style="stroke:#181818;stroke-width:0.5;stroke-dasharray:5,5;" x1="720.5146" x2="720.5146" y1="118.5938" y2="371.6563"/></g><g><title>Game DB</title><rect fill="#000000" fill-opacity="0.00000" height="253.0625" width="8" x="800.6113" y="118.5938"/><line style="stroke:#181818;stroke-width:0.5;stroke-dasharray:5,5;" x1="804.3545" x2="804.3545" y1="118.5938" y2="371.6563"/></g><g class="participant participant-head" data-participant="Dev"><text fill="#000000" font-family="sans-serif" font-size="14" lengthAdjust="spacing" textLength="72.0029" x="5" y="115.292">Developer</text><ellipse cx="44.0015" cy="50.7969" fill="#E2E2F0" rx="8" ry="8" style="stroke:#181818;stroke-width:0.5;"/><path d="M44.0015,58.7969 L44.0015,85.7969 M31.0015,66.7969 L57.0015,66.7969 M44.0015,85.7969 L31.0015,100.7969 M44.0015,85.7969 L57.0015,100.7969" fill="none" style="stroke:#181818;stroke-width:0.5;"/></g><g class="participant participant-tail" data-participant="Dev"><text fill="#000000" font-family="sans-serif" font-size="14" lengthAdjust="spacing" textLength="72.0029" x="5" y="383.6514">Developer</text><ellipse cx="44.0015" cy="395.4531" fill="#E2E2F0" rx="8" ry="8" style="stroke:#181818;stroke-width:0.5;"/><path d="M44.0015,403.4531 L44.0015,430.4531 M31.0015,411.4531 L57.0015,411.4531 M44.0015,430.4531 L31.0015,445.4531 M44.0015,430.4531 L57.0015,445.4531" fill="none" style="stroke:#181818;stroke-width:0.5;"/></g><g class="participant participant-head" data-participant="UI"><rect fill="#E2E2F0" height="30.2969" rx="2.5" ry="2.5" style="stroke:#181818;stroke-width:0.5;" width="28.376" x="185.9653" y="87.2969"/><text fill="#000000" font-family="sans-serif" font-size="14" lengthAdjust="spacing" textLength="14.376" x="192.9653" y="107.292">UI</text></g><g class="participant participant-tail" data-participant="UI"><rect fill="#E2E2F0" height="30.2969" rx="2.5" ry="2.5" style="stroke:#181818;stroke-width:0.5;" width="28.376" x="185.9653" y="370.6563"/><text fill="#000000" font-family="sans-serif" font-size="14" lengthAdjust="spacing" textLength="14.376" x="192.9653" y="390.6514">UI</text></g><g class="participant participant-head" data-participant="RS"><rect fill="#E2E2F0" height="30.2969" rx="2.5" ry="2.5" style="stroke:#181818;stroke-width:0.5;" width="130.498" x="447.7988" y="87.2969"/><text fill="#000000" font-family="sans-serif" font-size="14" lengthAdjust="spacing" textLength="116.498" x="454.7988" y="107.292">Rewards Service</text></g><g class="participant participant-tail" data-participant="RS"><rect fill="#E2E2F0" height="30.2969" rx="2.5" ry="2.5" style="stroke:#181818;stroke-width:0.5;" width="130.498" x="447.7988" y="370.6563"/><text fill="#000000" font-family="sans-serif" font-size="14" lengthAdjust="spacing" textLength="116.498" x="454.7988" y="390.6514">Rewards Service</text></g><g class="participant participant-head" data-participant="KDB"><text fill="#000000" font-family="sans-serif" font-size="14" lengthAdjust="spacing" textLength="67.8398" x="684.5146" y="115.292">Key Store</text><path d="M703.4346,66.2969 C703.4346,56.2969 721.4346,56.2969 721.4346,56.2969 C721.4346,56.2969 739.4346,56.2969 739.4346,66.2969 L739.4346,92.2969 C739.4346,102.2969 721.4346,102.2969 721.4346,102.2969 C721.4346,102.2969 703.4346,102.2969 703.4346,92.2969 L703.4346,66.2969" fill="#E2E2F0" style="stroke:#181818;stroke-width:0.5;"/><path d="M703.4346,66.2969 C703.4346,76.2969 721.4346,76.2969 721.4346,76.2969 C721.4346,76.2969 739.4346,76.2969 739.4346,66.2969" fill="none" style="stroke:#181818;stroke-width:0.5;"/></g><g class="participant participant-tail" data-participant="KDB"><text fill="#000000" font-family="sans-serif" font-size="14" lengthAdjust="spacing" textLength="67.8398" x="684.5146" y="383.6514">Key Store</text><path d="M703.4346,396.9531 C703.4346,386.9531 721.4346,386.9531 721.4346,386.9531 C721.4346,386.9531 739.4346,386.9531 739.4346,396.9531 L739.4346,422.9531 C739.4346,432.9531 721.4346,432.9531 721.4346,432.9531 C721.4346,432.9531 703.4346,432.9531 703.4346,422.9531 L703.4346,396.9531" fill="#E2E2F0" style="stroke:#181818;stroke-width:0.5;"/><path d="M703.4346,396.9531 C703.4346,406.9531 721.4346,406.9531 721.4346,406.9531 C721.4346,406.9531 739.4346,406.9531 739.4346,396.9531" fill="none" style="stroke:#181818;stroke-width:0.5;"/></g><g class="participant participant-head" data-participant="GDB"><text fill="#000000" font-family="sans-serif" font-size="14" lengthAdjust="spacing" textLength="66.5137" x="768.3545" y="115.292">Game DB</text><path d="M786.6113,66.2969 C786.6113,56.2969 804.6113,56.2969 804.6113,56.2969 C804.6113,56.2969 822.6113,56.2969 822.6113,66.2969 L822.6113,92.2969 C822.6113,102.2969 804.6113,102.2969 804.6113,102.2969 C804.6113,102.2969 786.6113,102.2969 786.6113,92.2969 L786.6113,66.2969" fill="#E2E2F0" style="stroke:#181818;stroke-width:0.5;"/><path d="M786.6113,66.2969 C786.6113,76.2969 804.6113,76.2969 804.6113,76.2969 C804.6113,76.2969 822.6113,76.2969 822.6113,66.2969" fill="none" style="stroke:#181818;stroke-width:0.5;"/></g><g class="participant participant-tail" data-participant="GDB"><text fill="#000000" font-family="sans-serif" font-size="14" lengthAdjust="spacing" textLength="66.5137" x="768.3545" y="383.6514">Game DB</text><path d="M786.6113,396.9531 C786.6113,386.9531 804.6113,386.9531 804.6113,386.9531 C804.6113,386.9531 822.6113,386.9531 822.6113,396.9531 L822.6113,422.9531 C822.6113,432.9531 804.6113,432.9531 804.6113,432.9531 C804.6113,432.9531 786.6113,432.9531 786.6113,422.9531 L786.6113,396.9531" fill="#E2E2F0" style="stroke:#181818;stroke-width:0.5;"/><path d="M786.6113,396.9531 C786.6113,406.9531 804.6113,406.9531 804.6113,406.9531 C804.6113,406.9531 822.6113,406.9531 822.6113,396.9531" fill="none" style="stroke:#181818;stroke-width:0.5;"/></g><g class="message" data-participant-1="Dev" data-participant-2="UI"><polygon fill="#181818" points="188.1533,145.7266,198.1533,149.7266,188.1533,153.7266,192.1533,149.7266" style="stroke:#181818;stroke-width:1;"/><line style="stroke:#181818;stroke-width:1;" x1="44.0015" x2="194.1533" y1="149.7266" y2="149.7266"/><text fill="#000000" font-family="sans-serif" font-size="13" lengthAdjust="spacing" textLength="132.1519" x="51.0015" y="144.6606">M&#7903; module Rewards</text></g><g class="message" data-participant-1="UI" data-participant-2="RS"><polygon fill="#181818" points="501.0479,174.8594,511.0479,178.8594,501.0479,182.8594,505.0479,178.8594" style="stroke:#181818;stroke-width:1;"/><line style="stroke:#181818;stroke-width:1;" x1="200.1533" x2="507.0479" y1="178.8594" y2="178.8594"/><text fill="#000000" font-family="sans-serif" font-size="13" lengthAdjust="spacing" textLength="266.6587" x="207.1533" y="173.7935">POST /rewards/register {gameId, rules?}</text></g><g class="message" data-participant-1="RS" data-participant-2="GDB"><polygon fill="#181818" points="792.6113,203.9922,802.6113,207.9922,792.6113,211.9922,796.6113,207.9922" style="stroke:#181818;stroke-width:1;"/><line style="stroke:#181818;stroke-width:1;" x1="513.0479" x2="798.6113" y1="207.9922" y2="207.9922"/><text fill="#000000" font-family="sans-serif" font-size="13" lengthAdjust="spacing" textLength="156.4697" x="520.0479" y="202.9263">Check ch&#7911; s&#7903; h&#7919;u game</text></g><g class="message" data-participant-1="GDB" data-participant-2="RS"><polygon fill="#181818" points="524.0479,233.125,514.0479,237.125,524.0479,241.125,520.0479,237.125" style="stroke:#181818;stroke-width:1;"/><line style="stroke:#181818;stroke-width:1;stroke-dasharray:2,2;" x1="518.0479" x2="803.6113" y1="237.125" y2="237.125"/><text fill="#000000" font-family="sans-serif" font-size="13" lengthAdjust="spacing" textLength="18.7573" x="530.0479" y="232.0591">OK</text></g><g class="message" data-participant-1="RS" data-participant-2="KDB"><polygon fill="#181818" points="709.4346,262.2578,719.4346,266.2578,709.4346,270.2578,713.4346,266.2578" style="stroke:#181818;stroke-width:1;"/><line style="stroke:#181818;stroke-width:1;" x1="513.0479" x2="715.4346" y1="266.2578" y2="266.2578"/><text fill="#000000" font-family="sans-serif" font-size="13" lengthAdjust="spacing" textLength="184.3867" x="520.0479" y="261.1919">createKey(scope='rewards')</text></g><g class="message" data-participant-1="KDB" data-participant-2="RS"><polygon fill="#181818" points="524.0479,291.3906,514.0479,295.3906,524.0479,299.3906,520.0479,295.3906" style="stroke:#181818;stroke-width:1;"/><line style="stroke:#181818;stroke-width:1;stroke-dasharray:2,2;" x1="518.0479" x2="720.4346" y1="295.3906" y2="295.3906"/><text fill="#000000" font-family="sans-serif" font-size="13" lengthAdjust="spacing" textLength="44.0464" x="530.0479" y="290.3247">apiKey</text></g><g class="message" data-participant-1="RS" data-participant-2="UI"><polygon fill="#181818" points="211.1533,320.5234,201.1533,324.5234,211.1533,328.5234,207.1533,324.5234" style="stroke:#181818;stroke-width:1;"/><line style="stroke:#181818;stroke-width:1;stroke-dasharray:2,2;" x1="205.1533" x2="512.0479" y1="324.5234" y2="324.5234"/><text fill="#000000" font-family="sans-serif" font-size="13" lengthAdjust="spacing" textLength="288.8945" x="217.1533" y="319.4575">{apiKey, sdkLinks(Android/iOS/Unity), docs}</text></g><g class="message" data-participant-1="UI" data-participant-2="Dev"><polygon fill="#181818" points="55.0015,349.6563,45.0015,353.6563,55.0015,357.6563,51.0015,353.6563" style="stroke:#181818;stroke-width:1;"/><line style="stroke:#181818;stroke-width:1;stroke-dasharray:2,2;" x1="49.0015" x2="199.1533" y1="353.6563" y2="353.6563"/><text fill="#000000" font-family="sans-serif" font-size="13" lengthAdjust="spacing" textLength="117.0381" x="61.0015" y="348.5903">T&#7843;i SDK + l&#432;u key</text></g><!--SRC=[LL6nJiCm5Dpz5KzTsefMsIC1eaIgee1QnOt4QfodragRfBPJL5MT-086Pf0Oc13CP2pYF_8dlAGPocJxxjsTpxRABX4uhWjC9S8GxbGALrFVuLu0iyE7NC3FawhAnnMjLVciO5qSNfcGDjFGyN23oon7tG5XW4ui5zeggNAHMkX4VeD7_dyun0UXOqEfUgCaDZCXPx6mubuOX4w0M-0KSAG2RtJ2ZSKAmHirp9WOHgamlA0G5swhyWLMMLnGfJQ4HNxDXjo5wOJFmD57dDQvCXOrxERawCS3q2GpbtiMybf1tYvSBr0c81TL-GwcDgVTPm6rWj4035lhIT2gWbebDGgBLA9d93tEURVDxFPPS28IkQAPHjZUVtU41c3Yv4QbYUbTfR7ELEoe2NUYLDbjVm1n9is-wKKoQk_2hFf-Kr3_s1aiVxyAI73x1m00]--></g></svg>