<svg xmlns="http://www.w3.org/2000/svg" xmlns:xlink="http://www.w3.org/1999/xlink" contentStyleType="text/css" data-diagram-type="SEQUENCE" height="568px" preserveAspectRatio="none" style="width:912px;height:568px;background:#FFFFFF;" version="1.1" viewBox="0 0 912 568" width="912px" zoomAndPan="magnify"><title>Sequence - &#272;&#259;ng k&#253; game m&#7899;i &amp; Upload</title><defs/><g><text fill="#000000" font-family="sans-serif" font-size="14" font-weight="bold" lengthAdjust="spacing" textLength="316.3945" x="296.9778" y="27.9951">Sequence - &#272;&#259;ng k&#253; game m&#7899;i &amp; Upload</text><g><title>Developer</title><rect fill="#000000" fill-opacity="0.00000" height="369.5938" width="8" x="40.0015" y="118.5938"/><line style="stroke:#181818;stroke-width:0.5;stroke-dasharray:5,5;" x1="44" x2="44" y1="118.5938" y2="488.1875"/></g><g><title>UI</title><rect fill="#000000" fill-opacity="0.00000" height="369.5938" width="8" x="296.3384" y="118.5938"/><line style="stroke:#181818;stroke-width:0.5;stroke-dasharray:5,5;" x1="300.1504" x2="300.1504" y1="118.5938" y2="488.1875"/></g><g><title>Game Service</title><rect fill="#000000" fill-opacity="0.00000" height="369.5938" width="8" x="544.8613" y="118.5938"/><line style="stroke:#181818;stroke-width:0.5;stroke-dasharray:5,5;" x1="547.9263" x2="547.9263" y1="118.5938" y2="488.1875"/></g><g><title>Game DB</title><rect fill="#000000" fill-opacity="0.00000" height="369.5938" width="8" x="758.4214" y="118.5938"/><line style="stroke:#181818;stroke-width:0.5;stroke-dasharray:5,5;" x1="762.1646" x2="762.1646" y1="118.5938" y2="488.1875"/></g><g><title>File Storage</title><rect fill="#000000" fill-opacity="0.00000" height="369.5938" width="8" x="853.5142" y="118.5938"/><line style="stroke:#181818;stroke-width:0.5;stroke-dasharray:5,5;" x1="856.6782" x2="856.6782" y1="118.5938" y2="488.1875"/></g><g class="participant participant-head" data-participant="Dev"><text fill="#000000" font-family="sans-serif" font-size="14" lengthAdjust="spacing" textLength="72.0029" x="5" y="115.292">Developer</text><ellipse cx="44.0015" cy="50.7969" fill="#E2E2F0" rx="8" ry="8" style="stroke:#181818;stroke-width:0.5;"/><path d="M44.0015,58.7969 L44.0015,85.7969 M31.0015,66.7969 L57.0015,66.7969 M44.0015,85.7969 L31.0015,100.7969 M44.0015,85.7969 L57.0015,100.7969" fill="none" style="stroke:#181818;stroke-width:0.5;"/></g><g class="participant participant-tail" data-participant="Dev"><text fill="#000000" font-family="sans-serif" font-size="14" lengthAdjust="spacing" textLength="72.0029" x="5" y="500.1826">Developer</text><ellipse cx="44.0015" cy="511.9844" fill="#E2E2F0" rx="8" ry="8" style="stroke:#181818;stroke-width:0.5;"/><path d="M44.0015,519.9844 L44.0015,546.9844 M31.0015,527.9844 L57.0015,527.9844 M44.0015,546.9844 L31.0015,561.9844 M44.0015,546.9844 L57.0015,561.9844" fill="none" style="stroke:#181818;stroke-width:0.5;"/></g><g class="participant participant-head" data-participant="UI"><rect fill="#E2E2F0" height="30.2969" rx="2.5" ry="2.5" style="stroke:#181818;stroke-width:0.5;" width="28.376" x="286.1504" y="87.2969"/><text fill="#000000" font-family="sans-serif" font-size="14" lengthAdjust="spacing" textLength="14.376" x="293.1504" y="107.292">UI</text></g><g class="participant participant-tail" data-participant="UI"><rect fill="#E2E2F0" height="30.2969" rx="2.5" ry="2.5" style="stroke:#181818;stroke-width:0.5;" width="28.376" x="286.1504" y="487.1875"/><text fill="#000000" font-family="sans-serif" font-size="14" lengthAdjust="spacing" textLength="14.376" x="293.1504" y="507.1826">UI</text></g><g class="participant participant-head" data-participant="GS"><rect fill="#E2E2F0" height="30.2969" rx="2.5" ry="2.5" style="stroke:#181818;stroke-width:0.5;" width="111.8701" x="492.9263" y="87.2969"/><text fill="#000000" font-family="sans-serif" font-size="14" lengthAdjust="spacing" textLength="97.8701" x="499.9263" y="107.292">Game Service</text></g><g class="participant participant-tail" data-participant="GS"><rect fill="#E2E2F0" height="30.2969" rx="2.5" ry="2.5" style="stroke:#181818;stroke-width:0.5;" width="111.8701" x="492.9263" y="487.1875"/><text fill="#000000" font-family="sans-serif" font-size="14" lengthAdjust="spacing" textLength="97.8701" x="499.9263" y="507.1826">Game Service</text></g><g class="participant participant-head" data-participant="GDB"><text fill="#000000" font-family="sans-serif" font-size="14" lengthAdjust="spacing" textLength="66.5137" x="726.1646" y="115.292">Game DB</text><path d="M744.4214,66.2969 C744.4214,56.2969 762.4214,56.2969 762.4214,56.2969 C762.4214,56.2969 780.4214,56.2969 780.4214,66.2969 L780.4214,92.2969 C780.4214,102.2969 762.4214,102.2969 762.4214,102.2969 C762.4214,102.2969 744.4214,102.2969 744.4214,92.2969 L744.4214,66.2969" fill="#E2E2F0" style="stroke:#181818;stroke-width:0.5;"/><path d="M744.4214,66.2969 C744.4214,76.2969 762.4214,76.2969 762.4214,76.2969 C762.4214,76.2969 780.4214,76.2969 780.4214,66.2969" fill="none" style="stroke:#181818;stroke-width:0.5;"/></g><g class="participant participant-tail" data-participant="GDB"><text fill="#000000" font-family="sans-serif" font-size="14" lengthAdjust="spacing" textLength="66.5137" x="726.1646" y="500.1826">Game DB</text><path d="M744.4214,513.4844 C744.4214,503.4844 762.4214,503.4844 762.4214,503.4844 C762.4214,503.4844 780.4214,503.4844 780.4214,513.4844 L780.4214,539.4844 C780.4214,549.4844 762.4214,549.4844 762.4214,549.4844 C762.4214,549.4844 744.4214,549.4844 744.4214,539.4844 L744.4214,513.4844" fill="#E2E2F0" style="stroke:#181818;stroke-width:0.5;"/><path d="M744.4214,513.4844 C744.4214,523.4844 762.4214,523.4844 762.4214,523.4844 C762.4214,523.4844 780.4214,523.4844 780.4214,513.4844" fill="none" style="stroke:#181818;stroke-width:0.5;"/></g><g class="participant participant-head" data-participant="FS"><rect fill="#E2E2F0" height="30.2969" rx="2.5" ry="2.5" style="stroke:#181818;stroke-width:0.5;" width="97.6719" x="808.6782" y="87.2969"/><text fill="#000000" font-family="sans-serif" font-size="14" lengthAdjust="spacing" textLength="83.6719" x="815.6782" y="107.292">File Storage</text></g><g class="participant participant-tail" data-participant="FS"><rect fill="#E2E2F0" height="30.2969" rx="2.5" ry="2.5" style="stroke:#181818;stroke-width:0.5;" width="97.6719" x="808.6782" y="487.1875"/><text fill="#000000" font-family="sans-serif" font-size="14" lengthAdjust="spacing" textLength="83.6719" x="815.6782" y="507.1826">File Storage</text></g><g class="message" data-participant-1="Dev" data-participant-2="UI"><polygon fill="#181818" points="288.3384,145.7266,298.3384,149.7266,288.3384,153.7266,292.3384,149.7266" style="stroke:#181818;stroke-width:1;"/><line style="stroke:#181818;stroke-width:1;" x1="44.0015" x2="294.3384" y1="149.7266" y2="149.7266"/><text fill="#000000" font-family="sans-serif" font-size="13" lengthAdjust="spacing" textLength="232.3369" x="51.0015" y="144.6606">&#272;i&#7873;n metadata (title, desc, price,...)</text></g><g class="message" data-participant-1="UI" data-participant-2="GS"><polygon fill="#181818" points="536.8613,174.8594,546.8613,178.8594,536.8613,182.8594,540.8613,178.8594" style="stroke:#181818;stroke-width:1;"/><line style="stroke:#181818;stroke-width:1;" x1="300.3384" x2="542.8613" y1="178.8594" y2="178.8594"/><text fill="#000000" font-family="sans-serif" font-size="13" lengthAdjust="spacing" textLength="140.8291" x="307.3384" y="173.7935">POST /games {meta}</text></g><g class="message" data-participant-1="GS" data-participant-2="GDB"><polygon fill="#181818" points="750.4214,203.9922,760.4214,207.9922,750.4214,211.9922,754.4214,207.9922" style="stroke:#181818;stroke-width:1;"/><line style="stroke:#181818;stroke-width:1;" x1="548.8613" x2="756.4214" y1="207.9922" y2="207.9922"/><text fill="#000000" font-family="sans-serif" font-size="13" lengthAdjust="spacing" textLength="189.5601" x="555.8613" y="202.9263">insert game(status='DRAFT')</text></g><g class="message" data-participant-1="GDB" data-participant-2="GS"><polygon fill="#181818" points="559.8613,233.125,549.8613,237.125,559.8613,241.125,555.8613,237.125" style="stroke:#181818;stroke-width:1;"/><line style="stroke:#181818;stroke-width:1;stroke-dasharray:2,2;" x1="553.8613" x2="761.4214" y1="237.125" y2="237.125"/><text fill="#000000" font-family="sans-serif" font-size="13" lengthAdjust="spacing" textLength="48.9658" x="565.8613" y="232.0591">gameId</text></g><g class="message" data-participant-1="GS" data-participant-2="UI"><polygon fill="#181818" points="311.3384,262.2578,301.3384,266.2578,311.3384,270.2578,307.3384,266.2578" style="stroke:#181818;stroke-width:1;"/><line style="stroke:#181818;stroke-width:1;stroke-dasharray:2,2;" x1="305.3384" x2="547.8613" y1="266.2578" y2="266.2578"/><text fill="#000000" font-family="sans-serif" font-size="13" lengthAdjust="spacing" textLength="48.9658" x="317.3384" y="261.1919">gameId</text></g><g class="message" data-participant-1="Dev" data-participant-2="UI"><polygon fill="#181818" points="288.3384,291.3906,298.3384,295.3906,288.3384,299.3906,292.3384,295.3906" style="stroke:#181818;stroke-width:1;"/><line style="stroke:#181818;stroke-width:1;" x1="44.0015" x2="294.3384" y1="295.3906" y2="295.3906"/><text fill="#000000" font-family="sans-serif" font-size="13" lengthAdjust="spacing" textLength="81.6499" x="51.0015" y="290.3247">Upload build</text></g><g class="message" data-participant-1="UI" data-participant-2="FS"><polygon fill="#181818" points="845.5142,320.5234,855.5142,324.5234,845.5142,328.5234,849.5142,324.5234" style="stroke:#181818;stroke-width:1;"/><line style="stroke:#181818;stroke-width:1;" x1="300.3384" x2="851.5142" y1="324.5234" y2="324.5234"/><text fill="#000000" font-family="sans-serif" font-size="13" lengthAdjust="spacing" textLength="235.187" x="307.3384" y="319.4575">PUT /storage/games/{gameId} (file)</text></g><g class="message" data-participant-1="FS" data-participant-2="UI"><polygon fill="#181818" points="311.3384,349.6563,301.3384,353.6563,311.3384,357.6563,307.3384,353.6563" style="stroke:#181818;stroke-width:1;"/><line style="stroke:#181818;stroke-width:1;stroke-dasharray:2,2;" x1="305.3384" x2="856.5142" y1="353.6563" y2="353.6563"/><text fill="#000000" font-family="sans-serif" font-size="13" lengthAdjust="spacing" textLength="38.27" x="317.3384" y="348.5903">fileUrl</text></g><g class="message" data-participant-1="UI" data-participant-2="GS"><polygon fill="#181818" points="536.8613,378.7891,546.8613,382.7891,536.8613,386.7891,540.8613,382.7891" style="stroke:#181818;stroke-width:1;"/><line style="stroke:#181818;stroke-width:1;" x1="300.3384" x2="542.8613" y1="382.7891" y2="382.7891"/><text fill="#000000" font-family="sans-serif" font-size="13" lengthAdjust="spacing" textLength="224.5229" x="307.3384" y="377.7231">PATCH /games/{gameId} {fileUrl}</text></g><g class="message" data-participant-1="GS" data-participant-2="GDB"><polygon fill="#181818" points="750.4214,407.9219,760.4214,411.9219,750.4214,415.9219,754.4214,411.9219" style="stroke:#181818;stroke-width:1;"/><line style="stroke:#181818;stroke-width:1;" x1="548.8613" x2="756.4214" y1="411.9219" y2="411.9219"/><text fill="#000000" font-family="sans-serif" font-size="13" lengthAdjust="spacing" textLength="93.4312" x="555.8613" y="406.856">update file_url</text></g><g class="message" data-participant-1="GS" data-participant-2="UI"><polygon fill="#181818" points="311.3384,437.0547,301.3384,441.0547,311.3384,445.0547,307.3384,441.0547" style="stroke:#181818;stroke-width:1;"/><line style="stroke:#181818;stroke-width:1;stroke-dasharray:2,2;" x1="305.3384" x2="547.8613" y1="441.0547" y2="441.0547"/><text fill="#000000" font-family="sans-serif" font-size="13" lengthAdjust="spacing" textLength="47.7026" x="317.3384" y="435.9888">200 OK</text></g><g class="message" data-participant-1="UI" data-participant-2="Dev"><polygon fill="#181818" points="55.0015,466.1875,45.0015,470.1875,55.0015,474.1875,51.0015,470.1875" style="stroke:#181818;stroke-width:1;"/><line style="stroke:#181818;stroke-width:1;stroke-dasharray:2,2;" x1="49.0015" x2="299.3384" y1="470.1875" y2="470.1875"/><text fill="#000000" font-family="sans-serif" font-size="13" lengthAdjust="spacing" textLength="204.1978" x="61.0015" y="465.1216">Th&#244;ng b&#225;o th&#224;nh c&#244;ng (DRAFT)</text></g><!--SRC=[NL8zJiCm5DvzYgSED97w9yP88BL42H534Kvcv2QFrY9DWkrqgJeWBi3E0dTWgvZIY_Gcs4uaMaP_xtr_JrPSvGWKNseiKeGX7DuFRyKIdfiVMB8rmlgu_-1m0KcLbomZB5MbW9wF6ypB2aKFc0Jz8XKJYgUyOeM2NX9PF8dEuT08KXGRdg9T22d9c68B9h6R-hDsuC_EgG4tCRKtMxRKW1AYVM5uhMqy7PiVzwy5h54n8mcECiq6aA5C1r09RJaOZKOkIIB32Qa7ztCQmzYqbB0rn1q9gHtwCmzu8L4eUmH7AgPgUTNt7wP1t7U9Ne1Xfs8MeimokomTSfAkFHuiQfvdNO3014YqlsnBjJd6svQy0-T9DtP9y2ThW4JafmMcySqj_6TkkyMpDdMbhu9Mux7M8YTnBoSJcDzPMOter1x4g-PRVu95yrM2MZMVnGfIYpZs0kul]--></g></svg>