<svg xmlns="http://www.w3.org/2000/svg" xmlns:xlink="http://www.w3.org/1999/xlink" contentStyleType="text/css" data-diagram-type="SEQUENCE" height="577px" preserveAspectRatio="none" style="width:785px;height:577px;background:#FFFFFF;" version="1.1" viewBox="0 0 785 577" width="785px" zoomAndPan="magnify"><defs/><g><rect fill="none" height="206.7344" style="stroke:#000000;stroke-width:1.5;" width="768.7749" x="10" y="273.0938"/><g><title>Guest</title><rect fill="#000000" fill-opacity="0.00000" height="415.5313" width="8" x="39.5591" y="81.2969"/><line style="stroke:#181818;stroke-width:0.5;stroke-dasharray:5,5;" x1="43" x2="43" y1="81.2969" y2="496.8281"/></g><g><title>UI</title><rect fill="#000000" fill-opacity="0.00000" height="415.5313" width="8" x="290.4624" y="81.2969"/><line style="stroke:#181818;stroke-width:0.5;stroke-dasharray:5,5;" x1="294.2744" x2="294.2744" y1="81.2969" y2="496.8281"/></g><g><title>Server</title><rect fill="#000000" fill-opacity="0.00000" height="415.5313" width="8" x="451.7305" y="81.2969"/><line style="stroke:#181818;stroke-width:0.5;stroke-dasharray:5,5;" x1="454.7754" x2="454.7754" y1="81.2969" y2="496.8281"/></g><g><title>Database</title><rect fill="#000000" fill-opacity="0.00000" height="415.5313" width="8" x="724.3745" y="81.2969"/><line style="stroke:#181818;stroke-width:0.5;stroke-dasharray:5,5;" x1="727.9741" x2="727.9741" y1="81.2969" y2="496.8281"/></g><g class="participant participant-head" data-participant="Guest"><text fill="#000000" font-family="sans-serif" font-size="14" lengthAdjust="spacing" textLength="41.1182" x="20" y="77.9951">Guest</text><ellipse cx="43.5591" cy="13.5" fill="#E2E2F0" rx="8" ry="8" style="stroke:#181818;stroke-width:0.5;"/><path d="M43.5591,21.5 L43.5591,48.5 M30.5591,29.5 L56.5591,29.5 M43.5591,48.5 L30.5591,63.5 M43.5591,48.5 L56.5591,63.5" fill="none" style="stroke:#181818;stroke-width:0.5;"/></g><g class="participant participant-tail" data-participant="Guest"><text fill="#000000" font-family="sans-serif" font-size="14" lengthAdjust="spacing" textLength="41.1182" x="20" y="508.8232">Guest</text><ellipse cx="43.5591" cy="520.625" fill="#E2E2F0" rx="8" ry="8" style="stroke:#181818;stroke-width:0.5;"/><path d="M43.5591,528.625 L43.5591,555.625 M30.5591,536.625 L56.5591,536.625 M43.5591,555.625 L30.5591,570.625 M43.5591,555.625 L56.5591,570.625" fill="none" style="stroke:#181818;stroke-width:0.5;"/></g><g class="participant participant-head" data-participant="UI"><rect fill="#E2E2F0" height="30.2969" rx="2.5" ry="2.5" style="stroke:#181818;stroke-width:0.5;" width="28.376" x="280.2744" y="50"/><text fill="#000000" font-family="sans-serif" font-size="14" lengthAdjust="spacing" textLength="14.376" x="287.2744" y="69.9951">UI</text></g><g class="participant participant-tail" data-participant="UI"><rect fill="#E2E2F0" height="30.2969" rx="2.5" ry="2.5" style="stroke:#181818;stroke-width:0.5;" width="28.376" x="280.2744" y="495.8281"/><text fill="#000000" font-family="sans-serif" font-size="14" lengthAdjust="spacing" textLength="14.376" x="287.2744" y="515.8232">UI</text></g><g class="participant participant-head" data-participant="S"><rect fill="#E2E2F0" height="30.2969" rx="2.5" ry="2.5" style="stroke:#181818;stroke-width:0.5;" width="59.9102" x="425.7754" y="50"/><text fill="#000000" font-family="sans-serif" font-size="14" lengthAdjust="spacing" textLength="45.9102" x="432.7754" y="69.9951">Server</text></g><g class="participant participant-tail" data-participant="S"><rect fill="#E2E2F0" height="30.2969" rx="2.5" ry="2.5" style="stroke:#181818;stroke-width:0.5;" width="59.9102" x="425.7754" y="495.8281"/><text fill="#000000" font-family="sans-serif" font-size="14" lengthAdjust="spacing" textLength="45.9102" x="432.7754" y="515.8232">Server</text></g><g class="participant participant-head" data-participant="DB"><rect fill="#E2E2F0" height="30.2969" rx="2.5" ry="2.5" style="stroke:#181818;stroke-width:0.5;" width="80.8008" x="687.9741" y="50"/><text fill="#000000" font-family="sans-serif" font-size="14" lengthAdjust="spacing" textLength="66.8008" x="694.9741" y="69.9951">Database</text></g><g class="participant participant-tail" data-participant="DB"><rect fill="#E2E2F0" height="30.2969" rx="2.5" ry="2.5" style="stroke:#181818;stroke-width:0.5;" width="80.8008" x="687.9741" y="495.8281"/><text fill="#000000" font-family="sans-serif" font-size="14" lengthAdjust="spacing" textLength="66.8008" x="694.9741" y="515.8232">Database</text></g><g class="message" data-participant-1="Guest" data-participant-2="UI"><polygon fill="#181818" points="282.4624,108.4297,292.4624,112.4297,282.4624,116.4297,286.4624,112.4297" style="stroke:#181818;stroke-width:1;"/><line style="stroke:#181818;stroke-width:1;" x1="43.5591" x2="288.4624" y1="112.4297" y2="112.4297"/><text fill="#000000" font-family="sans-serif" font-size="13" lengthAdjust="spacing" textLength="226.9033" x="50.5591" y="107.3638">Ch&#7885;n x&#225;c th&#7921;c Developer/Designer</text></g><g class="message" data-participant-1="UI" data-participant-2="Guest"><polygon fill="#181818" points="54.5591,137.5625,44.5591,141.5625,54.5591,145.5625,50.5591,141.5625" style="stroke:#181818;stroke-width:1;"/><line style="stroke:#181818;stroke-width:1;" x1="48.5591" x2="293.4624" y1="141.5625" y2="141.5625"/><text fill="#000000" font-family="sans-serif" font-size="13" lengthAdjust="spacing" textLength="145.1709" x="60.5591" y="136.4966">Hi&#7875;n th&#7883; form x&#225;c th&#7921;c</text></g><g class="message" data-participant-1="Guest" data-participant-2="UI"><polygon fill="#181818" points="282.4624,166.6953,292.4624,170.6953,282.4624,174.6953,286.4624,170.6953" style="stroke:#181818;stroke-width:1;"/><line style="stroke:#181818;stroke-width:1;" x1="43.5591" x2="288.4624" y1="170.6953" y2="170.6953"/><text fill="#000000" font-family="sans-serif" font-size="13" lengthAdjust="spacing" textLength="156.9712" x="50.5591" y="165.6294">Nh&#7853;p th&#244;ng tin x&#225;c th&#7921;c</text></g><g class="message" data-participant-1="UI" data-participant-2="S"><polygon fill="#181818" points="443.7305,195.8281,453.7305,199.8281,443.7305,203.8281,447.7305,199.8281" style="stroke:#181818;stroke-width:1;"/><line style="stroke:#181818;stroke-width:1;" x1="294.4624" x2="449.7305" y1="199.8281" y2="199.8281"/><text fill="#000000" font-family="sans-serif" font-size="13" lengthAdjust="spacing" textLength="137.2681" x="301.4624" y="194.7622">G&#7917;i y&#234;u c&#7847;u x&#225;c th&#7921;c</text></g><g class="message" data-participant-1="S" data-participant-2="DB"><polygon fill="#181818" points="716.3745,224.9609,726.3745,228.9609,716.3745,232.9609,720.3745,228.9609" style="stroke:#181818;stroke-width:1;"/><line style="stroke:#181818;stroke-width:1;" x1="455.7305" x2="722.3745" y1="228.9609" y2="228.9609"/><text fill="#000000" font-family="sans-serif" font-size="13" lengthAdjust="spacing" textLength="103.5557" x="462.7305" y="223.895">Ki&#7875;m tra d&#7919; li&#7879;u</text></g><g class="message" data-participant-1="DB" data-participant-2="S"><polygon fill="#181818" points="466.7305,254.0938,456.7305,258.0938,466.7305,262.0938,462.7305,258.0938" style="stroke:#181818;stroke-width:1;"/><line style="stroke:#181818;stroke-width:1;stroke-dasharray:2,2;" x1="460.7305" x2="727.3745" y1="258.0938" y2="258.0938"/><text fill="#000000" font-family="sans-serif" font-size="13" lengthAdjust="spacing" textLength="108.6846" x="472.7305" y="253.0278">K&#7871;t qu&#7843; ki&#7875;m tra</text></g><path d="M10,273.0938 L74.4429,273.0938 L74.4429,280.2266 L64.4429,290.2266 L10,290.2266 L10,273.0938" fill="#EEEEEE" style="stroke:#000000;stroke-width:1.5;"/><rect fill="none" height="206.7344" style="stroke:#000000;stroke-width:1.5;" width="768.7749" x="10" y="273.0938"/><text fill="#000000" font-family="sans-serif" font-size="13" font-weight="bold" lengthAdjust="spacing" textLength="19.4429" x="25" y="286.1606">alt</text><text fill="#000000" font-family="sans-serif" font-size="11" font-weight="bold" lengthAdjust="spacing" textLength="111.4932" x="89.4429" y="285.3042">[Th&#244;ng tin h&#7907;p l&#7879;]</text><g class="message" data-participant-1="S" data-participant-2="DB"><polygon fill="#181818" points="716.3745,307.3594,726.3745,311.3594,716.3745,315.3594,720.3745,311.3594" style="stroke:#181818;stroke-width:1;"/><line style="stroke:#181818;stroke-width:1;" x1="455.7305" x2="722.3745" y1="311.3594" y2="311.3594"/><text fill="#000000" font-family="sans-serif" font-size="13" lengthAdjust="spacing" textLength="248.644" x="462.7305" y="306.2935">C&#7853;p nh&#7853;t vai tr&#242; (Developer/Designer)</text></g><g class="message" data-participant-1="DB" data-participant-2="S"><polygon fill="#181818" points="466.7305,336.4922,456.7305,340.4922,466.7305,344.4922,462.7305,340.4922" style="stroke:#181818;stroke-width:1;"/><line style="stroke:#181818;stroke-width:1;stroke-dasharray:2,2;" x1="460.7305" x2="727.3745" y1="340.4922" y2="340.4922"/><text fill="#000000" font-family="sans-serif" font-size="13" lengthAdjust="spacing" textLength="136.6079" x="472.7305" y="335.4263">C&#7853;p nh&#7853;t th&#224;nh c&#244;ng</text></g><g class="message" data-participant-1="S" data-participant-2="UI"><polygon fill="#181818" points="305.4624,365.625,295.4624,369.625,305.4624,373.625,301.4624,369.625" style="stroke:#181818;stroke-width:1;"/><line style="stroke:#181818;stroke-width:1;stroke-dasharray:2,2;" x1="299.4624" x2="454.7305" y1="369.625" y2="369.625"/><text fill="#000000" font-family="sans-serif" font-size="13" lengthAdjust="spacing" textLength="118.7139" x="311.4624" y="364.5591">Tr&#7843; v&#7873; th&#224;nh c&#244;ng</text></g><g class="message" data-participant-1="UI" data-participant-2="Guest"><polygon fill="#181818" points="54.5591,394.7578,44.5591,398.7578,54.5591,402.7578,50.5591,398.7578" style="stroke:#181818;stroke-width:1;"/><line style="stroke:#181818;stroke-width:1;stroke-dasharray:2,2;" x1="48.5591" x2="293.4624" y1="398.7578" y2="398.7578"/><text fill="#000000" font-family="sans-serif" font-size="13" lengthAdjust="spacing" textLength="206.3623" x="60.5591" y="393.6919">Th&#244;ng b&#225;o x&#225;c th&#7921;c th&#224;nh c&#244;ng</text></g><line style="stroke:#000000;stroke-width:1;stroke-dasharray:2,2;" x1="10" x2="778.7749" y1="407.7578" y2="407.7578"/><text fill="#000000" font-family="sans-serif" font-size="11" font-weight="bold" lengthAdjust="spacing" textLength="153.7314" x="15" y="417.9683">[Th&#244;ng tin kh&#244;ng h&#7907;p l&#7879;]</text><g class="message" data-participant-1="S" data-participant-2="UI"><polygon fill="#181818" points="305.4624,438.6953,295.4624,442.6953,305.4624,446.6953,301.4624,442.6953" style="stroke:#181818;stroke-width:1;"/><line style="stroke:#181818;stroke-width:1;stroke-dasharray:2,2;" x1="299.4624" x2="454.7305" y1="442.6953" y2="442.6953"/><text fill="#000000" font-family="sans-serif" font-size="13" lengthAdjust="spacing" textLength="88.2388" x="311.4624" y="437.6294">Th&#244;ng b&#225;o l&#7895;i</text></g><g class="message" data-participant-1="UI" data-participant-2="Guest"><polygon fill="#181818" points="54.5591,467.8281,44.5591,471.8281,54.5591,475.8281,50.5591,471.8281" style="stroke:#181818;stroke-width:1;"/><line style="stroke:#181818;stroke-width:1;stroke-dasharray:2,2;" x1="48.5591" x2="293.4624" y1="471.8281" y2="471.8281"/><text fill="#000000" font-family="sans-serif" font-size="13" lengthAdjust="spacing" textLength="140.2324" x="60.5591" y="466.7622">Hi&#7875;n th&#7883; th&#244;ng b&#225;o l&#7895;i</text></g><!--SRC=[RL6xJiCm5Dtz5KUTOAZOCp2qaKfLYINj1xYfQQscJd2S24R4m82OMQaw825L2CIK30pv4ly9Zfi-h939yNdUQnggM6AGiLIHX4h5GvvGeT2P33kWAIP3zpfWCcVIGe6B-5JHAKsPnVmU8TOKtKlZuQ6_qEMBm5sr3g7C-Ik4pt8MnGcJ5pvB-LmmIIR3cc-57gwuBX-5PJ_Z9fQhKxNhVhtGnJOnKFKZvb3S2MfS0my3NMuvxgkF3A4ktZE75TGal-TXLEUke2J5J9UVYCp_KqRy7hexcv4kVXLkCrrii3oG2OqKniS6ndMJ839Q0lCTxFksggWRA-IK6strZRFsDiwjxXZh2CseRsA1i8xR-pVB6CkwMAxBXpQhNiLnmqtRQRMEdPTnP2nAsUbSozsnFTu-_iJKmA_yds3dQLLBmCJi3m00]--></g></svg>