<svg xmlns="http://www.w3.org/2000/svg" xmlns:xlink="http://www.w3.org/1999/xlink" contentStyleType="text/css" data-diagram-type="SEQUENCE" height="356px" preserveAspectRatio="none" style="width:661px;height:356px;background:#FFFFFF;" version="1.1" viewBox="0 0 661 356" width="661px" zoomAndPan="magnify"><defs/><g><g><title>Guest</title><rect fill="#000000" fill-opacity="0.00000" height="194.7969" width="8" x="24.5591" y="81.2969"/><line style="stroke:#181818;stroke-width:0.5;stroke-dasharray:5,5;" x1="28" x2="28" y1="81.2969" y2="276.0938"/></g><g><title>UI</title><rect fill="#000000" fill-opacity="0.00000" height="194.7969" width="8" x="272.0854" y="81.2969"/><line style="stroke:#181818;stroke-width:0.5;stroke-dasharray:5,5;" x1="275.8975" x2="275.8975" y1="81.2969" y2="276.0938"/></g><g><title>Server</title><rect fill="#000000" fill-opacity="0.00000" height="194.7969" width="8" x="444.646" y="81.2969"/><line style="stroke:#181818;stroke-width:0.5;stroke-dasharray:5,5;" x1="447.6909" x2="447.6909" y1="81.2969" y2="276.0938"/></g><g><title>Database</title><rect fill="#000000" fill-opacity="0.00000" height="194.7969" width="8" x="610.6304" y="81.2969"/><line style="stroke:#181818;stroke-width:0.5;stroke-dasharray:5,5;" x1="614.23" x2="614.23" y1="81.2969" y2="276.0938"/></g><g class="participant participant-head" data-participant="Guest"><text fill="#000000" font-family="sans-serif" font-size="14" lengthAdjust="spacing" textLength="41.1182" x="5" y="77.9951">Guest</text><ellipse cx="28.5591" cy="13.5" fill="#E2E2F0" rx="8" ry="8" style="stroke:#181818;stroke-width:0.5;"/><path d="M28.5591,21.5 L28.5591,48.5 M15.5591,29.5 L41.5591,29.5 M28.5591,48.5 L15.5591,63.5 M28.5591,48.5 L41.5591,63.5" fill="none" style="stroke:#181818;stroke-width:0.5;"/></g><g class="participant participant-tail" data-participant="Guest"><text fill="#000000" font-family="sans-serif" font-size="14" lengthAdjust="spacing" textLength="41.1182" x="5" y="288.0889">Guest</text><ellipse cx="28.5591" cy="299.8906" fill="#E2E2F0" rx="8" ry="8" style="stroke:#181818;stroke-width:0.5;"/><path d="M28.5591,307.8906 L28.5591,334.8906 M15.5591,315.8906 L41.5591,315.8906 M28.5591,334.8906 L15.5591,349.8906 M28.5591,334.8906 L41.5591,349.8906" fill="none" style="stroke:#181818;stroke-width:0.5;"/></g><g class="participant participant-head" data-participant="UI"><rect fill="#E2E2F0" height="30.2969" rx="2.5" ry="2.5" style="stroke:#181818;stroke-width:0.5;" width="28.376" x="261.8975" y="50"/><text fill="#000000" font-family="sans-serif" font-size="14" lengthAdjust="spacing" textLength="14.376" x="268.8975" y="69.9951">UI</text></g><g class="participant participant-tail" data-participant="UI"><rect fill="#E2E2F0" height="30.2969" rx="2.5" ry="2.5" style="stroke:#181818;stroke-width:0.5;" width="28.376" x="261.8975" y="275.0938"/><text fill="#000000" font-family="sans-serif" font-size="14" lengthAdjust="spacing" textLength="14.376" x="268.8975" y="295.0889">UI</text></g><g class="participant participant-head" data-participant="S"><rect fill="#E2E2F0" height="30.2969" rx="2.5" ry="2.5" style="stroke:#181818;stroke-width:0.5;" width="59.9102" x="418.6909" y="50"/><text fill="#000000" font-family="sans-serif" font-size="14" lengthAdjust="spacing" textLength="45.9102" x="425.6909" y="69.9951">Server</text></g><g class="participant participant-tail" data-participant="S"><rect fill="#E2E2F0" height="30.2969" rx="2.5" ry="2.5" style="stroke:#181818;stroke-width:0.5;" width="59.9102" x="418.6909" y="275.0938"/><text fill="#000000" font-family="sans-serif" font-size="14" lengthAdjust="spacing" textLength="45.9102" x="425.6909" y="295.0889">Server</text></g><g class="participant participant-head" data-participant="DB"><rect fill="#E2E2F0" height="30.2969" rx="2.5" ry="2.5" style="stroke:#181818;stroke-width:0.5;" width="80.8008" x="574.23" y="50"/><text fill="#000000" font-family="sans-serif" font-size="14" lengthAdjust="spacing" textLength="66.8008" x="581.23" y="69.9951">Database</text></g><g class="participant participant-tail" data-participant="DB"><rect fill="#E2E2F0" height="30.2969" rx="2.5" ry="2.5" style="stroke:#181818;stroke-width:0.5;" width="80.8008" x="574.23" y="275.0938"/><text fill="#000000" font-family="sans-serif" font-size="14" lengthAdjust="spacing" textLength="66.8008" x="581.23" y="295.0889">Database</text></g><g class="message" data-participant-1="Guest" data-participant-2="UI"><polygon fill="#181818" points="264.0854,108.4297,274.0854,112.4297,264.0854,116.4297,268.0854,112.4297" style="stroke:#181818;stroke-width:1;"/><line style="stroke:#181818;stroke-width:1;" x1="28.5591" x2="270.0854" y1="112.4297" y2="112.4297"/><text fill="#000000" font-family="sans-serif" font-size="13" lengthAdjust="spacing" textLength="223.5264" x="35.5591" y="107.3638">Ch&#7885;n "Xem danh s&#225;ch mini game"</text></g><g class="message" data-participant-1="UI" data-participant-2="S"><polygon fill="#181818" points="436.646,137.5625,446.646,141.5625,436.646,145.5625,440.646,141.5625" style="stroke:#181818;stroke-width:1;"/><line style="stroke:#181818;stroke-width:1;" x1="276.0854" x2="442.646" y1="141.5625" y2="141.5625"/><text fill="#000000" font-family="sans-serif" font-size="13" lengthAdjust="spacing" textLength="148.5605" x="283.0854" y="136.4966">G&#7917;i y&#234;u c&#7847;u danh s&#225;ch</text></g><g class="message" data-participant-1="S" data-participant-2="DB"><polygon fill="#181818" points="602.6304,166.6953,612.6304,170.6953,602.6304,174.6953,606.6304,170.6953" style="stroke:#181818;stroke-width:1;"/><line style="stroke:#181818;stroke-width:1;" x1="448.646" x2="608.6304" y1="170.6953" y2="170.6953"/><text fill="#000000" font-family="sans-serif" font-size="13" lengthAdjust="spacing" textLength="130.5205" x="455.646" y="165.6294">Truy v&#7845;n mini game</text></g><g class="message" data-participant-1="DB" data-participant-2="S"><polygon fill="#181818" points="459.646,195.8281,449.646,199.8281,459.646,203.8281,455.646,199.8281" style="stroke:#181818;stroke-width:1;"/><line style="stroke:#181818;stroke-width:1;stroke-dasharray:2,2;" x1="453.646" x2="613.6304" y1="199.8281" y2="199.8281"/><text fill="#000000" font-family="sans-serif" font-size="13" lengthAdjust="spacing" textLength="141.9844" x="465.646" y="194.7622">Danh s&#225;ch mini game</text></g><g class="message" data-participant-1="S" data-participant-2="UI"><polygon fill="#181818" points="287.0854,224.9609,277.0854,228.9609,287.0854,232.9609,283.0854,228.9609" style="stroke:#181818;stroke-width:1;"/><line style="stroke:#181818;stroke-width:1;stroke-dasharray:2,2;" x1="281.0854" x2="447.646" y1="228.9609" y2="228.9609"/><text fill="#000000" font-family="sans-serif" font-size="13" lengthAdjust="spacing" textLength="112.1631" x="293.0854" y="223.895">Tr&#7843; v&#7873; danh s&#225;ch</text></g><g class="message" data-participant-1="UI" data-participant-2="Guest"><polygon fill="#181818" points="39.5591,254.0938,29.5591,258.0938,39.5591,262.0938,35.5591,258.0938" style="stroke:#181818;stroke-width:1;"/><line style="stroke:#181818;stroke-width:1;stroke-dasharray:2,2;" x1="33.5591" x2="275.0854" y1="258.0938" y2="258.0938"/><text fill="#000000" font-family="sans-serif" font-size="13" lengthAdjust="spacing" textLength="121.7925" x="45.5591" y="253.0278">Hi&#7875;n th&#7883; danh s&#225;ch</text></g><!--SRC=[ROv12e9068NtSug7Uo_WeeKDc6iJslxPaBDmad4KN4RBw10H4GHTG9UUP6wIMf12s_zzx_iV9UQW4PIYC2mdRMGYSr86JXmwe09nE3z7GbT2Zr4qJpWPsb8XnepxZ8rIk8lUuM6PslQYu6n4XXsf54LtJL9aKadiAHCEYyE1ZJm4jdr9rDspH6ARHpdXMJGmtFUmrcMDoZPtzNCmxiFzEFYV5qFvksQjRNFhw-rnAXyMzC2usyDAslQaOFhXvmdr1W00]--></g></svg>