<svg xmlns="http://www.w3.org/2000/svg" xmlns:xlink="http://www.w3.org/1999/xlink" contentStyleType="text/css" data-diagram-type="SEQUENCE" height="356px" preserveAspectRatio="none" style="width:631px;height:356px;background:#FFFFFF;" version="1.1" viewBox="0 0 631 356" width="631px" zoomAndPan="magnify"><defs/><g><g><title>Guest</title><rect fill="#000000" fill-opacity="0.00000" height="194.7969" width="8" x="24.5591" y="81.2969"/><line style="stroke:#181818;stroke-width:0.5;stroke-dasharray:5,5;" x1="28" x2="28" y1="81.2969" y2="276.0938"/></g><g><title>UI</title><rect fill="#000000" fill-opacity="0.00000" height="194.7969" width="8" x="249.71" y="81.2969"/><line style="stroke:#181818;stroke-width:0.5;stroke-dasharray:5,5;" x1="253.522" x2="253.522" y1="81.2969" y2="276.0938"/></g><g><title>Server</title><rect fill="#000000" fill-opacity="0.00000" height="194.7969" width="8" x="413.0029" y="81.2969"/><line style="stroke:#181818;stroke-width:0.5;stroke-dasharray:5,5;" x1="416.0479" x2="416.0479" y1="81.2969" y2="276.0938"/></g><g><title>Game Engine</title><rect fill="#000000" fill-opacity="0.00000" height="194.7969" width="8" x="567.168" y="81.2969"/><line style="stroke:#181818;stroke-width:0.5;stroke-dasharray:5,5;" x1="571.1128" x2="571.1128" y1="81.2969" y2="276.0938"/></g><g class="participant participant-head" data-participant="Guest"><text fill="#000000" font-family="sans-serif" font-size="14" lengthAdjust="spacing" textLength="41.1182" x="5" y="77.9951">Guest</text><ellipse cx="28.5591" cy="13.5" fill="#E2E2F0" rx="8" ry="8" style="stroke:#181818;stroke-width:0.5;"/><path d="M28.5591,21.5 L28.5591,48.5 M15.5591,29.5 L41.5591,29.5 M28.5591,48.5 L15.5591,63.5 M28.5591,48.5 L41.5591,63.5" fill="none" style="stroke:#181818;stroke-width:0.5;"/></g><g class="participant participant-tail" data-participant="Guest"><text fill="#000000" font-family="sans-serif" font-size="14" lengthAdjust="spacing" textLength="41.1182" x="5" y="288.0889">Guest</text><ellipse cx="28.5591" cy="299.8906" fill="#E2E2F0" rx="8" ry="8" style="stroke:#181818;stroke-width:0.5;"/><path d="M28.5591,307.8906 L28.5591,334.8906 M15.5591,315.8906 L41.5591,315.8906 M28.5591,334.8906 L15.5591,349.8906 M28.5591,334.8906 L41.5591,349.8906" fill="none" style="stroke:#181818;stroke-width:0.5;"/></g><g class="participant participant-head" data-participant="UI"><rect fill="#E2E2F0" height="30.2969" rx="2.5" ry="2.5" style="stroke:#181818;stroke-width:0.5;" width="28.376" x="239.522" y="50"/><text fill="#000000" font-family="sans-serif" font-size="14" lengthAdjust="spacing" textLength="14.376" x="246.522" y="69.9951">UI</text></g><g class="participant participant-tail" data-participant="UI"><rect fill="#E2E2F0" height="30.2969" rx="2.5" ry="2.5" style="stroke:#181818;stroke-width:0.5;" width="28.376" x="239.522" y="275.0938"/><text fill="#000000" font-family="sans-serif" font-size="14" lengthAdjust="spacing" textLength="14.376" x="246.522" y="295.0889">UI</text></g><g class="participant participant-head" data-participant="S"><rect fill="#E2E2F0" height="30.2969" rx="2.5" ry="2.5" style="stroke:#181818;stroke-width:0.5;" width="59.9102" x="387.0479" y="50"/><text fill="#000000" font-family="sans-serif" font-size="14" lengthAdjust="spacing" textLength="45.9102" x="394.0479" y="69.9951">Server</text></g><g class="participant participant-tail" data-participant="S"><rect fill="#E2E2F0" height="30.2969" rx="2.5" ry="2.5" style="stroke:#181818;stroke-width:0.5;" width="59.9102" x="387.0479" y="275.0938"/><text fill="#000000" font-family="sans-serif" font-size="14" lengthAdjust="spacing" textLength="45.9102" x="394.0479" y="295.0889">Server</text></g><g class="participant participant-head" data-participant="GE"><rect fill="#E2E2F0" height="30.2969" rx="2.5" ry="2.5" style="stroke:#181818;stroke-width:0.5;" width="108.1104" x="517.1128" y="50"/><text fill="#000000" font-family="sans-serif" font-size="14" lengthAdjust="spacing" textLength="94.1104" x="524.1128" y="69.9951">Game Engine</text></g><g class="participant participant-tail" data-participant="GE"><rect fill="#E2E2F0" height="30.2969" rx="2.5" ry="2.5" style="stroke:#181818;stroke-width:0.5;" width="108.1104" x="517.1128" y="275.0938"/><text fill="#000000" font-family="sans-serif" font-size="14" lengthAdjust="spacing" textLength="94.1104" x="524.1128" y="295.0889">Game Engine</text></g><g class="message" data-participant-1="Guest" data-participant-2="UI"><polygon fill="#181818" points="241.71,108.4297,251.71,112.4297,241.71,116.4297,245.71,112.4297" style="stroke:#181818;stroke-width:1;"/><line style="stroke:#181818;stroke-width:1;" x1="28.5591" x2="247.71" y1="112.4297" y2="112.4297"/><text fill="#000000" font-family="sans-serif" font-size="13" lengthAdjust="spacing" textLength="177.4614" x="35.5591" y="107.3638">Ch&#7885;n "Ch&#417;i th&#7917; mini game"</text></g><g class="message" data-participant-1="UI" data-participant-2="S"><polygon fill="#181818" points="405.0029,137.5625,415.0029,141.5625,405.0029,145.5625,409.0029,141.5625" style="stroke:#181818;stroke-width:1;"/><line style="stroke:#181818;stroke-width:1;" x1="253.71" x2="411.0029" y1="141.5625" y2="141.5625"/><text fill="#000000" font-family="sans-serif" font-size="13" lengthAdjust="spacing" textLength="139.293" x="260.71" y="136.4966">G&#7917;i y&#234;u c&#7847;u t&#7843;i game</text></g><g class="message" data-participant-1="S" data-participant-2="GE"><polygon fill="#181818" points="559.168,166.6953,569.168,170.6953,559.168,174.6953,563.168,170.6953" style="stroke:#181818;stroke-width:1;"/><line style="stroke:#181818;stroke-width:1;" x1="417.0029" x2="565.168" y1="170.6953" y2="170.6953"/><text fill="#000000" font-family="sans-serif" font-size="13" lengthAdjust="spacing" textLength="126.75" x="424.0029" y="165.6294">Kh&#7903;i t&#7841;o mini game</text></g><g class="message" data-participant-1="GE" data-participant-2="S"><polygon fill="#181818" points="428.0029,195.8281,418.0029,199.8281,428.0029,203.8281,424.0029,199.8281" style="stroke:#181818;stroke-width:1;"/><line style="stroke:#181818;stroke-width:1;stroke-dasharray:2,2;" x1="422.0029" x2="570.168" y1="199.8281" y2="199.8281"/><text fill="#000000" font-family="sans-serif" font-size="13" lengthAdjust="spacing" textLength="130.165" x="434.0029" y="194.7622">Mini game s&#7861;n s&#224;ng</text></g><g class="message" data-participant-1="S" data-participant-2="UI"><polygon fill="#181818" points="264.71,224.9609,254.71,228.9609,264.71,232.9609,260.71,228.9609" style="stroke:#181818;stroke-width:1;"/><line style="stroke:#181818;stroke-width:1;stroke-dasharray:2,2;" x1="258.71" x2="416.0029" y1="228.9609" y2="228.9609"/><text fill="#000000" font-family="sans-serif" font-size="13" lengthAdjust="spacing" textLength="111.1538" x="270.71" y="223.895">G&#7917;i d&#7919; li&#7879;u game</text></g><g class="message" data-participant-1="UI" data-participant-2="Guest"><polygon fill="#181818" points="39.5591,254.0938,29.5591,258.0938,39.5591,262.0938,35.5591,258.0938" style="stroke:#181818;stroke-width:1;"/><line style="stroke:#181818;stroke-width:1;stroke-dasharray:2,2;" x1="33.5591" x2="252.71" y1="258.0938" y2="258.0938"/><text fill="#000000" font-family="sans-serif" font-size="13" lengthAdjust="spacing" textLength="201.1509" x="45.5591" y="253.0278">Hi&#7875;n th&#7883; mini game &#273;&#7875; ch&#417;i th&#7917;</text></g><!--SRC=[LOyn2i8m68NtdEBHlHVeu28b5d4gFK2eeVwWKTfKS7Pm40TFeE8W2EBaqewAzyXDJ5gbEEPzxxt_HQHwdeENij1i8N9DAIs4ql2Io8Cea4J_SYppfSmR5FyJBcOIeSf8oGRpaB6c5txFrWJeJqozK_3wa_U9eEthXXafGcQJ7aiYPum3S0i8g-UrH6ggImbjgdFhOh7py330qCOFvD1fthKm7i9lMqO_3OMf7Wh5ywWob_-kQQ-CJNt7b4ozATi2jyATSCC332nPgsRhjhk2rzxAIBj_V000]--></g></svg>