<svg xmlns="http://www.w3.org/2000/svg" xmlns:xlink="http://www.w3.org/1999/xlink" contentStyleType="text/css" data-diagram-type="SEQUENCE" height="415px" preserveAspectRatio="none" style="width:656px;height:415px;background:#FFFFFF;" version="1.1" viewBox="0 0 656 415" width="656px" zoomAndPan="magnify"><defs/><g><g><title>Guest</title><rect fill="#000000" fill-opacity="0.00000" height="253.0625" width="8" x="24.5591" y="81.2969"/><line style="stroke:#181818;stroke-width:0.5;stroke-dasharray:5,5;" x1="28" x2="28" y1="81.2969" y2="334.3594"/></g><g><title>UI</title><rect fill="#000000" fill-opacity="0.00000" height="253.0625" width="8" x="244.3462" y="81.2969"/><line style="stroke:#181818;stroke-width:0.5;stroke-dasharray:5,5;" x1="248.1582" x2="248.1582" y1="81.2969" y2="334.3594"/></g><g><title>Server</title><rect fill="#000000" fill-opacity="0.00000" height="253.0625" width="8" x="418.9634" y="81.2969"/><line style="stroke:#181818;stroke-width:0.5;stroke-dasharray:5,5;" x1="422.0083" x2="422.0083" y1="81.2969" y2="334.3594"/></g><g><title>Database</title><rect fill="#000000" fill-opacity="0.00000" height="253.0625" width="8" x="605.6602" y="81.2969"/><line style="stroke:#181818;stroke-width:0.5;stroke-dasharray:5,5;" x1="609.2598" x2="609.2598" y1="81.2969" y2="334.3594"/></g><g class="participant participant-head" data-participant="Guest"><text fill="#000000" font-family="sans-serif" font-size="14" lengthAdjust="spacing" textLength="41.1182" x="5" y="77.9951">Guest</text><ellipse cx="28.5591" cy="13.5" fill="#E2E2F0" rx="8" ry="8" style="stroke:#181818;stroke-width:0.5;"/><path d="M28.5591,21.5 L28.5591,48.5 M15.5591,29.5 L41.5591,29.5 M28.5591,48.5 L15.5591,63.5 M28.5591,48.5 L41.5591,63.5" fill="none" style="stroke:#181818;stroke-width:0.5;"/></g><g class="participant participant-tail" data-participant="Guest"><text fill="#000000" font-family="sans-serif" font-size="14" lengthAdjust="spacing" textLength="41.1182" x="5" y="346.3545">Guest</text><ellipse cx="28.5591" cy="358.1563" fill="#E2E2F0" rx="8" ry="8" style="stroke:#181818;stroke-width:0.5;"/><path d="M28.5591,366.1563 L28.5591,393.1563 M15.5591,374.1563 L41.5591,374.1563 M28.5591,393.1563 L15.5591,408.1563 M28.5591,393.1563 L41.5591,408.1563" fill="none" style="stroke:#181818;stroke-width:0.5;"/></g><g class="participant participant-head" data-participant="UI"><rect fill="#E2E2F0" height="30.2969" rx="2.5" ry="2.5" style="stroke:#181818;stroke-width:0.5;" width="28.376" x="234.1582" y="50"/><text fill="#000000" font-family="sans-serif" font-size="14" lengthAdjust="spacing" textLength="14.376" x="241.1582" y="69.9951">UI</text></g><g class="participant participant-tail" data-participant="UI"><rect fill="#E2E2F0" height="30.2969" rx="2.5" ry="2.5" style="stroke:#181818;stroke-width:0.5;" width="28.376" x="234.1582" y="333.3594"/><text fill="#000000" font-family="sans-serif" font-size="14" lengthAdjust="spacing" textLength="14.376" x="241.1582" y="353.3545">UI</text></g><g class="participant participant-head" data-participant="S"><rect fill="#E2E2F0" height="30.2969" rx="2.5" ry="2.5" style="stroke:#181818;stroke-width:0.5;" width="59.9102" x="393.0083" y="50"/><text fill="#000000" font-family="sans-serif" font-size="14" lengthAdjust="spacing" textLength="45.9102" x="400.0083" y="69.9951">Server</text></g><g class="participant participant-tail" data-participant="S"><rect fill="#E2E2F0" height="30.2969" rx="2.5" ry="2.5" style="stroke:#181818;stroke-width:0.5;" width="59.9102" x="393.0083" y="333.3594"/><text fill="#000000" font-family="sans-serif" font-size="14" lengthAdjust="spacing" textLength="45.9102" x="400.0083" y="353.3545">Server</text></g><g class="participant participant-head" data-participant="DB"><rect fill="#E2E2F0" height="30.2969" rx="2.5" ry="2.5" style="stroke:#181818;stroke-width:0.5;" width="80.8008" x="569.2598" y="50"/><text fill="#000000" font-family="sans-serif" font-size="14" lengthAdjust="spacing" textLength="66.8008" x="576.2598" y="69.9951">Database</text></g><g class="participant participant-tail" data-participant="DB"><rect fill="#E2E2F0" height="30.2969" rx="2.5" ry="2.5" style="stroke:#181818;stroke-width:0.5;" width="80.8008" x="569.2598" y="333.3594"/><text fill="#000000" font-family="sans-serif" font-size="14" lengthAdjust="spacing" textLength="66.8008" x="576.2598" y="353.3545">Database</text></g><g class="message" data-participant-1="Guest" data-participant-2="UI"><polygon fill="#181818" points="236.3462,108.4297,246.3462,112.4297,236.3462,116.4297,240.3462,112.4297" style="stroke:#181818;stroke-width:1;"/><line style="stroke:#181818;stroke-width:1;" x1="28.5591" x2="242.3462" y1="112.4297" y2="112.4297"/><text fill="#000000" font-family="sans-serif" font-size="13" lengthAdjust="spacing" textLength="110.0366" x="35.5591" y="107.3638">M&#7903; form &#273;&#259;ng k&#253;</text></g><g class="message" data-participant-1="UI" data-participant-2="Guest"><polygon fill="#181818" points="39.5591,137.5625,29.5591,141.5625,39.5591,145.5625,35.5591,141.5625" style="stroke:#181818;stroke-width:1;"/><line style="stroke:#181818;stroke-width:1;" x1="33.5591" x2="247.3462" y1="141.5625" y2="141.5625"/><text fill="#000000" font-family="sans-serif" font-size="13" lengthAdjust="spacing" textLength="85.376" x="45.5591" y="136.4966">Hi&#7875;n th&#7883; form</text></g><g class="message" data-participant-1="Guest" data-participant-2="UI"><polygon fill="#181818" points="236.3462,166.6953,246.3462,170.6953,236.3462,174.6953,240.3462,170.6953" style="stroke:#181818;stroke-width:1;"/><line style="stroke:#181818;stroke-width:1;" x1="28.5591" x2="242.3462" y1="170.6953" y2="170.6953"/><text fill="#000000" font-family="sans-serif" font-size="13" lengthAdjust="spacing" textLength="195.7871" x="35.5591" y="165.6294">Nh&#7853;p th&#244;ng tin + ch&#7885;n lo&#7841;i TK</text></g><g class="message" data-participant-1="UI" data-participant-2="S"><polygon fill="#181818" points="410.9634,195.8281,420.9634,199.8281,410.9634,203.8281,414.9634,199.8281" style="stroke:#181818;stroke-width:1;"/><line style="stroke:#181818;stroke-width:1;" x1="248.3462" x2="416.9634" y1="199.8281" y2="199.8281"/><text fill="#000000" font-family="sans-serif" font-size="13" lengthAdjust="spacing" textLength="133.6689" x="255.3462" y="194.7622">G&#7917;i y&#234;u c&#7847;u &#273;&#259;ng k&#253;</text></g><g class="message" data-participant-1="S" data-participant-2="DB"><polygon fill="#181818" points="597.6602,224.9609,607.6602,228.9609,597.6602,232.9609,601.6602,228.9609" style="stroke:#181818;stroke-width:1;"/><line style="stroke:#181818;stroke-width:1;" x1="422.9634" x2="603.6602" y1="228.9609" y2="228.9609"/><text fill="#000000" font-family="sans-serif" font-size="13" lengthAdjust="spacing" textLength="151.582" x="429.9634" y="223.895">L&#432;u th&#244;ng tin t&#224;i kho&#7843;n</text></g><g class="message" data-participant-1="DB" data-participant-2="S"><polygon fill="#181818" points="433.9634,254.0938,423.9634,258.0938,433.9634,262.0938,429.9634,258.0938" style="stroke:#181818;stroke-width:1;"/><line style="stroke:#181818;stroke-width:1;stroke-dasharray:2,2;" x1="427.9634" x2="608.6602" y1="258.0938" y2="258.0938"/><text fill="#000000" font-family="sans-serif" font-size="13" lengthAdjust="spacing" textLength="162.6968" x="439.9634" y="253.0278">X&#225;c nh&#7853;n l&#432;u th&#224;nh c&#244;ng</text></g><g class="message" data-participant-1="S" data-participant-2="UI"><polygon fill="#181818" points="259.3462,283.2266,249.3462,287.2266,259.3462,291.2266,255.3462,287.2266" style="stroke:#181818;stroke-width:1;"/><line style="stroke:#181818;stroke-width:1;stroke-dasharray:2,2;" x1="253.3462" x2="421.9634" y1="287.2266" y2="287.2266"/><text fill="#000000" font-family="sans-serif" font-size="13" lengthAdjust="spacing" textLength="150.6172" x="265.3462" y="282.1606">Tr&#7843; v&#7873; k&#7871;t qu&#7843; &#273;&#259;ng k&#253;</text></g><g class="message" data-participant-1="UI" data-participant-2="Guest"><polygon fill="#181818" points="39.5591,312.3594,29.5591,316.3594,39.5591,320.3594,35.5591,316.3594" style="stroke:#181818;stroke-width:1;"/><line style="stroke:#181818;stroke-width:1;stroke-dasharray:2,2;" x1="33.5591" x2="247.3462" y1="316.3594" y2="316.3594"/><text fill="#000000" font-family="sans-serif" font-size="13" lengthAdjust="spacing" textLength="104.0508" x="45.5591" y="311.2935">Hi&#7875;n th&#7883; k&#7871;t qu&#7843;</text></g><!--SRC=[TO-_IiH06CJxFCLmhTmBfB08WJFufya5RDSbcYMwYPlT0qkvKYny0k-m48G32wiiOh67xx5lukwQ8X5ilvdvpJU4oaPWeSfEHYqHab7M4YunAx8PI8SYcvxpKgnA4QHyggH4aWlIbK5BaoWAKCmF7IF6gTNFk6p43VPF-pM_Gcq-eoBpSl35E69MhpbaPVL3S4u1PvNjTwsJpOTBIyPn0EgyZnpNZUst3ClZ0PZ7M5YzOxWpRmhKzgzgt9fxJvh4EFb-LsEWD1k6kdAq5nwb2UQ_h7EpfU2-tbKDaGslG7tGquOFby85iRBw7hNjloHkbJ_ysVlFu57Y1m00]--></g></svg>