<svg xmlns="http://www.w3.org/2000/svg" xmlns:xlink="http://www.w3.org/1999/xlink" contentStyleType="text/css" data-diagram-type="SEQUENCE" height="601px" preserveAspectRatio="none" style="width:738px;height:601px;background:#FFFFFF;" version="1.1" viewBox="0 0 738 601" width="738px" zoomAndPan="magnify"><title>Sequence - &#272;&#259;ng nh&#7853;p h&#7879; th&#7889;ng (Graphic Designer)</title><defs/><g><text fill="#000000" font-family="sans-serif" font-size="14" font-weight="bold" lengthAdjust="spacing" textLength="407.4082" x="165.4973" y="27.9951">Sequence - &#272;&#259;ng nh&#7853;p h&#7879; th&#7889;ng (Graphic Designer)</text><rect fill="none" height="178.7344" style="stroke:#000000;stroke-width:1.5;" width="479.6094" x="10" y="324.5234"/><g><title>Graphic Designer</title><rect fill="#000000" fill-opacity="0.00000" height="401.6641" width="8" x="79.8433" y="118.5938"/><line style="stroke:#181818;stroke-width:0.5;stroke-dasharray:5,5;" x1="83" x2="83" y1="118.5938" y2="520.2578"/></g><g><title>UI</title><rect fill="#000000" fill-opacity="0.00000" height="401.6641" width="8" x="258.999" y="118.5938"/><line style="stroke:#181818;stroke-width:0.5;stroke-dasharray:5,5;" x1="262.811" x2="262.811" y1="118.5938" y2="520.2578"/></g><g><title>Auth Service</title><rect fill="#000000" fill-opacity="0.00000" height="401.6641" width="8" x="424.1074" y="118.5938"/><line style="stroke:#181818;stroke-width:0.5;stroke-dasharray:5,5;" x1="427.6055" x2="427.6055" y1="118.5938" y2="520.2578"/></g><g><title>User DB</title><rect fill="#000000" fill-opacity="0.00000" height="401.6641" width="8" x="699.0303" y="118.5938"/><line style="stroke:#181818;stroke-width:0.5;stroke-dasharray:5,5;" x1="702.6577" x2="702.6577" y1="118.5938" y2="520.2578"/></g><g class="participant participant-head" data-participant="GD"><text fill="#000000" font-family="sans-serif" font-size="14" lengthAdjust="spacing" textLength="121.6865" x="20" y="115.292">Graphic Designer</text><ellipse cx="83.8433" cy="50.7969" fill="#E2E2F0" rx="8" ry="8" style="stroke:#181818;stroke-width:0.5;"/><path d="M83.8433,58.7969 L83.8433,85.7969 M70.8433,66.7969 L96.8433,66.7969 M83.8433,85.7969 L70.8433,100.7969 M83.8433,85.7969 L96.8433,100.7969" fill="none" style="stroke:#181818;stroke-width:0.5;"/></g><g class="participant participant-tail" data-participant="GD"><text fill="#000000" font-family="sans-serif" font-size="14" lengthAdjust="spacing" textLength="121.6865" x="20" y="532.2529">Graphic Designer</text><ellipse cx="83.8433" cy="544.0547" fill="#E2E2F0" rx="8" ry="8" style="stroke:#181818;stroke-width:0.5;"/><path d="M83.8433,552.0547 L83.8433,579.0547 M70.8433,560.0547 L96.8433,560.0547 M83.8433,579.0547 L70.8433,594.0547 M83.8433,579.0547 L96.8433,594.0547" fill="none" style="stroke:#181818;stroke-width:0.5;"/></g><g class="participant participant-head" data-participant="UI"><rect fill="#E2E2F0" height="30.2969" rx="2.5" ry="2.5" style="stroke:#181818;stroke-width:0.5;" width="28.376" x="248.811" y="87.2969"/><text fill="#000000" font-family="sans-serif" font-size="14" lengthAdjust="spacing" textLength="14.376" x="255.811" y="107.292">UI</text></g><g class="participant participant-tail" data-participant="UI"><rect fill="#E2E2F0" height="30.2969" rx="2.5" ry="2.5" style="stroke:#181818;stroke-width:0.5;" width="28.376" x="248.811" y="519.2578"/><text fill="#000000" font-family="sans-serif" font-size="14" lengthAdjust="spacing" textLength="14.376" x="255.811" y="539.2529">UI</text></g><g class="participant participant-head" data-participant="Auth"><rect fill="#E2E2F0" height="30.2969" rx="2.5" ry="2.5" style="stroke:#181818;stroke-width:0.5;" width="103.0039" x="376.6055" y="87.2969"/><text fill="#000000" font-family="sans-serif" font-size="14" lengthAdjust="spacing" textLength="89.0039" x="383.6055" y="107.292">Auth Service</text></g><g class="participant participant-tail" data-participant="Auth"><rect fill="#E2E2F0" height="30.2969" rx="2.5" ry="2.5" style="stroke:#181818;stroke-width:0.5;" width="103.0039" x="376.6055" y="519.2578"/><text fill="#000000" font-family="sans-serif" font-size="14" lengthAdjust="spacing" textLength="89.0039" x="383.6055" y="539.2529">Auth Service</text></g><g class="participant participant-head" data-participant="DB"><text fill="#000000" font-family="sans-serif" font-size="14" lengthAdjust="spacing" textLength="56.7451" x="671.6577" y="115.292">User DB</text><path d="M685.0303,66.2969 C685.0303,56.2969 703.0303,56.2969 703.0303,56.2969 C703.0303,56.2969 721.0303,56.2969 721.0303,66.2969 L721.0303,92.2969 C721.0303,102.2969 703.0303,102.2969 703.0303,102.2969 C703.0303,102.2969 685.0303,102.2969 685.0303,92.2969 L685.0303,66.2969" fill="#E2E2F0" style="stroke:#181818;stroke-width:0.5;"/><path d="M685.0303,66.2969 C685.0303,76.2969 703.0303,76.2969 703.0303,76.2969 C703.0303,76.2969 721.0303,76.2969 721.0303,66.2969" fill="none" style="stroke:#181818;stroke-width:0.5;"/></g><g class="participant participant-tail" data-participant="DB"><text fill="#000000" font-family="sans-serif" font-size="14" lengthAdjust="spacing" textLength="56.7451" x="671.6577" y="532.2529">User DB</text><path d="M685.0303,545.5547 C685.0303,535.5547 703.0303,535.5547 703.0303,535.5547 C703.0303,535.5547 721.0303,535.5547 721.0303,545.5547 L721.0303,571.5547 C721.0303,581.5547 703.0303,581.5547 703.0303,581.5547 C703.0303,581.5547 685.0303,581.5547 685.0303,571.5547 L685.0303,545.5547" fill="#E2E2F0" style="stroke:#181818;stroke-width:0.5;"/><path d="M685.0303,545.5547 C685.0303,555.5547 703.0303,555.5547 703.0303,555.5547 C703.0303,555.5547 721.0303,555.5547 721.0303,545.5547" fill="none" style="stroke:#181818;stroke-width:0.5;"/></g><g class="message" data-participant-1="GD" data-participant-2="UI"><polygon fill="#181818" points="250.999,145.7266,260.999,149.7266,250.999,153.7266,254.999,149.7266" style="stroke:#181818;stroke-width:1;"/><line style="stroke:#181818;stroke-width:1;" x1="83.8433" x2="256.999" y1="149.7266" y2="149.7266"/><text fill="#000000" font-family="sans-serif" font-size="13" lengthAdjust="spacing" textLength="155.1558" x="90.8433" y="144.6606">Nh&#7853;p email + m&#7853;t kh&#7849;u</text></g><g class="message" data-participant-1="UI" data-participant-2="Auth"><polygon fill="#181818" points="416.1074,189.9922,426.1074,193.9922,416.1074,197.9922,420.1074,193.9922" style="stroke:#181818;stroke-width:1;"/><line style="stroke:#181818;stroke-width:1;" x1="262.999" x2="422.1074" y1="193.9922" y2="193.9922"/><text fill="#000000" font-family="sans-serif" font-size="13" lengthAdjust="spacing" textLength="74.4453" x="269.999" y="173.7935">POST /login</text><text fill="#000000" font-family="sans-serif" font-size="13" lengthAdjust="spacing" textLength="116.2065" x="269.999" y="188.9263">(email, password)</text></g><g class="message" data-participant-1="Auth" data-participant-2="DB"><polygon fill="#181818" points="691.0303,219.125,701.0303,223.125,691.0303,227.125,695.0303,223.125" style="stroke:#181818;stroke-width:1;"/><line style="stroke:#181818;stroke-width:1;" x1="428.1074" x2="697.0303" y1="223.125" y2="223.125"/><text fill="#000000" font-family="sans-serif" font-size="13" lengthAdjust="spacing" textLength="250.9229" x="435.1074" y="218.0591">SELECT * FROM users WHERE email=?</text></g><g class="message" data-participant-1="DB" data-participant-2="Auth"><polygon fill="#181818" points="439.1074,248.2578,429.1074,252.2578,439.1074,256.2578,435.1074,252.2578" style="stroke:#181818;stroke-width:1;"/><line style="stroke:#181818;stroke-width:1;stroke-dasharray:2,2;" x1="433.1074" x2="702.0303" y1="252.2578" y2="252.2578"/><text fill="#000000" font-family="sans-serif" font-size="13" lengthAdjust="spacing" textLength="227.9126" x="445.1074" y="247.1919">user + password hash + tr&#7841;ng th&#225;i</text></g><g class="message" data-participant-1="Auth" data-participant-2="Auth"><line style="stroke:#181818;stroke-width:1;" x1="428.1074" x2="470.1074" y1="296.5234" y2="296.5234"/><line style="stroke:#181818;stroke-width:1;" x1="470.1074" x2="470.1074" y1="296.5234" y2="309.5234"/><line style="stroke:#181818;stroke-width:1;" x1="429.1074" x2="470.1074" y1="309.5234" y2="309.5234"/><polygon fill="#181818" points="439.1074,305.5234,429.1074,309.5234,439.1074,313.5234,435.1074,309.5234" style="stroke:#181818;stroke-width:1;"/><text fill="#000000" font-family="sans-serif" font-size="13" lengthAdjust="spacing" textLength="121.3037" x="435.1074" y="276.3247">Ki&#7875;m tra m&#7853;t kh&#7849;u</text><text fill="#000000" font-family="sans-serif" font-size="13" lengthAdjust="spacing" textLength="111.5791" x="435.1074" y="291.4575">+ kh&#243;a t&#224;i kho&#7843;n</text></g><path d="M10,324.5234 L74.4429,324.5234 L74.4429,331.6563 L64.4429,341.6563 L10,341.6563 L10,324.5234" fill="#EEEEEE" style="stroke:#000000;stroke-width:1.5;"/><rect fill="none" height="178.7344" style="stroke:#000000;stroke-width:1.5;" width="479.6094" x="10" y="324.5234"/><text fill="#000000" font-family="sans-serif" font-size="13" font-weight="bold" lengthAdjust="spacing" textLength="19.4429" x="25" y="337.5903">alt</text><text fill="#000000" font-family="sans-serif" font-size="11" font-weight="bold" lengthAdjust="spacing" textLength="166.6758" x="89.4429" y="336.7339">[H&#7907;p l&#7879; &amp; t&#224;i kho&#7843;n active]</text><g class="message" data-participant-1="Auth" data-participant-2="UI"><polygon fill="#181818" points="273.999,373.9219,263.999,377.9219,273.999,381.9219,269.999,377.9219" style="stroke:#181818;stroke-width:1;"/><line style="stroke:#181818;stroke-width:1;stroke-dasharray:2,2;" x1="267.999" x2="427.1074" y1="377.9219" y2="377.9219"/><text fill="#000000" font-family="sans-serif" font-size="13" lengthAdjust="spacing" textLength="47.7026" x="279.999" y="357.7231">200 OK</text><text fill="#000000" font-family="sans-serif" font-size="13" lengthAdjust="spacing" textLength="141.1084" x="279.999" y="372.856">+ JWT token + profile</text></g><g class="message" data-participant-1="UI" data-participant-2="GD"><polygon fill="#181818" points="94.8433,403.0547,84.8433,407.0547,94.8433,411.0547,90.8433,407.0547" style="stroke:#181818;stroke-width:1;"/><line style="stroke:#181818;stroke-width:1;" x1="88.8433" x2="261.999" y1="407.0547" y2="407.0547"/><text fill="#000000" font-family="sans-serif" font-size="13" lengthAdjust="spacing" textLength="125.5947" x="100.8433" y="401.9888">Hi&#7875;n th&#7883; Dashboard</text></g><line style="stroke:#000000;stroke-width:1;stroke-dasharray:2,2;" x1="10" x2="489.6094" y1="416.0547" y2="416.0547"/><text fill="#000000" font-family="sans-serif" font-size="11" font-weight="bold" lengthAdjust="spacing" textLength="219.2266" x="15" y="426.2651">[Sai th&#244;ng tin ho&#7863;c kh&#243;a t&#224;i kho&#7843;n]</text><g class="message" data-participant-1="Auth" data-participant-2="UI"><polygon fill="#181818" points="273.999,462.125,263.999,466.125,273.999,470.125,269.999,466.125" style="stroke:#181818;stroke-width:1;"/><line style="stroke:#181818;stroke-width:1;stroke-dasharray:2,2;" x1="267.999" x2="427.1074" y1="466.125" y2="466.125"/><text fill="#000000" font-family="sans-serif" font-size="13" lengthAdjust="spacing" textLength="54.0059" x="279.999" y="445.9263">401/423</text><text fill="#000000" font-family="sans-serif" font-size="13" lengthAdjust="spacing" textLength="100.4199" x="279.999" y="461.0591">+ th&#244;ng b&#225;o l&#7895;i</text></g><g class="message" data-participant-1="UI" data-participant-2="GD"><polygon fill="#181818" points="94.8433,491.2578,84.8433,495.2578,94.8433,499.2578,90.8433,495.2578" style="stroke:#181818;stroke-width:1;"/><line style="stroke:#181818;stroke-width:1;" x1="88.8433" x2="261.999" y1="495.2578" y2="495.2578"/><text fill="#000000" font-family="sans-serif" font-size="13" lengthAdjust="spacing" textLength="143.6855" x="100.8433" y="490.1919">Hi&#7875;n th&#7883; l&#7895;i &#273;&#259;ng nh&#7853;p</text></g><!--SRC=[VPAxJW9158RxUOe_5COR4IyLYHfn4RnY06D3ComZEt6PNMS7VG0B2nkjR2LK5bQQc409Bx9lufbTlA36BIOpPxxvpt_EMIEDBr0J5rsXN84indVZQzM6ykB1SmWl7jx0q7fFiTcIvg4dNJWYacqbz1nZt3M1HkRdJGOyGibX8TT6kZBaoY1pifk4JtQdmrjTuv43VIbTaG0sm5hSy2QF13sBX8PJIAwS0cCb1zaDKa4UHwbBqU7Inm8wT38uf-1Jbn50M2AUnt6bLiUI7xIbQgZPX5z4oAFeAj2jEPPGH3i5Ocl5W-9s7VFOgLOEqQNi4KxBnMenpRE-oGZBVcbRWf9_gC7ZaKTde-D1Zxfcl55FVcQOlDcNyV2wGmoVCjrG2xGRlN2OqQEaRH0F-egwx1kKus4_X6y7CZDr3Pg1l1GCzALfFjgpaikXicz5zqxhCC6vKDQe3iwad_9fawYZUPIj9PKC-nOErT0Ck6unuTCCQbpQEbvjELB1vdrp_tBwsyDQRdbfRMNLcfWeD4UzmDRn8F-ra10Ott_x7PbGhNS0]--></g></svg>