<svg xmlns="http://www.w3.org/2000/svg" xmlns:xlink="http://www.w3.org/1999/xlink" contentStyleType="text/css" data-diagram-type="SEQUENCE" height="873px" preserveAspectRatio="none" style="width:899px;height:873px;background:#FFFFFF;" version="1.1" viewBox="0 0 899 873" width="899px" zoomAndPan="magnify"><title>Sequence Diagram - Manage Asset List (Graphic Designer)</title><defs/><g><text fill="#000000" font-family="sans-serif" font-size="14" font-weight="bold" lengthAdjust="spacing" textLength="462.6836" x="214.2114" y="27.9951">Sequence Diagram - Manage Asset List (Graphic Designer)</text><g><title>Graphic Designer</title><rect fill="#000000" fill-opacity="0.00000" height="673.7891" width="8" x="64.8433" y="118.5938"/><line style="stroke:#181818;stroke-width:0.5;stroke-dasharray:5,5;" x1="68" x2="68" y1="118.5938" y2="792.3828"/></g><g><title>UI</title><rect fill="#000000" fill-opacity="0.00000" height="673.7891" width="8" x="276.1055" y="118.5938"/><line style="stroke:#181818;stroke-width:0.5;stroke-dasharray:5,5;" x1="279.9175" x2="279.9175" y1="118.5938" y2="792.3828"/></g><g><title>Asset Service</title><rect fill="#000000" fill-opacity="0.00000" height="673.7891" width="8" x="485.3047" y="118.5938"/><line style="stroke:#181818;stroke-width:0.5;stroke-dasharray:5,5;" x1="489.0752" x2="489.0752" y1="118.5938" y2="792.3828"/></g><g><title>Asset DB</title><rect fill="#000000" fill-opacity="0.00000" height="673.7891" width="8" x="848.5552" y="118.5938"/><line style="stroke:#181818;stroke-width:0.5;stroke-dasharray:5,5;" x1="852.0039" x2="852.0039" y1="118.5938" y2="792.3828"/></g><g class="participant participant-head" data-participant="GD"><text fill="#000000" font-family="sans-serif" font-size="14" lengthAdjust="spacing" textLength="121.6865" x="5" y="115.292">Graphic Designer</text><ellipse cx="68.8433" cy="50.7969" fill="#E2E2F0" rx="8" ry="8" style="stroke:#181818;stroke-width:0.5;"/><path d="M68.8433,58.7969 L68.8433,85.7969 M55.8433,66.7969 L81.8433,66.7969 M68.8433,85.7969 L55.8433,100.7969 M68.8433,85.7969 L81.8433,100.7969" fill="none" style="stroke:#181818;stroke-width:0.5;"/></g><g class="participant participant-tail" data-participant="GD"><text fill="#000000" font-family="sans-serif" font-size="14" lengthAdjust="spacing" textLength="121.6865" x="5" y="804.3779">Graphic Designer</text><ellipse cx="68.8433" cy="816.1797" fill="#E2E2F0" rx="8" ry="8" style="stroke:#181818;stroke-width:0.5;"/><path d="M68.8433,824.1797 L68.8433,851.1797 M55.8433,832.1797 L81.8433,832.1797 M68.8433,851.1797 L55.8433,866.1797 M68.8433,851.1797 L81.8433,866.1797" fill="none" style="stroke:#181818;stroke-width:0.5;"/></g><g class="participant participant-head" data-participant="UI"><rect fill="#E2E2F0" height="30.2969" rx="2.5" ry="2.5" style="stroke:#181818;stroke-width:0.5;" width="28.376" x="265.9175" y="87.2969"/><text fill="#000000" font-family="sans-serif" font-size="14" lengthAdjust="spacing" textLength="14.376" x="272.9175" y="107.292">UI</text></g><g class="participant participant-tail" data-participant="UI"><rect fill="#E2E2F0" height="30.2969" rx="2.5" ry="2.5" style="stroke:#181818;stroke-width:0.5;" width="28.376" x="265.9175" y="791.3828"/><text fill="#000000" font-family="sans-serif" font-size="14" lengthAdjust="spacing" textLength="14.376" x="272.9175" y="811.3779">UI</text></g><g class="participant participant-head" data-participant="AssetSvc"><rect fill="#E2E2F0" height="30.2969" rx="2.5" ry="2.5" style="stroke:#181818;stroke-width:0.5;" width="108.459" x="435.0752" y="87.2969"/><text fill="#000000" font-family="sans-serif" font-size="14" lengthAdjust="spacing" textLength="94.459" x="442.0752" y="107.292">Asset Service</text></g><g class="participant participant-tail" data-participant="AssetSvc"><rect fill="#E2E2F0" height="30.2969" rx="2.5" ry="2.5" style="stroke:#181818;stroke-width:0.5;" width="108.459" x="435.0752" y="791.3828"/><text fill="#000000" font-family="sans-serif" font-size="14" lengthAdjust="spacing" textLength="94.459" x="442.0752" y="811.3779">Asset Service</text></g><g class="participant participant-head" data-participant="DB"><text fill="#000000" font-family="sans-serif" font-size="14" lengthAdjust="spacing" textLength="63.1025" x="818.0039" y="115.292">Asset DB</text><path d="M834.5552,66.2969 C834.5552,56.2969 852.5552,56.2969 852.5552,56.2969 C852.5552,56.2969 870.5552,56.2969 870.5552,66.2969 L870.5552,92.2969 C870.5552,102.2969 852.5552,102.2969 852.5552,102.2969 C852.5552,102.2969 834.5552,102.2969 834.5552,92.2969 L834.5552,66.2969" fill="#E2E2F0" style="stroke:#181818;stroke-width:0.5;"/><path d="M834.5552,66.2969 C834.5552,76.2969 852.5552,76.2969 852.5552,76.2969 C852.5552,76.2969 870.5552,76.2969 870.5552,66.2969" fill="none" style="stroke:#181818;stroke-width:0.5;"/></g><g class="participant participant-tail" data-participant="DB"><text fill="#000000" font-family="sans-serif" font-size="14" lengthAdjust="spacing" textLength="63.1025" x="818.0039" y="804.3779">Asset DB</text><path d="M834.5552,817.6797 C834.5552,807.6797 852.5552,807.6797 852.5552,807.6797 C852.5552,807.6797 870.5552,807.6797 870.5552,817.6797 L870.5552,843.6797 C870.5552,853.6797 852.5552,853.6797 852.5552,853.6797 C852.5552,853.6797 834.5552,853.6797 834.5552,843.6797 L834.5552,817.6797" fill="#E2E2F0" style="stroke:#181818;stroke-width:0.5;"/><path d="M834.5552,817.6797 C834.5552,827.6797 852.5552,827.6797 852.5552,827.6797 C852.5552,827.6797 870.5552,827.6797 870.5552,817.6797" fill="none" style="stroke:#181818;stroke-width:0.5;"/></g><rect fill="#EEEEEE" height="3" style="stroke:#EEEEEE;stroke-width:1;" width="892.1064" x="0" y="149.1602"/><line style="stroke:#000000;stroke-width:1;" x1="0" x2="892.1064" y1="149.1602" y2="149.1602"/><line style="stroke:#000000;stroke-width:1;" x1="0" x2="892.1064" y1="152.1602" y2="152.1602"/><rect fill="#EEEEEE" height="23.1328" style="stroke:#000000;stroke-width:2;" width="173.8276" x="359.1394" y="138.5938"/><text fill="#000000" font-family="sans-serif" font-size="13" font-weight="bold" lengthAdjust="spacing" textLength="155.3018" x="365.1394" y="154.6606">Xem danh s&#225;ch asset</text><g class="message" data-participant-1="GD" data-participant-2="UI"><polygon fill="#181818" points="268.1055,188.8594,278.1055,192.8594,268.1055,196.8594,272.1055,192.8594" style="stroke:#181818;stroke-width:1;"/><line style="stroke:#181818;stroke-width:1;" x1="68.8433" x2="274.1055" y1="192.8594" y2="192.8594"/><text fill="#000000" font-family="sans-serif" font-size="13" lengthAdjust="spacing" textLength="114.9497" x="75.8433" y="187.7935">Ch&#7885;n "My Assets"</text></g><g class="message" data-participant-1="UI" data-participant-2="AssetSvc"><polygon fill="#181818" points="477.3047,217.9922,487.3047,221.9922,477.3047,225.9922,481.3047,221.9922" style="stroke:#181818;stroke-width:1;"/><line style="stroke:#181818;stroke-width:1;" x1="280.1055" x2="483.3047" y1="221.9922" y2="221.9922"/><text fill="#000000" font-family="sans-serif" font-size="13" lengthAdjust="spacing" textLength="154.7432" x="287.1055" y="216.9263">GET /assets?owner=me</text></g><g class="message" data-participant-1="AssetSvc" data-participant-2="DB"><polygon fill="#181818" points="840.5552,247.125,850.5552,251.125,840.5552,255.125,844.5552,251.125" style="stroke:#181818;stroke-width:1;"/><line style="stroke:#181818;stroke-width:1;" x1="489.3047" x2="846.5552" y1="251.125" y2="251.125"/><text fill="#000000" font-family="sans-serif" font-size="13" lengthAdjust="spacing" textLength="279.8555" x="496.3047" y="246.0591">SELECT * FROM assets WHERE owner_id=?</text></g><g class="message" data-participant-1="DB" data-participant-2="AssetSvc"><polygon fill="#181818" points="500.3047,276.2578,490.3047,280.2578,500.3047,284.2578,496.3047,280.2578" style="stroke:#181818;stroke-width:1;"/><line style="stroke:#181818;stroke-width:1;stroke-dasharray:2,2;" x1="494.3047" x2="851.5552" y1="280.2578" y2="280.2578"/><text fill="#000000" font-family="sans-serif" font-size="13" lengthAdjust="spacing" textLength="107.4531" x="506.3047" y="275.1919">Danh s&#225;ch asset</text></g><g class="message" data-participant-1="AssetSvc" data-participant-2="UI"><polygon fill="#181818" points="291.1055,305.3906,281.1055,309.3906,291.1055,313.3906,287.1055,309.3906" style="stroke:#181818;stroke-width:1;"/><line style="stroke:#181818;stroke-width:1;stroke-dasharray:2,2;" x1="285.1055" x2="488.3047" y1="309.3906" y2="309.3906"/><text fill="#000000" font-family="sans-serif" font-size="13" lengthAdjust="spacing" textLength="172.5547" x="297.1055" y="304.3247">200 OK + danh s&#225;ch asset</text></g><g class="message" data-participant-1="UI" data-participant-2="GD"><polygon fill="#181818" points="79.8433,334.5234,69.8433,338.5234,79.8433,342.5234,75.8433,338.5234" style="stroke:#181818;stroke-width:1;"/><line style="stroke:#181818;stroke-width:1;" x1="73.8433" x2="279.1055" y1="338.5234" y2="338.5234"/><text fill="#000000" font-family="sans-serif" font-size="13" lengthAdjust="spacing" textLength="160.5322" x="85.8433" y="333.4575">Hi&#7875;n th&#7883; danh s&#225;ch asset</text></g><rect fill="#EEEEEE" height="3" style="stroke:#EEEEEE;stroke-width:1;" width="892.1064" x="0" y="367.0898"/><line style="stroke:#000000;stroke-width:1;" x1="0" x2="892.1064" y1="367.0898" y2="367.0898"/><line style="stroke:#000000;stroke-width:1;" x1="0" x2="892.1064" y1="370.0898" y2="370.0898"/><rect fill="#EEEEEE" height="23.1328" style="stroke:#000000;stroke-width:2;" width="127.9722" x="382.0671" y="356.5234"/><text fill="#000000" font-family="sans-serif" font-size="13" font-weight="bold" lengthAdjust="spacing" textLength="109.4463" x="388.0671" y="372.5903">C&#7853;p nh&#7853;t asset</text><g class="message" data-participant-1="GD" data-participant-2="UI"><polygon fill="#181818" points="268.1055,406.7891,278.1055,410.7891,268.1055,414.7891,272.1055,410.7891" style="stroke:#181818;stroke-width:1;"/><line style="stroke:#181818;stroke-width:1;" x1="68.8433" x2="274.1055" y1="410.7891" y2="410.7891"/><text fill="#000000" font-family="sans-serif" font-size="13" lengthAdjust="spacing" textLength="187.2622" x="75.8433" y="405.7231">Ch&#7885;n asset + nh&#7845;n "Update"</text></g><g class="message" data-participant-1="UI" data-participant-2="AssetSvc"><polygon fill="#181818" points="477.3047,435.9219,487.3047,439.9219,477.3047,443.9219,481.3047,439.9219" style="stroke:#181818;stroke-width:1;"/><line style="stroke:#181818;stroke-width:1;" x1="280.1055" x2="483.3047" y1="439.9219" y2="439.9219"/><text fill="#000000" font-family="sans-serif" font-size="13" lengthAdjust="spacing" textLength="185.1992" x="287.1055" y="434.856">PATCH /assets/{id}/changes</text></g><g class="message" data-participant-1="AssetSvc" data-participant-2="DB"><polygon fill="#181818" points="840.5552,465.0547,850.5552,469.0547,840.5552,473.0547,844.5552,469.0547" style="stroke:#181818;stroke-width:1;"/><line style="stroke:#181818;stroke-width:1;" x1="489.3047" x2="846.5552" y1="469.0547" y2="469.0547"/><text fill="#000000" font-family="sans-serif" font-size="13" lengthAdjust="spacing" textLength="229.0044" x="496.3047" y="463.9888">UPDATE assets SET ... WHERE id=?</text></g><g class="message" data-participant-1="DB" data-participant-2="AssetSvc"><polygon fill="#181818" points="500.3047,494.1875,490.3047,498.1875,500.3047,502.1875,496.3047,498.1875" style="stroke:#181818;stroke-width:1;"/><line style="stroke:#181818;stroke-width:1;stroke-dasharray:2,2;" x1="494.3047" x2="851.5552" y1="498.1875" y2="498.1875"/><text fill="#000000" font-family="sans-serif" font-size="13" lengthAdjust="spacing" textLength="47.7026" x="506.3047" y="493.1216">200 OK</text></g><g class="message" data-participant-1="AssetSvc" data-participant-2="UI"><polygon fill="#181818" points="291.1055,523.3203,281.1055,527.3203,291.1055,531.3203,287.1055,527.3203" style="stroke:#181818;stroke-width:1;"/><line style="stroke:#181818;stroke-width:1;stroke-dasharray:2,2;" x1="285.1055" x2="488.3047" y1="527.3203" y2="527.3203"/><text fill="#000000" font-family="sans-serif" font-size="13" lengthAdjust="spacing" textLength="122.0083" x="297.1055" y="522.2544">X&#225;c nh&#7853;n c&#7853;p nh&#7853;t</text></g><g class="message" data-participant-1="UI" data-participant-2="GD"><polygon fill="#181818" points="79.8433,552.4531,69.8433,556.4531,79.8433,560.4531,75.8433,556.4531" style="stroke:#181818;stroke-width:1;"/><line style="stroke:#181818;stroke-width:1;" x1="73.8433" x2="279.1055" y1="556.4531" y2="556.4531"/><text fill="#000000" font-family="sans-serif" font-size="13" lengthAdjust="spacing" textLength="170.9678" x="85.8433" y="551.3872">Hi&#7875;n th&#7883; asset &#273;&#227; c&#7853;p nh&#7853;t</text></g><rect fill="#EEEEEE" height="3" style="stroke:#EEEEEE;stroke-width:1;" width="892.1064" x="0" y="585.0195"/><line style="stroke:#000000;stroke-width:1;" x1="0" x2="892.1064" y1="585.0195" y2="585.0195"/><line style="stroke:#000000;stroke-width:1;" x1="0" x2="892.1064" y1="588.0195" y2="588.0195"/><rect fill="#EEEEEE" height="23.1328" style="stroke:#000000;stroke-width:2;" width="90.0576" x="401.0244" y="574.4531"/><text fill="#000000" font-family="sans-serif" font-size="13" font-weight="bold" lengthAdjust="spacing" textLength="71.5317" x="407.0244" y="590.52">X&#243;a asset</text><g class="message" data-participant-1="GD" data-participant-2="UI"><polygon fill="#181818" points="268.1055,624.7188,278.1055,628.7188,268.1055,632.7188,272.1055,628.7188" style="stroke:#181818;stroke-width:1;"/><line style="stroke:#181818;stroke-width:1;" x1="68.8433" x2="274.1055" y1="628.7188" y2="628.7188"/><text fill="#000000" font-family="sans-serif" font-size="13" lengthAdjust="spacing" textLength="92.9741" x="75.8433" y="623.6528">Nh&#7845;n "Delete"</text></g><g class="message" data-participant-1="UI" data-participant-2="AssetSvc"><polygon fill="#181818" points="477.3047,653.8516,487.3047,657.8516,477.3047,661.8516,481.3047,657.8516" style="stroke:#181818;stroke-width:1;"/><line style="stroke:#181818;stroke-width:1;" x1="280.1055" x2="483.3047" y1="657.8516" y2="657.8516"/><text fill="#000000" font-family="sans-serif" font-size="13" lengthAdjust="spacing" textLength="132.5137" x="287.1055" y="652.7856">DELETE /assets/{id}</text></g><g class="message" data-participant-1="AssetSvc" data-participant-2="DB"><polygon fill="#181818" points="840.5552,682.9844,850.5552,686.9844,840.5552,690.9844,844.5552,686.9844" style="stroke:#181818;stroke-width:1;"/><line style="stroke:#181818;stroke-width:1;" x1="489.3047" x2="846.5552" y1="686.9844" y2="686.9844"/><text fill="#000000" font-family="sans-serif" font-size="13" lengthAdjust="spacing" textLength="339.2505" x="496.3047" y="681.9185">UPDATE assets SET status="DELETED" WHERE id=?</text></g><g class="message" data-participant-1="DB" data-participant-2="AssetSvc"><polygon fill="#181818" points="500.3047,712.1172,490.3047,716.1172,500.3047,720.1172,496.3047,716.1172" style="stroke:#181818;stroke-width:1;"/><line style="stroke:#181818;stroke-width:1;stroke-dasharray:2,2;" x1="494.3047" x2="851.5552" y1="716.1172" y2="716.1172"/><text fill="#000000" font-family="sans-serif" font-size="13" lengthAdjust="spacing" textLength="47.7026" x="506.3047" y="711.0513">200 OK</text></g><g class="message" data-participant-1="AssetSvc" data-participant-2="UI"><polygon fill="#181818" points="291.1055,741.25,281.1055,745.25,291.1055,749.25,287.1055,745.25" style="stroke:#181818;stroke-width:1;"/><line style="stroke:#181818;stroke-width:1;stroke-dasharray:2,2;" x1="285.1055" x2="488.3047" y1="745.25" y2="745.25"/><text fill="#000000" font-family="sans-serif" font-size="13" lengthAdjust="spacing" textLength="88.5815" x="297.1055" y="740.1841">X&#225;c nh&#7853;n x&#243;a</text></g><g class="message" data-participant-1="UI" data-participant-2="GD"><polygon fill="#181818" points="79.8433,770.3828,69.8433,774.3828,79.8433,778.3828,75.8433,774.3828" style="stroke:#181818;stroke-width:1;"/><line style="stroke:#181818;stroke-width:1;" x1="73.8433" x2="279.1055" y1="774.3828" y2="774.3828"/><text fill="#000000" font-family="sans-serif" font-size="13" lengthAdjust="spacing" textLength="153.5371" x="85.8433" y="769.3169">Hi&#7875;n th&#7883; asset &#273;&#227; b&#7883; x&#243;a</text></g><!--SRC=[hPBDJi904CVl-nIJdbJ2HpoQL09i1QE8eH2vcMMPq4rWhTtrAyQJH-F1Hp36eoTlSiGNuKqSMchuqdZmr7Jclplp-xLMsG62Z-SNg2K2Lw8VYI5aeIwqw2EKZ44BXyfOsAX68WoK18v6zJL6cum9QSyYS9Ox3WW3LSv24LabLIYq1QUz7vVR-ulbP8AFqQMI62VYYdyfMKzOqHK6qn0lntrUPinreOD3w0aTW1a_ou0QquZhiYg7x2wDWHse19FHemQdVfDSQXn6TUgc8oXJzLgGZm-RujaLBUyEaNttASlBbFAzGw_IWYtOQpRgoIm39pMlwK5yw5Jrt2AZQ7RnThwquDpDwPBRXG8q3Y2p0ZFRbNXseAOcetiDbe0ULeDJ7PN9nri8Eg27_Kr6qih4oLToqmv9CwuHSrngLMgfclojwjtbPI1q7ysgdlOnBxMyr8jFIdEvtCpF3sOIx3K-EWIMS6YGSr0_waY8Ff_6Bulv-2SPlukrDevc-1m7k1QVqnSdf7d-lt0RA-o5SPtaE7V-GS8rCVm5lZjzduQ_0000]--></g></svg>