<svg xmlns="http://www.w3.org/2000/svg" xmlns:xlink="http://www.w3.org/1999/xlink" contentStyleType="text/css" data-diagram-type="SEQUENCE" height="1094px" preserveAspectRatio="none" style="width:1039px;height:1094px;background:#FFFFFF;" version="1.1" viewBox="0 0 1039 1094" width="1039px" zoomAndPan="magnify"><title>Sequence - Manage My Account (Graphic Designer)</title><defs/><g><text fill="#000000" font-family="sans-serif" font-size="14" font-weight="bold" lengthAdjust="spacing" textLength="405.2822" x="313.1279" y="27.9951">Sequence - Manage My Account (Graphic Designer)</text><rect fill="none" height="221.8672" style="stroke:#000000;stroke-width:1.5;" width="1012.5381" x="10" y="774.3828"/><g><title>Graphic Designer</title><rect fill="#000000" fill-opacity="0.00000" height="894.6563" width="8" x="79.8433" y="118.5938"/><line style="stroke:#181818;stroke-width:0.5;stroke-dasharray:5,5;" x1="83" x2="83" y1="118.5938" y2="1013.25"/></g><g><title>UI</title><rect fill="#000000" fill-opacity="0.00000" height="894.6563" width="8" x="371.8032" y="118.5938"/><line style="stroke:#181818;stroke-width:0.5;stroke-dasharray:5,5;" x1="375.6152" x2="375.6152" y1="118.5938" y2="1013.25"/></g><g><title>Account Service</title><rect fill="#000000" fill-opacity="0.00000" height="894.6563" width="8" x="625.3535" y="118.5938"/><line style="stroke:#181818;stroke-width:0.5;stroke-dasharray:5,5;" x1="628.8716" x2="628.8716" y1="118.5938" y2="1013.25"/></g><g><title>User DB</title><rect fill="#000000" fill-opacity="0.00000" height="894.6563" width="8" x="977.1655" y="118.5938"/><line style="stroke:#181818;stroke-width:0.5;stroke-dasharray:5,5;" x1="980.793" x2="980.793" y1="118.5938" y2="1013.25"/></g><g class="participant participant-head" data-participant="GD"><text fill="#000000" font-family="sans-serif" font-size="14" lengthAdjust="spacing" textLength="121.6865" x="20" y="115.292">Graphic Designer</text><ellipse cx="83.8433" cy="50.7969" fill="#E2E2F0" rx="8" ry="8" style="stroke:#181818;stroke-width:0.5;"/><path d="M83.8433,58.7969 L83.8433,85.7969 M70.8433,66.7969 L96.8433,66.7969 M83.8433,85.7969 L70.8433,100.7969 M83.8433,85.7969 L96.8433,100.7969" fill="none" style="stroke:#181818;stroke-width:0.5;"/></g><g class="participant participant-tail" data-participant="GD"><text fill="#000000" font-family="sans-serif" font-size="14" lengthAdjust="spacing" textLength="121.6865" x="20" y="1025.2451">Graphic Designer</text><ellipse cx="83.8433" cy="1037.0469" fill="#E2E2F0" rx="8" ry="8" style="stroke:#181818;stroke-width:0.5;"/><path d="M83.8433,1045.0469 L83.8433,1072.0469 M70.8433,1053.0469 L96.8433,1053.0469 M83.8433,1072.0469 L70.8433,1087.0469 M83.8433,1072.0469 L96.8433,1087.0469" fill="none" style="stroke:#181818;stroke-width:0.5;"/></g><g class="participant participant-head" data-participant="UI"><rect fill="#E2E2F0" height="30.2969" rx="2.5" ry="2.5" style="stroke:#181818;stroke-width:0.5;" width="28.376" x="361.6152" y="87.2969"/><text fill="#000000" font-family="sans-serif" font-size="14" lengthAdjust="spacing" textLength="14.376" x="368.6152" y="107.292">UI</text></g><g class="participant participant-tail" data-participant="UI"><rect fill="#E2E2F0" height="30.2969" rx="2.5" ry="2.5" style="stroke:#181818;stroke-width:0.5;" width="28.376" x="361.6152" y="1012.25"/><text fill="#000000" font-family="sans-serif" font-size="14" lengthAdjust="spacing" textLength="14.376" x="368.6152" y="1032.2451">UI</text></g><g class="participant participant-head" data-participant="AccSvc"><rect fill="#E2E2F0" height="30.2969" rx="2.5" ry="2.5" style="stroke:#181818;stroke-width:0.5;" width="126.9639" x="565.8716" y="87.2969"/><text fill="#000000" font-family="sans-serif" font-size="14" lengthAdjust="spacing" textLength="112.9639" x="572.8716" y="107.292">Account Service</text></g><g class="participant participant-tail" data-participant="AccSvc"><rect fill="#E2E2F0" height="30.2969" rx="2.5" ry="2.5" style="stroke:#181818;stroke-width:0.5;" width="126.9639" x="565.8716" y="1012.25"/><text fill="#000000" font-family="sans-serif" font-size="14" lengthAdjust="spacing" textLength="112.9639" x="572.8716" y="1032.2451">Account Service</text></g><g class="participant participant-head" data-participant="DB"><text fill="#000000" font-family="sans-serif" font-size="14" lengthAdjust="spacing" textLength="56.7451" x="949.793" y="115.292">User DB</text><path d="M963.1655,66.2969 C963.1655,56.2969 981.1655,56.2969 981.1655,56.2969 C981.1655,56.2969 999.1655,56.2969 999.1655,66.2969 L999.1655,92.2969 C999.1655,102.2969 981.1655,102.2969 981.1655,102.2969 C981.1655,102.2969 963.1655,102.2969 963.1655,92.2969 L963.1655,66.2969" fill="#E2E2F0" style="stroke:#181818;stroke-width:0.5;"/><path d="M963.1655,66.2969 C963.1655,76.2969 981.1655,76.2969 981.1655,76.2969 C981.1655,76.2969 999.1655,76.2969 999.1655,66.2969" fill="none" style="stroke:#181818;stroke-width:0.5;"/></g><g class="participant participant-tail" data-participant="DB"><text fill="#000000" font-family="sans-serif" font-size="14" lengthAdjust="spacing" textLength="56.7451" x="949.793" y="1025.2451">User DB</text><path d="M963.1655,1038.5469 C963.1655,1028.5469 981.1655,1028.5469 981.1655,1028.5469 C981.1655,1028.5469 999.1655,1028.5469 999.1655,1038.5469 L999.1655,1064.5469 C999.1655,1074.5469 981.1655,1074.5469 981.1655,1074.5469 C981.1655,1074.5469 963.1655,1074.5469 963.1655,1064.5469 L963.1655,1038.5469" fill="#E2E2F0" style="stroke:#181818;stroke-width:0.5;"/><path d="M963.1655,1038.5469 C963.1655,1048.5469 981.1655,1048.5469 981.1655,1048.5469 C981.1655,1048.5469 999.1655,1048.5469 999.1655,1038.5469" fill="none" style="stroke:#181818;stroke-width:0.5;"/></g><rect fill="#EEEEEE" height="3" style="stroke:#EEEEEE;stroke-width:1;" width="1032.5381" x="0" y="149.1602"/><line style="stroke:#000000;stroke-width:1;" x1="0" x2="1032.5381" y1="149.1602" y2="149.1602"/><line style="stroke:#000000;stroke-width:1;" x1="0" x2="1032.5381" y1="152.1602" y2="152.1602"/><rect fill="#EEEEEE" height="23.1328" style="stroke:#000000;stroke-width:2;" width="218.1724" x="407.1829" y="138.5938"/><text fill="#000000" font-family="sans-serif" font-size="13" font-weight="bold" lengthAdjust="spacing" textLength="199.6465" x="413.1829" y="154.6606">C&#7853;p nh&#7853;t th&#244;ng tin c&#225; nh&#226;n</text><g class="message" data-participant-1="GD" data-participant-2="UI"><polygon fill="#181818" points="363.8032,188.8594,373.8032,192.8594,363.8032,196.8594,367.8032,192.8594" style="stroke:#181818;stroke-width:1;"/><line style="stroke:#181818;stroke-width:1;" x1="83.8433" x2="369.8032" y1="192.8594" y2="192.8594"/><text fill="#000000" font-family="sans-serif" font-size="13" lengthAdjust="spacing" textLength="267.96" x="90.8433" y="187.7935">Nh&#7853;p th&#244;ng tin m&#7899;i (t&#234;n, email, avatar...)</text></g><g class="message" data-participant-1="UI" data-participant-2="AccSvc"><polygon fill="#181818" points="617.3535,233.125,627.3535,237.125,617.3535,241.125,621.3535,237.125" style="stroke:#181818;stroke-width:1;"/><line style="stroke:#181818;stroke-width:1;" x1="375.8032" x2="623.3535" y1="237.125" y2="237.125"/><text fill="#000000" font-family="sans-serif" font-size="13" lengthAdjust="spacing" textLength="119.9517" x="382.8032" y="216.9263">PATCH /users/{id}</text><text fill="#000000" font-family="sans-serif" font-size="13" lengthAdjust="spacing" textLength="65.5269" x="382.8032" y="232.0591">(new info)</text></g><g class="message" data-participant-1="AccSvc" data-participant-2="DB"><polygon fill="#181818" points="969.1655,262.2578,979.1655,266.2578,969.1655,270.2578,973.1655,266.2578" style="stroke:#181818;stroke-width:1;"/><line style="stroke:#181818;stroke-width:1;" x1="629.3535" x2="975.1655" y1="266.2578" y2="266.2578"/><text fill="#000000" font-family="sans-serif" font-size="13" lengthAdjust="spacing" textLength="222.752" x="636.3535" y="261.1919">UPDATE users SET ... WHERE id=?</text></g><g class="message" data-participant-1="DB" data-participant-2="AccSvc"><polygon fill="#181818" points="640.3535,291.3906,630.3535,295.3906,640.3535,299.3906,636.3535,295.3906" style="stroke:#181818;stroke-width:1;"/><line style="stroke:#181818;stroke-width:1;stroke-dasharray:2,2;" x1="634.3535" x2="980.1655" y1="295.3906" y2="295.3906"/><text fill="#000000" font-family="sans-serif" font-size="13" lengthAdjust="spacing" textLength="47.7026" x="646.3535" y="290.3247">200 OK</text></g><g class="message" data-participant-1="AccSvc" data-participant-2="UI"><polygon fill="#181818" points="386.8032,320.5234,376.8032,324.5234,386.8032,328.5234,382.8032,324.5234" style="stroke:#181818;stroke-width:1;"/><line style="stroke:#181818;stroke-width:1;stroke-dasharray:2,2;" x1="380.8032" x2="628.3535" y1="324.5234" y2="324.5234"/><text fill="#000000" font-family="sans-serif" font-size="13" lengthAdjust="spacing" textLength="122.0083" x="392.8032" y="319.4575">X&#225;c nh&#7853;n c&#7853;p nh&#7853;t</text></g><g class="message" data-participant-1="UI" data-participant-2="GD"><polygon fill="#181818" points="94.8433,349.6563,84.8433,353.6563,94.8433,357.6563,90.8433,353.6563" style="stroke:#181818;stroke-width:1;"/><line style="stroke:#181818;stroke-width:1;" x1="88.8433" x2="374.8032" y1="353.6563" y2="353.6563"/><text fill="#000000" font-family="sans-serif" font-size="13" lengthAdjust="spacing" textLength="195.2222" x="100.8433" y="348.5903">Hi&#7875;n th&#7883; th&#244;ng tin &#273;&#227; c&#7853;p nh&#7853;t</text></g><rect fill="#EEEEEE" height="3" style="stroke:#EEEEEE;stroke-width:1;" width="1032.5381" x="0" y="382.2227"/><line style="stroke:#000000;stroke-width:1;" x1="0" x2="1032.5381" y1="382.2227" y2="382.2227"/><line style="stroke:#000000;stroke-width:1;" x1="0" x2="1032.5381" y1="385.2227" y2="385.2227"/><rect fill="#EEEEEE" height="23.1328" style="stroke:#000000;stroke-width:2;" width="239.5322" x="396.5029" y="371.6563"/><text fill="#000000" font-family="sans-serif" font-size="13" font-weight="bold" lengthAdjust="spacing" textLength="221.0063" x="402.5029" y="387.7231">Khai b&#225;o th&#244;ng tin thanh to&#225;n</text><g class="message" data-participant-1="GD" data-participant-2="UI"><polygon fill="#181818" points="363.8032,421.9219,373.8032,425.9219,363.8032,429.9219,367.8032,425.9219" style="stroke:#181818;stroke-width:1;"/><line style="stroke:#181818;stroke-width:1;" x1="83.8433" x2="369.8032" y1="425.9219" y2="425.9219"/><text fill="#000000" font-family="sans-serif" font-size="13" lengthAdjust="spacing" textLength="172.4785" x="90.8433" y="420.856">Nh&#7853;p th&#244;ng tin thanh to&#225;n</text></g><g class="message" data-participant-1="UI" data-participant-2="AccSvc"><polygon fill="#181818" points="617.3535,451.0547,627.3535,455.0547,617.3535,459.0547,621.3535,455.0547" style="stroke:#181818;stroke-width:1;"/><line style="stroke:#181818;stroke-width:1;" x1="375.8032" x2="623.3535" y1="455.0547" y2="455.0547"/><text fill="#000000" font-family="sans-serif" font-size="13" lengthAdjust="spacing" textLength="202.0522" x="382.8032" y="449.9888">POST /users/{id}/payment-info</text></g><g class="message" data-participant-1="AccSvc" data-participant-2="DB"><polygon fill="#181818" points="969.1655,495.3203,979.1655,499.3203,969.1655,503.3203,973.1655,499.3203" style="stroke:#181818;stroke-width:1;"/><line style="stroke:#181818;stroke-width:1;" x1="629.3535" x2="975.1655" y1="499.3203" y2="499.3203"/><text fill="#000000" font-family="sans-serif" font-size="13" lengthAdjust="spacing" textLength="175.7856" x="636.3535" y="479.1216">INSERT INTO payment_info</text><text fill="#000000" font-family="sans-serif" font-size="13" lengthAdjust="spacing" textLength="192.2578" x="636.3535" y="494.2544">(user_id, bank, account_no...)</text></g><g class="message" data-participant-1="DB" data-participant-2="AccSvc"><polygon fill="#181818" points="640.3535,524.4531,630.3535,528.4531,640.3535,532.4531,636.3535,528.4531" style="stroke:#181818;stroke-width:1;"/><line style="stroke:#181818;stroke-width:1;stroke-dasharray:2,2;" x1="634.3535" x2="980.1655" y1="528.4531" y2="528.4531"/><text fill="#000000" font-family="sans-serif" font-size="13" lengthAdjust="spacing" textLength="47.7026" x="646.3535" y="523.3872">200 OK</text></g><g class="message" data-participant-1="AccSvc" data-participant-2="UI"><polygon fill="#181818" points="386.8032,553.5859,376.8032,557.5859,386.8032,561.5859,382.8032,557.5859" style="stroke:#181818;stroke-width:1;"/><line style="stroke:#181818;stroke-width:1;stroke-dasharray:2,2;" x1="380.8032" x2="628.3535" y1="557.5859" y2="557.5859"/><text fill="#000000" font-family="sans-serif" font-size="13" lengthAdjust="spacing" textLength="120.6182" x="392.8032" y="552.52">X&#225;c nh&#7853;n khai b&#225;o</text></g><g class="message" data-participant-1="UI" data-participant-2="GD"><polygon fill="#181818" points="94.8433,582.7188,84.8433,586.7188,94.8433,590.7188,90.8433,586.7188" style="stroke:#181818;stroke-width:1;"/><line style="stroke:#181818;stroke-width:1;" x1="88.8433" x2="374.8032" y1="586.7188" y2="586.7188"/><text fill="#000000" font-family="sans-serif" font-size="13" lengthAdjust="spacing" textLength="189.0015" x="100.8433" y="581.6528">Hi&#7875;n th&#7883; th&#244;ng tin thanh to&#225;n</text></g><rect fill="#EEEEEE" height="3" style="stroke:#EEEEEE;stroke-width:1;" width="1032.5381" x="0" y="615.2852"/><line style="stroke:#000000;stroke-width:1;" x1="0" x2="1032.5381" y1="615.2852" y2="615.2852"/><line style="stroke:#000000;stroke-width:1;" x1="0" x2="1032.5381" y1="618.2852" y2="618.2852"/><rect fill="#EEEEEE" height="23.1328" style="stroke:#000000;stroke-width:2;" width="116.3179" x="458.1101" y="604.7188"/><text fill="#000000" font-family="sans-serif" font-size="13" font-weight="bold" lengthAdjust="spacing" textLength="97.792" x="464.1101" y="620.7856">&#272;&#7893;i m&#7853;t kh&#7849;u</text><g class="message" data-participant-1="GD" data-participant-2="UI"><polygon fill="#181818" points="363.8032,654.9844,373.8032,658.9844,363.8032,662.9844,367.8032,658.9844" style="stroke:#181818;stroke-width:1;"/><line style="stroke:#181818;stroke-width:1;" x1="83.8433" x2="369.8032" y1="658.9844" y2="658.9844"/><text fill="#000000" font-family="sans-serif" font-size="13" lengthAdjust="spacing" textLength="163.0522" x="90.8433" y="653.9185">Nh&#7853;p m&#7853;t kh&#7849;u c&#361; + m&#7899;i</text></g><g class="message" data-participant-1="UI" data-participant-2="AccSvc"><polygon fill="#181818" points="617.3535,684.1172,627.3535,688.1172,617.3535,692.1172,621.3535,688.1172" style="stroke:#181818;stroke-width:1;"/><line style="stroke:#181818;stroke-width:1;" x1="375.8032" x2="623.3535" y1="688.1172" y2="688.1172"/><text fill="#000000" font-family="sans-serif" font-size="13" lengthAdjust="spacing" textLength="229.5503" x="382.8032" y="683.0513">POST /users/{id}/change-password</text></g><g class="message" data-participant-1="AccSvc" data-participant-2="DB"><polygon fill="#181818" points="969.1655,713.25,979.1655,717.25,969.1655,721.25,973.1655,717.25" style="stroke:#181818;stroke-width:1;"/><line style="stroke:#181818;stroke-width:1;" x1="629.3535" x2="975.1655" y1="717.25" y2="717.25"/><text fill="#000000" font-family="sans-serif" font-size="13" lengthAdjust="spacing" textLength="238.748" x="636.3535" y="712.1841">SELECT password_hash WHERE id=?</text></g><g class="message" data-participant-1="AccSvc" data-participant-2="AccSvc"><line style="stroke:#181818;stroke-width:1;" x1="629.3535" x2="671.3535" y1="746.3828" y2="746.3828"/><line style="stroke:#181818;stroke-width:1;" x1="671.3535" x2="671.3535" y1="746.3828" y2="759.3828"/><line style="stroke:#181818;stroke-width:1;" x1="630.3535" x2="671.3535" y1="759.3828" y2="759.3828"/><polygon fill="#181818" points="640.3535,755.3828,630.3535,759.3828,640.3535,763.3828,636.3535,759.3828" style="stroke:#181818;stroke-width:1;"/><text fill="#000000" font-family="sans-serif" font-size="13" lengthAdjust="spacing" textLength="140.8228" x="636.3535" y="741.3169">Ki&#7875;m tra m&#7853;t kh&#7849;u c&#361;</text></g><path d="M10,774.3828 L74.4429,774.3828 L74.4429,781.5156 L64.4429,791.5156 L10,791.5156 L10,774.3828" fill="#EEEEEE" style="stroke:#000000;stroke-width:1.5;"/><rect fill="none" height="221.8672" style="stroke:#000000;stroke-width:1.5;" width="1012.5381" x="10" y="774.3828"/><text fill="#000000" font-family="sans-serif" font-size="13" font-weight="bold" lengthAdjust="spacing" textLength="19.4429" x="25" y="787.4497">alt</text><text fill="#000000" font-family="sans-serif" font-size="11" font-weight="bold" lengthAdjust="spacing" textLength="110.0645" x="89.4429" y="786.5933">[M&#7853;t kh&#7849;u h&#7907;p l&#7879;]</text><g class="message" data-participant-1="AccSvc" data-participant-2="DB"><polygon fill="#181818" points="969.1655,808.6484,979.1655,812.6484,969.1655,816.6484,973.1655,812.6484" style="stroke:#181818;stroke-width:1;"/><line style="stroke:#181818;stroke-width:1;" x1="629.3535" x2="975.1655" y1="812.6484" y2="812.6484"/><text fill="#000000" font-family="sans-serif" font-size="13" lengthAdjust="spacing" textLength="327.812" x="636.3535" y="807.5825">UPDATE users SET password_hash=? WHERE id=?</text></g><g class="message" data-participant-1="DB" data-participant-2="AccSvc"><polygon fill="#181818" points="640.3535,837.7813,630.3535,841.7813,640.3535,845.7813,636.3535,841.7813" style="stroke:#181818;stroke-width:1;"/><line style="stroke:#181818;stroke-width:1;stroke-dasharray:2,2;" x1="634.3535" x2="980.1655" y1="841.7813" y2="841.7813"/><text fill="#000000" font-family="sans-serif" font-size="13" lengthAdjust="spacing" textLength="47.7026" x="646.3535" y="836.7153">200 OK</text></g><g class="message" data-participant-1="AccSvc" data-participant-2="UI"><polygon fill="#181818" points="386.8032,866.9141,376.8032,870.9141,386.8032,874.9141,382.8032,870.9141" style="stroke:#181818;stroke-width:1;"/><line style="stroke:#181818;stroke-width:1;stroke-dasharray:2,2;" x1="380.8032" x2="628.3535" y1="870.9141" y2="870.9141"/><text fill="#000000" font-family="sans-serif" font-size="13" lengthAdjust="spacing" textLength="165.2422" x="392.8032" y="865.8481">&#272;&#7893;i m&#7853;t kh&#7849;u th&#224;nh c&#244;ng</text></g><g class="message" data-participant-1="UI" data-participant-2="GD"><polygon fill="#181818" points="94.8433,896.0469,84.8433,900.0469,94.8433,904.0469,90.8433,900.0469" style="stroke:#181818;stroke-width:1;"/><line style="stroke:#181818;stroke-width:1;" x1="88.8433" x2="374.8032" y1="900.0469" y2="900.0469"/><text fill="#000000" font-family="sans-serif" font-size="13" lengthAdjust="spacing" textLength="198.561" x="100.8433" y="894.981">Hi&#7875;n th&#7883; th&#244;ng b&#225;o th&#224;nh c&#244;ng</text></g><line style="stroke:#000000;stroke-width:1;stroke-dasharray:2,2;" x1="10" x2="1022.5381" y1="909.0469" y2="909.0469"/><text fill="#000000" font-family="sans-serif" font-size="11" font-weight="bold" lengthAdjust="spacing" textLength="89.4824" x="15" y="919.2573">[M&#7853;t kh&#7849;u sai]</text><g class="message" data-participant-1="AccSvc" data-participant-2="UI"><polygon fill="#181818" points="386.8032,955.1172,376.8032,959.1172,386.8032,963.1172,382.8032,959.1172" style="stroke:#181818;stroke-width:1;"/><line style="stroke:#181818;stroke-width:1;stroke-dasharray:2,2;" x1="380.8032" x2="628.3535" y1="959.1172" y2="959.1172"/><text fill="#000000" font-family="sans-serif" font-size="13" lengthAdjust="spacing" textLength="94.3262" x="392.8032" y="938.9185">403 Forbidden</text><text fill="#000000" font-family="sans-serif" font-size="13" lengthAdjust="spacing" textLength="85.7949" x="392.8032" y="954.0513">Sai m&#7853;t kh&#7849;u</text></g><g class="message" data-participant-1="UI" data-participant-2="GD"><polygon fill="#181818" points="94.8433,984.25,84.8433,988.25,94.8433,992.25,90.8433,988.25" style="stroke:#181818;stroke-width:1;"/><line style="stroke:#181818;stroke-width:1;" x1="88.8433" x2="374.8032" y1="988.25" y2="988.25"/><text fill="#000000" font-family="sans-serif" font-size="13" lengthAdjust="spacing" textLength="70.0146" x="100.8433" y="983.1841">Hi&#7875;n th&#7883; l&#7895;i</text></g><!--SRC=[dLGzRzDG5DtVhxZAb8Xy2PWgcIgDJHA5D5Nj28PAqSlp8tvAycpibrHLnSJ0m083Oc0XT2eI6nCPNNw8_mdNJjpQQI28B9RkE-VUSywzYX9goi7ah-PSCWuLw559nnnw5z1Wp9rB1SMMJpr7CD1v8CQI-oL2A5Ek3uNjbmBG05ewyQYl11CUHNfXq4dAWqw-dBOtkRyGZ2SOh9aBHcogw8W67Ba1zq4_IXxr8q8q3PhHp-yUI0S_2fGJ_f1ZK4822vTO3RzAq3JIqg7o14V20Hmx2I63d4MhpmAAAlmcoy1dL4pBG1SuqwzMgoM2BEIkfI3_f64rsr2RevAWTYdirsUoAFav2FdIBP4D30dw4O879th3CY01WsbOW1tXUTiuDK3OsY51K2NR_66z3ltkRPTKyujmoTOMqLV6xqORkZk0jeXMRoJwYbRlikvkFeHNULASMjUX0aRXqir2bKEb0yeDb_j3os3l9TGthMn0DOzUpBXKbJYYxOGwnwPnQk77wiC6Dunnc6hSOIZiCeoedE1ArWSob6wobl-8RfAQ_fVSiWRZn6xUHwkF0eyblhC9DhoUxmufXs2_hk71-iBsniHmufXNF1e4vwvlRoTb6i-CfWNfyz2XWPEzfJluxOXkx6q6ogVtL14wLT3B5Z60Am-cqUej0Vpjk-IS3kqmgoIc_s4zsSvfRhkInKLymVXPl8w4j6TZwIdVaVWK_p1o1WCgTiv_N7y4Jrr_96oRopDfqhoMlux7k3u9mgNz6m00]--></g></svg>