<svg xmlns="http://www.w3.org/2000/svg" xmlns:xlink="http://www.w3.org/1999/xlink" contentStyleType="text/css" data-diagram-type="DESCRIPTION" height="530px" preserveAspectRatio="none" style="width:289px;height:530px;background:#FFFFFF;" version="1.1" viewBox="0 0 289 530" width="289px" zoomAndPan="magnify"><defs/><g><!--entity H? th?ng--><g class="entity" data-entity="H. th.ng" data-source-line="9" data-uid="ent0007" id="entity_H. th.ng"><rect fill="#F1F1F1" height="36.2969" rx="2.5" ry="2.5" style="stroke:#181818;stroke-width:0.5;" width="84.2783" x="199" y="247.5"/><text fill="#000000" font-family="sans-serif" font-size="14" lengthAdjust="spacing" textLength="64.2783" x="209" y="270.4951">H&#7879; th&#7889;ng</text></g><!--entity Guest--><g class="entity" data-entity="Guest" data-source-line="3" data-uid="ent0002" id="entity_Guest"><ellipse cx="41.9991" cy="14" fill="#F1F1F1" rx="8" ry="8" style="stroke:#181818;stroke-width:0.5;"/><path d="M41.9991,22 L41.9991,49 M28.9991,30 L54.9991,30 M41.9991,49 L28.9991,64 M41.9991,49 L54.9991,64" fill="none" style="stroke:#181818;stroke-width:0.5;"/><text fill="#000000" font-family="sans-serif" font-size="14" lengthAdjust="spacing" textLength="41.1182" x="21.44" y="78.4951">Guest</text></g><!--entity Player--><g class="entity" data-entity="Player" data-source-line="4" data-uid="ent0003" id="entity_Player"><ellipse cx="42.0027" cy="125" fill="#F1F1F1" rx="8" ry="8" style="stroke:#181818;stroke-width:0.5;"/><path d="M42.0027,133 L42.0027,160 M29.0027,141 L55.0027,141 M42.0027,160 L29.0027,175 M42.0027,160 L55.0027,175" fill="none" style="stroke:#181818;stroke-width:0.5;"/><text fill="#000000" font-family="sans-serif" font-size="14" lengthAdjust="spacing" textLength="43.5654" x="20.22" y="189.4951">Player</text></g><!--entity Developer--><g class="entity" data-entity="Developer" data-source-line="5" data-uid="ent0004" id="entity_Developer"><ellipse cx="42.0015" cy="236" fill="#F1F1F1" rx="8" ry="8" style="stroke:#181818;stroke-width:0.5;"/><path d="M42.0015,244 L42.0015,271 M29.0015,252 L55.0015,252 M42.0015,271 L29.0015,286 M42.0015,271 L55.0015,286" fill="none" style="stroke:#181818;stroke-width:0.5;"/><text fill="#000000" font-family="sans-serif" font-size="14" lengthAdjust="spacing" textLength="72.0029" x="6" y="300.4951">Developer</text></g><!--entity Designer--><g class="entity" data-entity="Designer" data-source-line="6" data-uid="ent0005" id="entity_Designer"><ellipse cx="42.003" cy="347" fill="#F1F1F1" rx="8" ry="8" style="stroke:#181818;stroke-width:0.5;"/><path d="M42.003,355 L42.003,382 M29.003,363 L55.003,363 M42.003,382 L29.003,397 M42.003,382 L55.003,397" fill="none" style="stroke:#181818;stroke-width:0.5;"/><text fill="#000000" font-family="sans-serif" font-size="14" lengthAdjust="spacing" textLength="62.7061" x="10.65" y="411.4951">Designer</text></g><!--entity Admin--><g class="entity" data-entity="Admin" data-source-line="7" data-uid="ent0006" id="entity_Admin"><ellipse cx="42.0021" cy="458" fill="#F1F1F1" rx="8" ry="8" style="stroke:#181818;stroke-width:0.5;"/><path d="M42.0021,466 L42.0021,493 M29.0021,474 L55.0021,474 M42.0021,493 L29.0021,508 M42.0021,493 L55.0021,508" fill="none" style="stroke:#181818;stroke-width:0.5;"/><text fill="#000000" font-family="sans-serif" font-size="14" lengthAdjust="spacing" textLength="44.8643" x="19.57" y="522.4951">Admin</text></g><!--link Guest to H? th?ng--><g class="link" data-entity-1="Guest" data-entity-2="H. th.ng" data-source-line="12" data-uid="lnk8" id="link_Guest_H. th.ng"><path d="M62.68,61.6 C88.27,85.33 133.85,128.88 169,169.65 C191.22,195.42 210.7672,222.6282 224.3872,242.4082" fill="none" id="Guest-to-H&#7879; th&#7889;ng" style="stroke:#181818;stroke-width:1;"/><polygon fill="#181818" points="227.79,247.35,225.9803,237.6688,224.9544,243.2319,219.3913,242.2059,227.79,247.35" style="stroke:#181818;stroke-width:1;"/><text fill="#000000" font-family="sans-serif" font-size="13" lengthAdjust="spacing" textLength="43.8052" x="117" y="102.7169">access</text></g><!--link Player to H? th?ng--><g class="link" data-entity-1="Player" data-entity-2="H. th.ng" data-source-line="13" data-uid="lnk9" id="link_Player_H. th.ng"><path d="M64.1,166.53 C98.37,185.83 161.1619,221.176 201.8819,244.106" fill="none" id="Player-to-H&#7879; th&#7889;ng" style="stroke:#181818;stroke-width:1;"/><polygon fill="#181818" points="207.11,247.05,201.2305,239.1486,202.7533,244.5967,197.3052,246.1194,207.11,247.05" style="stroke:#181818;stroke-width:1;"/><text fill="#000000" font-family="sans-serif" font-size="13" lengthAdjust="spacing" textLength="29.7832" x="124" y="190.7169">uses</text></g><!--link Developer to H? th?ng--><g class="link" data-entity-1="Developer" data-entity-2="H. th.ng" data-source-line="14" data-uid="lnk10" id="link_Developer_H. th.ng"><path d="M78.25,265.65 C112.03,265.65 157.01,265.65 192.72,265.65" fill="none" id="Developer-to-H&#7879; th&#7889;ng" style="stroke:#181818;stroke-width:1;"/><polygon fill="#181818" points="198.72,265.65,189.72,261.65,193.72,265.65,189.72,269.65,198.72,265.65" style="stroke:#181818;stroke-width:1;"/><text fill="#000000" font-family="sans-serif" font-size="13" lengthAdjust="spacing" textLength="29.7832" x="124" y="261.7169">uses</text></g><!--link Designer to H? th?ng--><g class="link" data-entity-1="Designer" data-entity-2="H. th.ng" data-source-line="15" data-uid="lnk11" id="link_Designer_H. th.ng"><path d="M73.8,359.31 C110.08,338.88 164.8716,308.0334 202.0316,287.1134" fill="none" id="Designer-to-H&#7879; th&#7889;ng" style="stroke:#181818;stroke-width:1;"/><polygon fill="#181818" points="207.26,284.17,197.4551,285.0996,202.903,286.6229,201.3797,292.0708,207.26,284.17" style="stroke:#181818;stroke-width:1;"/><text fill="#000000" font-family="sans-serif" font-size="13" lengthAdjust="spacing" textLength="29.7832" x="124" y="304.7169">uses</text></g><!--link Admin to H? th?ng--><g class="link" data-entity-1="Admin" data-entity-2="H. th.ng" data-source-line="16" data-uid="lnk12" id="link_Admin_H. th.ng"><path d="M64.53,468.25 C90.47,444.44 134.81,402.34 169,362.65 C191.36,336.7 210.8907,309.1546 224.4707,289.1446" fill="none" id="Admin-to-H&#7879; th&#7889;ng" style="stroke:#181818;stroke-width:1;"/><polygon fill="#181818" points="227.84,284.18,219.4763,289.3808,225.0322,288.3172,226.0958,293.8732,227.84,284.18" style="stroke:#181818;stroke-width:1;"/><text fill="#000000" font-family="sans-serif" font-size="13" lengthAdjust="spacing" textLength="59.8584" x="109" y="358.7169">manages</text></g><!--SRC=[VOv12i9034NtEKNelXTm8GY2Bhr2cCRfm3GZarGGSUtQy_GqlOdQbY9IkildVrvUvBEX9Sp1ruPLoEmi904WPodZeMMrwJv5kd6Umfwl7DFb9slmCiTTrOGFv4iZyP6nEFRT4wtkkvVu0k_m01ZWM9RR_tQ3v1ohmlXoUT8gAymQgvjHRMKow2xt3GbvrZS0]--></g></svg>