<svg xmlns="http://www.w3.org/2000/svg" xmlns:xlink="http://www.w3.org/1999/xlink" contentStyleType="text/css" data-diagram-type="SEQUENCE" height="482px" preserveAspectRatio="none" style="width:662px;height:482px;background:#FFFFFF;" version="1.1" viewBox="0 0 662 482" width="662px" zoomAndPan="magnify"><title>Sequence - Register Asset (Graphic Designer)</title><defs/><g><text fill="#000000" font-family="sans-serif" font-size="14" font-weight="bold" lengthAdjust="spacing" textLength="361.5732" x="146.5034" y="27.9951">Sequence - Register Asset (Graphic Designer)</text><g><title>Graphic Designer</title><rect fill="#000000" fill-opacity="0.00000" height="283.3281" width="8" x="64.8433" y="118.5938"/><line style="stroke:#181818;stroke-width:0.5;stroke-dasharray:5,5;" x1="68" x2="68" y1="118.5938" y2="401.9219"/></g><g><title>UI</title><rect fill="#000000" fill-opacity="0.00000" height="283.3281" width="8" x="343.7524" y="118.5938"/><line style="stroke:#181818;stroke-width:0.5;stroke-dasharray:5,5;" x1="347.5645" x2="347.5645" y1="118.5938" y2="401.9219"/></g><g><title>Asset Service</title><rect fill="#000000" fill-opacity="0.00000" height="283.3281" width="8" x="459.6538" y="118.5938"/><line style="stroke:#181818;stroke-width:0.5;stroke-dasharray:5,5;" x1="463.4243" x2="463.4243" y1="118.5938" y2="401.9219"/></g><g><title>Asset DB</title><rect fill="#000000" fill-opacity="0.00000" height="283.3281" width="8" x="612.0288" y="118.5938"/><line style="stroke:#181818;stroke-width:0.5;stroke-dasharray:5,5;" x1="615.4775" x2="615.4775" y1="118.5938" y2="401.9219"/></g><g class="participant participant-head" data-participant="GD"><text fill="#000000" font-family="sans-serif" font-size="14" lengthAdjust="spacing" textLength="121.6865" x="5" y="115.292">Graphic Designer</text><ellipse cx="68.8433" cy="50.7969" fill="#E2E2F0" rx="8" ry="8" style="stroke:#181818;stroke-width:0.5;"/><path d="M68.8433,58.7969 L68.8433,85.7969 M55.8433,66.7969 L81.8433,66.7969 M68.8433,85.7969 L55.8433,100.7969 M68.8433,85.7969 L81.8433,100.7969" fill="none" style="stroke:#181818;stroke-width:0.5;"/></g><g class="participant participant-tail" data-participant="GD"><text fill="#000000" font-family="sans-serif" font-size="14" lengthAdjust="spacing" textLength="121.6865" x="5" y="413.917">Graphic Designer</text><ellipse cx="68.8433" cy="425.7188" fill="#E2E2F0" rx="8" ry="8" style="stroke:#181818;stroke-width:0.5;"/><path d="M68.8433,433.7188 L68.8433,460.7188 M55.8433,441.7188 L81.8433,441.7188 M68.8433,460.7188 L55.8433,475.7188 M68.8433,460.7188 L81.8433,475.7188" fill="none" style="stroke:#181818;stroke-width:0.5;"/></g><g class="participant participant-head" data-participant="UI"><rect fill="#E2E2F0" height="30.2969" rx="2.5" ry="2.5" style="stroke:#181818;stroke-width:0.5;" width="28.376" x="333.5645" y="87.2969"/><text fill="#000000" font-family="sans-serif" font-size="14" lengthAdjust="spacing" textLength="14.376" x="340.5645" y="107.292">UI</text></g><g class="participant participant-tail" data-participant="UI"><rect fill="#E2E2F0" height="30.2969" rx="2.5" ry="2.5" style="stroke:#181818;stroke-width:0.5;" width="28.376" x="333.5645" y="400.9219"/><text fill="#000000" font-family="sans-serif" font-size="14" lengthAdjust="spacing" textLength="14.376" x="340.5645" y="420.917">UI</text></g><g class="participant participant-head" data-participant="AssetSvc"><rect fill="#E2E2F0" height="30.2969" rx="2.5" ry="2.5" style="stroke:#181818;stroke-width:0.5;" width="108.459" x="409.4243" y="87.2969"/><text fill="#000000" font-family="sans-serif" font-size="14" lengthAdjust="spacing" textLength="94.459" x="416.4243" y="107.292">Asset Service</text></g><g class="participant participant-tail" data-participant="AssetSvc"><rect fill="#E2E2F0" height="30.2969" rx="2.5" ry="2.5" style="stroke:#181818;stroke-width:0.5;" width="108.459" x="409.4243" y="400.9219"/><text fill="#000000" font-family="sans-serif" font-size="14" lengthAdjust="spacing" textLength="94.459" x="416.4243" y="420.917">Asset Service</text></g><g class="participant participant-head" data-participant="DB"><text fill="#000000" font-family="sans-serif" font-size="14" lengthAdjust="spacing" textLength="63.1025" x="581.4775" y="115.292">Asset DB</text><path d="M598.0288,66.2969 C598.0288,56.2969 616.0288,56.2969 616.0288,56.2969 C616.0288,56.2969 634.0288,56.2969 634.0288,66.2969 L634.0288,92.2969 C634.0288,102.2969 616.0288,102.2969 616.0288,102.2969 C616.0288,102.2969 598.0288,102.2969 598.0288,92.2969 L598.0288,66.2969" fill="#E2E2F0" style="stroke:#181818;stroke-width:0.5;"/><path d="M598.0288,66.2969 C598.0288,76.2969 616.0288,76.2969 616.0288,76.2969 C616.0288,76.2969 634.0288,76.2969 634.0288,66.2969" fill="none" style="stroke:#181818;stroke-width:0.5;"/></g><g class="participant participant-tail" data-participant="DB"><text fill="#000000" font-family="sans-serif" font-size="14" lengthAdjust="spacing" textLength="63.1025" x="581.4775" y="413.917">Asset DB</text><path d="M598.0288,427.2188 C598.0288,417.2188 616.0288,417.2188 616.0288,417.2188 C616.0288,417.2188 634.0288,417.2188 634.0288,427.2188 L634.0288,453.2188 C634.0288,463.2188 616.0288,463.2188 616.0288,463.2188 C616.0288,463.2188 598.0288,463.2188 598.0288,453.2188 L598.0288,427.2188" fill="#E2E2F0" style="stroke:#181818;stroke-width:0.5;"/><path d="M598.0288,427.2188 C598.0288,437.2188 616.0288,437.2188 616.0288,437.2188 C616.0288,437.2188 634.0288,437.2188 634.0288,427.2188" fill="none" style="stroke:#181818;stroke-width:0.5;"/></g><rect fill="#EEEEEE" height="3" style="stroke:#EEEEEE;stroke-width:1;" width="655.5801" x="0" y="149.1602"/><line style="stroke:#000000;stroke-width:1;" x1="0" x2="655.5801" y1="149.1602" y2="149.1602"/><line style="stroke:#000000;stroke-width:1;" x1="0" x2="655.5801" y1="152.1602" y2="152.1602"/><rect fill="#EEEEEE" height="23.1328" style="stroke:#000000;stroke-width:2;" width="198.3613" x="228.6094" y="138.5938"/><text fill="#000000" font-family="sans-serif" font-size="13" font-weight="bold" lengthAdjust="spacing" textLength="179.8354" x="234.6094" y="154.6606">Khai b&#225;o th&#244;ng tin asset</text><g class="message" data-participant-1="GD" data-participant-2="UI"><polygon fill="#181818" points="335.7524,188.8594,345.7524,192.8594,335.7524,196.8594,339.7524,192.8594" style="stroke:#181818;stroke-width:1;"/><line style="stroke:#181818;stroke-width:1;" x1="68.8433" x2="341.7524" y1="192.8594" y2="192.8594"/><text fill="#000000" font-family="sans-serif" font-size="13" lengthAdjust="spacing" textLength="254.9092" x="75.8433" y="187.7935">Nh&#7853;p metadata (t&#234;n, m&#244; t&#7843;, lo&#7841;i, gi&#225;...)</text></g><g class="message" data-participant-1="UI" data-participant-2="AssetSvc"><polygon fill="#181818" points="451.6538,233.125,461.6538,237.125,451.6538,241.125,455.6538,237.125" style="stroke:#181818;stroke-width:1;"/><line style="stroke:#181818;stroke-width:1;" x1="347.7524" x2="457.6538" y1="237.125" y2="237.125"/><text fill="#000000" font-family="sans-serif" font-size="13" lengthAdjust="spacing" textLength="84.1572" x="354.7524" y="216.9263">POST /assets</text><text fill="#000000" font-family="sans-serif" font-size="13" lengthAdjust="spacing" textLength="73.1504" x="354.7524" y="232.0591">(metadata)</text></g><g class="message" data-participant-1="AssetSvc" data-participant-2="DB"><polygon fill="#181818" points="604.0288,277.3906,614.0288,281.3906,604.0288,285.3906,608.0288,281.3906" style="stroke:#181818;stroke-width:1;"/><line style="stroke:#181818;stroke-width:1;" x1="463.6538" x2="610.0288" y1="281.3906" y2="281.3906"/><text fill="#000000" font-family="sans-serif" font-size="13" lengthAdjust="spacing" textLength="128.375" x="470.6538" y="261.1919">INSERT INTO assets</text><text fill="#000000" font-family="sans-serif" font-size="13" lengthAdjust="spacing" textLength="116.2954" x="470.6538" y="276.3247">(status="DRAFT")</text></g><g class="message" data-participant-1="DB" data-participant-2="AssetSvc"><polygon fill="#181818" points="474.6538,306.5234,464.6538,310.5234,474.6538,314.5234,470.6538,310.5234" style="stroke:#181818;stroke-width:1;"/><line style="stroke:#181818;stroke-width:1;stroke-dasharray:2,2;" x1="468.6538" x2="615.0288" y1="310.5234" y2="310.5234"/><text fill="#000000" font-family="sans-serif" font-size="13" lengthAdjust="spacing" textLength="46.6934" x="480.6538" y="305.4575">assetId</text></g><g class="message" data-participant-1="AssetSvc" data-participant-2="UI"><polygon fill="#181818" points="358.7524,335.6563,348.7524,339.6563,358.7524,343.6563,354.7524,339.6563" style="stroke:#181818;stroke-width:1;"/><line style="stroke:#181818;stroke-width:1;stroke-dasharray:2,2;" x1="352.7524" x2="462.6538" y1="339.6563" y2="339.6563"/><text fill="#000000" font-family="sans-serif" font-size="13" lengthAdjust="spacing" textLength="91.9014" x="364.7524" y="334.5903">Tr&#7843; v&#7873; assetId</text></g><g class="message" data-participant-1="UI" data-participant-2="GD"><polygon fill="#181818" points="79.8433,379.9219,69.8433,383.9219,79.8433,387.9219,75.8433,383.9219" style="stroke:#181818;stroke-width:1;"/><line style="stroke:#181818;stroke-width:1;" x1="73.8433" x2="346.7524" y1="383.9219" y2="383.9219"/><text fill="#000000" font-family="sans-serif" font-size="13" lengthAdjust="spacing" textLength="254.7568" x="85.8433" y="363.7231">Hi&#7875;n th&#7883; th&#244;ng b&#225;o &#273;&#259;ng k&#253; th&#224;nh c&#244;ng</text><text fill="#000000" font-family="sans-serif" font-size="13" lengthAdjust="spacing" textLength="56.8369" x="85.8433" y="378.856">(assetId)</text></g><!--SRC=[NP2nRi8m54LtVyLJ9Y81tP5I2UIMHfMW8c7hOeALM0MJsW_sYh5J_w2eMwLkJ46Tme_aJ_fY6bGwsRht-BxhXmeN4YBvl9OwaT21YKoLHMcWRwr4Q0sDo3EL09TMfLeQdp6HuCg0zz_nG5WOSfOBWofHkT08tZHqyZIyb4_XaJGRbKX7E2NQ96mkKCo4bGt41yxd0yQ20EupeM1MxbQ0MRdNAQ3IPDTW4B0XXyur3OCUZBAg-CfXAL7KYT32ybEtOLdk0QlYemsBLLNiL1jILUwwtQxFw1azRdfGnCCuYk7AXTj7tMgYV7PcYES38iDHT3E9wOZ7SEOj2bpRmEEJ_cti-Op8pkK0XuRpFtbD-zXGHzXKXvSpTAf7F-p1dQeEMqqRg0wlpHxSJevlnotTdyhlMdxN6IIrIML-K_mV]--></g></svg>