<svg xmlns="http://www.w3.org/2000/svg" xmlns:xlink="http://www.w3.org/1999/xlink" contentStyleType="text/css" data-diagram-type="SEQUENCE" height="467px" preserveAspectRatio="none" style="width:971px;height:467px;background:#FFFFFF;" version="1.1" viewBox="0 0 971 467" width="971px" zoomAndPan="magnify"><title>Sequence - Track Revenue from Assets (Graphic Designer)</title><defs/><g><text fill="#000000" font-family="sans-serif" font-size="14" font-weight="bold" lengthAdjust="spacing" textLength="462.1709" x="250.5872" y="27.9951">Sequence - Track Revenue from Assets (Graphic Designer)</text><g><title>Graphic Designer</title><rect fill="#000000" fill-opacity="0.00000" height="268.1953" width="8" x="64.8433" y="118.5938"/><line style="stroke:#181818;stroke-width:0.5;stroke-dasharray:5,5;" x1="68" x2="68" y1="118.5938" y2="386.7891"/></g><g><title>UI</title><rect fill="#000000" fill-opacity="0.00000" height="268.1953" width="8" x="338.1792" y="118.5938"/><line style="stroke:#181818;stroke-width:0.5;stroke-dasharray:5,5;" x1="341.9912" x2="341.9912" y1="118.5938" y2="386.7891"/></g><g><title>Revenue Service</title><rect fill="#000000" fill-opacity="0.00000" height="268.1953" width="8" x="593.1641" y="118.5938"/><line style="stroke:#181818;stroke-width:0.5;stroke-dasharray:5,5;" x1="596.269" x2="596.269" y1="118.5938" y2="386.7891"/></g><g><title>Transaction DB</title><rect fill="#000000" fill-opacity="0.00000" height="268.1953" width="8" x="898.854" y="118.5938"/><line style="stroke:#181818;stroke-width:0.5;stroke-dasharray:5,5;" x1="902.3628" x2="902.3628" y1="118.5938" y2="386.7891"/></g><g class="participant participant-head" data-participant="GD"><text fill="#000000" font-family="sans-serif" font-size="14" lengthAdjust="spacing" textLength="121.6865" x="5" y="115.292">Graphic Designer</text><ellipse cx="68.8433" cy="50.7969" fill="#E2E2F0" rx="8" ry="8" style="stroke:#181818;stroke-width:0.5;"/><path d="M68.8433,58.7969 L68.8433,85.7969 M55.8433,66.7969 L81.8433,66.7969 M68.8433,85.7969 L55.8433,100.7969 M68.8433,85.7969 L81.8433,100.7969" fill="none" style="stroke:#181818;stroke-width:0.5;"/></g><g class="participant participant-tail" data-participant="GD"><text fill="#000000" font-family="sans-serif" font-size="14" lengthAdjust="spacing" textLength="121.6865" x="5" y="398.7842">Graphic Designer</text><ellipse cx="68.8433" cy="410.5859" fill="#E2E2F0" rx="8" ry="8" style="stroke:#181818;stroke-width:0.5;"/><path d="M68.8433,418.5859 L68.8433,445.5859 M55.8433,426.5859 L81.8433,426.5859 M68.8433,445.5859 L55.8433,460.5859 M68.8433,445.5859 L81.8433,460.5859" fill="none" style="stroke:#181818;stroke-width:0.5;"/></g><g class="participant participant-head" data-participant="UI"><rect fill="#E2E2F0" height="30.2969" rx="2.5" ry="2.5" style="stroke:#181818;stroke-width:0.5;" width="28.376" x="327.9912" y="87.2969"/><text fill="#000000" font-family="sans-serif" font-size="14" lengthAdjust="spacing" textLength="14.376" x="334.9912" y="107.292">UI</text></g><g class="participant participant-tail" data-participant="UI"><rect fill="#E2E2F0" height="30.2969" rx="2.5" ry="2.5" style="stroke:#181818;stroke-width:0.5;" width="28.376" x="327.9912" y="385.7891"/><text fill="#000000" font-family="sans-serif" font-size="14" lengthAdjust="spacing" textLength="14.376" x="334.9912" y="405.7842">UI</text></g><g class="participant participant-head" data-participant="RevSvc"><rect fill="#E2E2F0" height="30.2969" rx="2.5" ry="2.5" style="stroke:#181818;stroke-width:0.5;" width="131.79" x="531.269" y="87.2969"/><text fill="#000000" font-family="sans-serif" font-size="14" lengthAdjust="spacing" textLength="117.79" x="538.269" y="107.292">Revenue Service</text></g><g class="participant participant-tail" data-participant="RevSvc"><rect fill="#E2E2F0" height="30.2969" rx="2.5" ry="2.5" style="stroke:#181818;stroke-width:0.5;" width="131.79" x="531.269" y="385.7891"/><text fill="#000000" font-family="sans-serif" font-size="14" lengthAdjust="spacing" textLength="117.79" x="538.269" y="405.7842">Revenue Service</text></g><g class="participant participant-head" data-participant="TxDB"><text fill="#000000" font-family="sans-serif" font-size="14" lengthAdjust="spacing" textLength="106.9824" x="846.3628" y="115.292">Transaction DB</text><path d="M884.854,66.2969 C884.854,56.2969 902.854,56.2969 902.854,56.2969 C902.854,56.2969 920.854,56.2969 920.854,66.2969 L920.854,92.2969 C920.854,102.2969 902.854,102.2969 902.854,102.2969 C902.854,102.2969 884.854,102.2969 884.854,92.2969 L884.854,66.2969" fill="#E2E2F0" style="stroke:#181818;stroke-width:0.5;"/><path d="M884.854,66.2969 C884.854,76.2969 902.854,76.2969 902.854,76.2969 C902.854,76.2969 920.854,76.2969 920.854,66.2969" fill="none" style="stroke:#181818;stroke-width:0.5;"/></g><g class="participant participant-tail" data-participant="TxDB"><text fill="#000000" font-family="sans-serif" font-size="14" lengthAdjust="spacing" textLength="106.9824" x="846.3628" y="398.7842">Transaction DB</text><path d="M884.854,412.0859 C884.854,402.0859 902.854,402.0859 902.854,402.0859 C902.854,402.0859 920.854,402.0859 920.854,412.0859 L920.854,438.0859 C920.854,448.0859 902.854,448.0859 902.854,448.0859 C902.854,448.0859 884.854,448.0859 884.854,438.0859 L884.854,412.0859" fill="#E2E2F0" style="stroke:#181818;stroke-width:0.5;"/><path d="M884.854,412.0859 C884.854,422.0859 902.854,422.0859 902.854,422.0859 C902.854,422.0859 920.854,422.0859 920.854,412.0859" fill="none" style="stroke:#181818;stroke-width:0.5;"/></g><rect fill="#EEEEEE" height="3" style="stroke:#EEEEEE;stroke-width:1;" width="964.3452" x="0" y="149.1602"/><line style="stroke:#000000;stroke-width:1;" x1="0" x2="964.3452" y1="149.1602" y2="149.1602"/><line style="stroke:#000000;stroke-width:1;" x1="0" x2="964.3452" y1="152.1602" y2="152.1602"/><rect fill="#EEEEEE" height="23.1328" style="stroke:#000000;stroke-width:2;" width="167.9814" x="398.1819" y="138.5938"/><text fill="#000000" font-family="sans-serif" font-size="13" font-weight="bold" lengthAdjust="spacing" textLength="149.4556" x="404.1819" y="154.6606">Truy xu&#7845;t doanh thu</text><g class="message" data-participant-1="GD" data-participant-2="UI"><polygon fill="#181818" points="330.1792,188.8594,340.1792,192.8594,330.1792,196.8594,334.1792,192.8594" style="stroke:#181818;stroke-width:1;"/><line style="stroke:#181818;stroke-width:1;" x1="68.8433" x2="336.1792" y1="192.8594" y2="192.8594"/><text fill="#000000" font-family="sans-serif" font-size="13" lengthAdjust="spacing" textLength="249.3359" x="75.8433" y="187.7935">Ch&#7885;n "Xem doanh thu t&#7915; asset c&#243; ph&#237;"</text></g><g class="message" data-participant-1="UI" data-participant-2="RevSvc"><polygon fill="#181818" points="585.1641,217.9922,595.1641,221.9922,585.1641,225.9922,589.1641,221.9922" style="stroke:#181818;stroke-width:1;"/><line style="stroke:#181818;stroke-width:1;" x1="342.1792" x2="591.1641" y1="221.9922" y2="221.9922"/><text fill="#000000" font-family="sans-serif" font-size="13" lengthAdjust="spacing" textLength="192.9814" x="349.1792" y="216.9263">GET /revenue?owner_id={id}</text></g><g class="message" data-participant-1="RevSvc" data-participant-2="TxDB"><polygon fill="#181818" points="890.854,262.2578,900.854,266.2578,890.854,270.2578,894.854,266.2578" style="stroke:#181818;stroke-width:1;"/><line style="stroke:#181818;stroke-width:1;" x1="597.1641" x2="896.854" y1="266.2578" y2="266.2578"/><text fill="#000000" font-family="sans-serif" font-size="13" lengthAdjust="spacing" textLength="186.0054" x="604.1641" y="246.0591">SELECT * FROM transactions</text><text fill="#000000" font-family="sans-serif" font-size="13" lengthAdjust="spacing" textLength="281.6899" x="604.1641" y="261.1919">WHERE seller_id=? AND asset_type="paid"</text></g><g class="message" data-participant-1="TxDB" data-participant-2="RevSvc"><polygon fill="#181818" points="608.1641,291.3906,598.1641,295.3906,608.1641,299.3906,604.1641,295.3906" style="stroke:#181818;stroke-width:1;"/><line style="stroke:#181818;stroke-width:1;stroke-dasharray:2,2;" x1="602.1641" x2="901.854" y1="295.3906" y2="295.3906"/><text fill="#000000" font-family="sans-serif" font-size="13" lengthAdjust="spacing" textLength="194.9746" x="614.1641" y="290.3247">Danh s&#225;ch giao d&#7883;ch + s&#7889; ti&#7873;n</text></g><g class="message" data-participant-1="RevSvc" data-participant-2="UI"><polygon fill="#181818" points="353.1792,320.5234,343.1792,324.5234,353.1792,328.5234,349.1792,324.5234" style="stroke:#181818;stroke-width:1;"/><line style="stroke:#181818;stroke-width:1;stroke-dasharray:2,2;" x1="347.1792" x2="596.1641" y1="324.5234" y2="324.5234"/><text fill="#000000" font-family="sans-serif" font-size="13" lengthAdjust="spacing" textLength="230.9849" x="359.1792" y="319.4575">200 OK + t&#7893;ng doanh thu + chi ti&#7871;t</text></g><g class="message" data-participant-1="UI" data-participant-2="GD"><polygon fill="#181818" points="79.8433,364.7891,69.8433,368.7891,79.8433,372.7891,75.8433,368.7891" style="stroke:#181818;stroke-width:1;"/><line style="stroke:#181818;stroke-width:1;" x1="73.8433" x2="341.1792" y1="368.7891" y2="368.7891"/><text fill="#000000" font-family="sans-serif" font-size="13" lengthAdjust="spacing" textLength="158.0376" x="85.8433" y="348.5903">Hi&#7875;n th&#7883; b&#7843;ng doanh thu</text><text fill="#000000" font-family="sans-serif" font-size="13" lengthAdjust="spacing" textLength="177.8042" x="85.8433" y="363.7231">(t&#7893;ng ti&#7873;n, asset, l&#432;&#7907;t mua)</text></g><!--SRC=[NP3BIiD068NtynI7hBmLYqiX5crYAzwWhUX2AEDaR0RRISnCgY8knAMuSE43YBWIGN3NB5mKV8-yYN-RgjLT-7CktnchR5UYAKzJgOL42Qs4YnCqP5_gLE8uYNfODKPQWvbQmkDG2NZIg8wMoInZNDWeWVF_ZmDkKFDOp1EhX8gvjd3sDiRdlOs_v- -gfapwIiYnXcxDlc01j_o86mc7gBIXCXLfU6jZJUlSMsFCTOaulS1vcW-UBOA8wn0sJE6whEQXj49zM4OrpBCx3UT0zgOqDizUA8hMGGpV4OV3LuUHdbm50JbhVWkBIS5OYSveN5i5xgKAhjX4G-eH2scR_fPVRM4EwutTRTXVPdEez-j-muUHtMwHKC7gZbUKj-r5B5qdvYfms3YgD4tWZN3Dy564w2WU8SYpM_gUXycpUrYLPzVwX-Lxy5AvZDrD4j761zsP6ZqF4QgHRV1X9sFfePPHfw0RJHAAnr4-U9fs7UgPIL3Hjr2GBw3x-PPdJnQzbCz-0G00]--></g></svg>