<svg xmlns="http://www.w3.org/2000/svg" xmlns:xlink="http://www.w3.org/1999/xlink" contentStyleType="text/css" data-diagram-type="SEQUENCE" height="568px" preserveAspectRatio="none" style="width:928px;height:568px;background:#FFFFFF;" version="1.1" viewBox="0 0 928 568" width="928px" zoomAndPan="magnify"><title>Sequence - Upload Asset (Graphic Designer)</title><defs/><g><text fill="#000000" font-family="sans-serif" font-size="14" font-weight="bold" lengthAdjust="spacing" textLength="350.3281" x="285.3203" y="27.9951">Sequence - Upload Asset (Graphic Designer)</text><g><title>Graphic Designer</title><rect fill="#000000" fill-opacity="0.00000" height="369.5938" width="8" x="64.8433" y="118.5938"/><line style="stroke:#181818;stroke-width:0.5;stroke-dasharray:5,5;" x1="68" x2="68" y1="118.5938" y2="488.1875"/></g><g><title>UI</title><rect fill="#000000" fill-opacity="0.00000" height="369.5938" width="8" x="283.8179" y="118.5938"/><line style="stroke:#181818;stroke-width:0.5;stroke-dasharray:5,5;" x1="287.6299" x2="287.6299" y1="118.5938" y2="488.1875"/></g><g><title>Asset Service</title><rect fill="#000000" fill-opacity="0.00000" height="369.5938" width="8" x="468.8516" y="118.5938"/><line style="stroke:#181818;stroke-width:0.5;stroke-dasharray:5,5;" x1="472.6221" x2="472.6221" y1="118.5938" y2="488.1875"/></g><g><title>Asset DB</title><rect fill="#000000" fill-opacity="0.00000" height="369.5938" width="8" x="770.7456" y="118.5938"/><line style="stroke:#181818;stroke-width:0.5;stroke-dasharray:5,5;" x1="774.1943" x2="774.1943" y1="118.5938" y2="488.1875"/></g><g><title>File Storage</title><rect fill="#000000" fill-opacity="0.00000" height="369.5938" width="8" x="864.1328" y="118.5938"/><line style="stroke:#181818;stroke-width:0.5;stroke-dasharray:5,5;" x1="867.2969" x2="867.2969" y1="118.5938" y2="488.1875"/></g><g class="participant participant-head" data-participant="GD"><text fill="#000000" font-family="sans-serif" font-size="14" lengthAdjust="spacing" textLength="121.6865" x="5" y="115.292">Graphic Designer</text><ellipse cx="68.8433" cy="50.7969" fill="#E2E2F0" rx="8" ry="8" style="stroke:#181818;stroke-width:0.5;"/><path d="M68.8433,58.7969 L68.8433,85.7969 M55.8433,66.7969 L81.8433,66.7969 M68.8433,85.7969 L55.8433,100.7969 M68.8433,85.7969 L81.8433,100.7969" fill="none" style="stroke:#181818;stroke-width:0.5;"/></g><g class="participant participant-tail" data-participant="GD"><text fill="#000000" font-family="sans-serif" font-size="14" lengthAdjust="spacing" textLength="121.6865" x="5" y="500.1826">Graphic Designer</text><ellipse cx="68.8433" cy="511.9844" fill="#E2E2F0" rx="8" ry="8" style="stroke:#181818;stroke-width:0.5;"/><path d="M68.8433,519.9844 L68.8433,546.9844 M55.8433,527.9844 L81.8433,527.9844 M68.8433,546.9844 L55.8433,561.9844 M68.8433,546.9844 L81.8433,561.9844" fill="none" style="stroke:#181818;stroke-width:0.5;"/></g><g class="participant participant-head" data-participant="UI"><rect fill="#E2E2F0" height="30.2969" rx="2.5" ry="2.5" style="stroke:#181818;stroke-width:0.5;" width="28.376" x="273.6299" y="87.2969"/><text fill="#000000" font-family="sans-serif" font-size="14" lengthAdjust="spacing" textLength="14.376" x="280.6299" y="107.292">UI</text></g><g class="participant participant-tail" data-participant="UI"><rect fill="#E2E2F0" height="30.2969" rx="2.5" ry="2.5" style="stroke:#181818;stroke-width:0.5;" width="28.376" x="273.6299" y="487.1875"/><text fill="#000000" font-family="sans-serif" font-size="14" lengthAdjust="spacing" textLength="14.376" x="280.6299" y="507.1826">UI</text></g><g class="participant participant-head" data-participant="AssetSvc"><rect fill="#E2E2F0" height="30.2969" rx="2.5" ry="2.5" style="stroke:#181818;stroke-width:0.5;" width="108.459" x="418.6221" y="87.2969"/><text fill="#000000" font-family="sans-serif" font-size="14" lengthAdjust="spacing" textLength="94.459" x="425.6221" y="107.292">Asset Service</text></g><g class="participant participant-tail" data-participant="AssetSvc"><rect fill="#E2E2F0" height="30.2969" rx="2.5" ry="2.5" style="stroke:#181818;stroke-width:0.5;" width="108.459" x="418.6221" y="487.1875"/><text fill="#000000" font-family="sans-serif" font-size="14" lengthAdjust="spacing" textLength="94.459" x="425.6221" y="507.1826">Asset Service</text></g><g class="participant participant-head" data-participant="DB"><text fill="#000000" font-family="sans-serif" font-size="14" lengthAdjust="spacing" textLength="63.1025" x="740.1943" y="115.292">Asset DB</text><path d="M756.7456,66.2969 C756.7456,56.2969 774.7456,56.2969 774.7456,56.2969 C774.7456,56.2969 792.7456,56.2969 792.7456,66.2969 L792.7456,92.2969 C792.7456,102.2969 774.7456,102.2969 774.7456,102.2969 C774.7456,102.2969 756.7456,102.2969 756.7456,92.2969 L756.7456,66.2969" fill="#E2E2F0" style="stroke:#181818;stroke-width:0.5;"/><path d="M756.7456,66.2969 C756.7456,76.2969 774.7456,76.2969 774.7456,76.2969 C774.7456,76.2969 792.7456,76.2969 792.7456,66.2969" fill="none" style="stroke:#181818;stroke-width:0.5;"/></g><g class="participant participant-tail" data-participant="DB"><text fill="#000000" font-family="sans-serif" font-size="14" lengthAdjust="spacing" textLength="63.1025" x="740.1943" y="500.1826">Asset DB</text><path d="M756.7456,513.4844 C756.7456,503.4844 774.7456,503.4844 774.7456,503.4844 C774.7456,503.4844 792.7456,503.4844 792.7456,513.4844 L792.7456,539.4844 C792.7456,549.4844 774.7456,549.4844 774.7456,549.4844 C774.7456,549.4844 756.7456,549.4844 756.7456,539.4844 L756.7456,513.4844" fill="#E2E2F0" style="stroke:#181818;stroke-width:0.5;"/><path d="M756.7456,513.4844 C756.7456,523.4844 774.7456,523.4844 774.7456,523.4844 C774.7456,523.4844 792.7456,523.4844 792.7456,513.4844" fill="none" style="stroke:#181818;stroke-width:0.5;"/></g><g class="participant participant-head" data-participant="Storage"><rect fill="#E2E2F0" height="30.2969" rx="2.5" ry="2.5" style="stroke:#181818;stroke-width:0.5;" width="97.6719" x="819.2969" y="87.2969"/><text fill="#000000" font-family="sans-serif" font-size="14" lengthAdjust="spacing" textLength="83.6719" x="826.2969" y="107.292">File Storage</text></g><g class="participant participant-tail" data-participant="Storage"><rect fill="#E2E2F0" height="30.2969" rx="2.5" ry="2.5" style="stroke:#181818;stroke-width:0.5;" width="97.6719" x="819.2969" y="487.1875"/><text fill="#000000" font-family="sans-serif" font-size="14" lengthAdjust="spacing" textLength="83.6719" x="826.2969" y="507.1826">File Storage</text></g><rect fill="#EEEEEE" height="3" style="stroke:#EEEEEE;stroke-width:1;" width="921.9688" x="0" y="149.1602"/><line style="stroke:#000000;stroke-width:1;" x1="0" x2="921.9688" y1="149.1602" y2="149.1602"/><line style="stroke:#000000;stroke-width:1;" x1="0" x2="921.9688" y1="152.1602" y2="152.1602"/><rect fill="#EEEEEE" height="23.1328" style="stroke:#000000;stroke-width:2;" width="141.5688" x="390.2" y="138.5938"/><text fill="#000000" font-family="sans-serif" font-size="13" font-weight="bold" lengthAdjust="spacing" textLength="123.043" x="396.2" y="154.6606">Upload file asset</text><g class="message" data-participant-1="GD" data-participant-2="UI"><polygon fill="#181818" points="275.8179,188.8594,285.8179,192.8594,275.8179,196.8594,279.8179,192.8594" style="stroke:#181818;stroke-width:1;"/><line style="stroke:#181818;stroke-width:1;" x1="68.8433" x2="281.8179" y1="192.8594" y2="192.8594"/><text fill="#000000" font-family="sans-serif" font-size="13" lengthAdjust="spacing" textLength="126.2295" x="75.8433" y="187.7935">Ch&#7885;n file &#273;&#7875; upload</text></g><g class="message" data-participant-1="UI" data-participant-2="Storage"><polygon fill="#181818" points="856.1328,233.125,866.1328,237.125,856.1328,241.125,860.1328,237.125" style="stroke:#181818;stroke-width:1;"/><line style="stroke:#181818;stroke-width:1;" x1="287.8179" x2="862.1328" y1="237.125" y2="237.125"/><text fill="#000000" font-family="sans-serif" font-size="13" lengthAdjust="spacing" textLength="220.7461" x="294.8179" y="216.9263">PUT /storage/assets/{assetId}/file</text><text fill="#000000" font-family="sans-serif" font-size="13" lengthAdjust="spacing" textLength="48.4136" x="294.8179" y="232.0591">(fileUrl)</text></g><g class="message" data-participant-1="Storage" data-participant-2="UI"><polygon fill="#181818" points="298.8179,262.2578,288.8179,266.2578,298.8179,270.2578,294.8179,266.2578" style="stroke:#181818;stroke-width:1;"/><line style="stroke:#181818;stroke-width:1;stroke-dasharray:2,2;" x1="292.8179" x2="867.1328" y1="266.2578" y2="266.2578"/><text fill="#000000" font-family="sans-serif" font-size="13" lengthAdjust="spacing" textLength="47.7026" x="304.8179" y="261.1919">200 OK</text></g><rect fill="#EEEEEE" height="3" style="stroke:#EEEEEE;stroke-width:1;" width="921.9688" x="0" y="294.8242"/><line style="stroke:#000000;stroke-width:1;" x1="0" x2="921.9688" y1="294.8242" y2="294.8242"/><line style="stroke:#000000;stroke-width:1;" x1="0" x2="921.9688" y1="297.8242" y2="297.8242"/><rect fill="#EEEEEE" height="23.1328" style="stroke:#000000;stroke-width:2;" width="182.27" x="369.8494" y="284.2578"/><text fill="#000000" font-family="sans-serif" font-size="13" font-weight="bold" lengthAdjust="spacing" textLength="163.7441" x="375.8494" y="300.3247">C&#7853;p nh&#7853;t asset v&#7899;i file</text><g class="message" data-participant-1="UI" data-participant-2="AssetSvc"><polygon fill="#181818" points="460.8516,349.6563,470.8516,353.6563,460.8516,357.6563,464.8516,353.6563" style="stroke:#181818;stroke-width:1;"/><line style="stroke:#181818;stroke-width:1;" x1="287.8179" x2="466.8516" y1="353.6563" y2="353.6563"/><text fill="#000000" font-family="sans-serif" font-size="13" lengthAdjust="spacing" textLength="161.0337" x="294.8179" y="333.4575">PATCH /assets/{assetId}</text><text fill="#000000" font-family="sans-serif" font-size="13" lengthAdjust="spacing" textLength="48.4136" x="294.8179" y="348.5903">(fileUrl)</text></g><g class="message" data-participant-1="AssetSvc" data-participant-2="DB"><polygon fill="#181818" points="762.7456,378.7891,772.7456,382.7891,762.7456,386.7891,766.7456,382.7891" style="stroke:#181818;stroke-width:1;"/><line style="stroke:#181818;stroke-width:1;" x1="472.8516" x2="768.7456" y1="382.7891" y2="382.7891"/><text fill="#000000" font-family="sans-serif" font-size="13" lengthAdjust="spacing" textLength="277.894" x="479.8516" y="377.7231">UPDATE assets SET file_url=? WHERE id=?</text></g><g class="message" data-participant-1="DB" data-participant-2="AssetSvc"><polygon fill="#181818" points="483.8516,407.9219,473.8516,411.9219,483.8516,415.9219,479.8516,411.9219" style="stroke:#181818;stroke-width:1;"/><line style="stroke:#181818;stroke-width:1;stroke-dasharray:2,2;" x1="477.8516" x2="773.7456" y1="411.9219" y2="411.9219"/><text fill="#000000" font-family="sans-serif" font-size="13" lengthAdjust="spacing" textLength="47.7026" x="489.8516" y="406.856">200 OK</text></g><g class="message" data-participant-1="AssetSvc" data-participant-2="UI"><polygon fill="#181818" points="298.8179,437.0547,288.8179,441.0547,298.8179,445.0547,294.8179,441.0547" style="stroke:#181818;stroke-width:1;"/><line style="stroke:#181818;stroke-width:1;stroke-dasharray:2,2;" x1="292.8179" x2="471.8516" y1="441.0547" y2="441.0547"/><text fill="#000000" font-family="sans-serif" font-size="13" lengthAdjust="spacing" textLength="122.0083" x="304.8179" y="435.9888">X&#225;c nh&#7853;n c&#7853;p nh&#7853;t</text></g><g class="message" data-participant-1="UI" data-participant-2="GD"><polygon fill="#181818" points="79.8433,466.1875,69.8433,470.1875,79.8433,474.1875,75.8433,470.1875" style="stroke:#181818;stroke-width:1;"/><line style="stroke:#181818;stroke-width:1;" x1="73.8433" x2="286.8179" y1="470.1875" y2="470.1875"/><text fill="#000000" font-family="sans-serif" font-size="13" lengthAdjust="spacing" textLength="194.9746" x="85.8433" y="465.1216">Th&#244;ng b&#225;o upload th&#224;nh c&#244;ng</text></g><!--SRC=[PL2nJiCm4Dtz5QTExH2bOgmKghOERSL0HHF1W8HSnpIM8ZVORXV4nCp0p48_W8s9ZE57yYSuTW8jJ6VVU_VUkzDSPmoMx7xB16NWGPnd6vB0I2cceJkL94yv1SmKNmicUmWHgZSIEd-H3X05Kuno8ZMdF2T2GoUUstOyFsuxyIMJEqwPPTZESaTHGZHP4SLQ4XvR78-F5SvudTe48MidqBmH2e9sXRkQGwnA4A0f1k_K9841JDAgU1OE_tgfYYVOsWbaKCDff0nn4KVWA_VrhPBo7soT9uz-FNyZkdM9PTP3xPpN-fpq-t1nRYDDgi_t74HgYcuoxQhYbRiG9fwpRizGUu-YoGp-kHuQ_h3D91wRcNY1Hr7ezCr9miZAtsvb5WpXQXPUXi2JO8WCsJjsQwB-AhOxN9Txwd8Be0TBD87DLGSGfUM7MCEgt6-QIu9EopUH0gs1Rm00]--></g></svg>