<svg xmlns="http://www.w3.org/2000/svg" xmlns:xlink="http://www.w3.org/1999/xlink" contentStyleType="text/css" data-diagram-type="DESCRIPTION" height="590px" preserveAspectRatio="none" style="width:792px;height:590px;background:#FFFFFF;" version="1.1" viewBox="0 0 792 590" width="792px" zoomAndPan="magnify"><title>Ch&#7913;c n&#259;ng Admin - H&#7879; th&#7889;ng Game</title><defs/><g><g class="title" data-source-line="1"><text fill="#000000" font-family="sans-serif" font-size="14" font-weight="bold" lengthAdjust="spacing" textLength="275.6729" x="251.3286" y="22.9951">Ch&#7913;c n&#259;ng Admin - H&#7879; th&#7889;ng Game</text></g><!--cluster H? th?ng Game--><g class="cluster" data-entity="H. th.ng Game" data-source-line="6" data-uid="ent0003" id="cluster_H. th.ng Game"><rect fill="none" height="540" rx="2.5" ry="2.5" style="stroke:#181818;stroke-width:1;" width="688.47" x="97.86" y="44.2969"/><text fill="#000000" font-family="sans-serif" font-size="14" font-weight="bold" lengthAdjust="spacing" textLength="122.2471" x="380.9715" y="59.292">H&#7879; th&#7889;ng Game</text></g><!--entity UC1--><g class="entity" data-entity="UC1" data-source-line="7" data-uid="ent0004" id="entity_UC1"><ellipse cx="257.6288" cy="108.2926" fill="#F1F1F1" rx="131.8788" ry="28.7758" style="stroke:#181818;stroke-width:0.5;"/><text fill="#000000" font-family="sans-serif" font-size="14" lengthAdjust="spacing" textLength="191.666" x="161.7958" y="103.8549">Qu&#7843;n l&#253; th&#244;ng tin t&#224;i kho&#7843;n</text><text fill="#000000" font-family="sans-serif" font-size="14" lengthAdjust="spacing" textLength="206.999" x="154.1293" y="120.1518">(Player, Developer, Designer)</text></g><!--entity UC1a--><g class="entity" data-entity="UC1a" data-source-line="8" data-uid="ent0005" id="entity_UC1a"><ellipse cx="648.3565" cy="106.3002" fill="#F1F1F1" rx="121.9665" ry="26.7933" style="stroke:#181818;stroke-width:0.5;"/><text fill="#000000" font-family="sans-serif" font-size="14" lengthAdjust="spacing" textLength="188.6309" x="554.041" y="104.5952">X&#233;t duy&#7879;t y&#234;u c&#7847;u &#273;&#259;ng k&#253;</text><text fill="#000000" font-family="sans-serif" font-size="14" lengthAdjust="spacing" textLength="154.5332" x="571.0899" y="120.892">(Developer, Designer)</text></g><!--entity UC2--><g class="entity" data-entity="UC2" data-source-line="10" data-uid="ent0006" id="entity_UC2"><ellipse cx="257.6299" cy="193.2969" fill="#F1F1F1" rx="95.4499" ry="21.49" style="stroke:#181818;stroke-width:0.5;"/><text fill="#000000" font-family="sans-serif" font-size="14" lengthAdjust="spacing" textLength="165.9766" x="174.6416" y="197.9453">Qu&#7843;n l&#253; th&#244;ng tin game</text></g><!--entity UC2a--><g class="entity" data-entity="UC2a" data-source-line="11" data-uid="ent0007" id="entity_UC2a"><ellipse cx="648.3572" cy="256.2943" fill="#F1F1F1" rx="74.1872" ry="17.2374" style="stroke:#181818;stroke-width:0.5;"/><text fill="#000000" font-family="sans-serif" font-size="14" lengthAdjust="spacing" textLength="116.751" x="589.9818" y="260.9428">Duy&#7879;t game m&#7899;i</text></g><!--entity UC2b--><g class="entity" data-entity="UC2b" data-source-line="12" data-uid="ent0008" id="entity_UC2b"><ellipse cx="648.3609" cy="186.297" fill="#F1F1F1" rx="77.7509" ry="17.9502" style="stroke:#181818;stroke-width:0.5;"/><text fill="#000000" font-family="sans-serif" font-size="14" lengthAdjust="spacing" textLength="125.3438" x="585.689" y="190.9455">Ki&#7875;m tra n&#7897;i dung</text></g><!--entity UC3--><g class="entity" data-entity="UC3" data-source-line="14" data-uid="ent0009" id="entity_UC3"><ellipse cx="257.6314" cy="265.2952" fill="#F1F1F1" rx="65.8414" ry="15.5683" style="stroke:#181818;stroke-width:0.5;"/><text fill="#000000" font-family="sans-serif" font-size="14" lengthAdjust="spacing" textLength="95.6895" x="209.7867" y="269.9436">Qu&#7843;n l&#253; asset</text></g><!--entity UC3a--><g class="entity" data-entity="UC3a" data-source-line="15" data-uid="ent0010" id="entity_UC3a"><ellipse cx="648.3573" cy="397.2943" fill="#F1F1F1" rx="73.1873" ry="17.0375" style="stroke:#181818;stroke-width:0.5;"/><text fill="#000000" font-family="sans-serif" font-size="14" lengthAdjust="spacing" textLength="114.3037" x="591.2055" y="401.9428">Duy&#7879;t asset m&#7899;i</text></g><!--entity UC3b--><g class="entity" data-entity="UC3b" data-source-line="16" data-uid="ent0011" id="entity_UC3b"><ellipse cx="648.3645" cy="327.2978" fill="#F1F1F1" rx="79.5045" ry="18.3009" style="stroke:#181818;stroke-width:0.5;"/><text fill="#000000" font-family="sans-serif" font-size="14" lengthAdjust="spacing" textLength="129.5068" x="583.611" y="331.9462">Xo&#225; asset vi ph&#7841;m</text></g><!--entity UC4--><g class="entity" data-entity="UC4" data-source-line="18" data-uid="ent0012" id="entity_UC4"><ellipse cx="257.6254" cy="346.2939" fill="#F1F1F1" rx="142.4354" ry="30.8871" style="stroke:#181818;stroke-width:0.5;"/><text fill="#000000" font-family="sans-serif" font-size="14" lengthAdjust="spacing" textLength="202.9043" x="156.1732" y="339.96">Qu&#7843;n l&#253; th&#244;ng tin thanh to&#225;n</text><text fill="#000000" font-family="sans-serif" font-size="14" lengthAdjust="spacing" textLength="244.2207" x="135.515" y="356.2569">(chi tr&#7843; cho Developer &amp; Designer)</text></g><!--entity UC5--><g class="entity" data-entity="UC5" data-source-line="19" data-uid="ent0013" id="entity_UC5"><ellipse cx="257.6348" cy="443.2998" fill="#F1F1F1" rx="143.7648" ry="31.153" style="stroke:#181818;stroke-width:0.5;"/><text fill="#000000" font-family="sans-serif" font-size="14" lengthAdjust="spacing" textLength="269.4795" x="122.895" y="447.9483">Qu&#7843;n l&#253; ch&#237;nh s&#225;ch t&#237;ch &#273;i&#7875;m - &#273;&#7893;i qu&#224;</text></g><!--entity UC6--><g class="entity" data-entity="UC6" data-source-line="20" data-uid="ent0014" id="entity_UC6"><ellipse cx="257.6317" cy="539.3012" fill="#F1F1F1" rx="135.2217" ry="29.4443" style="stroke:#181818;stroke-width:0.5;"/><text fill="#000000" font-family="sans-serif" font-size="14" lengthAdjust="spacing" textLength="251.5762" x="131.8436" y="543.9496">Qu&#7843;n l&#253; b&#225;o c&#225;o, th&#7889;ng k&#234; h&#7879; th&#7889;ng</text></g><!--entity Admin--><g class="entity" data-entity="Admin" data-source-line="4" data-uid="ent0002" id="entity_Admin"><ellipse cx="28.4321" cy="286.6469" fill="#F1F1F1" rx="8" ry="8" style="stroke:#181818;stroke-width:0.5;"/><path d="M28.4321,294.6469 L28.4321,321.6469 M15.4321,302.6469 L41.4321,302.6469 M28.4321,321.6469 L15.4321,336.6469 M28.4321,321.6469 L41.4321,336.6469" fill="none" style="stroke:#181818;stroke-width:0.5;"/><text fill="#000000" font-family="sans-serif" font-size="14" lengthAdjust="spacing" textLength="44.8643" x="6" y="351.142">Admin</text></g><!--link Admin to UC1--><g class="link" data-entity-1="Admin" data-entity-2="UC1" data-source-line="23" data-uid="lnk15" id="link_Admin_UC1"><path d="M33.78,277.6869 C39.97,240.8769 54.78,186.4269 89.86,154.2969 C105.26,140.1969 118.904,132.3119 138.894,125.4619" fill="none" id="Admin-to-UC1" style="stroke:#181818;stroke-width:1;"/><polygon fill="#181818" points="144.57,123.5169,134.7593,122.6504,139.84,125.1377,137.3527,130.2184,144.57,123.5169" style="stroke:#181818;stroke-width:1;"/></g><!--link Admin to UC2--><g class="link" data-entity-1="Admin" data-entity-2="UC2" data-source-line="24" data-uid="lnk16" id="link_Admin_UC2"><path d="M48.86,277.9269 C58.98,261.5669 72.83,243.6669 89.86,232.2969 C113.24,216.6969 136.2064,208.5319 163.2964,202.8819" fill="none" id="Admin-to-UC2" style="stroke:#181818;stroke-width:1;"/><polygon fill="#181818" points="169.17,201.6569,159.5429,199.5787,164.2753,202.6777,161.1763,207.4102,169.17,201.6569" style="stroke:#181818;stroke-width:1;"/></g><!--link Admin to UC3--><g class="link" data-entity-1="Admin" data-entity-2="UC3" data-source-line="25" data-uid="lnk17" id="link_Admin_UC3"><path d="M51.18,307.3069 C60.24,303.8169 70.95,300.0069 80.86,297.2969 C120.06,286.5769 159.2308,279.3659 193.9408,273.9859" fill="none" id="Admin-to-UC3" style="stroke:#181818;stroke-width:1;"/><polygon fill="#181818" points="199.87,273.0669,190.3635,270.4926,194.929,273.8327,191.5889,278.3982,199.87,273.0669" style="stroke:#181818;stroke-width:1;"/></g><!--link Admin to UC4--><g class="link" data-entity-1="Admin" data-entity-2="UC4" data-source-line="26" data-uid="lnk18" id="link_Admin_UC4"><path d="M51.22,319.1769 C71.26,321.8169 96.7615,325.1926 129.0715,329.4526" fill="none" id="Admin-to-UC4" style="stroke:#181818;stroke-width:1;"/><polygon fill="#181818" points="135.02,330.2369,126.6201,325.0947,130.0629,329.5833,125.5744,333.0261,135.02,330.2369" style="stroke:#181818;stroke-width:1;"/></g><!--link Admin to UC5--><g class="link" data-entity-1="Admin" data-entity-2="UC5" data-source-line="27" data-uid="lnk19" id="link_Admin_UC5"><path d="M51.35,353.9069 C61.44,368.3569 74.58,383.8669 89.86,394.2969 C107.69,406.4569 122.8665,413.7536 143.7065,420.6836" fill="none" id="Admin-to-UC5" style="stroke:#181818;stroke-width:1;"/><polygon fill="#181818" points="149.4,422.5769,142.122,415.9413,144.6554,420.9992,139.5976,423.5326,149.4,422.5769" style="stroke:#181818;stroke-width:1;"/></g><!--link Admin to UC6--><g class="link" data-entity-1="Admin" data-entity-2="UC6" data-source-line="28" data-uid="lnk20" id="link_Admin_UC6"><path d="M32.41,354.7769 C37.56,394.6569 51.6,456.1169 89.86,492.2969 C104.84,506.4569 118.0861,514.3885 137.7361,521.3685" fill="none" id="Admin-to-UC6" style="stroke:#181818;stroke-width:1;"/><polygon fill="#181818" points="143.39,523.3769,136.2481,516.5951,138.6784,521.7032,133.5703,524.1336,143.39,523.3769" style="stroke:#181818;stroke-width:1;"/></g><!--link UC1 to UC1a--><g class="link" data-entity-1="UC1" data-entity-2="UC1a" data-source-line="30" data-uid="lnk21" id="link_UC1_UC1a"><path d="M389.96,107.6169 C434.03,107.3969 476.9501,107.1788 520.2001,106.9488" fill="none" id="UC1-to-UC1a" style="stroke:#181818;stroke-width:1;stroke-dasharray:7,7;"/><polygon fill="#181818" points="526.2,106.9169,517.1789,102.9648,521.2001,106.9435,517.2214,110.9647,526.2,106.9169" style="stroke:#181818;stroke-width:1;"/><text fill="#000000" font-family="sans-serif" font-size="13" lengthAdjust="spacing" textLength="63.0068" x="432.39" y="103.3638">&#171;include&#187;</text></g><!--link UC2 to UC2a--><g class="link" data-entity-1="UC2" data-entity-2="UC2a" data-source-line="32" data-uid="lnk22" id="link_UC2_UC2a"><path d="M335.89,205.8169 C409.52,217.7469 512.9473,234.517 580.5773,245.477" fill="none" id="UC2-to-UC2a" style="stroke:#181818;stroke-width:1;stroke-dasharray:7,7;"/><polygon fill="#181818" points="586.5,246.4369,578.2558,241.0486,581.5644,245.637,576.976,248.9456,586.5,246.4369" style="stroke:#181818;stroke-width:1;"/><text fill="#000000" font-family="sans-serif" font-size="13" lengthAdjust="spacing" textLength="63.0068" x="432.39" y="219.3638">&#171;include&#187;</text></g><!--link UC2 to UC2b--><g class="link" data-entity-1="UC2" data-entity-2="UC2b" data-source-line="33" data-uid="lnk23" id="link_UC2_UC2b"><path d="M353.23,191.5969 C419.97,190.3869 502.261,188.9046 564.631,187.7846" fill="none" id="UC2-to-UC2b" style="stroke:#181818;stroke-width:1;stroke-dasharray:7,7;"/><polygon fill="#181818" points="570.63,187.6769,561.5596,183.8391,565.6308,187.7666,561.7033,191.8378,570.63,187.6769" style="stroke:#181818;stroke-width:1;"/><text fill="#000000" font-family="sans-serif" font-size="13" lengthAdjust="spacing" textLength="63.0068" x="432.39" y="185.3638">&#171;include&#187;</text></g><!--link UC3 to UC3a--><g class="link" data-entity-1="UC3" data-entity-2="UC3a" data-source-line="35" data-uid="lnk24" id="link_UC3_UC3a"><path d="M321.95,268.8369 C348.58,272.9869 378.6,281.4169 401.39,298.2969 C422.84,314.1769 409.85,334.5569 431.39,350.2969 C472.84,380.5669 523.9541,391.4999 569.0241,395.5499" fill="none" id="UC3-to-UC3a" style="stroke:#181818;stroke-width:1;stroke-dasharray:7,7;"/><polygon fill="#181818" points="575,396.0869,566.3941,391.2974,570.0201,395.6394,565.6781,399.2653,575,396.0869" style="stroke:#181818;stroke-width:1;"/><text fill="#000000" font-family="sans-serif" font-size="13" lengthAdjust="spacing" textLength="63.0068" x="432.39" y="346.3638">&#171;include&#187;</text></g><!--link UC3 to UC3b--><g class="link" data-entity-1="UC3" data-entity-2="UC3b" data-source-line="36" data-uid="lnk25" id="link_UC3_UC3b"><path d="M311.7,274.4569 C338.95,279.9369 372.43,287.8769 401.39,298.2969 C415.42,303.3469 417,309.4069 431.39,313.2969 C476.01,325.3669 521.6006,328.9817 563.1806,329.5717" fill="none" id="UC3-to-UC3b" style="stroke:#181818;stroke-width:1;stroke-dasharray:7,7;"/><polygon fill="#181818" points="569.18,329.6569,560.2377,325.5296,564.1805,329.5859,560.1242,333.5288,569.18,329.6569" style="stroke:#181818;stroke-width:1;"/><text fill="#000000" font-family="sans-serif" font-size="13" lengthAdjust="spacing" textLength="63.0068" x="432.39" y="309.3638">&#171;include&#187;</text></g><!--SRC=[VL8nQzmm5DxrAnuUGWgvGCz9XX0EIWuQwD8CXGnTT3h54cVBLri-E4gd39blo12wn7Ge2MJBT2QJxe_ed_J9DfV8JhC8FN_V-zudlqzB7NCu5RQwPw0sLog2JzD4AXZ0cQskGIEome-VQS99p2yrw1Go6GaDKvbnfcMg2A5Cfna4TMS0D6yq2744gYAS4FJK0lX908gSCvfp-7Rw4LnZS5xOzHy5iNb6jdb2iaOtsjn9c8dKOT_LxjUOBdcs1sE-u74wRwwvZ1JFFWI-AgrLBymz6YwMQ4B3qZmKmEpwRm6RLVtacNb6rRVLFBdXUoOZzogVtamVjuCT0H9R_POTsgIcVP6skaf0PnIKhMub6bPHnq3OCq3pd6jVB_J7reotveRDt8lKb2rf8M4kxBfCEcCFtbsEe4fWBapfTiE4n2SW3vX8NpO4E_zRqM5FcmdpY8gvAHdgcaSyDwlcvmpmPgiR2JyAS-Vh7FLq9gPCWU6njqtUp3o0U1N5WFmYf4tyOEG2urL3hmgzwi2h3htgY12NwFtzKPF1OpWvaOh5nPIFHWuRjjYmYxs29lssiCN2VjiMwhJz0m00]--></g></svg>