<svg xmlns="http://www.w3.org/2000/svg" xmlns:xlink="http://www.w3.org/1999/xlink" contentStyleType="text/css" data-diagram-type="STATE" height="569px" preserveAspectRatio="none" style="width:739px;height:569px;background:#FFFFFF;" version="1.1" viewBox="0 0 739 569" width="739px" zoomAndPan="magnify"><title>Tr&#7841;ng th&#225;i th&#7921;c th&#7875;: Phi&#234;n ch&#417;i (Game Session) &#8212; GameHub</title><defs><filter height="300%" id="f3ljqe5bien2u" width="300%" x="-1" y="-1"><feGaussianBlur result="blurOut" stdDeviation="2"/><feColorMatrix in="blurOut" result="blurOut2" type="matrix" values="0 0 0 0 0 0 0 0 0 0 0 0 0 0 0 0 0 0 .4 0"/><feOffset dx="4" dy="4" in="blurOut2" result="blurOut3"/><feBlend in="SourceGraphic" in2="blurOut3" mode="normal"/></filter></defs><g><g class="title" data-source-line="12"><text fill="#000000" font-family="sans-serif" font-size="14" font-weight="bold" lengthAdjust="spacing" textLength="473.6826" x="126.0728" y="22.9951">Tr&#7841;ng th&#225;i th&#7921;c th&#7875;: Phi&#234;n ch&#417;i (Game Session) &#8212; GameHub</text></g><g id="Pending"><rect fill="#F1F1F1" filter="url(#f3ljqe5bien2u)" height="50" rx="12.5" ry="12.5" style="stroke:#666666;stroke-width:0.5;" width="76.4648" x="29.18" y="140.2969"/><line style="stroke:#666666;stroke-width:0.5;" x1="29.18" x2="105.6448" y1="166.5938" y2="166.5938"/><text fill="#000000" font-family="sans-serif" font-size="14" lengthAdjust="spacing" textLength="56.4648" x="39.18" y="158.292">Pending</text></g><g id="Confirmed"><rect fill="#F1F1F1" filter="url(#f3ljqe5bien2u)" height="50" rx="12.5" ry="12.5" style="stroke:#666666;stroke-width:0.5;" width="92.9258" x="229.95" y="282.2969"/><line style="stroke:#666666;stroke-width:0.5;" x1="229.95" x2="322.8758" y1="308.5938" y2="308.5938"/><text fill="#000000" font-family="sans-serif" font-size="14" lengthAdjust="spacing" textLength="72.9258" x="239.95" y="300.292">Confirmed</text></g><g id="Cancelled"><rect fill="#F1F1F1" filter="url(#f3ljqe5bien2u)" height="50" rx="12.5" ry="12.5" style="stroke:#666666;stroke-width:0.5;" width="88.8174" x="7" y="424.2969"/><line style="stroke:#666666;stroke-width:0.5;" x1="7" x2="95.8174" y1="450.5938" y2="450.5938"/><text fill="#000000" font-family="sans-serif" font-size="14" lengthAdjust="spacing" textLength="68.8174" x="17" y="442.292">Cancelled</text></g><g id="NoShow"><rect fill="#F1F1F1" filter="url(#f3ljqe5bien2u)" height="50" rx="12.5" ry="12.5" style="stroke:#666666;stroke-width:0.5;" width="76.8135" x="233" y="424.2969"/><line style="stroke:#666666;stroke-width:0.5;" x1="233" x2="309.8135" y1="450.5938" y2="450.5938"/><text fill="#000000" font-family="sans-serif" font-size="14" lengthAdjust="spacing" textLength="56.8135" x="243" y="442.292">NoShow</text></g><g id="Completed"><rect fill="#F1F1F1" filter="url(#f3ljqe5bien2u)" height="50" rx="12.5" ry="12.5" style="stroke:#666666;stroke-width:0.5;" width="96.3574" x="504.23" y="424.2969"/><line style="stroke:#666666;stroke-width:0.5;" x1="504.23" x2="600.5874" y1="450.5938" y2="450.5938"/><text fill="#000000" font-family="sans-serif" font-size="14" lengthAdjust="spacing" textLength="76.3574" x="514.23" y="442.292">Completed</text></g><ellipse cx="67.41" cy="53.2969" fill="#222222" filter="url(#f3ljqe5bien2u)" rx="10" ry="10" style="stroke:#222222;stroke-width:1;"/><ellipse cx="271.41" cy="546.2969" fill="none" filter="url(#f3ljqe5bien2u)" rx="11" ry="11" style="stroke:#222222;stroke-width:1;"/><ellipse cx="271.41" cy="546.2969" fill="#222222" rx="6" ry="6" style="stroke:#222222;stroke-width:1;"/><g class="entity" data-entity="GMN2" data-source-line="24" data-uid="ent0003" id="entity_GMN2"><path d="M141.04,152.7269 L141.04,161.2969 L105.91,165.2969 L141.04,169.2969 L141.04,177.8597 A0,0 0 0 0 141.04,177.8597 L249.7837,177.8597 A0,0 0 0 0 249.7837,177.8597 L249.7837,162.7269 L239.7837,152.7269 L141.04,152.7269 A0,0 0 0 0 141.04,152.7269" fill="#FFF8C6" filter="url(#f3ljqe5bien2u)" style="stroke:#C9C08F;stroke-width:0.5;"/><path d="M239.7837,152.7269 L239.7837,162.7269 L249.7837,162.7269 L239.7837,152.7269" fill="#FFF8C6" style="stroke:#C9C08F;stroke-width:0.5;"/><text fill="#000000" font-family="sans-serif" font-size="13" lengthAdjust="spacing" textLength="87.7437" x="147.04" y="169.7938">Ch&#7901; s&#7861;n s&#224;ng</text></g><g class="entity" data-entity="GMN5" data-source-line="28" data-uid="ent0006" id="entity_GMN5"><path d="M357.65,294.7269 L357.65,303.2969 L323.33,307.2969 L357.65,311.2969 L357.65,319.8597 A0,0 0 0 0 357.65,319.8597 L459.1637,319.8597 A0,0 0 0 0 459.1637,319.8597 L459.1637,304.7269 L449.1637,294.7269 L357.65,294.7269 A0,0 0 0 0 357.65,294.7269" fill="#FFF8C6" filter="url(#f3ljqe5bien2u)" style="stroke:#C9C08F;stroke-width:0.5;"/><path d="M449.1637,294.7269 L449.1637,304.7269 L459.1637,304.7269 L449.1637,294.7269" fill="#FFF8C6" style="stroke:#C9C08F;stroke-width:0.5;"/><text fill="#000000" font-family="sans-serif" font-size="13" lengthAdjust="spacing" textLength="80.5137" x="363.65" y="311.7938">&#272;&#227; s&#7861;n s&#224;ng</text></g><g class="entity" data-entity="GMN8" data-source-line="32" data-uid="ent0009" id="entity_GMN8"><path d="M635.98,436.7269 L635.98,445.2969 L600.88,449.2969 L635.98,453.2969 L635.98,461.8597 A0,0 0 0 0 635.98,461.8597 L732.8281,461.8597 A0,0 0 0 0 732.8281,461.8597 L732.8281,446.7269 L722.8281,436.7269 L635.98,436.7269 A0,0 0 0 0 635.98,436.7269" fill="#FFF8C6" filter="url(#f3ljqe5bien2u)" style="stroke:#C9C08F;stroke-width:0.5;"/><path d="M722.8281,436.7269 L722.8281,446.7269 L732.8281,446.7269 L722.8281,436.7269" fill="#FFF8C6" style="stroke:#C9C08F;stroke-width:0.5;"/><text fill="#000000" font-family="sans-serif" font-size="13" lengthAdjust="spacing" textLength="75.8481" x="641.98" y="453.7938">Ho&#224;n th&#224;nh</text></g><g class="entity" data-entity="GMN11" data-source-line="36" data-uid="ent0012" id="entity_GMN11"><path d="M130.74,436.7269 L130.74,445.2969 L95.99,449.2969 L130.74,453.2969 L130.74,461.8597 A0,0 0 0 0 130.74,461.8597 L198.0842,461.8597 A0,0 0 0 0 198.0842,461.8597 L198.0842,446.7269 L188.0842,436.7269 L130.74,436.7269 A0,0 0 0 0 130.74,436.7269" fill="#FFF8C6" filter="url(#f3ljqe5bien2u)" style="stroke:#C9C08F;stroke-width:0.5;"/><path d="M188.0842,436.7269 L188.0842,446.7269 L198.0842,446.7269 L188.0842,436.7269" fill="#FFF8C6" style="stroke:#C9C08F;stroke-width:0.5;"/><text fill="#000000" font-family="sans-serif" font-size="13" lengthAdjust="spacing" textLength="46.3442" x="136.74" y="453.7938">&#272;&#227; hu&#7927;</text></g><g class="entity" data-entity="GMN14" data-source-line="40" data-uid="ent0015" id="entity_GMN14"><path d="M345.27,436.7269 L345.27,445.2969 L310.19,449.2969 L345.27,453.2969 L345.27,461.8597 A0,0 0 0 0 345.27,461.8597 L469.54,461.8597 A0,0 0 0 0 469.54,461.8597 L469.54,446.7269 L459.54,436.7269 L345.27,436.7269 A0,0 0 0 0 345.27,436.7269" fill="#FFF8C6" filter="url(#f3ljqe5bien2u)" style="stroke:#C9C08F;stroke-width:0.5;"/><path d="M459.54,436.7269 L459.54,446.7269 L469.54,446.7269 L459.54,436.7269" fill="#FFF8C6" style="stroke:#C9C08F;stroke-width:0.5;"/><text fill="#000000" font-family="sans-serif" font-size="13" lengthAdjust="spacing" textLength="103.27" x="351.27" y="453.7938">Kh&#244;ng tham gia</text></g><!--link *start* to Pending--><g class="link" data-entity-1=".start." data-entity-2="Pending" data-source-line="14" data-uid="lnk3" id="link_.start._Pending"><path d="M67.41,63.6769 C67.41,80.4069 67.41,109.8869 67.41,133.9269" fill="none" id="*start*-to-Pending" style="stroke:#181818;stroke-width:1;"/><polygon fill="#181818" points="67.41,139.9269,71.41,130.9269,67.41,134.9269,63.41,130.9269,67.41,139.9269" style="stroke:#181818;stroke-width:1;"/><text fill="#000000" font-family="sans-serif" font-size="13" lengthAdjust="spacing" textLength="95.418" x="68.41" y="106.3638">T&#7841;o phi&#234;n ch&#417;i</text></g><!--link Pending to Confirmed--><g class="link" data-entity-1="Pending" data-entity-2="Confirmed" data-source-line="44" data-uid="lnk4" id="link_Pending_Confirmed"><path d="M103.81,190.6869 C142.06,216.2969 196.8649,253.0178 235.0849,278.6178" fill="none" id="Pending-to-Confirmed" style="stroke:#181818;stroke-width:1;"/><polygon fill="#181818" points="240.07,281.9569,234.8184,273.625,235.9158,279.1744,230.3664,280.2717,240.07,281.9569" style="stroke:#181818;stroke-width:1;"/><text fill="#000000" font-family="sans-serif" font-size="13" lengthAdjust="spacing" textLength="106.3867" x="230.6197" y="233.3638">Server x&#225;c nh&#7853;n</text><text fill="#000000" font-family="sans-serif" font-size="13" lengthAdjust="spacing" textLength="182.8062" x="192.41" y="248.4966">(t&#224;i nguy&#234;n/phi&#234;n s&#7861;n s&#224;ng)</text></g><!--link Pending to Cancelled--><g class="link" data-entity-1="Pending" data-entity-2="Cancelled" data-source-line="45" data-uid="lnk5" id="link_Pending_Cancelled"><path d="M66.04,190.3369 C63.03,243.4869 56.1706,364.4666 53.1306,417.9266" fill="none" id="Pending-to-Cancelled" style="stroke:#181818;stroke-width:1;"/><polygon fill="#181818" points="52.79,423.9169,57.2945,415.1585,53.0739,418.9249,49.3074,414.7043,52.79,423.9169" style="stroke:#181818;stroke-width:1;"/><text fill="#000000" font-family="sans-serif" font-size="13" lengthAdjust="spacing" textLength="147.1006" x="62.41" y="311.8638">Hu&#7927; b&#7903;i Player/System</text></g><!--link Confirmed to Cancelled--><g class="link" data-entity-1="Confirmed" data-entity-2="Cancelled" data-source-line="47" data-uid="lnk6" id="link_Confirmed_Cancelled"><path d="M229.69,322.6469 C186.25,336.2269 126.86,355.5269 117.41,362.2969 C94.77,378.5269 79.3491,399.5892 67.7491,418.8192" fill="none" id="Confirmed-to-Cancelled" style="stroke:#181818;stroke-width:1;"/><polygon fill="#181818" points="64.65,423.9569,72.7238,418.3165,67.2326,419.6755,65.8736,414.1843,64.65,423.9569" style="stroke:#181818;stroke-width:1;"/><text fill="#000000" font-family="sans-serif" font-size="13" lengthAdjust="spacing" textLength="147.1006" x="118.41" y="382.8638">Hu&#7927; b&#7903;i Player/System</text></g><!--link Confirmed to NoShow--><g class="link" data-entity-1="Confirmed" data-entity-2="NoShow" data-source-line="48" data-uid="lnk7" id="link_Confirmed_NoShow"><path d="M275.54,332.6869 C274.62,358.3769 273.3932,392.6007 272.4832,418.1907" fill="none" id="Confirmed-to-NoShow" style="stroke:#181818;stroke-width:1;"/><polygon fill="#181818" points="272.27,424.1869,276.5873,415.3347,272.4477,419.19,268.5924,415.0504,272.27,424.1869" style="stroke:#181818;stroke-width:1;"/><text fill="#000000" font-family="sans-serif" font-size="13" lengthAdjust="spacing" textLength="133.98" x="275.41" y="382.8638">Player tho&#225;t/timeout</text></g><!--link Confirmed to Completed--><g class="link" data-entity-1="Confirmed" data-entity-2="Completed" data-source-line="49" data-uid="lnk8" id="link_Confirmed_Completed"><path d="M323.2,325.9569 C362.47,340.8269 412.89,360.0169 417.41,362.2969 C453.27,380.3569 486.7248,402.0145 513.3648,420.4345" fill="none" id="Confirmed-to-Completed" style="stroke:#181818;stroke-width:1;"/><polygon fill="#181818" points="518.3,423.8469,513.1722,415.4382,514.1874,421.0032,508.6224,422.0184,518.3,423.8469" style="stroke:#181818;stroke-width:1;"/><text fill="#000000" font-family="sans-serif" font-size="13" lengthAdjust="spacing" textLength="85.2554" x="491.8082" y="375.3638">K&#7871;t th&#250;c tr&#7853;n</text><text fill="#000000" font-family="sans-serif" font-size="13" lengthAdjust="spacing" textLength="126.0518" x="471.41" y="390.4966">(c&#7897;ng &#273;i&#7875;m/review)</text></g><!--link Cancelled to *end*--><g class="link" data-entity-1="Cancelled" data-entity-2=".end." data-source-line="52" data-uid="lnk10" id="link_Cancelled_.end."><path d="M96.19,469.6369 C148.96,492.4169 227.5519,526.3575 256.0719,538.6775" fill="none" id="Cancelled-to-*end*" style="stroke:#181818;stroke-width:1;"/><polygon fill="#181818" points="261.58,541.0569,254.9042,533.8158,256.99,539.0741,251.7317,541.1599,261.58,541.0569" style="stroke:#181818;stroke-width:1;"/></g><!--link NoShow to *end*--><g class="link" data-entity-1="NoShow" data-entity-2=".end." data-source-line="53" data-uid="lnk11" id="link_NoShow_.end."><path d="M271.41,474.7569 C271.41,494.3369 271.41,514.7869 271.41,529.0969" fill="none" id="NoShow-to-*end*" style="stroke:#181818;stroke-width:1;"/><polygon fill="#181818" points="271.41,535.0969,275.41,526.0969,271.41,530.0969,267.41,526.0969,271.41,535.0969" style="stroke:#181818;stroke-width:1;"/></g><!--link Completed to *end*--><g class="link" data-entity-1="Completed" data-entity-2=".end." data-source-line="54" data-uid="lnk12" id="link_Completed_.end."><path d="M503.85,468.4469 C498.32,470.4469 492.75,472.4369 487.41,474.2969 C408.77,501.7269 318.7421,530.3721 287.5121,540.2221" fill="none" id="Completed-to-*end*" style="stroke:#181818;stroke-width:1;"/><polygon fill="#181818" points="281.79,542.0269,291.5764,543.1345,286.5584,540.5229,289.17,535.505,281.79,542.0269" style="stroke:#181818;stroke-width:1;"/></g><!--SRC=[ZLDDQzHG5Ds_Nt71HJj2cIeor5cuw80EL6GmtQcBDBd9UpHvRtXvwJYA8FGFMEh6XJY3Ez65O2aaYovI_1_nbtZpdGuKcaN2k_UUS-yvzoKw5d9kQpk4YDkkMWZfWz4nigXB6DiWl6S0BrKitOdI4ZKytAN0lj8kweaAb8Pxez68Ga-LD9PuX_3W4VlGOv6g9jctdMDVLqmbplEyFMUqoUOyTdRtFA9WHfW0uL3doReOZcThGUyy_UsKdzCnpBZ8VaXm-5zARJ-pGmGBeqWeEO1_7pz34Pd6Huozkly6TdQUm0obMoWTmo6nAfZt21Yh1DSrzMcYf2TqY6vpjgM3GT2UNoYBgqLR7Cu3D9HaMzIF7ieRZC0NUNf6VKCXEN15lQiqAztHmkS6bDUs1fYGmAyGvSc5X2XRKOnIfPTi0zCD273zAVj-Hr0pAC1KKMbXxqhosm6jxBeBZ_FqyjRosXM00vxzAPT7Dy4NTW_G6FISYCwffB68Pp_9eygTPbt5wbgTj3mBzGbTnRVPsW79y-INV2stJROI8FruIHiTreljUJ6uoTRe8RPf8GMEylIRW5bWBr4FhMLaC6IiQtftq4rCvGG0GQeoya9bQpCq8aGLcyqMpMB6S90dLwROIqBtNTSYdJpzGXAkpyYjqt2eyKJWOj2vsGTL7dP35_pq8x1sf3RITcqY_m40]--></g></svg>