<svg xmlns="http://www.w3.org/2000/svg" xmlns:xlink="http://www.w3.org/1999/xlink" contentStyleType="text/css" data-diagram-type="DESCRIPTION" height="1152px" preserveAspectRatio="none" style="width:535px;height:1152px;background:#FFFFFF;" version="1.1" viewBox="0 0 535 1152" width="535px" zoomAndPan="magnify"><defs/><g><!--cluster H? th?ng game--><g class="cluster" data-entity="H. th.ng game" data-source-line="3" data-uid="ent0003" id="cluster_H. th.ng game"><rect fill="none" height="1139" rx="2.5" ry="2.5" style="stroke:#181818;stroke-width:1;" width="294.92" x="234.79" y="7"/><text fill="#000000" font-family="sans-serif" font-size="14" font-weight="bold" lengthAdjust="spacing" textLength="120.7773" x="321.8613" y="21.9951">H&#7879; th&#7889;ng game</text></g><!--entity UC1--><g class="entity" data-entity="UC1" data-source-line="5" data-uid="ent0004" id="entity_UC1"><ellipse cx="382.2549" cy="1043.999" fill="#F1F1F1" rx="85.6949" ry="19.539" style="stroke:#181818;stroke-width:0.5;"/><text fill="#000000" font-family="sans-serif" font-size="14" lengthAdjust="spacing" textLength="143.9238" x="310.293" y="1048.6474">&#272;&#259;ng nh&#7853;p h&#7879; th&#7889;ng</text></g><!--entity UC2--><g class="entity" data-entity="UC2" data-source-line="6" data-uid="ent0005" id="entity_UC2"><ellipse cx="382.2497" cy="250.0019" fill="#F1F1F1" rx="103.7097" ry="23.1419" style="stroke:#181818;stroke-width:0.5;"/><text fill="#000000" font-family="sans-serif" font-size="14" lengthAdjust="spacing" textLength="184.2012" x="290.1491" y="254.6504">Qu&#7843;n l&#253; t&#224;i kho&#7843;n c&#225; nh&#226;n</text></g><!--entity UC2a--><g class="entity" data-entity="UC2a" data-source-line="7" data-uid="ent0006" id="entity_UC2a"><ellipse cx="382.2492" cy="66.0018" fill="#F1F1F1" rx="107.1592" ry="23.8318" style="stroke:#181818;stroke-width:0.5;"/><text fill="#000000" font-family="sans-serif" font-size="14" lengthAdjust="spacing" textLength="191.7207" x="286.3888" y="70.6503">C&#7853;p nh&#7853;t th&#244;ng tin c&#225; nh&#226;n</text></g><!--entity UC2b--><g class="entity" data-entity="UC2b" data-source-line="8" data-uid="ent0007" id="entity_UC2b"><ellipse cx="382.2487" cy="149.9997" fill="#F1F1F1" rx="115.5987" ry="25.5197" style="stroke:#181818;stroke-width:0.5;"/><text fill="#000000" font-family="sans-serif" font-size="14" lengthAdjust="spacing" textLength="209.9385" x="277.2795" y="154.6482">Khai b&#225;o th&#244;ng tin thanh to&#225;n</text></g><!--entity UC3--><g class="entity" data-entity="UC3" data-source-line="10" data-uid="ent0008" id="entity_UC3"><ellipse cx="382.2534" cy="547.0047" fill="#F1F1F1" rx="98.2734" ry="22.0547" style="stroke:#181818;stroke-width:0.5;"/><text fill="#000000" font-family="sans-serif" font-size="14" lengthAdjust="spacing" textLength="172.2451" x="296.1308" y="551.6531">Qu&#7843;n l&#253; danh s&#225;ch asset</text></g><!--entity UC3a--><g class="entity" data-entity="UC3a" data-source-line="11" data-uid="ent0009" id="entity_UC3a"><ellipse cx="382.245" cy="457.005" fill="#F1F1F1" rx="68.725" ry="16.145" style="stroke:#181818;stroke-width:0.5;"/><text fill="#000000" font-family="sans-serif" font-size="14" lengthAdjust="spacing" textLength="103.1475" x="330.6713" y="461.6534">c&#7853;p nh&#7853;t asset</text></g><!--entity UC3b--><g class="entity" data-entity="UC3b" data-source-line="12" data-uid="ent0010" id="entity_UC3b"><ellipse cx="382.2543" cy="324.9989" fill="#F1F1F1" rx="71.0943" ry="16.6189" style="stroke:#181818;stroke-width:0.5;"/><text fill="#000000" font-family="sans-serif" font-size="14" lengthAdjust="spacing" textLength="109.1221" x="327.6933" y="329.6473">ch&#7881;nh s&#7917;a asset</text></g><!--entity UC3c--><g class="entity" data-entity="UC3c" data-source-line="13" data-uid="ent0011" id="entity_UC3c"><ellipse cx="382.2518" cy="391.0036" fill="#F1F1F1" rx="50.4818" ry="14.5236" style="stroke:#181818;stroke-width:0.5;"/><text fill="#000000" font-family="sans-serif" font-size="14" lengthAdjust="spacing" textLength="67.1494" x="348.6771" y="395.6521">x&#243;a asset</text></g><!--entity UC4--><g class="entity" data-entity="UC4" data-source-line="15" data-uid="ent0012" id="entity_UC4"><ellipse cx="382.2488" cy="803.0018" fill="#F1F1F1" rx="131.4588" ry="28.6918" style="stroke:#181818;stroke-width:0.5;"/><text fill="#000000" font-family="sans-serif" font-size="14" lengthAdjust="spacing" textLength="243.6533" x="260.4221" y="807.6502">Theo d&#245;i doanh thu t&#7915; asset c&#243; ph&#237;</text></g><!--entity UC5--><g class="entity" data-entity="UC5" data-source-line="17" data-uid="ent0013" id="entity_UC5"><ellipse cx="382.2506" cy="1114.0001" fill="#F1F1F1" rx="67.4006" ry="15.8801" style="stroke:#181818;stroke-width:0.5;"/><text fill="#000000" font-family="sans-serif" font-size="14" lengthAdjust="spacing" textLength="99.75" x="332.3756" y="1118.6486">&#272;&#259;ng k&#253; asset</text></g><!--entity UC6--><g class="entity" data-entity="UC6" data-source-line="19" data-uid="ent0014" id="entity_UC6"><ellipse cx="382.2512" cy="973.9982" fill="#F1F1F1" rx="63.9912" ry="15.1982" style="stroke:#181818;stroke-width:0.5;"/><text fill="#000000" font-family="sans-serif" font-size="14" lengthAdjust="spacing" textLength="90.7744" x="336.864" y="978.6467">Upload asset</text></g><!--entity UC6a--><g class="entity" data-entity="UC6a" data-source-line="20" data-uid="ent0015" id="entity_UC6a"><ellipse cx="382.2529" cy="704.0006" fill="#F1F1F1" rx="82.9529" ry="18.9906" style="stroke:#181818;stroke-width:0.5;"/><text fill="#000000" font-family="sans-serif" font-size="14" lengthAdjust="spacing" textLength="137.5869" x="313.4594" y="708.649">Upload asset c&#243; ph&#237;</text></g><!--entity UC6b--><g class="entity" data-entity="UC6b" data-source-line="21" data-uid="ent0016" id="entity_UC6b"><ellipse cx="382.2494" cy="886.9999" fill="#F1F1F1" rx="91.1494" ry="20.6299" style="stroke:#181818;stroke-width:0.5;"/><text fill="#000000" font-family="sans-serif" font-size="14" lengthAdjust="spacing" textLength="156.3379" x="304.0804" y="891.6483">Upload asset mi&#7877;n ph&#237;</text></g><!--entity UC6c--><g class="entity" data-entity="UC6c" data-source-line="22" data-uid="ent0017" id="entity_UC6c"><ellipse cx="382.2502" cy="619.0036" fill="#F1F1F1" rx="59.2502" ry="14.5236" style="stroke:#181818;stroke-width:0.5;"/><text fill="#000000" font-family="sans-serif" font-size="14" lengthAdjust="spacing" textLength="79.5498" x="342.4753" y="623.6521">&#273;&#7863;t gi&#225; b&#225;n</text></g><!--entity GD--><g class="entity" data-entity="GD" data-source-line="1" data-uid="ent0002" id="entity_GD"><ellipse cx="65.8965" cy="636.35" fill="#F1F1F1" rx="8" ry="8" style="stroke:#181818;stroke-width:0.5;"/><path d="M65.8965,644.35 L65.8965,671.35 M52.8965,652.35 L78.8965,652.35 M65.8965,671.35 L52.8965,686.35 M65.8965,671.35 L78.8965,686.35" fill="none" style="stroke:#181818;stroke-width:0.5;"/><text fill="#000000" font-family="sans-serif" font-size="14" lengthAdjust="spacing" textLength="119.793" x="6" y="700.8451">Graphic designer</text></g><!--link GD to UC1--><g class="link" data-entity-1="GD" data-entity-2="UC1" data-source-line="26" data-uid="lnk18" id="link_GD_UC1"><path d="M71.48,704.61 C82.65,778.95 118.79,940.47 226.79,1007 C250.04,1021.32 272.5245,1028.8743 298.5745,1034.2643" fill="none" id="GD-to-UC1" style="stroke:#181818;stroke-width:1;"/><polygon fill="#181818" points="304.45,1035.48,296.4472,1029.7394,299.5537,1034.4669,294.8262,1037.5735,304.45,1035.48" style="stroke:#181818;stroke-width:1;"/></g><!--link GD to UC2--><g class="link" data-entity-1="GD" data-entity-2="UC2" data-source-line="27" data-uid="lnk19" id="link_GD_UC2"><path d="M70.97,627.39 C81.38,549.71 116.49,374.82 226.79,291 C245.46,276.82 262.8348,269.0842 285.5048,263.0042" fill="none" id="GD-to-UC2" style="stroke:#181818;stroke-width:1;"/><polygon fill="#181818" points="291.3,261.45,281.571,259.9179,286.4707,262.7452,283.6434,267.6448,291.3,261.45" style="stroke:#181818;stroke-width:1;"/></g><!--link GD to UC3--><g class="link" data-entity-1="GD" data-entity-2="UC3" data-source-line="28" data-uid="lnk20" id="link_GD_UC3"><path d="M69.68,627.39 C75.74,575.55 94.93,485.19 155.79,444 C178.98,428.31 197.4,425.94 218.79,444 C234.98,457.67 213.21,474.74 226.79,491 C245.26,513.11 267.452,524.7694 294.512,532.8694" fill="none" id="GD-to-UC3" style="stroke:#181818;stroke-width:1;"/><polygon fill="#181818" points="300.26,534.59,292.785,528.1771,295.47,533.1562,290.4909,535.8411,300.26,534.59" style="stroke:#181818;stroke-width:1;"/></g><!--link GD to UC4--><g class="link" data-entity-1="GD" data-entity-2="UC4" data-source-line="29" data-uid="lnk21" id="link_GD_UC4"><path d="M73.49,627.57 C83.19,584.33 105.87,516.1 155.79,485 C179.56,470.19 198.69,465.51 218.79,485 C239.15,504.73 210.61,716.72 226.79,740 C240.84,760.21 257.0373,771.6768 279.8273,781.0068" fill="none" id="GD-to-UC4" style="stroke:#181818;stroke-width:1;"/><polygon fill="#181818" points="285.38,783.28,278.5664,776.1684,280.7528,781.3856,275.5355,783.572,285.38,783.28" style="stroke:#181818;stroke-width:1;"/></g><!--link GD to UC5--><g class="link" data-entity-1="GD" data-entity-2="UC5" data-source-line="30" data-uid="lnk22" id="link_GD_UC5"><path d="M70.2,704.61 C77.29,770.99 98.26,909.31 155.79,1010 C177.93,1048.75 187.59,1059.69 226.79,1081 C254.74,1096.19 283.1379,1103.49 312.3379,1107.92" fill="none" id="GD-to-UC5" style="stroke:#181818;stroke-width:1;"/><polygon fill="#181818" points="318.27,1108.82,309.9718,1103.5153,313.3266,1108.07,308.7718,1111.4248,318.27,1108.82" style="stroke:#181818;stroke-width:1;"/></g><!--link GD to UC6--><g class="link" data-entity-1="GD" data-entity-2="UC6" data-source-line="31" data-uid="lnk23" id="link_GD_UC6"><path d="M80.61,704.52 C102.67,761.06 151.38,866.17 226.79,925 C255.52,947.41 288.8381,958.4467 320.5481,965.1067" fill="none" id="GD-to-UC6" style="stroke:#181818;stroke-width:1;"/><polygon fill="#181818" points="326.42,966.34,318.4343,960.5755,321.5268,965.3123,316.79,968.4047,326.42,966.34" style="stroke:#181818;stroke-width:1;"/></g><!--link UC2 to UC2a--><g class="link" data-entity-1="UC2" data-entity-2="UC2a" data-source-line="34" data-uid="lnk24" id="link_UC2_UC2a"><path d="M291.34,238.6 C232.09,226.31 169.07,201.2 188.29,150.5 C203.75,109.71 240.7978,90.1078 282.3078,79.1778" fill="none" id="UC2-to-UC2a" style="stroke:#181818;stroke-width:1;stroke-dasharray:7,7;"/><polygon fill="#181818" points="288.11,77.65,278.3881,76.0735,283.2748,78.9232,280.4252,83.8098,288.11,77.65" style="stroke:#181818;stroke-width:1;"/><text fill="#000000" font-family="sans-serif" font-size="13" lengthAdjust="spacing" textLength="61.1851" x="156.79" y="163.5669">&#171;extend&#187;</text></g><!--link UC2 to UC2b--><g class="link" data-entity-1="UC2" data-entity-2="UC2b" data-source-line="35" data-uid="lnk25" id="link_UC2_UC2b"><path d="M382.25,226.55 C382.25,211.31 382.25,197.44 382.25,181.76" fill="none" id="UC2-to-UC2b" style="stroke:#181818;stroke-width:1;stroke-dasharray:7,7;"/><polygon fill="#181818" points="382.25,175.76,378.25,184.76,382.25,180.76,386.25,184.76,382.25,175.76" style="stroke:#181818;stroke-width:1;"/><text fill="#000000" font-family="sans-serif" font-size="13" lengthAdjust="spacing" textLength="63.0068" x="339.25" y="205.7569">&#171;include&#187;</text></g><!--link UC3 to UC3a--><g class="link" data-entity-1="UC3" data-entity-2="UC3a" data-source-line="37" data-uid="lnk26" id="link_UC3_UC3a"><path d="M382.25,524.75 C382.25,508.93 382.25,494.01 382.25,479.63" fill="none" id="UC3-to-UC3a" style="stroke:#181818;stroke-width:1;stroke-dasharray:7,7;"/><polygon fill="#181818" points="382.25,473.63,378.25,482.63,382.25,478.63,386.25,482.63,382.25,473.63" style="stroke:#181818;stroke-width:1;"/><text fill="#000000" font-family="sans-serif" font-size="13" lengthAdjust="spacing" textLength="61.1851" x="340.25" y="503.6169">&#171;extend&#187;</text></g><!--link UC3 to UC3b--><g class="link" data-entity-1="UC3" data-entity-2="UC3b" data-source-line="38" data-uid="lnk27" id="link_UC3_UC3b"><path d="M304.05,560.66 C263.44,562.92 216.54,557.05 188.29,525.5 C179.37,515.55 159.17,424.18 226.79,359 C248.97,337.62 275.3638,329.144 304.8138,325.564" fill="none" id="UC3-to-UC3b" style="stroke:#181818;stroke-width:1;stroke-dasharray:7,7;"/><polygon fill="#181818" points="310.77,324.84,301.3531,321.9553,305.8065,325.4434,302.3185,329.8968,310.77,324.84" style="stroke:#181818;stroke-width:1;"/><text fill="#000000" font-family="sans-serif" font-size="13" lengthAdjust="spacing" textLength="61.1851" x="156.79" y="521.5669">&#171;extend&#187;</text></g><!--link UC3 to UC3c--><g class="link" data-entity-1="UC3" data-entity-2="UC3c" data-source-line="39" data-uid="lnk28" id="link_UC3_UC3c"><path d="M284.06,549.11 C248.33,544.42 211.15,532.06 188.29,503.5 C165.91,475.55 184.3,452.97 226.79,423 C257.3,401.48 293.0873,394.2257 325.6473,391.7457" fill="none" id="UC3-to-UC3c" style="stroke:#181818;stroke-width:1;stroke-dasharray:7,7;"/><polygon fill="#181818" points="331.63,391.29,322.3522,387.9851,326.6444,391.6697,322.9598,395.962,331.63,391.29" style="stroke:#181818;stroke-width:1;"/><text fill="#000000" font-family="sans-serif" font-size="13" lengthAdjust="spacing" textLength="61.1851" x="156.79" y="499.5669">&#171;extend&#187;</text></g><!--link UC4 to UC6a--><g class="link" data-entity-1="UC4" data-entity-2="UC6a" data-source-line="41" data-uid="lnk29" id="link_UC4_UC6a"><path d="M382.25,773.83 C382.25,757.52 382.25,743.64 382.25,729.27" fill="none" id="UC4-to-UC6a" style="stroke:#181818;stroke-width:1;stroke-dasharray:7,7;"/><polygon fill="#181818" points="382.25,723.27,378.25,732.27,382.25,728.27,386.25,732.27,382.25,723.27" style="stroke:#181818;stroke-width:1;"/><text fill="#000000" font-family="sans-serif" font-size="13" lengthAdjust="spacing" textLength="61.1851" x="340.25" y="753.2169">&#171;extend&#187;</text></g><!--link UC6 to UC6a--><g class="link" data-entity-1="UC6" data-entity-2="UC6a" data-source-line="43" data-uid="lnk30" id="link_UC6_UC6a"><path d="M321.98,968.65 C289.77,962.76 251.72,950.49 226.79,925 C178.83,875.94 151.75,833.58 188.29,775.5 C212.84,736.46 255.7264,719.7249 298.2164,711.6149" fill="none" id="UC6-to-UC6a" style="stroke:#181818;stroke-width:1;stroke-dasharray:7,7;"/><polygon fill="#181818" points="304.11,710.49,294.5197,708.2483,299.1987,711.4274,296.0195,716.1064,304.11,710.49" style="stroke:#181818;stroke-width:1;"/><text fill="#000000" font-family="sans-serif" font-size="13" lengthAdjust="spacing" textLength="61.1851" x="156.79" y="788.5669">&#171;extend&#187;</text></g><!--link UC6 to UC6b--><g class="link" data-entity-1="UC6" data-entity-2="UC6b" data-source-line="44" data-uid="lnk31" id="link_UC6_UC6b"><path d="M382.25,958.45 C382.25,944.37 382.25,929.52 382.25,913.98" fill="none" id="UC6-to-UC6b" style="stroke:#181818;stroke-width:1;stroke-dasharray:7,7;"/><polygon fill="#181818" points="382.25,907.98,378.25,916.98,382.25,912.98,386.25,916.98,382.25,907.98" style="stroke:#181818;stroke-width:1;"/><text fill="#000000" font-family="sans-serif" font-size="13" lengthAdjust="spacing" textLength="61.1851" x="340.25" y="937.7869">&#171;extend&#187;</text></g><!--link UC6a to UC6c--><g class="link" data-entity-1="UC6a" data-entity-2="UC6c" data-source-line="46" data-uid="lnk32" id="link_UC6a_UC6c"><path d="M382.25,684.71 C382.25,669.33 382.25,654.1 382.25,639.98" fill="none" id="UC6a-to-UC6c" style="stroke:#181818;stroke-width:1;stroke-dasharray:7,7;"/><polygon fill="#181818" points="382.25,633.98,378.25,642.98,382.25,638.98,386.25,642.98,382.25,633.98" style="stroke:#181818;stroke-width:1;"/><text fill="#000000" font-family="sans-serif" font-size="13" lengthAdjust="spacing" textLength="63.0068" x="339.25" y="663.8369">&#171;include&#187;</text></g><!--SRC=[TPFFQjmm4CRlUefXBqqFQMbsuqC92oM13UGKI1v0bbLBn94MMmw1a5C88RVat4ktFPOzfQMmflIWVH6zIKUo6__P18mOvlVDDoDPeipe74QpdCw5P93mGgQAvoEW1SmE2CavCrIb6OVHeQlkm0XNFQeKKdhEHt150F3RMZ-iRp2fX5ijvo0wmhVUw7J_WrSTbsxrNK5c_u2nNoMS2HqIp2wmr7vJZNZ7Y_U3LN0qQ6P_eh-HBuYfLny9AY6s2zsL6a6L0AFjubaSay4WYPSKTi44AWfk6k7OorXtX1uDFHdkyDvNksf9-pps_D8-3T8iT3yHN4DYVqb8T1XGb61SzQFMuWQVO2xiiYcQaCu1d-74NSVT04_dcQP93qJ3_D0seXkAS-cgMzKJXNsi7ztgju5Kuid7xLb6Z5mJyWQEtEgl0OL_MyAdS9ikNFL5GbbmODGlQAW4cHt0zlOqt8NdSASDnsquQSFTDenyi-EIglf-ISMoCk7m7lYbuIeXw0RlWYc5Zx2tLwUdqmw80sWgaI0QrsYyKVCVnAy1rWT89ZM9w0Q9NYOjY3TBQ8FOSEYCVyONeI6NgJ2GIFz4fLR_0000]--></g></svg>