<svg xmlns="http://www.w3.org/2000/svg" xmlns:xlink="http://www.w3.org/1999/xlink" contentStyleType="text/css" data-diagram-type="DESCRIPTION" height="3038px" preserveAspectRatio="none" style="width:471px;height:3038px;background:#FFFFFF;" version="1.1" viewBox="0 0 471 3038" width="471px" zoomAndPan="magnify"><defs/><g><!--cluster SYS--><g class="cluster" data-entity="SYS" data-source-line="16" data-uid="ent0007" id="cluster_SYS"><rect fill="none" height="3025" rx="4" ry="4" style="stroke:#999999;stroke-width:1;" width="367.53" x="98" y="7"/><text fill="#000000" font-family="sans-serif" font-size="14" font-weight="bold" lengthAdjust="spacing" textLength="72.3516" x="245.5892" y="21.9951">H&#7879; th&#7889;ng</text></g><!--cluster GBOX--><g class="cluster" data-entity="GBOX" data-source-line="18" data-uid="ent0008" id="cluster_GBOX"><rect fill="none" height="685" rx="4" ry="4" style="stroke:#999999;stroke-width:1;" width="258.72" x="152.41" y="50"/><text fill="#000000" font-family="sans-serif" font-size="14" font-weight="bold" lengthAdjust="spacing" textLength="133.6357" x="214.9521" y="64.9951">Ch&#7913;c n&#259;ng Guest</text></g><!--cluster PBOX--><g class="cluster" data-entity="PBOX" data-source-line="30" data-uid="ent0018" id="cluster_PBOX"><rect fill="none" height="535" rx="4" ry="4" style="stroke:#999999;stroke-width:1;" width="246.49" x="158.52" y="759"/><text fill="#000000" font-family="sans-serif" font-size="14" font-weight="bold" lengthAdjust="spacing" textLength="137.6895" x="212.9203" y="773.9951">Ch&#7913;c n&#259;ng Player</text></g><!--cluster DSB--><g class="cluster" data-entity="DSB" data-source-line="41" data-uid="ent0026" id="cluster_DSB"><rect fill="none" height="402" rx="4" ry="4" style="stroke:#999999;stroke-width:1;" width="277.59" x="142.97" y="1975"/><text fill="#000000" font-family="sans-serif" font-size="14" font-weight="bold" lengthAdjust="spacing" textLength="158.293" x="202.6185" y="1989.9951">Ch&#7913;c n&#259;ng Designer</text></g><!--cluster DEVB--><g class="cluster" data-entity="DEVB" data-source-line="49" data-uid="ent0032" id="cluster_DEVB"><rect fill="none" height="633" rx="4" ry="4" style="stroke:#999999;stroke-width:1;" width="236.97" x="163.28" y="1318"/><text fill="#000000" font-family="sans-serif" font-size="14" font-weight="bold" lengthAdjust="spacing" textLength="168.2324" x="197.6488" y="1332.9951">Ch&#7913;c n&#259;ng Developer</text></g><!--cluster ADB--><g class="cluster" data-entity="ADB" data-source-line="60" data-uid="ent0041" id="cluster_ADB"><rect fill="none" height="607" rx="4" ry="4" style="stroke:#999999;stroke-width:1;" width="319.53" x="122" y="2401"/><text fill="#000000" font-family="sans-serif" font-size="14" font-weight="bold" lengthAdjust="spacing" textLength="137.8672" x="212.8314" y="2415.9951">Ch&#7913;c n&#259;ng Admin</text></g><!--entity G1--><g class="entity" data-entity="G1" data-source-line="19" data-uid="ent0009" id="entity_G1"><ellipse cx="281.7652" cy="697.999" fill="#F1F1F1" rx="90.5952" ry="20.519" style="stroke:#181818;stroke-width:0.5;"/><text fill="#000000" font-family="sans-serif" font-size="14" lengthAdjust="spacing" textLength="155.0869" x="204.2217" y="702.6475">Xem th&#244;ng tin d&#7883;ch v&#7909;</text></g><!--entity G2--><g class="entity" data-entity="G2" data-source-line="20" data-uid="ent0010" id="entity_G2"><ellipse cx="281.7662" cy="622.9992" fill="#F1F1F1" rx="86.4962" ry="19.6992" style="stroke:#181818;stroke-width:0.5;"/><text fill="#000000" font-family="sans-serif" font-size="14" lengthAdjust="spacing" textLength="145.7627" x="208.8849" y="627.6477">Xem th&#244;ng tin stylist</text></g><!--entity G3--><g class="entity" data-entity="G3" data-source-line="21" data-uid="ent0011" id="entity_G3"><ellipse cx="281.7701" cy="549.004" fill="#F1F1F1" rx="84.5701" ry="19.314" style="stroke:#181818;stroke-width:0.5;"/><text fill="#000000" font-family="sans-serif" font-size="14" lengthAdjust="spacing" textLength="141.333" x="211.1036" y="553.6525">Xem th&#244;ng tin salon</text></g><!--entity G4--><g class="entity" data-entity="G4" data-source-line="22" data-uid="ent0012" id="entity_G4"><ellipse cx="281.7709" cy="477.0002" fill="#F1F1F1" rx="75.6009" ry="17.5202" style="stroke:#181818;stroke-width:0.5;"/><text fill="#000000" font-family="sans-serif" font-size="14" lengthAdjust="spacing" textLength="120.1826" x="221.6796" y="481.6486">T&#236;m ki&#7871;m d&#7883;ch v&#7909;</text></g><!--entity G5--><g class="entity" data-entity="G5" data-source-line="23" data-uid="ent0013" id="entity_G5"><ellipse cx="281.7709" cy="410.0036" fill="#F1F1F1" rx="57.3409" ry="14.5236" style="stroke:#181818;stroke-width:0.5;"/><text fill="#000000" font-family="sans-serif" font-size="14" lengthAdjust="spacing" textLength="76.8496" x="243.3461" y="414.6521">&#272;&#259;ng nh&#7853;p</text></g><!--entity G6--><g class="entity" data-entity="G6" data-source-line="24" data-uid="ent0014" id="entity_G6"><ellipse cx="281.77" cy="342.004" fill="#F1F1F1" rx="78.82" ry="18.164" style="stroke:#181818;stroke-width:0.5;"/><text fill="#000000" font-family="sans-serif" font-size="14" lengthAdjust="spacing" textLength="127.8867" x="217.8267" y="346.6524">&#272;&#259;ng k&#253; t&#224;i kho&#7843;n</text></g><!--entity G7--><g class="entity" data-entity="G7" data-source-line="25" data-uid="ent0015" id="entity_G7"><ellipse cx="281.77" cy="270" fill="#F1F1F1" rx="83" ry="19" style="stroke:#181818;stroke-width:0.5;"/><text fill="#000000" font-family="sans-serif" font-size="14" lengthAdjust="spacing" textLength="137.6963" x="212.9218" y="274.6484">Ch&#417;i th&#7917; mini game</text></g><!--entity G8--><g class="entity" data-entity="G8" data-source-line="26" data-uid="ent0016" id="entity_G8"><ellipse cx="281.7707" cy="192.9961" fill="#F1F1F1" rx="105.1307" ry="23.4261" style="stroke:#181818;stroke-width:0.5;"/><text fill="#000000" font-family="sans-serif" font-size="14" lengthAdjust="spacing" textLength="187.3047" x="188.1184" y="197.6446">Xem danh s&#225;ch mini game</text></g><!--entity G9--><g class="entity" data-entity="G9" data-source-line="27" data-uid="ent0017" id="entity_G9"><ellipse cx="281.7689" cy="110.0018" fill="#F1F1F1" rx="113.3589" ry="25.0718" style="stroke:#181818;stroke-width:0.5;"/><text fill="#000000" font-family="sans-serif" font-size="14" lengthAdjust="spacing" textLength="205.126" x="179.2059" y="114.6502">X&#225;c th&#7921;c Developer/Designer</text></g><!--entity P1--><g class="entity" data-entity="P1" data-source-line="31" data-uid="ent0019" id="entity_P1"><ellipse cx="281.7749" cy="1257.999" fill="#F1F1F1" rx="85.6949" ry="19.539" style="stroke:#181818;stroke-width:0.5;"/><text fill="#000000" font-family="sans-serif" font-size="14" lengthAdjust="spacing" textLength="143.9238" x="209.813" y="1262.6474">&#272;&#259;ng nh&#7853;p h&#7879; th&#7889;ng</text></g><!--entity P2--><g class="entity" data-entity="P2" data-source-line="32" data-uid="ent0020" id="entity_P2"><ellipse cx="281.7695" cy="1183.0019" fill="#F1F1F1" rx="89.8095" ry="20.3619" style="stroke:#181818;stroke-width:0.5;"/><text fill="#000000" font-family="sans-serif" font-size="14" lengthAdjust="spacing" textLength="153.3096" x="205.1147" y="1187.6503">Ch&#417;i game ch&#237;nh th&#7913;c</text></g><!--entity P3--><g class="entity" data-entity="P3" data-source-line="33" data-uid="ent0021" id="entity_P3"><ellipse cx="281.7745" cy="1108.9969" fill="#F1F1F1" rx="79.8345" ry="18.3669" style="stroke:#181818;stroke-width:0.5;"/><text fill="#000000" font-family="sans-serif" font-size="14" lengthAdjust="spacing" textLength="130.2861" x="216.6315" y="1113.6453">Nh&#7853;n &#273;i&#7875;m th&#432;&#7903;ng</text></g><!--entity P4--><g class="entity" data-entity="P4" data-source-line="34" data-uid="ent0022" id="entity_P4"><ellipse cx="281.7729" cy="1038.0046" fill="#F1F1F1" rx="77.9229" ry="17.9846" style="stroke:#181818;stroke-width:0.5;"/><text fill="#000000" font-family="sans-serif" font-size="14" lengthAdjust="spacing" textLength="125.7539" x="218.8959" y="1042.653">Xem leader board</text></g><!--entity P5--><g class="entity" data-entity="P5" data-source-line="35" data-uid="ent0023" id="entity_P5"><ellipse cx="281.7735" cy="962.9967" fill="#F1F1F1" rx="98.7835" ry="22.1567" style="stroke:#181818;stroke-width:0.5;"/><text fill="#000000" font-family="sans-serif" font-size="14" lengthAdjust="spacing" textLength="173.373" x="195.087" y="967.6451">Review ch&#7845;t l&#432;&#7907;ng game</text></g><!--entity P6--><g class="entity" data-entity="P6" data-source-line="36" data-uid="ent0024" id="entity_P6"><ellipse cx="281.7741" cy="881.9988" fill="#F1F1F1" rx="107.2441" ry="23.8488" style="stroke:#181818;stroke-width:0.5;"/><text fill="#000000" font-family="sans-serif" font-size="14" lengthAdjust="spacing" textLength="191.9053" x="185.8215" y="886.6473">Tham gia t&#237;ch &#273;i&#7875;m &#273;&#7893;i qu&#224;</text></g><!--entity P7--><g class="entity" data-entity="P7" data-source-line="37" data-uid="ent0025" id="entity_P7"><ellipse cx="281.7694" cy="809.0036" fill="#F1F1F1" rx="41.2494" ry="14.5236" style="stroke:#181818;stroke-width:0.5;"/><text fill="#000000" font-family="sans-serif" font-size="14" lengthAdjust="spacing" textLength="54.0928" x="254.723" y="813.6521">&#272;&#7893;i qu&#224;</text></g><!--entity DS1--><g class="entity" data-entity="DS1" data-source-line="42" data-uid="ent0027" id="entity_DS1"><ellipse cx="281.7739" cy="2333.9988" fill="#F1F1F1" rx="122.7939" ry="26.9588" style="stroke:#181818;stroke-width:0.5;"/><text fill="#000000" font-family="sans-serif" font-size="14" lengthAdjust="spacing" textLength="225.3057" x="169.1211" y="2338.6472">Khai b&#225;o th&#244;ng tin &amp; thanh to&#225;n</text></g><!--entity DS2--><g class="entity" data-entity="DS2" data-source-line="43" data-uid="ent0028" id="entity_DS2"><ellipse cx="281.7694" cy="2250.9999" fill="#F1F1F1" rx="91.1494" ry="20.6299" style="stroke:#181818;stroke-width:0.5;"/><text fill="#000000" font-family="sans-serif" font-size="14" lengthAdjust="spacing" textLength="156.3379" x="203.6004" y="2255.6483">Upload asset mi&#7877;n ph&#237;</text></g><!--entity DS3--><g class="entity" data-entity="DS3" data-source-line="44" data-uid="ent0029" id="entity_DS3"><ellipse cx="281.7729" cy="2176.0006" fill="#F1F1F1" rx="82.9529" ry="18.9906" style="stroke:#181818;stroke-width:0.5;"/><text fill="#000000" font-family="sans-serif" font-size="14" lengthAdjust="spacing" textLength="137.5869" x="212.9794" y="2180.649">Upload asset c&#243; ph&#237;</text></g><!--entity DS4--><g class="entity" data-entity="DS4" data-source-line="45" data-uid="ent0030" id="entity_DS4"><ellipse cx="281.7714" cy="2105.9983" fill="#F1F1F1" rx="65.8414" ry="15.5683" style="stroke:#181818;stroke-width:0.5;"/><text fill="#000000" font-family="sans-serif" font-size="14" lengthAdjust="spacing" textLength="95.6895" x="233.9267" y="2110.6467">Qu&#7843;n l&#253; asset</text></g><!--entity DS5--><g class="entity" data-entity="DS5" data-source-line="46" data-uid="ent0031" id="entity_DS5"><ellipse cx="281.7651" cy="2032.999" fill="#F1F1F1" rx="100.8951" ry="22.579" style="stroke:#181818;stroke-width:0.5;"/><text fill="#000000" font-family="sans-serif" font-size="14" lengthAdjust="spacing" textLength="178.0283" x="192.7509" y="2037.6475">Theo d&#245;i doanh thu asset</text></g><!--entity DV1--><g class="entity" data-entity="DV1" data-source-line="50" data-uid="ent0033" id="entity_DV1"><ellipse cx="281.7675" cy="1914.0035" fill="#F1F1F1" rx="95.0175" ry="21.4035" style="stroke:#181818;stroke-width:0.5;"/><text fill="#000000" font-family="sans-serif" font-size="14" lengthAdjust="spacing" textLength="165.0127" x="199.2612" y="1918.6519">S&#7917; d&#7909;ng asset mi&#7877;n ph&#237;</text></g><!--entity DV2--><g class="entity" data-entity="DV2" data-source-line="51" data-uid="ent0034" id="entity_DV2"><ellipse cx="281.7664" cy="1839.9953" fill="#F1F1F1" rx="74.7264" ry="17.3453" style="stroke:#181818;stroke-width:0.5;"/><text fill="#000000" font-family="sans-serif" font-size="14" lengthAdjust="spacing" textLength="118.0635" x="222.7346" y="1844.6437">Mua asset c&#243; ph&#237;</text></g><!--entity DV3--><g class="entity" data-entity="DV3" data-source-line="52" data-uid="ent0035" id="entity_DV3"><ellipse cx="281.7725" cy="1766.0045" fill="#F1F1F1" rx="97.1225" ry="21.8245" style="stroke:#181818;stroke-width:0.5;"/><text fill="#000000" font-family="sans-serif" font-size="14" lengthAdjust="spacing" textLength="169.6953" x="196.9249" y="1770.6529">&#272;&#259;ng k&#253; &amp; upload game</text></g><!--entity DV4--><g class="entity" data-entity="DV4" data-source-line="53" data-uid="ent0036" id="entity_DV4"><ellipse cx="281.7728" cy="1685.9966" fill="#F1F1F1" rx="102.4828" ry="22.8966" style="stroke:#181818;stroke-width:0.5;"/><text fill="#000000" font-family="sans-serif" font-size="14" lengthAdjust="spacing" textLength="181.5146" x="191.0154" y="1690.645">Khai b&#225;o API leader board</text></g><!--entity DV5--><g class="entity" data-entity="DV5" data-source-line="54" data-uid="ent0037" id="entity_DV5"><ellipse cx="281.7659" cy="1607.0012" fill="#F1F1F1" rx="91.6559" ry="20.7312" style="stroke:#181818;stroke-width:0.5;"/><text fill="#000000" font-family="sans-serif" font-size="14" lengthAdjust="spacing" textLength="157.4795" x="203.0262" y="1611.6496">Khai b&#225;o API t&#237;ch &#273;i&#7875;m</text></g><!--entity DV6--><g class="entity" data-entity="DV6" data-source-line="55" data-uid="ent0038" id="entity_DV6"><ellipse cx="281.7731" cy="1531.0046" fill="#F1F1F1" rx="88.2231" ry="20.0446" style="stroke:#181818;stroke-width:0.5;"/><text fill="#000000" font-family="sans-serif" font-size="14" lengthAdjust="spacing" textLength="149.707" x="206.9196" y="1535.6531">Khai b&#225;o API n&#7841;p ti&#7873;n</text></g><!--entity DV7--><g class="entity" data-entity="DV7" data-source-line="56" data-uid="ent0039" id="entity_DV7"><ellipse cx="281.7709" cy="1453.9962" fill="#F1F1F1" rx="99.3809" ry="22.2762" style="stroke:#181818;stroke-width:0.5;"/><text fill="#000000" font-family="sans-serif" font-size="14" lengthAdjust="spacing" textLength="174.6924" x="194.4247" y="1458.6446">Qu&#7843;n l&#253; danh s&#225;ch game</text></g><!--entity DV8--><g class="entity" data-entity="DV8" data-source-line="57" data-uid="ent0040" id="entity_DV8"><ellipse cx="281.7699" cy="1374.998" fill="#F1F1F1" rx="99.0899" ry="22.218" style="stroke:#181818;stroke-width:0.5;"/><text fill="#000000" font-family="sans-serif" font-size="14" lengthAdjust="spacing" textLength="174.0498" x="194.7449" y="1379.6464">Qu&#7843;n l&#253; doanh thu game</text></g><!--entity AD1--><g class="entity" data-entity="AD1" data-source-line="61" data-uid="ent0042" id="entity_AD1"><ellipse cx="281.7657" cy="2966.9971" fill="#F1F1F1" rx="114.3857" ry="25.2771" style="stroke:#181818;stroke-width:0.5;"/><text fill="#000000" font-family="sans-serif" font-size="14" lengthAdjust="spacing" textLength="207.334" x="178.0987" y="2971.6456">Qu&#7843;n l&#253; t&#224;i kho&#7843;n ng&#432;&#7901;i d&#249;ng</text></g><!--entity AD2--><g class="entity" data-entity="AD2" data-source-line="62" data-uid="ent0043" id="entity_AD2"><ellipse cx="281.7682" cy="2880.9976" fill="#F1F1F1" rx="116.6382" ry="25.7276" style="stroke:#181818;stroke-width:0.5;"/><text fill="#000000" font-family="sans-serif" font-size="14" lengthAdjust="spacing" textLength="212.167" x="175.6847" y="2885.6461">X&#233;t duy&#7879;t Developer/Designer</text></g><!--entity AD3--><g class="entity" data-entity="AD3" data-source-line="63" data-uid="ent0044" id="entity_AD3"><ellipse cx="281.7737" cy="2800.9987" fill="#F1F1F1" rx="85.2937" ry="19.4587" style="stroke:#181818;stroke-width:0.5;"/><text fill="#000000" font-family="sans-serif" font-size="14" lengthAdjust="spacing" textLength="143.001" x="210.2732" y="2805.6472">Qu&#7843;n l&#253;/duy&#7879;t game</text></g><!--entity AD4--><g class="entity" data-entity="AD4" data-source-line="64" data-uid="ent0045" id="entity_AD4"><ellipse cx="281.7651" cy="2719.001" fill="#F1F1F1" rx="127.8051" ry="27.961" style="stroke:#181818;stroke-width:0.5;"/><text fill="#000000" font-family="sans-serif" font-size="14" lengthAdjust="spacing" textLength="235.9355" x="163.7974" y="2723.6495">Qu&#7843;n l&#253;/duy&#7879;t asset, xo&#225; vi ph&#7841;m</text></g><!--entity AD5--><g class="entity" data-entity="AD5" data-source-line="65" data-uid="ent0046" id="entity_AD5"><ellipse cx="281.7703" cy="2637.0041" fill="#F1F1F1" rx="81.8703" ry="18.7741" style="stroke:#181818;stroke-width:0.5;"/><text fill="#000000" font-family="sans-serif" font-size="14" lengthAdjust="spacing" textLength="135.0645" x="214.2381" y="2641.6525">Qu&#7843;n l&#253; thanh to&#225;n</text></g><!--entity AD6--><g class="entity" data-entity="AD6" data-source-line="66" data-uid="ent0047" id="entity_AD6"><ellipse cx="281.7748" cy="2552.003" fill="#F1F1F1" rx="143.7648" ry="31.153" style="stroke:#181818;stroke-width:0.5;"/><text fill="#000000" font-family="sans-serif" font-size="14" lengthAdjust="spacing" textLength="269.4795" x="147.035" y="2556.6514">Qu&#7843;n l&#253; ch&#237;nh s&#225;ch t&#237;ch &#273;i&#7875;m - &#273;&#7893;i qu&#224;</text></g><!--entity AD7--><g class="entity" data-entity="AD7" data-source-line="67" data-uid="ent0048" id="entity_AD7"><ellipse cx="281.7733" cy="2461.0007" fill="#F1F1F1" rx="113.2033" ry="25.0407" style="stroke:#181818;stroke-width:0.5;"/><text fill="#000000" font-family="sans-serif" font-size="14" lengthAdjust="spacing" textLength="204.791" x="179.3778" y="2465.6491">B&#225;o c&#225;o &amp; th&#7889;ng k&#234; h&#7879; th&#7889;ng</text></g><!--entity Guest--><g class="entity" data-entity="Guest" data-source-line="9" data-uid="ent0002" id="entity_Guest"><ellipse cx="41.9991" cy="380.35" fill="#F1F1F1" rx="8" ry="8" style="stroke:#181818;stroke-width:0.5;"/><path d="M41.9991,388.35 L41.9991,415.35 M28.9991,396.35 L54.9991,396.35 M41.9991,415.35 L28.9991,430.35 M41.9991,415.35 L54.9991,430.35" fill="none" style="stroke:#181818;stroke-width:0.5;"/><text fill="#000000" font-family="sans-serif" font-size="14" lengthAdjust="spacing" textLength="41.1182" x="21.44" y="444.8451">Guest</text></g><!--entity Player--><g class="entity" data-entity="Player" data-source-line="10" data-uid="ent0003" id="entity_Player"><ellipse cx="42.0027" cy="1008.35" fill="#F1F1F1" rx="8" ry="8" style="stroke:#181818;stroke-width:0.5;"/><path d="M42.0027,1016.35 L42.0027,1043.35 M29.0027,1024.35 L55.0027,1024.35 M42.0027,1043.35 L29.0027,1058.35 M42.0027,1043.35 L55.0027,1058.35" fill="none" style="stroke:#181818;stroke-width:0.5;"/><text fill="#000000" font-family="sans-serif" font-size="14" lengthAdjust="spacing" textLength="43.5654" x="20.22" y="1072.8451">Player</text></g><!--entity Developer--><g class="entity" data-entity="Developer" data-source-line="11" data-uid="ent0004" id="entity_Developer"><ellipse cx="42.0015" cy="1617.35" fill="#F1F1F1" rx="8" ry="8" style="stroke:#181818;stroke-width:0.5;"/><path d="M42.0015,1625.35 L42.0015,1652.35 M29.0015,1633.35 L55.0015,1633.35 M42.0015,1652.35 L29.0015,1667.35 M42.0015,1652.35 L55.0015,1667.35" fill="none" style="stroke:#181818;stroke-width:0.5;"/><text fill="#000000" font-family="sans-serif" font-size="14" lengthAdjust="spacing" textLength="72.0029" x="6" y="1681.8451">Developer</text></g><!--entity Designer--><g class="entity" data-entity="Designer" data-source-line="12" data-uid="ent0005" id="entity_Designer"><ellipse cx="42.003" cy="2146.35" fill="#F1F1F1" rx="8" ry="8" style="stroke:#181818;stroke-width:0.5;"/><path d="M42.003,2154.35 L42.003,2181.35 M29.003,2162.35 L55.003,2162.35 M42.003,2181.35 L29.003,2196.35 M42.003,2181.35 L55.003,2196.35" fill="none" style="stroke:#181818;stroke-width:0.5;"/><text fill="#000000" font-family="sans-serif" font-size="14" lengthAdjust="spacing" textLength="62.7061" x="10.65" y="2210.8451">Designer</text></g><!--entity Admin--><g class="entity" data-entity="Admin" data-source-line="13" data-uid="ent0006" id="entity_Admin"><ellipse cx="42.0021" cy="2689.35" fill="#F1F1F1" rx="8" ry="8" style="stroke:#181818;stroke-width:0.5;"/><path d="M42.0021,2697.35 L42.0021,2724.35 M29.0021,2705.35 L55.0021,2705.35 M42.0021,2724.35 L29.0021,2739.35 M42.0021,2724.35 L55.0021,2739.35" fill="none" style="stroke:#181818;stroke-width:0.5;"/><text fill="#000000" font-family="sans-serif" font-size="14" lengthAdjust="spacing" textLength="44.8643" x="19.57" y="2753.8451">Admin</text></g><!--link Guest to G1--><g class="link" data-entity-1="Guest" data-entity-2="G1" data-source-line="72" data-uid="lnk49" id="link_Guest_G1"><path d="M45.09,448.55 C49.3,511.1 61,630.68 90,660 C116.36,686.65 149.7587,696.7434 185.8987,700.2934" fill="none" id="Guest-to-G1" style="stroke:#181818;stroke-width:1;"/><polygon fill="#181818" points="191.87,700.88,183.3041,696.0193,186.8939,700.3912,182.5221,703.981,191.87,700.88" style="stroke:#181818;stroke-width:1;"/></g><!--link Guest to G2--><g class="link" data-entity-1="Guest" data-entity-2="G2" data-source-line="73" data-uid="lnk50" id="link_Guest_G2"><path d="M48.44,448.42 C55.73,494.37 70.12,567.45 90,586 C118.12,612.24 153.0534,621.9112 189.7834,625.1612" fill="none" id="Guest-to-G2" style="stroke:#181818;stroke-width:1;"/><polygon fill="#181818" points="195.76,625.69,187.1476,620.9123,190.7795,625.2493,186.4425,628.8812,195.76,625.69" style="stroke:#181818;stroke-width:1;"/></g><!--link Guest to G3--><g class="link" data-entity-1="Guest" data-entity-2="G3" data-source-line="74" data-uid="lnk51" id="link_Guest_G3"><path d="M51.46,448.43 C58.25,470.29 70.06,496.35 90,512 C119.99,535.53 154.7128,544.8734 190.8028,548.6634" fill="none" id="Guest-to-G3" style="stroke:#181818;stroke-width:1;"/><polygon fill="#181818" points="196.77,549.29,188.237,544.3719,191.7973,548.7678,187.4015,552.3282,196.77,549.29" style="stroke:#181818;stroke-width:1;"/></g><!--link Guest to G4--><g class="link" data-entity-1="Guest" data-entity-2="G4" data-source-line="75" data-uid="lnk52" id="link_Guest_G4"><path d="M62.99,426.32 C70.97,432.09 80.51,438.1 90,442 C128,457.6 167.1608,465.501 203.9708,470.321" fill="none" id="Guest-to-G4" style="stroke:#181818;stroke-width:1;"/><polygon fill="#181818" points="209.92,471.1,201.5155,465.9653,204.9623,470.4508,200.4768,473.8976,209.92,471.1" style="stroke:#181818;stroke-width:1;"/></g><!--link Guest to G5--><g class="link" data-entity-1="Guest" data-entity-2="G5" data-source-line="76" data-uid="lnk53" id="link_Guest_G5"><path d="M62.86,410 C97.91,410 165.93,410 217.93,410" fill="none" id="Guest-to-G5" style="stroke:#181818;stroke-width:1;"/><polygon fill="#181818" points="223.93,410,214.93,406,218.93,410,214.93,414,223.93,410" style="stroke:#181818;stroke-width:1;"/></g><!--link Guest to G6--><g class="link" data-entity-1="Guest" data-entity-2="G6" data-source-line="77" data-uid="lnk54" id="link_Guest_G6"><path d="M63,393.7 C70.98,387.94 80.52,381.92 90,378 C127.38,362.54 165.6872,354.4962 202.1572,349.4262" fill="none" id="Guest-to-G6" style="stroke:#181818;stroke-width:1;"/><polygon fill="#181818" points="208.1,348.6,198.635,345.8773,203.1476,349.2885,199.7365,353.8011,208.1,348.6" style="stroke:#181818;stroke-width:1;"/></g><!--link Guest to G7--><g class="link" data-entity-1="Guest" data-entity-2="G7" data-source-line="78" data-uid="lnk55" id="link_Guest_G7"><path d="M51.01,371.56 C57.68,349.11 69.52,322.11 90,306 C120.47,282.04 156.0859,272.8971 192.6559,269.4871" fill="none" id="Guest-to-G7" style="stroke:#181818;stroke-width:1;"/><polygon fill="#181818" points="198.63,268.93,189.2975,265.7829,193.6516,269.3942,190.0402,273.7483,198.63,268.93" style="stroke:#181818;stroke-width:1;"/></g><!--link Guest to G8--><g class="link" data-entity-1="Guest" data-entity-2="G8" data-source-line="79" data-uid="lnk56" id="link_Guest_G8"><path d="M48.45,371.41 C55.77,325.25 70.16,251.82 90,233 C113.2,210.99 139.3571,200.7986 170.5871,195.4186" fill="none" id="Guest-to-G8" style="stroke:#181818;stroke-width:1;"/><polygon fill="#181818" points="176.5,194.4,166.9516,191.986,171.5726,195.2488,168.3097,199.8699,176.5,194.4" style="stroke:#181818;stroke-width:1;"/></g><!--link Guest to G9--><g class="link" data-entity-1="Guest" data-entity-2="G9" data-source-line="80" data-uid="lnk57" id="link_Guest_G9"><path d="M44.9,371.58 C48.87,307.51 60.3,182.81 90,152 C110.72,130.52 133.8559,120.0628 163.0159,113.9928" fill="none" id="Guest-to-G9" style="stroke:#181818;stroke-width:1;"/><polygon fill="#181818" points="168.89,112.77,159.2637,110.6881,163.9949,113.789,160.894,118.5202,168.89,112.77" style="stroke:#181818;stroke-width:1;"/></g><!--link Player to P1--><g class="link" data-entity-1="Player" data-entity-2="P1" data-source-line="82" data-uid="lnk58" id="link_Player_P1"><path d="M47.99,1076.28 C54.98,1123.92 69.23,1201.43 90,1221 C118.24,1247.6 153.6314,1257.2642 190.6314,1260.3942" fill="none" id="Player-to-P1" style="stroke:#181818;stroke-width:1;"/><polygon fill="#181818" points="196.61,1260.9,187.9792,1256.1556,191.6278,1260.4785,187.3049,1264.1271,196.61,1260.9" style="stroke:#181818;stroke-width:1;"/></g><!--link Player to P2--><g class="link" data-entity-1="Player" data-entity-2="P2" data-source-line="83" data-uid="lnk59" id="link_Player_P2"><path d="M50.48,1076.4 C57.01,1099.67 68.89,1128.04 90,1145 C118.44,1167.84 150.8755,1177.4327 185.7655,1181.7527" fill="none" id="Player-to-P2" style="stroke:#181818;stroke-width:1;"/><polygon fill="#181818" points="191.72,1182.49,183.2797,1177.4144,186.7579,1181.8756,182.2967,1185.3538,191.72,1182.49" style="stroke:#181818;stroke-width:1;"/></g><!--link Player to P3--><g class="link" data-entity-1="Player" data-entity-2="P3" data-source-line="84" data-uid="lnk60" id="link_Player_P3"><path d="M64.18,1056.96 C71.84,1062.93 80.87,1069 90,1073 C126.42,1088.97 163.8554,1097.0567 200.0354,1102.0067" fill="none" id="Player-to-P3" style="stroke:#181818;stroke-width:1;"/><polygon fill="#181818" points="205.98,1102.82,197.6053,1097.6369,201.0261,1102.1422,196.5209,1105.5631,205.98,1102.82" style="stroke:#181818;stroke-width:1;"/></g><!--link Player to P4--><g class="link" data-entity-1="Player" data-entity-2="P4" data-source-line="85" data-uid="lnk61" id="link_Player_P4"><path d="M64.1,1038 C95.13,1038 148.67,1038 197.49,1038" fill="none" id="Player-to-P4" style="stroke:#181818;stroke-width:1;"/><polygon fill="#181818" points="203.49,1038,194.49,1034,198.49,1038,194.49,1042,203.49,1038" style="stroke:#181818;stroke-width:1;"/></g><!--link Player to P5--><g class="link" data-entity-1="Player" data-entity-2="P5" data-source-line="86" data-uid="lnk62" id="link_Player_P5"><path d="M64.23,1019.14 C71.89,1013.19 80.91,1007.1 90,1003 C122.24,988.47 154.0436,980.1958 187.3836,974.2358" fill="none" id="Player-to-P5" style="stroke:#181818;stroke-width:1;"/><polygon fill="#181818" points="193.29,973.18,183.7265,970.8262,188.368,974.0599,185.1343,978.7014,193.29,973.18" style="stroke:#181818;stroke-width:1;"/></g><!--link Player to P6--><g class="link" data-entity-1="Player" data-entity-2="P6" data-source-line="87" data-uid="lnk63" id="link_Player_P6"><path d="M49.21,999.41 C55.31,974.04 67.19,942.11 90,923 C114.02,902.88 139.694,893.0624 170.224,887.3024" fill="none" id="Player-to-P6" style="stroke:#181818;stroke-width:1;"/><polygon fill="#181818" points="176.12,886.19,166.5344,883.9279,171.2067,887.117,168.0176,891.7892,176.12,886.19" style="stroke:#181818;stroke-width:1;"/></g><!--link Player to P7--><g class="link" data-entity-1="Player" data-entity-2="P7" data-source-line="88" data-uid="lnk64" id="link_Player_P7"><path d="M47.17,999.37 C53.5,948.29 67.26,862.24 90,841 C130.98,802.72 193.6974,800.303 236.5074,803.573" fill="none" id="Player-to-P7" style="stroke:#181818;stroke-width:1;"/><polygon fill="#181818" points="242.49,804.03,233.8208,799.3562,237.5045,803.6492,233.2115,807.3329,242.49,804.03" style="stroke:#181818;stroke-width:1;"/></g><!--link Designer to DS1--><g class="link" data-entity-1="Designer" data-entity-2="DS1" data-source-line="90" data-uid="lnk65" id="link_Designer_DS1"><path d="M49.71,2214.61 C56,2239.34 67.9,2270.22 90,2289 C111.27,2307.06 132.6574,2316.7218 159.8374,2323.4818" fill="none" id="Designer-to-DS1" style="stroke:#181818;stroke-width:1;"/><polygon fill="#181818" points="165.66,2324.93,157.8915,2318.876,160.8078,2323.7232,155.9606,2326.6395,165.66,2324.93" style="stroke:#181818;stroke-width:1;"/></g><!--link Designer to DS2--><g class="link" data-entity-1="Designer" data-entity-2="DS2" data-source-line="91" data-uid="lnk66" id="link_Designer_DS2"><path d="M73.6,2202.5 C78.83,2206.11 84.39,2209.44 90,2212 C123.84,2227.42 157.899,2235.8194 192.489,2241.4894" fill="none" id="Designer-to-DS2" style="stroke:#181818;stroke-width:1;"/><polygon fill="#181818" points="198.41,2242.46,190.1756,2237.0568,193.4759,2241.6512,188.8815,2244.9515,198.41,2242.46" style="stroke:#181818;stroke-width:1;"/></g><!--link Designer to DS3--><g class="link" data-entity-1="Designer" data-entity-2="DS3" data-source-line="92" data-uid="lnk67" id="link_Designer_DS3"><path d="M73.6,2176 C105.02,2176 149.28,2176 192.43,2176" fill="none" id="Designer-to-DS3" style="stroke:#181818;stroke-width:1;"/><polygon fill="#181818" points="198.43,2176,189.43,2172,193.43,2176,189.43,2180,198.43,2176" style="stroke:#181818;stroke-width:1;"/></g><!--link Designer to DS4--><g class="link" data-entity-1="Designer" data-entity-2="DS4" data-source-line="93" data-uid="lnk68" id="link_Designer_DS4"><path d="M73.81,2149.2 C78.97,2145.68 84.45,2142.45 90,2140 C130.33,2122.23 173.3735,2114.3835 211.6135,2110.3235" fill="none" id="Designer-to-DS4" style="stroke:#181818;stroke-width:1;"/><polygon fill="#181818" points="217.58,2109.69,208.208,2106.6626,212.6079,2110.2179,209.0526,2114.6178,217.58,2109.69" style="stroke:#181818;stroke-width:1;"/></g><!--link Designer to DS5--><g class="link" data-entity-1="Designer" data-entity-2="DS5" data-source-line="94" data-uid="lnk69" id="link_Designer_DS5"><path d="M51.37,2137.56 C58.15,2115.48 69.97,2089.02 90,2073 C115.77,2052.39 143.6628,2042.6733 175.6528,2037.3033" fill="none" id="Designer-to-DS5" style="stroke:#181818;stroke-width:1;"/><polygon fill="#181818" points="181.57,2036.31,172.032,2033.8551,176.639,2037.1377,173.3564,2041.7447,181.57,2036.31" style="stroke:#181818;stroke-width:1;"/></g><!--link Developer to DV1--><g class="link" data-entity-1="Developer" data-entity-2="DV1" data-source-line="96" data-uid="lnk70" id="link_Developer_DV1"><path d="M45.86,1685.2 C50.99,1743.01 63.76,1848.8 90,1875 C115.24,1900.2 146.1256,1910.5113 180.7056,1914.8013" fill="none" id="Developer-to-DV1" style="stroke:#181818;stroke-width:1;"/><polygon fill="#181818" points="186.66,1915.54,178.2209,1910.4624,181.698,1914.9244,177.236,1918.4015,186.66,1915.54" style="stroke:#181818;stroke-width:1;"/></g><!--link Developer to DV2--><g class="link" data-entity-1="Developer" data-entity-2="DV2" data-source-line="97" data-uid="lnk71" id="link_Developer_DV2"><path d="M43.6,1685.46 C46.34,1721.69 56.36,1774.79 90,1805 C121.95,1833.68 163.395,1842.2261 202.975,1843.8361" fill="none" id="Developer-to-DV2" style="stroke:#181818;stroke-width:1;"/><polygon fill="#181818" points="208.97,1844.08,200.14,1839.7175,203.9741,1843.8768,199.8149,1847.7109,208.97,1844.08" style="stroke:#181818;stroke-width:1;"/></g><!--link Developer to DV3--><g class="link" data-entity-1="Developer" data-entity-2="DV3" data-source-line="98" data-uid="lnk72" id="link_Developer_DV3"><path d="M57.9,1685.64 C65.42,1700.35 75.98,1715.98 90,1726 C117.81,1745.87 147.4474,1755.3296 180.3174,1760.6596" fill="none" id="Developer-to-DV3" style="stroke:#181818;stroke-width:1;"/><polygon fill="#181818" points="186.24,1761.62,177.9963,1756.231,181.3045,1760.8197,176.7158,1764.1279,186.24,1761.62" style="stroke:#181818;stroke-width:1;"/></g><!--link Developer to DV4--><g class="link" data-entity-1="Developer" data-entity-2="DV4" data-source-line="99" data-uid="lnk73" id="link_Developer_DV4"><path d="M78.34,1652.8 C109.84,1657.96 151.2391,1664.7591 192.2191,1671.4791" fill="none" id="Developer-to-DV4" style="stroke:#181818;stroke-width:1;"/><polygon fill="#181818" points="198.14,1672.45,189.9059,1667.0463,193.2059,1671.6409,188.6113,1674.9409,198.14,1672.45" style="stroke:#181818;stroke-width:1;"/></g><!--link Developer to DV5--><g class="link" data-entity-1="Developer" data-entity-2="DV5" data-source-line="100" data-uid="lnk74" id="link_Developer_DV5"><path d="M78.34,1641.05 C112.23,1635.35 158.5332,1627.5658 201.4332,1620.3458" fill="none" id="Developer-to-DV5" style="stroke:#181818;stroke-width:1;"/><polygon fill="#181818" points="207.35,1619.35,197.811,1616.8992,202.4193,1620.1798,199.1387,1624.7882,207.35,1619.35" style="stroke:#181818;stroke-width:1;"/></g><!--link Developer to DV6--><g class="link" data-entity-1="Developer" data-entity-2="DV6" data-source-line="101" data-uid="lnk75" id="link_Developer_DV6"><path d="M58.17,1608.37 C65.68,1593.95 76.16,1578.73 90,1569 C120.12,1547.84 153.2203,1538.5852 188.1403,1534.0352" fill="none" id="Developer-to-DV6" style="stroke:#181818;stroke-width:1;"/><polygon fill="#181818" points="194.09,1533.26,184.6486,1530.4564,189.1319,1533.906,185.6823,1538.3893,194.09,1533.26" style="stroke:#181818;stroke-width:1;"/></g><!--link Developer to DV7--><g class="link" data-entity-1="Developer" data-entity-2="DV7" data-source-line="102" data-uid="lnk76" id="link_Developer_DV7"><path d="M44.12,1608.63 C47.28,1573.44 57.64,1522.44 90,1493 C114.88,1470.37 143.3065,1460.3307 176.0165,1455.4207" fill="none" id="Developer-to-DV7" style="stroke:#181818;stroke-width:1;"/><polygon fill="#181818" points="181.95,1454.53,172.4559,1451.9103,177.0054,1455.2722,173.6435,1459.8217,181.95,1454.53" style="stroke:#181818;stroke-width:1;"/></g><!--link Developer to DV8--><g class="link" data-entity-1="Developer" data-entity-2="DV8" data-source-line="103" data-uid="lnk77" id="link_Developer_DV8"><path d="M45.7,1608.45 C50.64,1549.49 63.19,1440.88 90,1414 C114.23,1389.71 143.2968,1379.3734 176.7168,1374.7434" fill="none" id="Developer-to-DV8" style="stroke:#181818;stroke-width:1;"/><polygon fill="#181818" points="182.66,1373.92,173.1962,1371.1929,177.7073,1374.6061,174.2941,1379.1172,182.66,1373.92" style="stroke:#181818;stroke-width:1;"/></g><!--link Admin to AD1--><g class="link" data-entity-1="Admin" data-entity-2="AD1" data-source-line="105" data-uid="lnk78" id="link_Admin_AD1"><path d="M46.92,2757.22 C53.1,2809.9 66.85,2900.93 90,2924 C110.93,2944.85 133.798,2955.2106 162.618,2961.5006" fill="none" id="Admin-to-AD1" style="stroke:#181818;stroke-width:1;"/><polygon fill="#181818" points="168.48,2962.78,160.5399,2956.9529,163.595,2961.7138,158.8341,2964.7689,168.48,2962.78" style="stroke:#181818;stroke-width:1;"/></g><!--link Admin to AD2--><g class="link" data-entity-1="Admin" data-entity-2="AD2" data-source-line="106" data-uid="lnk79" id="link_Admin_AD2"><path d="M48.59,2757.42 C54.46,2783.84 66.3,2817.7 90,2838 C112.05,2856.88 134.7958,2866.6353 163.1158,2872.9953" fill="none" id="Admin-to-AD2" style="stroke:#181818;stroke-width:1;"/><polygon fill="#181818" points="168.97,2874.31,161.0652,2868.4351,164.0915,2873.2144,159.3122,2876.2407,168.97,2874.31" style="stroke:#181818;stroke-width:1;"/></g><!--link Admin to AD3--><g class="link" data-entity-1="Admin" data-entity-2="AD3" data-source-line="107" data-uid="lnk80" id="link_Admin_AD3"><path d="M64.79,2744.86 C72.11,2752.07 80.77,2759.22 90,2764 C123.56,2781.37 158.3278,2789.789 193.5078,2794.709" fill="none" id="Admin-to-AD3" style="stroke:#181818;stroke-width:1;"/><polygon fill="#181818" points="199.45,2795.54,191.0908,2790.332,194.4982,2794.8475,189.9827,2798.2549,199.45,2795.54" style="stroke:#181818;stroke-width:1;"/></g><!--link Admin to AD4--><g class="link" data-entity-1="Admin" data-entity-2="AD4" data-source-line="108" data-uid="lnk81" id="link_Admin_AD4"><path d="M64.52,2719 C85.44,2719 113.03,2719 147.56,2719" fill="none" id="Admin-to-AD4" style="stroke:#181818;stroke-width:1;"/><polygon fill="#181818" points="153.56,2719,144.56,2715,148.56,2719,144.56,2723,153.56,2719" style="stroke:#181818;stroke-width:1;"/></g><!--link Admin to AD5--><g class="link" data-entity-1="Admin" data-entity-2="AD5" data-source-line="109" data-uid="lnk82" id="link_Admin_AD5"><path d="M64.79,2693.14 C72.11,2685.93 80.77,2678.78 90,2674 C124.61,2656.09 160.8727,2647.6033 196.7827,2642.8133" fill="none" id="Admin-to-AD5" style="stroke:#181818;stroke-width:1;"/><polygon fill="#181818" points="202.73,2642.02,193.2801,2639.2451,197.7739,2642.6811,194.3379,2647.1748,202.73,2642.02" style="stroke:#181818;stroke-width:1;"/></g><!--link Admin to AD6--><g class="link" data-entity-1="Admin" data-entity-2="AD6" data-source-line="110" data-uid="lnk83" id="link_Admin_AD6"><path d="M49,2680.55 C55.03,2654.53 66.91,2621.32 90,2601 C108.23,2584.96 125.2981,2575.8555 148.7181,2568.4655" fill="none" id="Admin-to-AD6" style="stroke:#181818;stroke-width:1;"/><polygon fill="#181818" points="154.44,2566.66,144.6535,2565.5537,149.6717,2568.1646,147.0608,2573.1829,154.44,2566.66" style="stroke:#181818;stroke-width:1;"/></g><!--link Admin to AD7--><g class="link" data-entity-1="Admin" data-entity-2="AD7" data-source-line="111" data-uid="lnk84" id="link_Admin_AD7"><path d="M46.42,2680.58 C52.13,2625.38 65.47,2527.59 90,2503 C111.08,2481.87 134.3364,2471.5351 163.4864,2465.4551" fill="none" id="Admin-to-AD7" style="stroke:#181818;stroke-width:1;"/><polygon fill="#181818" points="169.36,2464.23,159.7329,2462.1519,164.4653,2465.2509,161.3663,2469.9834,169.36,2464.23" style="stroke:#181818;stroke-width:1;"/></g><!--SRC=[XLNBZkD45DtxAwu6gQTRcj6euxmQ2IHtZ0OqF49dY8QbspPsAKuvs9M6Q3GBD48isD0B5YmG4xLwCOX88611BCJ2hVaF_mct7dPSTbgTHP9pwzIjM-S-AlA_OC1YI4WGCl18uhkCnDH8PuGkdCIPmy9nPqxWJzWgye4lEpI8_1hXhBJ1SmFWD4uyFnd5KPp0MoSd9sWwYvVK6yK9zHCO6YyCupwympzWkInEKWaCXmDulFHJflwF8sVb9mhO_eKVnOiQJab0AsXvSq9tdYUhbFbpEESdEybA7L553_VUBxBlW8L5Tac3U-2aCFby8kA_3m_n0wCY-mc5IV8rWKCH51oeW8u40warToFqzDe5UlEI1l8EmkdZqq-U2Qy0Xyym7XRcVo614GfUaNtlXd1HPDT7WdgybvQYx2HbajBPJt6Yc4g2AGbFyz_cC2F5zhzv-vokvDpy86AbOR7TBEHAJrkPvVy2oryHc8LniRrI9_GbPnI-GM6uVXj0uGa4pjoNZC4kIC-X8QJv6izla8QAX6l2on_kBi6FojHAAgyWh9dRvPPP4NgFQtfh5uImbc_XTtnSlmcF3Dmmts30J3YN9ANunzm9XPjBKcGlkVXlVY-oNqfFvkx6aUzWzMFTEOad5vNSP_u5yR_28uhjDOE8xx_2w2f5nahyfo5sL40Sb7w3ifKdtbmMsOy4lbpchoIzNrwoOH-KQcbrlC1Zhx2GIsMnbYkvyRzedZlBkjmibBOdfwNGJqA7m7c-Zkj5UO20Pv_5-LgMZZrHYd-sY6B7GrFgCwoB8lkMOe3vHh4wUrXk_cUTeWJ_TCdh4Y8iL45JgzrIIJy6B_-RW1UBICAbHklTLLULGlB2xqsh6qzusMDZNIFhbcjCrMK_MZfxxp3jj9hj09RopbLHs5EpAR4r_g1TPFQqku-dbP0YzlOHQR5TBp1jHVQDojMqtvAurior00TjNgLsZJQyIsnHWa9eowvqhdcjJoAW0U-Vdp6p-J-g2Isxd9_vQtp7bYliTtRRJB7iJlE0H-MMAcZBDcybYOm-WA-nkE62YFPQpzMkRZlsHYTOTg_5KRD7wglt_iDMzrksIiyfpw3BlmxAuOQbz6jxsbcs70orn_T3GcSf70P4RZl77t2nfbq-gqFWKg_V1lcwqY16_HzW0f15-1JRPOubCNxZytcaNbdvMk8qUPS_QdNKqP2feQw6UXhgQsYWeQ66JWn3FWS2ueoleuw6J0rrDTJJK5z30yEenYWtyBdMC7IQ1hDfw3ODFUwrdCZ2D3rkMJejYzcoT5kMNilIRra6BSlGC4HF2iYxguuw6Z8rrDLGJqDz3Gt-1m00]--></g></svg>