<svg xmlns="http://www.w3.org/2000/svg" xmlns:xlink="http://www.w3.org/1999/xlink" contentStyleType="text/css" data-diagram-type="STATE" height="666px" preserveAspectRatio="none" style="width:601px;height:666px;background:#FFFFFF;" version="1.1" viewBox="0 0 601 666" width="601px" zoomAndPan="magnify"><title>Tr&#7841;ng th&#225;i: User Account</title><defs><filter height="300%" id="fjomld2qaxdeg" width="300%" x="-1" y="-1"><feGaussianBlur result="blurOut" stdDeviation="2"/><feColorMatrix in="blurOut" result="blurOut2" type="matrix" values="0 0 0 0 0 0 0 0 0 0 0 0 0 0 0 0 0 0 .4 0"/><feOffset dx="4" dy="4" in="blurOut2" result="blurOut3"/><feBlend in="SourceGraphic" in2="blurOut3" mode="normal"/></filter></defs><g><g class="title" data-source-line="8"><text fill="#000000" font-family="sans-serif" font-size="14" font-weight="bold" lengthAdjust="spacing" textLength="196.793" x="195.216" y="22.9951">Tr&#7841;ng th&#225;i: User Account</text></g><g id="Created"><rect fill="#F1F1F1" filter="url(#fjomld2qaxdeg)" height="50" rx="12.5" ry="12.5" style="stroke:#666666;stroke-width:0.5;" width="75.7129" x="268.98" y="140.2969"/><line style="stroke:#666666;stroke-width:0.5;" x1="268.98" x2="344.6929" y1="166.5938" y2="166.5938"/><text fill="#000000" font-family="sans-serif" font-size="14" lengthAdjust="spacing" textLength="55.7129" x="278.98" y="158.292">Created</text></g><g id="PendingApproval"><rect fill="#F1F1F1" filter="url(#fjomld2qaxdeg)" height="50" rx="12.5" ry="12.5" style="stroke:#666666;stroke-width:0.5;" width="138.8906" x="129.39" y="267.2969"/><line style="stroke:#666666;stroke-width:0.5;" x1="129.39" x2="268.2806" y1="293.5938" y2="293.5938"/><text fill="#000000" font-family="sans-serif" font-size="14" lengthAdjust="spacing" textLength="118.8906" x="139.39" y="285.292">PendingApproval</text></g><g id="Active"><rect fill="#F1F1F1" filter="url(#fjomld2qaxdeg)" height="50" rx="12.5" ry="12.5" style="stroke:#666666;stroke-width:0.5;" width="63.5518" x="315.06" y="394.2969"/><line style="stroke:#666666;stroke-width:0.5;" x1="315.06" x2="378.6118" y1="420.5938" y2="420.5938"/><text fill="#000000" font-family="sans-serif" font-size="14" lengthAdjust="spacing" textLength="43.5518" x="325.06" y="412.292">Active</text></g><g id="Suspended"><rect fill="#F1F1F1" filter="url(#fjomld2qaxdeg)" height="50" rx="12.5" ry="12.5" style="stroke:#666666;stroke-width:0.5;" width="97.8135" x="210.93" y="521.2969"/><line style="stroke:#666666;stroke-width:0.5;" x1="210.93" x2="308.7435" y1="547.5938" y2="547.5938"/><text fill="#000000" font-family="sans-serif" font-size="14" lengthAdjust="spacing" textLength="77.8135" x="220.93" y="539.292">Suspended</text></g><g id="Deleted"><rect fill="#F1F1F1" filter="url(#fjomld2qaxdeg)" height="50" rx="12.5" ry="12.5" style="stroke:#666666;stroke-width:0.5;" width="74.8857" x="424.39" y="521.2969"/><line style="stroke:#666666;stroke-width:0.5;" x1="424.39" x2="499.2757" y1="547.5938" y2="547.5938"/><text fill="#000000" font-family="sans-serif" font-size="14" lengthAdjust="spacing" textLength="54.8857" x="434.39" y="539.292">Deleted</text></g><g id="Rejected"><rect fill="#F1F1F1" filter="url(#fjomld2qaxdeg)" height="50" rx="12.5" ry="12.5" style="stroke:#666666;stroke-width:0.5;" width="81.5303" x="48.07" y="394.2969"/><line style="stroke:#666666;stroke-width:0.5;" x1="48.07" x2="129.6003" y1="420.5938" y2="420.5938"/><text fill="#000000" font-family="sans-serif" font-size="14" lengthAdjust="spacing" textLength="61.5303" x="58.07" y="412.292">Rejected</text></g><ellipse cx="306.84" cy="53.2969" fill="#222222" filter="url(#fjomld2qaxdeg)" rx="10" ry="10" style="stroke:#222222;stroke-width:1;"/><ellipse cx="461.84" cy="643.2969" fill="none" filter="url(#fjomld2qaxdeg)" rx="11" ry="11" style="stroke:#222222;stroke-width:1;"/><ellipse cx="461.84" cy="643.2969" fill="#222222" rx="6" ry="6" style="stroke:#222222;stroke-width:1;"/><g class="entity" data-entity="GMN2" data-source-line="20" data-uid="ent0003" id="entity_GMN2"><path d="M379.45,145.1669 L379.45,161.2969 L345.16,165.2969 L379.45,169.2969 L379.45,185.4325 A0,0 0 0 0 379.45,185.4325 L594.2249,185.4325 A0,0 0 0 0 594.2249,185.4325 L594.2249,155.1669 L584.2249,145.1669 L379.45,145.1669 A0,0 0 0 0 379.45,145.1669" fill="#FEFFDD" filter="url(#fjomld2qaxdeg)" style="stroke:#181818;stroke-width:0.5;"/><path d="M584.2249,145.1669 L584.2249,155.1669 L594.2249,155.1669 L584.2249,145.1669" fill="#FEFFDD" style="stroke:#181818;stroke-width:0.5;"/><text fill="#000000" font-family="sans-serif" font-size="13" lengthAdjust="spacing" textLength="159.0786" x="385.45" y="162.2338">Player: v&#224;o th&#7859;ng Active</text><text fill="#000000" font-family="sans-serif" font-size="13" lengthAdjust="spacing" textLength="193.7749" x="385.45" y="177.3666">Dev/Designer: ph&#7843;i ch&#7901; duy&#7879;t</text></g><!--link *start* to Created--><g class="link" data-entity-1=".start." data-entity-2="Created" data-source-line="10" data-uid="lnk3" id="link_.start._Created"><path d="M306.84,63.6769 C306.84,80.4069 306.84,109.8869 306.84,133.9269" fill="none" id="*start*-to-Created" style="stroke:#181818;stroke-width:1;"/><polygon fill="#181818" points="306.84,139.9269,310.84,130.9269,306.84,134.9269,302.84,130.9269,306.84,139.9269" style="stroke:#181818;stroke-width:1;"/><text fill="#000000" font-family="sans-serif" font-size="13" lengthAdjust="spacing" textLength="53.8853" x="307.84" y="106.3638">&#272;&#259;ng k&#253;</text></g><!--link Created to Active--><g class="link" data-entity-1="Created" data-entity-2="Active" data-source-line="24" data-uid="lnk4" id="link_Created_Active"><path d="M344.8,185.3769 C365.2,196.4969 387.29,210.2669 392.84,220.2969 C423.8,276.3069 414.95,304.2369 392.84,364.2969 C388.84,375.1569 385.5611,380.8468 377.9711,389.3668" fill="none" id="Created-to-Active" style="stroke:#181818;stroke-width:1;"/><polygon fill="#181818" points="373.98,393.8469,382.9533,389.7874,377.3059,390.1135,376.9799,384.466,373.98,393.8469" style="stroke:#181818;stroke-width:1;"/><text fill="#000000" font-family="sans-serif" font-size="13" lengthAdjust="spacing" textLength="100.2485" x="414.84" y="289.3638">Player x&#225;c th&#7921;c</text><text fill="#000000" font-family="sans-serif" font-size="13" lengthAdjust="spacing" textLength="76.3877" x="426.7704" y="304.4966">(email/OTP)</text></g><!--link Created to PendingApproval--><g class="link" data-entity-1="Created" data-entity-2="PendingApproval" data-source-line="25" data-uid="lnk5" id="link_Created_PendingApproval"><path d="M272.57,190.5769 C261.69,199.2269 250.1,209.5169 240.84,220.2969 C228.71,234.4169 220.8547,247.1922 213.3147,261.5822" fill="none" id="Created-to-PendingApproval" style="stroke:#181818;stroke-width:1;"/><polygon fill="#181818" points="210.53,266.8969,218.2502,260.7814,212.8506,262.468,211.164,257.0684,210.53,266.8969" style="stroke:#181818;stroke-width:1;"/><text fill="#000000" font-family="sans-serif" font-size="13" lengthAdjust="spacing" textLength="146.3262" x="241.84" y="233.3638">&#272;&#259;ng k&#253; Dev/Designer</text></g><!--link PendingApproval to Active--><g class="link" data-entity-1="PendingApproval" data-entity-2="Active" data-source-line="27" data-uid="lnk6" id="link_PendingApproval_Active"><path d="M223.96,317.5869 C238.75,331.5969 258,349.3469 275.84,364.2969 C288.3,374.7469 297.6781,382.1094 310.0781,391.3994" fill="none" id="PendingApproval-to-Active" style="stroke:#181818;stroke-width:1;"/><polygon fill="#181818" points="314.88,394.9969,310.0756,386.3994,310.8785,391.9989,305.2789,392.8018,314.88,394.9969" style="stroke:#181818;stroke-width:1;"/><text fill="#000000" font-family="sans-serif" font-size="13" lengthAdjust="spacing" textLength="111.6934" x="276.84" y="360.3638">Admin ph&#234; duy&#7879;t</text></g><!--link PendingApproval to Rejected--><g class="link" data-entity-1="PendingApproval" data-entity-2="Rejected" data-source-line="28" data-uid="lnk7" id="link_PendingApproval_Rejected"><path d="M129.27,295.1069 C90.41,300.1269 44.9,313.5569 19.84,347.2969 C6,365.9269 20.844,381.4958 42.784,395.0358" fill="none" id="PendingApproval-to-Rejected" style="stroke:#181818;stroke-width:1;"/><polygon fill="#181818" points="47.89,398.1869,42.3318,390.0563,43.635,395.561,38.1304,396.8642,47.89,398.1869" style="stroke:#181818;stroke-width:1;"/><text fill="#000000" font-family="sans-serif" font-size="13" lengthAdjust="spacing" textLength="90.2129" x="20.84" y="360.3638">Admin t&#7915; ch&#7889;i</text></g><!--link Rejected to PendingApproval--><g class="link" data-entity-1="Rejected" data-entity-2="PendingApproval" data-source-line="30" data-uid="lnk8" id="link_Rejected_PendingApproval"><path d="M110.25,393.9569 C129.62,371.9569 154.0148,344.2199 173.4048,322.1999" fill="none" id="Rejected-to-PendingApproval" style="stroke:#181818;stroke-width:1;"/><polygon fill="#181818" points="177.37,317.6969,168.4202,321.8079,174.0657,321.4494,174.4242,327.0949,177.37,317.6969" style="stroke:#181818;stroke-width:1;"/><text fill="#000000" font-family="sans-serif" font-size="13" lengthAdjust="spacing" textLength="82.2847" x="151.84" y="360.3638">S&#7917;a &amp; g&#7917;i l&#7841;i</text></g><!--link Active to Suspended--><g class="link" data-entity-1="Active" data-entity-2="Suspended" data-source-line="32" data-uid="lnk9" id="link_Active_Suspended"><path d="M314.77,419.8669 C274.55,421.2769 206.97,430.5269 174.84,474.2969 C159.48,495.2169 178.5533,511.1947 205.1233,524.1047" fill="none" id="Active-to-Suspended" style="stroke:#181818;stroke-width:1;"/><polygon fill="#181818" points="210.52,526.7269,204.1731,519.1958,206.0228,524.5417,200.6769,526.3914,210.52,526.7269" style="stroke:#181818;stroke-width:1;"/><text fill="#000000" font-family="sans-serif" font-size="13" lengthAdjust="spacing" textLength="127.626" x="175.84" y="487.3638">Vi ph&#7841;m ch&#237;nh s&#225;ch</text></g><!--link Suspended to Active--><g class="link" data-entity-1="Suspended" data-entity-2="Active" data-source-line="33" data-uid="lnk10" id="link_Suspended_Active"><path d="M283.53,520.9969 C291.7,512.0269 300.61,501.5469 307.84,491.2969 C318.22,476.5869 325.2518,464.1858 332.4018,450.1158" fill="none" id="Suspended-to-Active" style="stroke:#181818;stroke-width:1;"/><polygon fill="#181818" points="335.12,444.7669,327.4767,450.9782,332.8548,449.2243,334.6087,454.6025,335.12,444.7669" style="stroke:#181818;stroke-width:1;"/><text fill="#000000" font-family="sans-serif" font-size="13" lengthAdjust="spacing" textLength="73.6328" x="319.84" y="487.3638">G&#7905; &#273;&#236;nh ch&#7881;</text></g><!--link Active to Deleted--><g class="link" data-entity-1="Active" data-entity-2="Deleted" data-source-line="35" data-uid="lnk11" id="link_Active_Deleted"><path d="M372.52,444.5469 C381.93,453.6869 392.55,464.2969 401.84,474.2969 C415.78,489.3169 426.8365,502.2747 438.2965,516.1947" fill="none" id="Active-to-Deleted" style="stroke:#181818;stroke-width:1;"/><polygon fill="#181818" points="442.11,520.8269,439.4778,511.3363,438.932,516.9667,433.3016,516.421,442.11,520.8269" style="stroke:#181818;stroke-width:1;"/><text fill="#000000" font-family="sans-serif" font-size="13" lengthAdjust="spacing" textLength="148.6812" x="416.84" y="487.3638">Ng&#432;&#7901;i d&#249;ng/Admin xo&#225;</text></g><!--link Deleted to *end*--><g class="link" data-entity-1="Deleted" data-entity-2=".end." data-source-line="36" data-uid="lnk13" id="link_Deleted_.end."><path d="M461.84,571.7569 C461.84,591.3369 461.84,611.7869 461.84,626.0969" fill="none" id="Deleted-to-*end*" style="stroke:#181818;stroke-width:1;"/><polygon fill="#181818" points="461.84,632.0969,465.84,623.0969,461.84,627.0969,457.84,623.0969,461.84,632.0969" style="stroke:#181818;stroke-width:1;"/></g><!--SRC=[RLBDIiD04BxFKmm8ee8KGOhq8DIAthIqwaKzX6HDLjFTiDdMgdZo8Dxq0GI3DxMWUDBWQOllaJTnrgOfAJs5sVdc-vb9VCP5v2YdWt7WUFAS2n-rwZA89mtjQ8PNWDYINU4rf19CuSeQFMn8vJ7LaA5KE5UjLkbfImhTvfSCLrRX6a1p7JBSKzbtOfa3a_0QxiT4K7TTejC0Xql7kBoyZWt5ICZ36WxlXpU4FZC_02Frl9TNJIOyCbgF8YLxJfY_rbtDUomlsjqu8bGniib2DY5eiLFcsXA4f59nFz0eJmePn6ReN31LmvvvacGx-_uaGxa24bkliibYxWkBYQZzpD4DilGHlUv5bjvg876qv03ZN3RZY84YZlYnRnBNqgSVxf5OO1s7XvNTlUPYQMWgRcb19Ii0qz2IPjthS45kpKlXSXP-l9nYGcVfwt-w1mvGT6SxQsVfmC5vzEdBCQIpqqpkm4uKTo7i0VzVNT8XSZCG0SQqZG0ca9BxxInDSFXWtWXepToLUFFx4cx7_tsdGt3qp9VmAwC8VMaI66CiddwwFm00]--></g></svg>